<?xml version="1.0" standalone="no"?>
 <!DOCTYPE svg PUBLIC "-//W3C//DTD SVG 1.1//EN" 
 "http://www.w3.org/Graphics/SVG/1.1/DTD/svg11.dtd"> 
<svg
  xmlns:svg="http://www.w3.org/2000/svg"
  xmlns="http://www.w3.org/2000/svg"
  xmlns:xlink="http://www.w3.org/1999/xlink"
  version="1.1"
  width="297.0022mm" height="210.0072mm" viewBox="0.0000 0.0000 297.0022 210.0072">
<title>SVG Image created as trinamic_wiring-TMC2209-TMC2209_BIDIRECTIONAL_COUPLED.svg date 2023/06/27 13:13:37 </title>
  <desc>Image generated by Eeschema-SVG </desc>
<g style="fill:#000000; fill-opacity:1.0000;stroke:#000000; stroke-opacity:1.0000;
stroke-linecap:round; stroke-linejoin:round;"
 transform="translate(0 0) scale(1 1)">
</g>
<g style="fill:#000000; fill-opacity:0.0; 
stroke:#000000; stroke-width:0.1524; stroke-opacity:1; 
stroke-linecap:round; stroke-linejoin:round;">
<g >
</g>
<g style="fill:#840000; fill-opacity:0.0; 
stroke:#840000; stroke-width:0.1524; stroke-opacity:1; 
stroke-linecap:round; stroke-linejoin:round;">
<rect x="77.470000" y="83.820000" width="20.320000" height="25.400000" rx="0.000000" />
<path d="M97.7900 106.6800
L100.3300 106.6800
" />
</g>
<g style="fill:#006464; fill-opacity:0.0; 
stroke:#006464; stroke-width:0.1524; stroke-opacity:1; 
stroke-linecap:round; stroke-linejoin:round;">
<text x="96.7740" y="107.3150"
textLength="2.6065" font-size="1.6933" lengthAdjust="spacingAndGlyphs"
text-anchor="end" opacity="0">RX</text>
<g class="stroked-text"><desc>RX</desc>
<path d="M95.2223 107.2595
L94.7990 106.6548
" />
<path d="M94.4966 107.2595
L94.4966 105.9895
" />
<path d="M94.4966 105.9895
L94.9804 105.9895
" />
<path d="M94.9804 105.9895
L95.1014 106.0500
" />
<path d="M95.1014 106.0500
L95.1619 106.1105
" />
<path d="M95.1619 106.1105
L95.2223 106.2314
" />
<path d="M95.2223 106.2314
L95.2223 106.4129
" />
<path d="M95.2223 106.4129
L95.1619 106.5338
" />
<path d="M95.1619 106.5338
L95.1014 106.5943
" />
<path d="M95.1014 106.5943
L94.9804 106.6548
" />
<path d="M94.9804 106.6548
L94.4966 106.6548
" />
<path d="M95.6457 105.9895
L96.4923 107.2595
" />
<path d="M96.4923 105.9895
L95.6457 107.2595
" />
</g></g>
<g style="fill:#840000; fill-opacity:0.0; 
stroke:#840000; stroke-width:0.1524; stroke-opacity:1; 
stroke-linecap:round; stroke-linejoin:round;">
<path d="M97.7900 87.6300
L100.3300 87.6300
" />
</g>
<g style="fill:#006464; fill-opacity:0.0; 
stroke:#006464; stroke-width:0.1524; stroke-opacity:1; 
stroke-linecap:round; stroke-linejoin:round;">
<text x="96.7740" y="88.2650"
textLength="2.3041" font-size="1.6933" lengthAdjust="spacingAndGlyphs"
text-anchor="end" opacity="0">TX</text>
<g class="stroked-text"><desc>TX</desc>
<path d="M94.6176 86.9395
L95.3433 86.9395
" />
<path d="M94.9805 88.2095
L94.9805 86.9395
" />
<path d="M95.6457 86.9395
L96.4923 88.2095
" />
<path d="M96.4923 86.9395
L95.6457 88.2095
" />
</g><text x="87.6300" y="97.2820"
textLength="17.5661" font-size="2.0320" lengthAdjust="spacingAndGlyphs"
text-anchor="middle" opacity="0">microcontroller</text>
<g class="stroked-text"><desc>microcontroller</desc>
<path d="M79.2479 97.2170
L79.2479 96.2010
" />
<path d="M79.2479 96.3462
L79.3205 96.2736
" />
<path d="M79.3205 96.2736
L79.4656 96.2010
" />
<path d="M79.4656 96.2010
L79.6833 96.2010
" />
<path d="M79.6833 96.2010
L79.8285 96.2736
" />
<path d="M79.8285 96.2736
L79.9011 96.4187
" />
<path d="M79.9011 96.4187
L79.9011 97.2170
" />
<path d="M79.9011 96.4187
L79.9736 96.2736
" />
<path d="M79.9736 96.2736
L80.1188 96.2010
" />
<path d="M80.1188 96.2010
L80.3365 96.2010
" />
<path d="M80.3365 96.2010
L80.4816 96.2736
" />
<path d="M80.4816 96.2736
L80.5542 96.4187
" />
<path d="M80.5542 96.4187
L80.5542 97.2170
" />
<path d="M81.2799 97.2170
L81.2799 96.2010
" />
<path d="M81.2799 95.6930
L81.2073 95.7656
" />
<path d="M81.2073 95.7656
L81.2799 95.8382
" />
<path d="M81.2799 95.8382
L81.3525 95.7656
" />
<path d="M81.3525 95.7656
L81.2799 95.6930
" />
<path d="M81.2799 95.6930
L81.2799 95.8382
" />
<path d="M82.6588 97.1445
L82.5136 97.2170
" />
<path d="M82.5136 97.2170
L82.2233 97.2170
" />
<path d="M82.2233 97.2170
L82.0782 97.1445
" />
<path d="M82.0782 97.1445
L82.0056 97.0719
" />
<path d="M82.0056 97.0719
L81.9330 96.9267
" />
<path d="M81.9330 96.9267
L81.9330 96.4913
" />
<path d="M81.9330 96.4913
L82.0056 96.3462
" />
<path d="M82.0056 96.3462
L82.0782 96.2736
" />
<path d="M82.0782 96.2736
L82.2233 96.2010
" />
<path d="M82.2233 96.2010
L82.5136 96.2010
" />
<path d="M82.5136 96.2010
L82.6588 96.2736
" />
<path d="M83.3119 97.2170
L83.3119 96.2010
" />
<path d="M83.3119 96.4913
L83.3845 96.3462
" />
<path d="M83.3845 96.3462
L83.4571 96.2736
" />
<path d="M83.4571 96.2736
L83.6022 96.2010
" />
<path d="M83.6022 96.2010
L83.7473 96.2010
" />
<path d="M84.4730 97.2170
L84.3279 97.1445
" />
<path d="M84.3279 97.1445
L84.2553 97.0719
" />
<path d="M84.2553 97.0719
L84.1827 96.9267
" />
<path d="M84.1827 96.9267
L84.1827 96.4913
" />
<path d="M84.1827 96.4913
L84.2553 96.3462
" />
<path d="M84.2553 96.3462
L84.3279 96.2736
" />
<path d="M84.3279 96.2736
L84.4730 96.2010
" />
<path d="M84.4730 96.2010
L84.6907 96.2010
" />
<path d="M84.6907 96.2010
L84.8359 96.2736
" />
<path d="M84.8359 96.2736
L84.9085 96.3462
" />
<path d="M84.9085 96.3462
L84.9810 96.4913
" />
<path d="M84.9810 96.4913
L84.9810 96.9267
" />
<path d="M84.9810 96.9267
L84.9085 97.0719
" />
<path d="M84.9085 97.0719
L84.8359 97.1445
" />
<path d="M84.8359 97.1445
L84.6907 97.2170
" />
<path d="M84.6907 97.2170
L84.4730 97.2170
" />
<path d="M86.2874 97.1445
L86.1422 97.2170
" />
<path d="M86.1422 97.2170
L85.8519 97.2170
" />
<path d="M85.8519 97.2170
L85.7068 97.1445
" />
<path d="M85.7068 97.1445
L85.6342 97.0719
" />
<path d="M85.6342 97.0719
L85.5616 96.9267
" />
<path d="M85.5616 96.9267
L85.5616 96.4913
" />
<path d="M85.5616 96.4913
L85.6342 96.3462
" />
<path d="M85.6342 96.3462
L85.7068 96.2736
" />
<path d="M85.7068 96.2736
L85.8519 96.2010
" />
<path d="M85.8519 96.2010
L86.1422 96.2010
" />
<path d="M86.1422 96.2010
L86.2874 96.2736
" />
<path d="M87.1582 97.2170
L87.0131 97.1445
" />
<path d="M87.0131 97.1445
L86.9405 97.0719
" />
<path d="M86.9405 97.0719
L86.8679 96.9267
" />
<path d="M86.8679 96.9267
L86.8679 96.4913
" />
<path d="M86.8679 96.4913
L86.9405 96.3462
" />
<path d="M86.9405 96.3462
L87.0131 96.2736
" />
<path d="M87.0131 96.2736
L87.1582 96.2010
" />
<path d="M87.1582 96.2010
L87.3759 96.2010
" />
<path d="M87.3759 96.2010
L87.5211 96.2736
" />
<path d="M87.5211 96.2736
L87.5937 96.3462
" />
<path d="M87.5937 96.3462
L87.6662 96.4913
" />
<path d="M87.6662 96.4913
L87.6662 96.9267
" />
<path d="M87.6662 96.9267
L87.5937 97.0719
" />
<path d="M87.5937 97.0719
L87.5211 97.1445
" />
<path d="M87.5211 97.1445
L87.3759 97.2170
" />
<path d="M87.3759 97.2170
L87.1582 97.2170
" />
<path d="M88.3194 96.2010
L88.3194 97.2170
" />
<path d="M88.3194 96.3462
L88.3920 96.2736
" />
<path d="M88.3920 96.2736
L88.5371 96.2010
" />
<path d="M88.5371 96.2010
L88.7548 96.2010
" />
<path d="M88.7548 96.2010
L88.9000 96.2736
" />
<path d="M88.9000 96.2736
L88.9726 96.4187
" />
<path d="M88.9726 96.4187
L88.9726 97.2170
" />
<path d="M89.4806 96.2010
L90.0612 96.2010
" />
<path d="M89.6983 95.6930
L89.6983 96.9993
" />
<path d="M89.6983 96.9993
L89.7709 97.1445
" />
<path d="M89.7709 97.1445
L89.9160 97.2170
" />
<path d="M89.9160 97.2170
L90.0612 97.2170
" />
<path d="M90.5692 97.2170
L90.5692 96.2010
" />
<path d="M90.5692 96.4913
L90.6418 96.3462
" />
<path d="M90.6418 96.3462
L90.7144 96.2736
" />
<path d="M90.7144 96.2736
L90.8595 96.2010
" />
<path d="M90.8595 96.2010
L91.0046 96.2010
" />
<path d="M91.7303 97.2170
L91.5852 97.1445
" />
<path d="M91.5852 97.1445
L91.5126 97.0719
" />
<path d="M91.5126 97.0719
L91.4400 96.9267
" />
<path d="M91.4400 96.9267
L91.4400 96.4913
" />
<path d="M91.4400 96.4913
L91.5126 96.3462
" />
<path d="M91.5126 96.3462
L91.5852 96.2736
" />
<path d="M91.5852 96.2736
L91.7303 96.2010
" />
<path d="M91.7303 96.2010
L91.9480 96.2010
" />
<path d="M91.9480 96.2010
L92.0932 96.2736
" />
<path d="M92.0932 96.2736
L92.1658 96.3462
" />
<path d="M92.1658 96.3462
L92.2383 96.4913
" />
<path d="M92.2383 96.4913
L92.2383 96.9267
" />
<path d="M92.2383 96.9267
L92.1658 97.0719
" />
<path d="M92.1658 97.0719
L92.0932 97.1445
" />
<path d="M92.0932 97.1445
L91.9480 97.2170
" />
<path d="M91.9480 97.2170
L91.7303 97.2170
" />
<path d="M93.1092 97.2170
L92.9641 97.1445
" />
<path d="M92.9641 97.1445
L92.8915 96.9993
" />
<path d="M92.8915 96.9993
L92.8915 95.6930
" />
<path d="M93.9075 97.2170
L93.7624 97.1445
" />
<path d="M93.7624 97.1445
L93.6898 96.9993
" />
<path d="M93.6898 96.9993
L93.6898 95.6930
" />
<path d="M95.0687 97.1445
L94.9235 97.2170
" />
<path d="M94.9235 97.2170
L94.6333 97.2170
" />
<path d="M94.6333 97.2170
L94.4881 97.1445
" />
<path d="M94.4881 97.1445
L94.4155 96.9993
" />
<path d="M94.4155 96.9993
L94.4155 96.4187
" />
<path d="M94.4155 96.4187
L94.4881 96.2736
" />
<path d="M94.4881 96.2736
L94.6333 96.2010
" />
<path d="M94.6333 96.2010
L94.9235 96.2010
" />
<path d="M94.9235 96.2010
L95.0687 96.2736
" />
<path d="M95.0687 96.2736
L95.1413 96.4187
" />
<path d="M95.1413 96.4187
L95.1413 96.5639
" />
<path d="M95.1413 96.5639
L94.4155 96.7090
" />
<path d="M95.7944 97.2170
L95.7944 96.2010
" />
<path d="M95.7944 96.4913
L95.8670 96.3462
" />
<path d="M95.8670 96.3462
L95.9396 96.2736
" />
<path d="M95.9396 96.2736
L96.0847 96.2010
" />
<path d="M96.0847 96.2010
L96.2298 96.2010
" />
</g></g>
</g>
<g style="fill:#006464; fill-opacity:0.0; 
stroke:#006464; stroke-width:0.1524; stroke-opacity:1; 
stroke-linecap:round; stroke-linejoin:round;">
<g >
</g>
<g style="fill:#840000; fill-opacity:0.0; 
stroke:#840000; stroke-width:0.1524; stroke-opacity:1; 
stroke-linecap:round; stroke-linejoin:round;">
</g>
<g style="fill:#840000; fill-opacity:0.0; 
stroke:#840000; stroke-width:0.3048; stroke-opacity:1; 
stroke-linecap:round; stroke-linejoin:round;">
<rect x="101.854000" y="92.710000" width="2.032000" height="7.620000" rx="0.000000" />
</g>
<g style="fill:#840000; fill-opacity:0.0; 
stroke:#840000; stroke-width:0.1524; stroke-opacity:1; 
stroke-linecap:round; stroke-linejoin:round;">
<path d="M102.8700 92.7100
L102.8700 90.1700
" />
<path d="M102.8700 100.3300
L102.8700 102.8700
" />
</g>
<g style="fill:#006464; fill-opacity:0.0; 
stroke:#006464; stroke-width:0.1524; stroke-opacity:1; 
stroke-linecap:round; stroke-linejoin:round;">
<g transform="rotate(-90.000000 102.8700 96.5200)">
<text x="102.8700" y="96.9010"
textLength="1.5712" font-size="1.0160" lengthAdjust="spacingAndGlyphs"
text-anchor="middle" opacity="0">1k</text>
</g>
<g class="stroked-text"><desc>1k</desc>
<path d="M103.2145 96.6107
L103.2145 97.0461
" />
<path d="M103.2145 96.8284
L102.4525 96.8284
" />
<path d="M102.4525 96.8284
L102.5614 96.9010
" />
<path d="M102.5614 96.9010
L102.6340 96.9735
" />
<path d="M102.6340 96.9735
L102.6703 97.0461
" />
<path d="M103.2145 96.2841
L102.4525 96.2841
" />
<path d="M102.9243 96.2116
L103.2145 95.9938
" />
<path d="M102.7065 95.9938
L102.9968 96.2841
" />
</g></g>
</g>
<g style="fill:#006464; fill-opacity:0.0; 
stroke:#006464; stroke-width:0.1524; stroke-opacity:1; 
stroke-linecap:round; stroke-linejoin:round;">
<g >
</g>
<g style="fill:#840000; fill-opacity:0.0; 
stroke:#840000; stroke-width:0.1524; stroke-opacity:1; 
stroke-linecap:round; stroke-linejoin:round;">
<rect x="128.270000" y="52.070000" width="20.320000" height="25.400000" rx="0.000000" />
<path d="M138.4300 77.4700
L138.4300 80.0100
" />
</g>
<g style="fill:#006464; fill-opacity:0.0; 
stroke:#006464; stroke-width:0.1524; stroke-opacity:1; 
stroke-linecap:round; stroke-linejoin:round;">
<g transform="rotate(-90.000000 138.4300 76.4540)">
<text x="138.4300" y="77.0890"
textLength="9.6218" font-size="1.6933" lengthAdjust="spacingAndGlyphs"
text-anchor="start" opacity="0">PDN_UART</text>
</g>
<g class="stroked-text"><desc>PDN_UART</desc>
<path d="M139.0095 76.0514
L137.7395 76.0514
" />
<path d="M137.7395 76.0514
L137.7395 75.5676
" />
<path d="M137.7395 75.5676
L137.8000 75.4466
" />
<path d="M137.8000 75.4466
L137.8605 75.3861
" />
<path d="M137.8605 75.3861
L137.9814 75.3257
" />
<path d="M137.9814 75.3257
L138.1629 75.3257
" />
<path d="M138.1629 75.3257
L138.2838 75.3861
" />
<path d="M138.2838 75.3861
L138.3443 75.4466
" />
<path d="M138.3443 75.4466
L138.4048 75.5676
" />
<path d="M138.4048 75.5676
L138.4048 76.0514
" />
<path d="M139.0095 74.7814
L137.7395 74.7814
" />
<path d="M137.7395 74.7814
L137.7395 74.4790
" />
<path d="M137.7395 74.4790
L137.8000 74.2976
" />
<path d="M137.8000 74.2976
L137.9210 74.1766
" />
<path d="M137.9210 74.1766
L138.0419 74.1161
" />
<path d="M138.0419 74.1161
L138.2838 74.0557
" />
<path d="M138.2838 74.0557
L138.4652 74.0557
" />
<path d="M138.4652 74.0557
L138.7071 74.1161
" />
<path d="M138.7071 74.1161
L138.8281 74.1766
" />
<path d="M138.8281 74.1766
L138.9491 74.2976
" />
<path d="M138.9491 74.2976
L139.0095 74.4790
" />
<path d="M139.0095 74.4790
L139.0095 74.7814
" />
<path d="M139.0095 73.5114
L137.7395 73.5114
" />
<path d="M137.7395 73.5114
L139.0095 72.7857
" />
<path d="M139.0095 72.7857
L137.7395 72.7857
" />
<path d="M139.1305 72.4833
L139.1305 71.5156
" />
<path d="M137.7395 71.2133
L138.7676 71.2133
" />
<path d="M138.7676 71.2133
L138.8886 71.1528
" />
<path d="M138.8886 71.1528
L138.9491 71.0923
" />
<path d="M138.9491 71.0923
L139.0095 70.9714
" />
<path d="M139.0095 70.9714
L139.0095 70.7295
" />
<path d="M139.0095 70.7295
L138.9491 70.6085
" />
<path d="M138.9491 70.6085
L138.8886 70.5480
" />
<path d="M138.8886 70.5480
L138.7676 70.4876
" />
<path d="M138.7676 70.4876
L137.7395 70.4876
" />
<path d="M138.6467 69.9432
L138.6467 69.3385
" />
<path d="M139.0095 70.0642
L137.7395 69.6409
" />
<path d="M137.7395 69.6409
L139.0095 69.2175
" />
<path d="M139.0095 68.0685
L138.4048 68.4918
" />
<path d="M139.0095 68.7942
L137.7395 68.7942
" />
<path d="M137.7395 68.7942
L137.7395 68.3104
" />
<path d="M137.7395 68.3104
L137.8000 68.1894
" />
<path d="M137.8000 68.1894
L137.8605 68.1289
" />
<path d="M137.8605 68.1289
L137.9814 68.0685
" />
<path d="M137.9814 68.0685
L138.1629 68.0685
" />
<path d="M138.1629 68.0685
L138.2838 68.1289
" />
<path d="M138.2838 68.1289
L138.3443 68.1894
" />
<path d="M138.3443 68.1894
L138.4048 68.3104
" />
<path d="M138.4048 68.3104
L138.4048 68.7942
" />
<path d="M137.7395 67.7056
L137.7395 66.9799
" />
<path d="M139.0095 67.3427
L137.7395 67.3427
" />
</g><text x="138.4300" y="65.5320"
textLength="10.3086" font-size="2.0320" lengthAdjust="spacingAndGlyphs"
text-anchor="middle" opacity="0">TMC2209</text>
<g class="stroked-text"><desc>TMC2209</desc>
<path d="M133.4589 63.9430
L134.3298 63.9430
" />
<path d="M133.8943 65.4670
L133.8943 63.9430
" />
<path d="M134.8377 65.4670
L134.8377 63.9430
" />
<path d="M134.8377 63.9430
L135.3457 65.0316
" />
<path d="M135.3457 65.0316
L135.8537 63.9430
" />
<path d="M135.8537 63.9430
L135.8537 65.4670
" />
<path d="M137.4503 65.3219
L137.3777 65.3945
" />
<path d="M137.3777 65.3945
L137.1600 65.4670
" />
<path d="M137.1600 65.4670
L137.0148 65.4670
" />
<path d="M137.0148 65.4670
L136.7971 65.3945
" />
<path d="M136.7971 65.3945
L136.6520 65.2493
" />
<path d="M136.6520 65.2493
L136.5794 65.1042
" />
<path d="M136.5794 65.1042
L136.5068 64.8139
" />
<path d="M136.5068 64.8139
L136.5068 64.5962
" />
<path d="M136.5068 64.5962
L136.5794 64.3059
" />
<path d="M136.5794 64.3059
L136.6520 64.1607
" />
<path d="M136.6520 64.1607
L136.7971 64.0156
" />
<path d="M136.7971 64.0156
L137.0148 63.9430
" />
<path d="M137.0148 63.9430
L137.1600 63.9430
" />
<path d="M137.1600 63.9430
L137.3777 64.0156
" />
<path d="M137.3777 64.0156
L137.4503 64.0882
" />
<path d="M138.0308 64.0882
L138.1034 64.0156
" />
<path d="M138.1034 64.0156
L138.2486 63.9430
" />
<path d="M138.2486 63.9430
L138.6114 63.9430
" />
<path d="M138.6114 63.9430
L138.7566 64.0156
" />
<path d="M138.7566 64.0156
L138.8291 64.0882
" />
<path d="M138.8291 64.0882
L138.9017 64.2333
" />
<path d="M138.9017 64.2333
L138.9017 64.3785
" />
<path d="M138.9017 64.3785
L138.8291 64.5962
" />
<path d="M138.8291 64.5962
L137.9583 65.4670
" />
<path d="M137.9583 65.4670
L138.9017 65.4670
" />
<path d="M139.4822 64.0882
L139.5548 64.0156
" />
<path d="M139.5548 64.0156
L139.7000 63.9430
" />
<path d="M139.7000 63.9430
L140.0628 63.9430
" />
<path d="M140.0628 63.9430
L140.2080 64.0156
" />
<path d="M140.2080 64.0156
L140.2805 64.0882
" />
<path d="M140.2805 64.0882
L140.3531 64.2333
" />
<path d="M140.3531 64.2333
L140.3531 64.3785
" />
<path d="M140.3531 64.3785
L140.2805 64.5962
" />
<path d="M140.2805 64.5962
L139.4097 65.4670
" />
<path d="M139.4097 65.4670
L140.3531 65.4670
" />
<path d="M141.2965 63.9430
L141.4416 63.9430
" />
<path d="M141.4416 63.9430
L141.5868 64.0156
" />
<path d="M141.5868 64.0156
L141.6594 64.0882
" />
<path d="M141.6594 64.0882
L141.7319 64.2333
" />
<path d="M141.7319 64.2333
L141.8045 64.5236
" />
<path d="M141.8045 64.5236
L141.8045 64.8865
" />
<path d="M141.8045 64.8865
L141.7319 65.1767
" />
<path d="M141.7319 65.1767
L141.6594 65.3219
" />
<path d="M141.6594 65.3219
L141.5868 65.3945
" />
<path d="M141.5868 65.3945
L141.4416 65.4670
" />
<path d="M141.4416 65.4670
L141.2965 65.4670
" />
<path d="M141.2965 65.4670
L141.1514 65.3945
" />
<path d="M141.1514 65.3945
L141.0788 65.3219
" />
<path d="M141.0788 65.3219
L141.0062 65.1767
" />
<path d="M141.0062 65.1767
L140.9336 64.8865
" />
<path d="M140.9336 64.8865
L140.9336 64.5236
" />
<path d="M140.9336 64.5236
L141.0062 64.2333
" />
<path d="M141.0062 64.2333
L141.0788 64.0882
" />
<path d="M141.0788 64.0882
L141.1514 64.0156
" />
<path d="M141.1514 64.0156
L141.2965 63.9430
" />
<path d="M142.5302 65.4670
L142.8205 65.4670
" />
<path d="M142.8205 65.4670
L142.9656 65.3945
" />
<path d="M142.9656 65.3945
L143.0382 65.3219
" />
<path d="M143.0382 65.3219
L143.1833 65.1042
" />
<path d="M143.1833 65.1042
L143.2559 64.8139
" />
<path d="M143.2559 64.8139
L143.2559 64.2333
" />
<path d="M143.2559 64.2333
L143.1833 64.0882
" />
<path d="M143.1833 64.0882
L143.1108 64.0156
" />
<path d="M143.1108 64.0156
L142.9656 63.9430
" />
<path d="M142.9656 63.9430
L142.6753 63.9430
" />
<path d="M142.6753 63.9430
L142.5302 64.0156
" />
<path d="M142.5302 64.0156
L142.4576 64.0882
" />
<path d="M142.4576 64.0882
L142.3850 64.2333
" />
<path d="M142.3850 64.2333
L142.3850 64.5962
" />
<path d="M142.3850 64.5962
L142.4576 64.7413
" />
<path d="M142.4576 64.7413
L142.5302 64.8139
" />
<path d="M142.5302 64.8139
L142.6753 64.8865
" />
<path d="M142.6753 64.8865
L142.9656 64.8865
" />
<path d="M142.9656 64.8865
L143.1108 64.8139
" />
<path d="M143.1108 64.8139
L143.1833 64.7413
" />
<path d="M143.1833 64.7413
L143.2559 64.5962
" />
</g></g>
</g>
<g style="fill:#006464; fill-opacity:0.0; 
stroke:#006464; stroke-width:0.1524; stroke-opacity:1; 
stroke-linecap:round; stroke-linejoin:round;">
</g>
<g style="fill:#009600; fill-opacity:0.0; 
stroke:#009600; stroke-width:0.1524; stroke-opacity:1; 
stroke-linecap:round; stroke-linejoin:round;">
<path d="M100.3300 106.6800
L102.8700 106.6800
" />
<path d="M100.3300 87.6300
L102.8700 87.6300
" />
<path d="M102.8700 102.8700
L102.8700 106.6800
" />
<path d="M102.8700 106.6800
L138.4300 106.6800
" />
<path d="M102.8700 87.6300
L102.8700 90.1700
" />
<path d="M138.4300 80.0100
L138.4300 106.6800
" />
</g>
<g style="fill:#009600; fill-opacity:1.0000; 
stroke:#009600; stroke-width:0.1524; stroke-opacity:1; 
stroke-linecap:round; stroke-linejoin:round;">
<circle cx="102.8700" cy="106.6800" r="0.4572" /> 
</g> 
</svg>
