<?xml version="1.0" encoding="UTF-8" standalone="no"?>
<svg
   version="1.1"
   width="71.2724mm"
   height="57.302399mm"
   viewBox="0 0 71.272401 57.302398"
   id="svg95359"
   sodipodi:docname="TMC2209_unidirectional.svg"
   xmlns:inkscape="http://www.inkscape.org/namespaces/inkscape"
   xmlns:sodipodi="http://sodipodi.sourceforge.net/DTD/sodipodi-0.dtd"
   xmlns="http://www.w3.org/2000/svg"
   xmlns:svg="http://www.w3.org/2000/svg">
  <defs
     id="defs95363" />
  <sodipodi:namedview
     id="namedview95361"
     pagecolor="#ffffff"
     bordercolor="#666666"
     borderopacity="1.0"
     inkscape:showpageshadow="2"
     inkscape:pageopacity="0.0"
     inkscape:pagecheckerboard="0"
     inkscape:deskcolor="#d1d1d1"
     inkscape:document-units="mm" />
  <title
     id="title94709">SVG Image created as trinamic_wiring-TMC2209-TMC2209_UNIDIRECTIONAL.svg date 2023/06/27 13:13:37 </title>
  <desc
     id="desc94711">Image generated by Eeschema-SVG </desc>
  <g
     style="fill:#000000;fill-opacity:1;stroke:#000000;stroke-linecap:round;stroke-linejoin:round;stroke-opacity:1"
     id="g94713"
     transform="translate(-77.393801,-51.9938)" />
  <g
     style="fill:#000000;fill-opacity:0;stroke:#000000;stroke-width:0.1524;stroke-linecap:round;stroke-linejoin:round;stroke-opacity:1"
     id="g95051"
     transform="translate(-77.393801,-51.9938)">
    <g
       id="g94715" />
    <g
       style="fill:#840000;fill-opacity:0;stroke:#840000;stroke-width:0.1524;stroke-linecap:round;stroke-linejoin:round;stroke-opacity:1"
       id="g94721">
      <rect
         x="77.470001"
         y="83.82"
         width="20.32"
         height="25.4"
         rx="0.000000"
         id="rect94717" />
      <path
         d="m 97.79,106.68 h 2.54"
         id="path94719" />
    </g>
    <g
       style="fill:#006464;fill-opacity:0;stroke:#006464;stroke-width:0.1524;stroke-linecap:round;stroke-linejoin:round;stroke-opacity:1"
       id="g94755">
      <text
         x="96.774002"
         y="107.315"
         textLength="2.6064999"
         font-size="1.6933px"
         lengthAdjust="spacingAndGlyphs"
         text-anchor="end"
         opacity="0"
         id="text94723">RX</text>
      <g
         class="stroked-text"
         id="g94753">
        <desc
           id="desc94725">RX</desc>
        <path
           d="M 95.2223,107.2595 94.799,106.6548"
           id="path94727" />
        <path
           d="m 94.4966,107.2595 v -1.27"
           id="path94729" />
        <path
           d="m 94.4966,105.9895 h 0.4838"
           id="path94731" />
        <path
           d="m 94.9804,105.9895 0.121,0.0605"
           id="path94733" />
        <path
           d="m 95.1014,106.05 0.0605,0.0605"
           id="path94735" />
        <path
           d="m 95.1619,106.1105 0.0604,0.1209"
           id="path94737" />
        <path
           d="m 95.2223,106.2314 v 0.1815"
           id="path94739" />
        <path
           d="m 95.2223,106.4129 -0.0604,0.1209"
           id="path94741" />
        <path
           d="m 95.1619,106.5338 -0.0605,0.0605"
           id="path94743" />
        <path
           d="m 95.1014,106.5943 -0.121,0.0605"
           id="path94745" />
        <path
           d="M 94.9804,106.6548 H 94.4966"
           id="path94747" />
        <path
           d="m 95.6457,105.9895 0.8466,1.27"
           id="path94749" />
        <path
           d="m 96.4923,105.9895 -0.8466,1.27"
           id="path94751" />
      </g>
    </g>
    <g
       style="fill:#840000;fill-opacity:0;stroke:#840000;stroke-width:0.1524;stroke-linecap:round;stroke-linejoin:round;stroke-opacity:1"
       id="g94759">
      <path
         d="m 97.79,87.63 h 2.54"
         id="path94757" />
    </g>
    <g
       style="fill:#006464;fill-opacity:0;stroke:#006464;stroke-width:0.1524;stroke-linecap:round;stroke-linejoin:round;stroke-opacity:1"
       id="g95049">
      <text
         x="96.774002"
         y="88.264999"
         textLength="2.3041"
         font-size="1.6933px"
         lengthAdjust="spacingAndGlyphs"
         text-anchor="end"
         opacity="0"
         id="text94761">TX</text>
      <g
         class="stroked-text"
         id="g94773">
        <desc
           id="desc94763">TX</desc>
        <path
           d="m 94.6176,86.9395 h 0.7257"
           id="path94765" />
        <path
           d="m 94.9805,88.2095 v -1.27"
           id="path94767" />
        <path
           d="m 95.6457,86.9395 0.8466,1.27"
           id="path94769" />
        <path
           d="m 96.4923,86.9395 -0.8466,1.27"
           id="path94771" />
      </g>
      <text
         x="87.629997"
         y="97.281998"
         textLength="17.566099"
         font-size="2.032px"
         lengthAdjust="spacingAndGlyphs"
         text-anchor="middle"
         opacity="0"
         id="text94775">microcontroller</text>
      <g
         class="stroked-text"
         id="g95047">
        <desc
           id="desc94777">microcontroller</desc>
        <path
           d="M 79.2479,97.217 V 96.201"
           id="path94779" />
        <path
           d="m 79.2479,96.3462 0.0726,-0.0726"
           id="path94781" />
        <path
           d="M 79.3205,96.2736 79.4656,96.201"
           id="path94783" />
        <path
           d="m 79.4656,96.201 h 0.2177"
           id="path94785" />
        <path
           d="m 79.6833,96.201 0.1452,0.0726"
           id="path94787" />
        <path
           d="m 79.8285,96.2736 0.0726,0.1451"
           id="path94789" />
        <path
           d="M 79.9011,96.4187 V 97.217"
           id="path94791" />
        <path
           d="m 79.9011,96.4187 0.0725,-0.1451"
           id="path94793" />
        <path
           d="M 79.9736,96.2736 80.1188,96.201"
           id="path94795" />
        <path
           d="m 80.1188,96.201 h 0.2177"
           id="path94797" />
        <path
           d="m 80.3365,96.201 0.1451,0.0726"
           id="path94799" />
        <path
           d="m 80.4816,96.2736 0.0726,0.1451"
           id="path94801" />
        <path
           d="M 80.5542,96.4187 V 97.217"
           id="path94803" />
        <path
           d="M 81.2799,97.217 V 96.201"
           id="path94805" />
        <path
           d="m 81.2799,95.693 -0.0726,0.0726"
           id="path94807" />
        <path
           d="m 81.2073,95.7656 0.0726,0.0726"
           id="path94809" />
        <path
           d="m 81.2799,95.8382 0.0726,-0.0726"
           id="path94811" />
        <path
           d="M 81.3525,95.7656 81.2799,95.693"
           id="path94813" />
        <path
           d="m 81.2799,95.693 v 0.1452"
           id="path94815" />
        <path
           d="M 82.6588,97.1445 82.5136,97.217"
           id="path94817" />
        <path
           d="M 82.5136,97.217 H 82.2233"
           id="path94819" />
        <path
           d="M 82.2233,97.217 82.0782,97.1445"
           id="path94821" />
        <path
           d="M 82.0782,97.1445 82.0056,97.0719"
           id="path94823" />
        <path
           d="M 82.0056,97.0719 81.933,96.9267"
           id="path94825" />
        <path
           d="M 81.933,96.9267 V 96.4913"
           id="path94827" />
        <path
           d="m 81.933,96.4913 0.0726,-0.1451"
           id="path94829" />
        <path
           d="m 82.0056,96.3462 0.0726,-0.0726"
           id="path94831" />
        <path
           d="M 82.0782,96.2736 82.2233,96.201"
           id="path94833" />
        <path
           d="m 82.2233,96.201 h 0.2903"
           id="path94835" />
        <path
           d="m 82.5136,96.201 0.1452,0.0726"
           id="path94837" />
        <path
           d="M 83.3119,97.217 V 96.201"
           id="path94839" />
        <path
           d="m 83.3119,96.4913 0.0726,-0.1451"
           id="path94841" />
        <path
           d="m 83.3845,96.3462 0.0726,-0.0726"
           id="path94843" />
        <path
           d="M 83.4571,96.2736 83.6022,96.201"
           id="path94845" />
        <path
           d="m 83.6022,96.201 h 0.1451"
           id="path94847" />
        <path
           d="M 84.473,97.217 84.3279,97.1445"
           id="path94849" />
        <path
           d="M 84.3279,97.1445 84.2553,97.0719"
           id="path94851" />
        <path
           d="M 84.2553,97.0719 84.1827,96.9267"
           id="path94853" />
        <path
           d="M 84.1827,96.9267 V 96.4913"
           id="path94855" />
        <path
           d="m 84.1827,96.4913 0.0726,-0.1451"
           id="path94857" />
        <path
           d="m 84.2553,96.3462 0.0726,-0.0726"
           id="path94859" />
        <path
           d="M 84.3279,96.2736 84.473,96.201"
           id="path94861" />
        <path
           d="m 84.473,96.201 h 0.2177"
           id="path94863" />
        <path
           d="m 84.6907,96.201 0.1452,0.0726"
           id="path94865" />
        <path
           d="m 84.8359,96.2736 0.0726,0.0726"
           id="path94867" />
        <path
           d="m 84.9085,96.3462 0.0725,0.1451"
           id="path94869" />
        <path
           d="m 84.981,96.4913 v 0.4354"
           id="path94871" />
        <path
           d="m 84.981,96.9267 -0.0725,0.1452"
           id="path94873" />
        <path
           d="m 84.9085,97.0719 -0.0726,0.0726"
           id="path94875" />
        <path
           d="M 84.8359,97.1445 84.6907,97.217"
           id="path94877" />
        <path
           d="M 84.6907,97.217 H 84.473"
           id="path94879" />
        <path
           d="M 86.2874,97.1445 86.1422,97.217"
           id="path94881" />
        <path
           d="M 86.1422,97.217 H 85.8519"
           id="path94883" />
        <path
           d="M 85.8519,97.217 85.7068,97.1445"
           id="path94885" />
        <path
           d="M 85.7068,97.1445 85.6342,97.0719"
           id="path94887" />
        <path
           d="M 85.6342,97.0719 85.5616,96.9267"
           id="path94889" />
        <path
           d="M 85.5616,96.9267 V 96.4913"
           id="path94891" />
        <path
           d="m 85.5616,96.4913 0.0726,-0.1451"
           id="path94893" />
        <path
           d="m 85.6342,96.3462 0.0726,-0.0726"
           id="path94895" />
        <path
           d="M 85.7068,96.2736 85.8519,96.201"
           id="path94897" />
        <path
           d="m 85.8519,96.201 h 0.2903"
           id="path94899" />
        <path
           d="m 86.1422,96.201 0.1452,0.0726"
           id="path94901" />
        <path
           d="M 87.1582,97.217 87.0131,97.1445"
           id="path94903" />
        <path
           d="M 87.0131,97.1445 86.9405,97.0719"
           id="path94905" />
        <path
           d="M 86.9405,97.0719 86.8679,96.9267"
           id="path94907" />
        <path
           d="M 86.8679,96.9267 V 96.4913"
           id="path94909" />
        <path
           d="m 86.8679,96.4913 0.0726,-0.1451"
           id="path94911" />
        <path
           d="m 86.9405,96.3462 0.0726,-0.0726"
           id="path94913" />
        <path
           d="M 87.0131,96.2736 87.1582,96.201"
           id="path94915" />
        <path
           d="m 87.1582,96.201 h 0.2177"
           id="path94917" />
        <path
           d="m 87.3759,96.201 0.1452,0.0726"
           id="path94919" />
        <path
           d="m 87.5211,96.2736 0.0726,0.0726"
           id="path94921" />
        <path
           d="m 87.5937,96.3462 0.0725,0.1451"
           id="path94923" />
        <path
           d="m 87.6662,96.4913 v 0.4354"
           id="path94925" />
        <path
           d="m 87.6662,96.9267 -0.0725,0.1452"
           id="path94927" />
        <path
           d="m 87.5937,97.0719 -0.0726,0.0726"
           id="path94929" />
        <path
           d="M 87.5211,97.1445 87.3759,97.217"
           id="path94931" />
        <path
           d="M 87.3759,97.217 H 87.1582"
           id="path94933" />
        <path
           d="m 88.3194,96.201 v 1.016"
           id="path94935" />
        <path
           d="M 88.3194,96.3462 88.392,96.2736"
           id="path94937" />
        <path
           d="M 88.392,96.2736 88.5371,96.201"
           id="path94939" />
        <path
           d="m 88.5371,96.201 h 0.2177"
           id="path94941" />
        <path
           d="M 88.7548,96.201 88.9,96.2736"
           id="path94943" />
        <path
           d="m 88.9,96.2736 0.0726,0.1451"
           id="path94945" />
        <path
           d="M 88.9726,96.4187 V 97.217"
           id="path94947" />
        <path
           d="m 89.4806,96.201 h 0.5806"
           id="path94949" />
        <path
           d="m 89.6983,95.693 v 1.3063"
           id="path94951" />
        <path
           d="m 89.6983,96.9993 0.0726,0.1452"
           id="path94953" />
        <path
           d="M 89.7709,97.1445 89.916,97.217"
           id="path94955" />
        <path
           d="m 89.916,97.217 h 0.1452"
           id="path94957" />
        <path
           d="M 90.5692,97.217 V 96.201"
           id="path94959" />
        <path
           d="m 90.5692,96.4913 0.0726,-0.1451"
           id="path94961" />
        <path
           d="m 90.6418,96.3462 0.0726,-0.0726"
           id="path94963" />
        <path
           d="M 90.7144,96.2736 90.8595,96.201"
           id="path94965" />
        <path
           d="m 90.8595,96.201 h 0.1451"
           id="path94967" />
        <path
           d="M 91.7303,97.217 91.5852,97.1445"
           id="path94969" />
        <path
           d="M 91.5852,97.1445 91.5126,97.0719"
           id="path94971" />
        <path
           d="M 91.5126,97.0719 91.44,96.9267"
           id="path94973" />
        <path
           d="M 91.44,96.9267 V 96.4913"
           id="path94975" />
        <path
           d="m 91.44,96.4913 0.0726,-0.1451"
           id="path94977" />
        <path
           d="m 91.5126,96.3462 0.0726,-0.0726"
           id="path94979" />
        <path
           d="M 91.5852,96.2736 91.7303,96.201"
           id="path94981" />
        <path
           d="M 91.7303,96.201 H 91.948"
           id="path94983" />
        <path
           d="m 91.948,96.201 0.1452,0.0726"
           id="path94985" />
        <path
           d="m 92.0932,96.2736 0.0726,0.0726"
           id="path94987" />
        <path
           d="m 92.1658,96.3462 0.0725,0.1451"
           id="path94989" />
        <path
           d="m 92.2383,96.4913 v 0.4354"
           id="path94991" />
        <path
           d="m 92.2383,96.9267 -0.0725,0.1452"
           id="path94993" />
        <path
           d="m 92.1658,97.0719 -0.0726,0.0726"
           id="path94995" />
        <path
           d="M 92.0932,97.1445 91.948,97.217"
           id="path94997" />
        <path
           d="M 91.948,97.217 H 91.7303"
           id="path94999" />
        <path
           d="M 93.1092,97.217 92.9641,97.1445"
           id="path95001" />
        <path
           d="M 92.9641,97.1445 92.8915,96.9993"
           id="path95003" />
        <path
           d="M 92.8915,96.9993 V 95.693"
           id="path95005" />
        <path
           d="M 93.9075,97.217 93.7624,97.1445"
           id="path95007" />
        <path
           d="M 93.7624,97.1445 93.6898,96.9993"
           id="path95009" />
        <path
           d="M 93.6898,96.9993 V 95.693"
           id="path95011" />
        <path
           d="M 95.0687,97.1445 94.9235,97.217"
           id="path95013" />
        <path
           d="M 94.9235,97.217 H 94.6333"
           id="path95015" />
        <path
           d="M 94.6333,97.217 94.4881,97.1445"
           id="path95017" />
        <path
           d="M 94.4881,97.1445 94.4155,96.9993"
           id="path95019" />
        <path
           d="M 94.4155,96.9993 V 96.4187"
           id="path95021" />
        <path
           d="m 94.4155,96.4187 0.0726,-0.1451"
           id="path95023" />
        <path
           d="M 94.4881,96.2736 94.6333,96.201"
           id="path95025" />
        <path
           d="m 94.6333,96.201 h 0.2902"
           id="path95027" />
        <path
           d="m 94.9235,96.201 0.1452,0.0726"
           id="path95029" />
        <path
           d="m 95.0687,96.2736 0.0726,0.1451"
           id="path95031" />
        <path
           d="m 95.1413,96.4187 v 0.1452"
           id="path95033" />
        <path
           d="M 95.1413,96.5639 94.4155,96.709"
           id="path95035" />
        <path
           d="M 95.7944,97.217 V 96.201"
           id="path95037" />
        <path
           d="M 95.7944,96.4913 95.867,96.3462"
           id="path95039" />
        <path
           d="m 95.867,96.3462 0.0726,-0.0726"
           id="path95041" />
        <path
           d="M 95.9396,96.2736 96.0847,96.201"
           id="path95043" />
        <path
           d="m 96.0847,96.201 h 0.1451"
           id="path95045" />
      </g>
    </g>
  </g>
  <g
     style="fill:#006464;fill-opacity:0;stroke:#006464;stroke-width:0.1524;stroke-linecap:round;stroke-linejoin:round;stroke-opacity:1"
     id="g95343"
     transform="translate(-77.393801,-51.9938)">
    <g
       id="g95053" />
    <g
       style="fill:#840000;fill-opacity:0;stroke:#840000;stroke-width:0.1524;stroke-linecap:round;stroke-linejoin:round;stroke-opacity:1"
       id="g95059">
      <rect
         x="128.27"
         y="52.07"
         width="20.32"
         height="25.4"
         rx="0.000000"
         id="rect95055" />
      <path
         d="m 138.43,77.47 v 2.54"
         id="path95057" />
    </g>
    <g
       style="fill:#006464;fill-opacity:0;stroke:#006464;stroke-width:0.1524;stroke-linecap:round;stroke-linejoin:round;stroke-opacity:1"
       id="g95341">
      <g
         transform="rotate(-90,138.43,76.454)"
         id="g95063">
        <text
           x="138.42999"
           y="77.088997"
           textLength="9.6218004"
           font-size="1.6933px"
           lengthAdjust="spacingAndGlyphs"
           text-anchor="start"
           opacity="0"
           id="text95061">PDN_UART</text>
      </g>
      <g
         class="stroked-text"
         id="g95169">
        <desc
           id="desc95065">PDN_UART</desc>
        <path
           d="m 139.0095,76.0514 h -1.27"
           id="path95067" />
        <path
           d="M 137.7395,76.0514 V 75.5676"
           id="path95069" />
        <path
           d="M 137.7395,75.5676 137.8,75.4466"
           id="path95071" />
        <path
           d="m 137.8,75.4466 0.0605,-0.0605"
           id="path95073" />
        <path
           d="m 137.8605,75.3861 0.1209,-0.0604"
           id="path95075" />
        <path
           d="m 137.9814,75.3257 h 0.1815"
           id="path95077" />
        <path
           d="m 138.1629,75.3257 0.1209,0.0604"
           id="path95079" />
        <path
           d="m 138.2838,75.3861 0.0605,0.0605"
           id="path95081" />
        <path
           d="m 138.3443,75.4466 0.0605,0.121"
           id="path95083" />
        <path
           d="m 138.4048,75.5676 v 0.4838"
           id="path95085" />
        <path
           d="m 139.0095,74.7814 h -1.27"
           id="path95087" />
        <path
           d="M 137.7395,74.7814 V 74.479"
           id="path95089" />
        <path
           d="M 137.7395,74.479 137.8,74.2976"
           id="path95091" />
        <path
           d="m 137.8,74.2976 0.121,-0.121"
           id="path95093" />
        <path
           d="m 137.921,74.1766 0.1209,-0.0605"
           id="path95095" />
        <path
           d="m 138.0419,74.1161 0.2419,-0.0604"
           id="path95097" />
        <path
           d="m 138.2838,74.0557 h 0.1814"
           id="path95099" />
        <path
           d="m 138.4652,74.0557 0.2419,0.0604"
           id="path95101" />
        <path
           d="m 138.7071,74.1161 0.121,0.0605"
           id="path95103" />
        <path
           d="m 138.8281,74.1766 0.121,0.121"
           id="path95105" />
        <path
           d="m 138.9491,74.2976 0.0604,0.1814"
           id="path95107" />
        <path
           d="m 139.0095,74.479 v 0.3024"
           id="path95109" />
        <path
           d="m 139.0095,73.5114 h -1.27"
           id="path95111" />
        <path
           d="m 137.7395,73.5114 1.27,-0.7257"
           id="path95113" />
        <path
           d="m 139.0095,72.7857 h -1.27"
           id="path95115" />
        <path
           d="M 139.1305,72.4833 V 71.5156"
           id="path95117" />
        <path
           d="m 137.7395,71.2133 h 1.0281"
           id="path95119" />
        <path
           d="m 138.7676,71.2133 0.121,-0.0605"
           id="path95121" />
        <path
           d="m 138.8886,71.1528 0.0605,-0.0605"
           id="path95123" />
        <path
           d="m 138.9491,71.0923 0.0604,-0.1209"
           id="path95125" />
        <path
           d="M 139.0095,70.9714 V 70.7295"
           id="path95127" />
        <path
           d="m 139.0095,70.7295 -0.0604,-0.121"
           id="path95129" />
        <path
           d="M 138.9491,70.6085 138.8886,70.548"
           id="path95131" />
        <path
           d="m 138.8886,70.548 -0.121,-0.0604"
           id="path95133" />
        <path
           d="m 138.7676,70.4876 h -1.0281"
           id="path95135" />
        <path
           d="M 138.6467,69.9432 V 69.3385"
           id="path95137" />
        <path
           d="m 139.0095,70.0642 -1.27,-0.4233"
           id="path95139" />
        <path
           d="m 137.7395,69.6409 1.27,-0.4234"
           id="path95141" />
        <path
           d="m 139.0095,68.0685 -0.6047,0.4233"
           id="path95143" />
        <path
           d="m 139.0095,68.7942 h -1.27"
           id="path95145" />
        <path
           d="M 137.7395,68.7942 V 68.3104"
           id="path95147" />
        <path
           d="M 137.7395,68.3104 137.8,68.1894"
           id="path95149" />
        <path
           d="m 137.8,68.1894 0.0605,-0.0605"
           id="path95151" />
        <path
           d="m 137.8605,68.1289 0.1209,-0.0604"
           id="path95153" />
        <path
           d="m 137.9814,68.0685 h 0.1815"
           id="path95155" />
        <path
           d="m 138.1629,68.0685 0.1209,0.0604"
           id="path95157" />
        <path
           d="m 138.2838,68.1289 0.0605,0.0605"
           id="path95159" />
        <path
           d="m 138.3443,68.1894 0.0605,0.121"
           id="path95161" />
        <path
           d="m 138.4048,68.3104 v 0.4838"
           id="path95163" />
        <path
           d="M 137.7395,67.7056 V 66.9799"
           id="path95165" />
        <path
           d="m 139.0095,67.3427 h -1.27"
           id="path95167" />
      </g>
      <text
         x="138.42999"
         y="65.531998"
         textLength="10.3086"
         font-size="2.032px"
         lengthAdjust="spacingAndGlyphs"
         text-anchor="middle"
         opacity="0"
         id="text95171">TMC2209</text>
      <g
         class="stroked-text"
         id="g95339">
        <desc
           id="desc95173">TMC2209</desc>
        <path
           d="m 133.4589,63.943 h 0.8709"
           id="path95175" />
        <path
           d="M 133.8943,65.467 V 63.943"
           id="path95177" />
        <path
           d="M 134.8377,65.467 V 63.943"
           id="path95179" />
        <path
           d="m 134.8377,63.943 0.508,1.0886"
           id="path95181" />
        <path
           d="m 135.3457,65.0316 0.508,-1.0886"
           id="path95183" />
        <path
           d="m 135.8537,63.943 v 1.524"
           id="path95185" />
        <path
           d="m 137.4503,65.3219 -0.0726,0.0726"
           id="path95187" />
        <path
           d="M 137.3777,65.3945 137.16,65.467"
           id="path95189" />
        <path
           d="m 137.16,65.467 h -0.1452"
           id="path95191" />
        <path
           d="m 137.0148,65.467 -0.2177,-0.0725"
           id="path95193" />
        <path
           d="M 136.7971,65.3945 136.652,65.2493"
           id="path95195" />
        <path
           d="m 136.652,65.2493 -0.0726,-0.1451"
           id="path95197" />
        <path
           d="m 136.5794,65.1042 -0.0726,-0.2903"
           id="path95199" />
        <path
           d="M 136.5068,64.8139 V 64.5962"
           id="path95201" />
        <path
           d="m 136.5068,64.5962 0.0726,-0.2903"
           id="path95203" />
        <path
           d="m 136.5794,64.3059 0.0726,-0.1452"
           id="path95205" />
        <path
           d="m 136.652,64.1607 0.1451,-0.1451"
           id="path95207" />
        <path
           d="m 136.7971,64.0156 0.2177,-0.0726"
           id="path95209" />
        <path
           d="M 137.0148,63.943 H 137.16"
           id="path95211" />
        <path
           d="m 137.16,63.943 0.2177,0.0726"
           id="path95213" />
        <path
           d="m 137.3777,64.0156 0.0726,0.0726"
           id="path95215" />
        <path
           d="m 138.0308,64.0882 0.0726,-0.0726"
           id="path95217" />
        <path
           d="m 138.1034,64.0156 0.1452,-0.0726"
           id="path95219" />
        <path
           d="m 138.2486,63.943 h 0.3628"
           id="path95221" />
        <path
           d="m 138.6114,63.943 0.1452,0.0726"
           id="path95223" />
        <path
           d="m 138.7566,64.0156 0.0725,0.0726"
           id="path95225" />
        <path
           d="m 138.8291,64.0882 0.0726,0.1451"
           id="path95227" />
        <path
           d="m 138.9017,64.2333 v 0.1452"
           id="path95229" />
        <path
           d="m 138.9017,64.3785 -0.0726,0.2177"
           id="path95231" />
        <path
           d="m 138.8291,64.5962 -0.8708,0.8708"
           id="path95233" />
        <path
           d="m 137.9583,65.467 h 0.9434"
           id="path95235" />
        <path
           d="m 139.4822,64.0882 0.0726,-0.0726"
           id="path95237" />
        <path
           d="M 139.5548,64.0156 139.7,63.943"
           id="path95239" />
        <path
           d="m 139.7,63.943 h 0.3628"
           id="path95241" />
        <path
           d="m 140.0628,63.943 0.1452,0.0726"
           id="path95243" />
        <path
           d="m 140.208,64.0156 0.0725,0.0726"
           id="path95245" />
        <path
           d="m 140.2805,64.0882 0.0726,0.1451"
           id="path95247" />
        <path
           d="m 140.3531,64.2333 v 0.1452"
           id="path95249" />
        <path
           d="m 140.3531,64.3785 -0.0726,0.2177"
           id="path95251" />
        <path
           d="m 140.2805,64.5962 -0.8708,0.8708"
           id="path95253" />
        <path
           d="m 139.4097,65.467 h 0.9434"
           id="path95255" />
        <path
           d="m 141.2965,63.943 h 0.1451"
           id="path95257" />
        <path
           d="m 141.4416,63.943 0.1452,0.0726"
           id="path95259" />
        <path
           d="m 141.5868,64.0156 0.0726,0.0726"
           id="path95261" />
        <path
           d="m 141.6594,64.0882 0.0725,0.1451"
           id="path95263" />
        <path
           d="m 141.7319,64.2333 0.0726,0.2903"
           id="path95265" />
        <path
           d="m 141.8045,64.5236 v 0.3629"
           id="path95267" />
        <path
           d="m 141.8045,64.8865 -0.0726,0.2902"
           id="path95269" />
        <path
           d="m 141.7319,65.1767 -0.0725,0.1452"
           id="path95271" />
        <path
           d="m 141.6594,65.3219 -0.0726,0.0726"
           id="path95273" />
        <path
           d="m 141.5868,65.3945 -0.1452,0.0725"
           id="path95275" />
        <path
           d="m 141.4416,65.467 h -0.1451"
           id="path95277" />
        <path
           d="m 141.2965,65.467 -0.1451,-0.0725"
           id="path95279" />
        <path
           d="m 141.1514,65.3945 -0.0726,-0.0726"
           id="path95281" />
        <path
           d="m 141.0788,65.3219 -0.0726,-0.1452"
           id="path95283" />
        <path
           d="m 141.0062,65.1767 -0.0726,-0.2902"
           id="path95285" />
        <path
           d="M 140.9336,64.8865 V 64.5236"
           id="path95287" />
        <path
           d="m 140.9336,64.5236 0.0726,-0.2903"
           id="path95289" />
        <path
           d="m 141.0062,64.2333 0.0726,-0.1451"
           id="path95291" />
        <path
           d="m 141.0788,64.0882 0.0726,-0.0726"
           id="path95293" />
        <path
           d="m 141.1514,64.0156 0.1451,-0.0726"
           id="path95295" />
        <path
           d="m 142.5302,65.467 h 0.2903"
           id="path95297" />
        <path
           d="m 142.8205,65.467 0.1451,-0.0725"
           id="path95299" />
        <path
           d="m 142.9656,65.3945 0.0726,-0.0726"
           id="path95301" />
        <path
           d="m 143.0382,65.3219 0.1451,-0.2177"
           id="path95303" />
        <path
           d="m 143.1833,65.1042 0.0726,-0.2903"
           id="path95305" />
        <path
           d="M 143.2559,64.8139 V 64.2333"
           id="path95307" />
        <path
           d="m 143.2559,64.2333 -0.0726,-0.1451"
           id="path95309" />
        <path
           d="m 143.1833,64.0882 -0.0725,-0.0726"
           id="path95311" />
        <path
           d="M 143.1108,64.0156 142.9656,63.943"
           id="path95313" />
        <path
           d="m 142.9656,63.943 h -0.2903"
           id="path95315" />
        <path
           d="m 142.6753,63.943 -0.1451,0.0726"
           id="path95317" />
        <path
           d="m 142.5302,64.0156 -0.0726,0.0726"
           id="path95319" />
        <path
           d="m 142.4576,64.0882 -0.0726,0.1451"
           id="path95321" />
        <path
           d="m 142.385,64.2333 v 0.3629"
           id="path95323" />
        <path
           d="m 142.385,64.5962 0.0726,0.1451"
           id="path95325" />
        <path
           d="m 142.4576,64.7413 0.0726,0.0726"
           id="path95327" />
        <path
           d="m 142.5302,64.8139 0.1451,0.0726"
           id="path95329" />
        <path
           d="m 142.6753,64.8865 h 0.2903"
           id="path95331" />
        <path
           d="m 142.9656,64.8865 0.1452,-0.0726"
           id="path95333" />
        <path
           d="m 143.1108,64.8139 0.0725,-0.0726"
           id="path95335" />
        <path
           d="m 143.1833,64.7413 0.0726,-0.1451"
           id="path95337" />
      </g>
    </g>
  </g>
  <g
     style="fill:#006464;fill-opacity:0;stroke:#006464;stroke-width:0.1524;stroke-linecap:round;stroke-linejoin:round;stroke-opacity:1"
     id="g95345"
     transform="translate(-77.393801,-51.9938)" />
  <g
     style="fill:#009600;fill-opacity:0;stroke:#009600;stroke-width:0.1524;stroke-linecap:round;stroke-linejoin:round;stroke-opacity:1"
     id="g95351"
     transform="translate(-77.393801,-51.9938)">
    <path
       d="m 138.43,80.01 v 7.62"
       id="path95347" />
    <path
       d="m 100.33,87.63 h 38.1"
       id="path95349" />
  </g>
  <g
     style="fill:#000084;fill-opacity:0;stroke:#000084;stroke-width:0.1524;stroke-linecap:round;stroke-linejoin:round;stroke-opacity:1"
     id="g95357"
     transform="translate(-77.393801,-51.9938)">
    <path
       d="m 99.7204,106.0704 1.2192,1.2192"
       id="path95353" />
    <path
       d="m 100.9396,106.0704 -1.2192,1.2192"
       id="path95355" />
  </g>
</svg>
