<?xml version="1.0" standalone="no"?>
 <!DOCTYPE svg PUBLIC "-//W3C//DTD SVG 1.1//EN" 
 "http://www.w3.org/Graphics/SVG/1.1/DTD/svg11.dtd"> 
<svg
  xmlns:svg="http://www.w3.org/2000/svg"
  xmlns="http://www.w3.org/2000/svg"
  xmlns:xlink="http://www.w3.org/1999/xlink"
  version="1.1"
  width="297.0022mm" height="210.0072mm" viewBox="0.0000 0.0000 297.0022 210.0072">
<title>SVG Image created as trinamic_wiring-TMC2209-TMC2209_UNIDIRECTIONAL_SERIAL_ADDRESS.svg date 2023/06/27 13:13:37 </title>
  <desc>Image generated by Eeschema-SVG </desc>
<g style="fill:#000000; fill-opacity:1.0000;stroke:#000000; stroke-opacity:1.0000;
stroke-linecap:round; stroke-linejoin:round;"
 transform="translate(0 0) scale(1 1)">
</g>
<g style="fill:#000000; fill-opacity:0.0; 
stroke:#000000; stroke-width:0.1524; stroke-opacity:1; 
stroke-linecap:round; stroke-linejoin:round;">
</g>
<g style="fill:#000000; fill-opacity:0.0; 
stroke:#000000; stroke-width:0.1588; stroke-opacity:1; 
stroke-linecap:round; stroke-linejoin:round;">
</g>
<g style="fill:#000000; fill-opacity:0.0; 
stroke:#000000; stroke-width:0.1524; stroke-opacity:1; 
stroke-linecap:round; stroke-linejoin:round;">
<g >
</g>
<g style="fill:#840000; fill-opacity:0.0; 
stroke:#840000; stroke-width:0.1524; stroke-opacity:1; 
stroke-linecap:round; stroke-linejoin:round;">
<rect x="77.470000" y="83.820000" width="20.320000" height="25.400000" rx="0.000000" />
<path d="M97.7900 106.6800
L100.3300 106.6800
" />
</g>
<g style="fill:#006464; fill-opacity:0.0; 
stroke:#006464; stroke-width:0.1524; stroke-opacity:1; 
stroke-linecap:round; stroke-linejoin:round;">
<text x="96.7740" y="107.3150"
textLength="2.6065" font-size="1.6933" lengthAdjust="spacingAndGlyphs"
text-anchor="end" opacity="0">RX</text>
<g class="stroked-text"><desc>RX</desc>
<path d="M95.2223 107.2595
L94.7990 106.6548
" />
<path d="M94.4966 107.2595
L94.4966 105.9895
" />
<path d="M94.4966 105.9895
L94.9804 105.9895
" />
<path d="M94.9804 105.9895
L95.1014 106.0500
" />
<path d="M95.1014 106.0500
L95.1619 106.1105
" />
<path d="M95.1619 106.1105
L95.2223 106.2314
" />
<path d="M95.2223 106.2314
L95.2223 106.4129
" />
<path d="M95.2223 106.4129
L95.1619 106.5338
" />
<path d="M95.1619 106.5338
L95.1014 106.5943
" />
<path d="M95.1014 106.5943
L94.9804 106.6548
" />
<path d="M94.9804 106.6548
L94.4966 106.6548
" />
<path d="M95.6457 105.9895
L96.4923 107.2595
" />
<path d="M96.4923 105.9895
L95.6457 107.2595
" />
</g></g>
<g style="fill:#840000; fill-opacity:0.0; 
stroke:#840000; stroke-width:0.1524; stroke-opacity:1; 
stroke-linecap:round; stroke-linejoin:round;">
<path d="M97.7900 87.6300
L100.3300 87.6300
" />
</g>
<g style="fill:#006464; fill-opacity:0.0; 
stroke:#006464; stroke-width:0.1524; stroke-opacity:1; 
stroke-linecap:round; stroke-linejoin:round;">
<text x="96.7740" y="88.2650"
textLength="2.3041" font-size="1.6933" lengthAdjust="spacingAndGlyphs"
text-anchor="end" opacity="0">TX</text>
<g class="stroked-text"><desc>TX</desc>
<path d="M94.6176 86.9395
L95.3433 86.9395
" />
<path d="M94.9805 88.2095
L94.9805 86.9395
" />
<path d="M95.6457 86.9395
L96.4923 88.2095
" />
<path d="M96.4923 86.9395
L95.6457 88.2095
" />
</g><text x="87.6300" y="97.2820"
textLength="17.5661" font-size="2.0320" lengthAdjust="spacingAndGlyphs"
text-anchor="middle" opacity="0">microcontroller</text>
<g class="stroked-text"><desc>microcontroller</desc>
<path d="M79.2479 97.2170
L79.2479 96.2010
" />
<path d="M79.2479 96.3462
L79.3205 96.2736
" />
<path d="M79.3205 96.2736
L79.4656 96.2010
" />
<path d="M79.4656 96.2010
L79.6833 96.2010
" />
<path d="M79.6833 96.2010
L79.8285 96.2736
" />
<path d="M79.8285 96.2736
L79.9011 96.4187
" />
<path d="M79.9011 96.4187
L79.9011 97.2170
" />
<path d="M79.9011 96.4187
L79.9736 96.2736
" />
<path d="M79.9736 96.2736
L80.1188 96.2010
" />
<path d="M80.1188 96.2010
L80.3365 96.2010
" />
<path d="M80.3365 96.2010
L80.4816 96.2736
" />
<path d="M80.4816 96.2736
L80.5542 96.4187
" />
<path d="M80.5542 96.4187
L80.5542 97.2170
" />
<path d="M81.2799 97.2170
L81.2799 96.2010
" />
<path d="M81.2799 95.6930
L81.2073 95.7656
" />
<path d="M81.2073 95.7656
L81.2799 95.8382
" />
<path d="M81.2799 95.8382
L81.3525 95.7656
" />
<path d="M81.3525 95.7656
L81.2799 95.6930
" />
<path d="M81.2799 95.6930
L81.2799 95.8382
" />
<path d="M82.6588 97.1445
L82.5136 97.2170
" />
<path d="M82.5136 97.2170
L82.2233 97.2170
" />
<path d="M82.2233 97.2170
L82.0782 97.1445
" />
<path d="M82.0782 97.1445
L82.0056 97.0719
" />
<path d="M82.0056 97.0719
L81.9330 96.9267
" />
<path d="M81.9330 96.9267
L81.9330 96.4913
" />
<path d="M81.9330 96.4913
L82.0056 96.3462
" />
<path d="M82.0056 96.3462
L82.0782 96.2736
" />
<path d="M82.0782 96.2736
L82.2233 96.2010
" />
<path d="M82.2233 96.2010
L82.5136 96.2010
" />
<path d="M82.5136 96.2010
L82.6588 96.2736
" />
<path d="M83.3119 97.2170
L83.3119 96.2010
" />
<path d="M83.3119 96.4913
L83.3845 96.3462
" />
<path d="M83.3845 96.3462
L83.4571 96.2736
" />
<path d="M83.4571 96.2736
L83.6022 96.2010
" />
<path d="M83.6022 96.2010
L83.7473 96.2010
" />
<path d="M84.4730 97.2170
L84.3279 97.1445
" />
<path d="M84.3279 97.1445
L84.2553 97.0719
" />
<path d="M84.2553 97.0719
L84.1827 96.9267
" />
<path d="M84.1827 96.9267
L84.1827 96.4913
" />
<path d="M84.1827 96.4913
L84.2553 96.3462
" />
<path d="M84.2553 96.3462
L84.3279 96.2736
" />
<path d="M84.3279 96.2736
L84.4730 96.2010
" />
<path d="M84.4730 96.2010
L84.6907 96.2010
" />
<path d="M84.6907 96.2010
L84.8359 96.2736
" />
<path d="M84.8359 96.2736
L84.9085 96.3462
" />
<path d="M84.9085 96.3462
L84.9810 96.4913
" />
<path d="M84.9810 96.4913
L84.9810 96.9267
" />
<path d="M84.9810 96.9267
L84.9085 97.0719
" />
<path d="M84.9085 97.0719
L84.8359 97.1445
" />
<path d="M84.8359 97.1445
L84.6907 97.2170
" />
<path d="M84.6907 97.2170
L84.4730 97.2170
" />
<path d="M86.2874 97.1445
L86.1422 97.2170
" />
<path d="M86.1422 97.2170
L85.8519 97.2170
" />
<path d="M85.8519 97.2170
L85.7068 97.1445
" />
<path d="M85.7068 97.1445
L85.6342 97.0719
" />
<path d="M85.6342 97.0719
L85.5616 96.9267
" />
<path d="M85.5616 96.9267
L85.5616 96.4913
" />
<path d="M85.5616 96.4913
L85.6342 96.3462
" />
<path d="M85.6342 96.3462
L85.7068 96.2736
" />
<path d="M85.7068 96.2736
L85.8519 96.2010
" />
<path d="M85.8519 96.2010
L86.1422 96.2010
" />
<path d="M86.1422 96.2010
L86.2874 96.2736
" />
<path d="M87.1582 97.2170
L87.0131 97.1445
" />
<path d="M87.0131 97.1445
L86.9405 97.0719
" />
<path d="M86.9405 97.0719
L86.8679 96.9267
" />
<path d="M86.8679 96.9267
L86.8679 96.4913
" />
<path d="M86.8679 96.4913
L86.9405 96.3462
" />
<path d="M86.9405 96.3462
L87.0131 96.2736
" />
<path d="M87.0131 96.2736
L87.1582 96.2010
" />
<path d="M87.1582 96.2010
L87.3759 96.2010
" />
<path d="M87.3759 96.2010
L87.5211 96.2736
" />
<path d="M87.5211 96.2736
L87.5937 96.3462
" />
<path d="M87.5937 96.3462
L87.6662 96.4913
" />
<path d="M87.6662 96.4913
L87.6662 96.9267
" />
<path d="M87.6662 96.9267
L87.5937 97.0719
" />
<path d="M87.5937 97.0719
L87.5211 97.1445
" />
<path d="M87.5211 97.1445
L87.3759 97.2170
" />
<path d="M87.3759 97.2170
L87.1582 97.2170
" />
<path d="M88.3194 96.2010
L88.3194 97.2170
" />
<path d="M88.3194 96.3462
L88.3920 96.2736
" />
<path d="M88.3920 96.2736
L88.5371 96.2010
" />
<path d="M88.5371 96.2010
L88.7548 96.2010
" />
<path d="M88.7548 96.2010
L88.9000 96.2736
" />
<path d="M88.9000 96.2736
L88.9726 96.4187
" />
<path d="M88.9726 96.4187
L88.9726 97.2170
" />
<path d="M89.4806 96.2010
L90.0612 96.2010
" />
<path d="M89.6983 95.6930
L89.6983 96.9993
" />
<path d="M89.6983 96.9993
L89.7709 97.1445
" />
<path d="M89.7709 97.1445
L89.9160 97.2170
" />
<path d="M89.9160 97.2170
L90.0612 97.2170
" />
<path d="M90.5692 97.2170
L90.5692 96.2010
" />
<path d="M90.5692 96.4913
L90.6418 96.3462
" />
<path d="M90.6418 96.3462
L90.7144 96.2736
" />
<path d="M90.7144 96.2736
L90.8595 96.2010
" />
<path d="M90.8595 96.2010
L91.0046 96.2010
" />
<path d="M91.7303 97.2170
L91.5852 97.1445
" />
<path d="M91.5852 97.1445
L91.5126 97.0719
" />
<path d="M91.5126 97.0719
L91.4400 96.9267
" />
<path d="M91.4400 96.9267
L91.4400 96.4913
" />
<path d="M91.4400 96.4913
L91.5126 96.3462
" />
<path d="M91.5126 96.3462
L91.5852 96.2736
" />
<path d="M91.5852 96.2736
L91.7303 96.2010
" />
<path d="M91.7303 96.2010
L91.9480 96.2010
" />
<path d="M91.9480 96.2010
L92.0932 96.2736
" />
<path d="M92.0932 96.2736
L92.1658 96.3462
" />
<path d="M92.1658 96.3462
L92.2383 96.4913
" />
<path d="M92.2383 96.4913
L92.2383 96.9267
" />
<path d="M92.2383 96.9267
L92.1658 97.0719
" />
<path d="M92.1658 97.0719
L92.0932 97.1445
" />
<path d="M92.0932 97.1445
L91.9480 97.2170
" />
<path d="M91.9480 97.2170
L91.7303 97.2170
" />
<path d="M93.1092 97.2170
L92.9641 97.1445
" />
<path d="M92.9641 97.1445
L92.8915 96.9993
" />
<path d="M92.8915 96.9993
L92.8915 95.6930
" />
<path d="M93.9075 97.2170
L93.7624 97.1445
" />
<path d="M93.7624 97.1445
L93.6898 96.9993
" />
<path d="M93.6898 96.9993
L93.6898 95.6930
" />
<path d="M95.0687 97.1445
L94.9235 97.2170
" />
<path d="M94.9235 97.2170
L94.6333 97.2170
" />
<path d="M94.6333 97.2170
L94.4881 97.1445
" />
<path d="M94.4881 97.1445
L94.4155 96.9993
" />
<path d="M94.4155 96.9993
L94.4155 96.4187
" />
<path d="M94.4155 96.4187
L94.4881 96.2736
" />
<path d="M94.4881 96.2736
L94.6333 96.2010
" />
<path d="M94.6333 96.2010
L94.9235 96.2010
" />
<path d="M94.9235 96.2010
L95.0687 96.2736
" />
<path d="M95.0687 96.2736
L95.1413 96.4187
" />
<path d="M95.1413 96.4187
L95.1413 96.5639
" />
<path d="M95.1413 96.5639
L94.4155 96.7090
" />
<path d="M95.7944 97.2170
L95.7944 96.2010
" />
<path d="M95.7944 96.4913
L95.8670 96.3462
" />
<path d="M95.8670 96.3462
L95.9396 96.2736
" />
<path d="M95.9396 96.2736
L96.0847 96.2010
" />
<path d="M96.0847 96.2010
L96.2298 96.2010
" />
</g></g>
</g>
<g style="fill:#006464; fill-opacity:0.0; 
stroke:#006464; stroke-width:0.1524; stroke-opacity:1; 
stroke-linecap:round; stroke-linejoin:round;">
<g >
</g>
<g style="fill:#840000; fill-opacity:0.0; 
stroke:#840000; stroke-width:0.1524; stroke-opacity:1; 
stroke-linecap:round; stroke-linejoin:round;">
<rect x="128.270000" y="52.070000" width="20.320000" height="25.400000" rx="0.000000" />
<path d="M138.4300 77.4700
L138.4300 80.0100
" />
</g>
<g style="fill:#006464; fill-opacity:0.0; 
stroke:#006464; stroke-width:0.1524; stroke-opacity:1; 
stroke-linecap:round; stroke-linejoin:round;">
<g transform="rotate(-90.000000 138.4300 76.4540)">
<text x="138.4300" y="77.0890"
textLength="9.6218" font-size="1.6933" lengthAdjust="spacingAndGlyphs"
text-anchor="start" opacity="0">PDN_UART</text>
</g>
<g class="stroked-text"><desc>PDN_UART</desc>
<path d="M139.0095 76.0514
L137.7395 76.0514
" />
<path d="M137.7395 76.0514
L137.7395 75.5676
" />
<path d="M137.7395 75.5676
L137.8000 75.4466
" />
<path d="M137.8000 75.4466
L137.8605 75.3861
" />
<path d="M137.8605 75.3861
L137.9814 75.3257
" />
<path d="M137.9814 75.3257
L138.1629 75.3257
" />
<path d="M138.1629 75.3257
L138.2838 75.3861
" />
<path d="M138.2838 75.3861
L138.3443 75.4466
" />
<path d="M138.3443 75.4466
L138.4048 75.5676
" />
<path d="M138.4048 75.5676
L138.4048 76.0514
" />
<path d="M139.0095 74.7814
L137.7395 74.7814
" />
<path d="M137.7395 74.7814
L137.7395 74.4790
" />
<path d="M137.7395 74.4790
L137.8000 74.2976
" />
<path d="M137.8000 74.2976
L137.9210 74.1766
" />
<path d="M137.9210 74.1766
L138.0419 74.1161
" />
<path d="M138.0419 74.1161
L138.2838 74.0557
" />
<path d="M138.2838 74.0557
L138.4652 74.0557
" />
<path d="M138.4652 74.0557
L138.7071 74.1161
" />
<path d="M138.7071 74.1161
L138.8281 74.1766
" />
<path d="M138.8281 74.1766
L138.9491 74.2976
" />
<path d="M138.9491 74.2976
L139.0095 74.4790
" />
<path d="M139.0095 74.4790
L139.0095 74.7814
" />
<path d="M139.0095 73.5114
L137.7395 73.5114
" />
<path d="M137.7395 73.5114
L139.0095 72.7857
" />
<path d="M139.0095 72.7857
L137.7395 72.7857
" />
<path d="M139.1305 72.4833
L139.1305 71.5156
" />
<path d="M137.7395 71.2133
L138.7676 71.2133
" />
<path d="M138.7676 71.2133
L138.8886 71.1528
" />
<path d="M138.8886 71.1528
L138.9491 71.0923
" />
<path d="M138.9491 71.0923
L139.0095 70.9714
" />
<path d="M139.0095 70.9714
L139.0095 70.7295
" />
<path d="M139.0095 70.7295
L138.9491 70.6085
" />
<path d="M138.9491 70.6085
L138.8886 70.5480
" />
<path d="M138.8886 70.5480
L138.7676 70.4876
" />
<path d="M138.7676 70.4876
L137.7395 70.4876
" />
<path d="M138.6467 69.9432
L138.6467 69.3385
" />
<path d="M139.0095 70.0642
L137.7395 69.6409
" />
<path d="M137.7395 69.6409
L139.0095 69.2175
" />
<path d="M139.0095 68.0685
L138.4048 68.4918
" />
<path d="M139.0095 68.7942
L137.7395 68.7942
" />
<path d="M137.7395 68.7942
L137.7395 68.3104
" />
<path d="M137.7395 68.3104
L137.8000 68.1894
" />
<path d="M137.8000 68.1894
L137.8605 68.1289
" />
<path d="M137.8605 68.1289
L137.9814 68.0685
" />
<path d="M137.9814 68.0685
L138.1629 68.0685
" />
<path d="M138.1629 68.0685
L138.2838 68.1289
" />
<path d="M138.2838 68.1289
L138.3443 68.1894
" />
<path d="M138.3443 68.1894
L138.4048 68.3104
" />
<path d="M138.4048 68.3104
L138.4048 68.7942
" />
<path d="M137.7395 67.7056
L137.7395 66.9799
" />
<path d="M139.0095 67.3427
L137.7395 67.3427
" />
</g></g>
<g style="fill:#840000; fill-opacity:0.0; 
stroke:#840000; stroke-width:0.1524; stroke-opacity:1; 
stroke-linecap:round; stroke-linejoin:round;">
<path d="M133.3500 77.4700
L133.3500 80.0100
" />
</g>
<g style="fill:#006464; fill-opacity:0.0; 
stroke:#006464; stroke-width:0.1524; stroke-opacity:1; 
stroke-linecap:round; stroke-linejoin:round;">
<g transform="rotate(-90.000000 133.3500 76.4540)">
<text x="133.3500" y="77.0890"
textLength="8.5331" font-size="1.6933" lengthAdjust="spacingAndGlyphs"
text-anchor="start" opacity="0">MS2_AD1</text>
</g>
<g class="stroked-text"><desc>MS2_AD1</desc>
<path d="M133.9295 76.0514
L132.6595 76.0514
" />
<path d="M132.6595 76.0514
L133.5667 75.6280
" />
<path d="M133.5667 75.6280
L132.6595 75.2047
" />
<path d="M132.6595 75.2047
L133.9295 75.2047
" />
<path d="M133.8691 74.6604
L133.9295 74.4790
" />
<path d="M133.9295 74.4790
L133.9295 74.1766
" />
<path d="M133.9295 74.1766
L133.8691 74.0557
" />
<path d="M133.8691 74.0557
L133.8086 73.9952
" />
<path d="M133.8086 73.9952
L133.6876 73.9347
" />
<path d="M133.6876 73.9347
L133.5667 73.9347
" />
<path d="M133.5667 73.9347
L133.4457 73.9952
" />
<path d="M133.4457 73.9952
L133.3852 74.0557
" />
<path d="M133.3852 74.0557
L133.3248 74.1766
" />
<path d="M133.3248 74.1766
L133.2643 74.4185
" />
<path d="M133.2643 74.4185
L133.2038 74.5395
" />
<path d="M133.2038 74.5395
L133.1433 74.6000
" />
<path d="M133.1433 74.6000
L133.0224 74.6604
" />
<path d="M133.0224 74.6604
L132.9014 74.6604
" />
<path d="M132.9014 74.6604
L132.7805 74.6000
" />
<path d="M132.7805 74.6000
L132.7200 74.5395
" />
<path d="M132.7200 74.5395
L132.6595 74.4185
" />
<path d="M132.6595 74.4185
L132.6595 74.1162
" />
<path d="M132.6595 74.1162
L132.7200 73.9347
" />
<path d="M132.7805 73.4509
L132.7200 73.3905
" />
<path d="M132.7200 73.3905
L132.6595 73.2695
" />
<path d="M132.6595 73.2695
L132.6595 72.9671
" />
<path d="M132.6595 72.9671
L132.7200 72.8462
" />
<path d="M132.7200 72.8462
L132.7805 72.7857
" />
<path d="M132.7805 72.7857
L132.9014 72.7252
" />
<path d="M132.9014 72.7252
L133.0224 72.7252
" />
<path d="M133.0224 72.7252
L133.2038 72.7857
" />
<path d="M133.2038 72.7857
L133.9295 73.5114
" />
<path d="M133.9295 73.5114
L133.9295 72.7252
" />
<path d="M134.0505 72.4834
L134.0505 71.5157
" />
<path d="M133.5667 71.2738
L133.5667 70.6691
" />
<path d="M133.9295 71.3948
L132.6595 70.9715
" />
<path d="M132.6595 70.9715
L133.9295 70.5481
" />
<path d="M133.9295 70.1248
L132.6595 70.1248
" />
<path d="M132.6595 70.1248
L132.6595 69.8224
" />
<path d="M132.6595 69.8224
L132.7200 69.6410
" />
<path d="M132.7200 69.6410
L132.8410 69.5200
" />
<path d="M132.8410 69.5200
L132.9619 69.4595
" />
<path d="M132.9619 69.4595
L133.2038 69.3991
" />
<path d="M133.2038 69.3991
L133.3852 69.3991
" />
<path d="M133.3852 69.3991
L133.6271 69.4595
" />
<path d="M133.6271 69.4595
L133.7481 69.5200
" />
<path d="M133.7481 69.5200
L133.8691 69.6410
" />
<path d="M133.8691 69.6410
L133.9295 69.8224
" />
<path d="M133.9295 69.8224
L133.9295 70.1248
" />
<path d="M133.9295 68.1895
L133.9295 68.9152
" />
<path d="M133.9295 68.5524
L132.6595 68.5524
" />
<path d="M132.6595 68.5524
L132.8410 68.6733
" />
<path d="M132.8410 68.6733
L132.9619 68.7943
" />
<path d="M132.9619 68.7943
L133.0224 68.9152
" />
</g></g>
<g style="fill:#840000; fill-opacity:0.0; 
stroke:#840000; stroke-width:0.1524; stroke-opacity:1; 
stroke-linecap:round; stroke-linejoin:round;">
<path d="M130.8100 77.4700
L130.8100 80.0100
" />
</g>
<g style="fill:#006464; fill-opacity:0.0; 
stroke:#006464; stroke-width:0.1524; stroke-opacity:1; 
stroke-linecap:round; stroke-linejoin:round;">
<g transform="rotate(-90.000000 130.8100 76.4540)">
<text x="130.8100" y="77.0890"
textLength="8.5331" font-size="1.6933" lengthAdjust="spacingAndGlyphs"
text-anchor="start" opacity="0">MS1_AD0</text>
</g>
<g class="stroked-text"><desc>MS1_AD0</desc>
<path d="M131.3895 76.0514
L130.1195 76.0514
" />
<path d="M130.1195 76.0514
L131.0267 75.6280
" />
<path d="M131.0267 75.6280
L130.1195 75.2047
" />
<path d="M130.1195 75.2047
L131.3895 75.2047
" />
<path d="M131.3291 74.6604
L131.3895 74.4790
" />
<path d="M131.3895 74.4790
L131.3895 74.1766
" />
<path d="M131.3895 74.1766
L131.3291 74.0557
" />
<path d="M131.3291 74.0557
L131.2686 73.9952
" />
<path d="M131.2686 73.9952
L131.1476 73.9347
" />
<path d="M131.1476 73.9347
L131.0267 73.9347
" />
<path d="M131.0267 73.9347
L130.9057 73.9952
" />
<path d="M130.9057 73.9952
L130.8452 74.0557
" />
<path d="M130.8452 74.0557
L130.7848 74.1766
" />
<path d="M130.7848 74.1766
L130.7243 74.4185
" />
<path d="M130.7243 74.4185
L130.6638 74.5395
" />
<path d="M130.6638 74.5395
L130.6033 74.6000
" />
<path d="M130.6033 74.6000
L130.4824 74.6604
" />
<path d="M130.4824 74.6604
L130.3614 74.6604
" />
<path d="M130.3614 74.6604
L130.2405 74.6000
" />
<path d="M130.2405 74.6000
L130.1800 74.5395
" />
<path d="M130.1800 74.5395
L130.1195 74.4185
" />
<path d="M130.1195 74.4185
L130.1195 74.1162
" />
<path d="M130.1195 74.1162
L130.1800 73.9347
" />
<path d="M131.3895 72.7252
L131.3895 73.4509
" />
<path d="M131.3895 73.0881
L130.1195 73.0881
" />
<path d="M130.1195 73.0881
L130.3010 73.2090
" />
<path d="M130.3010 73.2090
L130.4219 73.3300
" />
<path d="M130.4219 73.3300
L130.4824 73.4509
" />
<path d="M131.5105 72.4834
L131.5105 71.5157
" />
<path d="M131.0267 71.2738
L131.0267 70.6691
" />
<path d="M131.3895 71.3948
L130.1195 70.9715
" />
<path d="M130.1195 70.9715
L131.3895 70.5481
" />
<path d="M131.3895 70.1248
L130.1195 70.1248
" />
<path d="M130.1195 70.1248
L130.1195 69.8224
" />
<path d="M130.1195 69.8224
L130.1800 69.6410
" />
<path d="M130.1800 69.6410
L130.3010 69.5200
" />
<path d="M130.3010 69.5200
L130.4219 69.4595
" />
<path d="M130.4219 69.4595
L130.6638 69.3991
" />
<path d="M130.6638 69.3991
L130.8452 69.3991
" />
<path d="M130.8452 69.3991
L131.0871 69.4595
" />
<path d="M131.0871 69.4595
L131.2081 69.5200
" />
<path d="M131.2081 69.5200
L131.3291 69.6410
" />
<path d="M131.3291 69.6410
L131.3895 69.8224
" />
<path d="M131.3895 69.8224
L131.3895 70.1248
" />
<path d="M130.1195 68.6129
L130.1195 68.4919
" />
<path d="M130.1195 68.4919
L130.1800 68.3710
" />
<path d="M130.1800 68.3710
L130.2405 68.3105
" />
<path d="M130.2405 68.3105
L130.3614 68.2500
" />
<path d="M130.3614 68.2500
L130.6033 68.1895
" />
<path d="M130.6033 68.1895
L130.9057 68.1895
" />
<path d="M130.9057 68.1895
L131.1476 68.2500
" />
<path d="M131.1476 68.2500
L131.2686 68.3105
" />
<path d="M131.2686 68.3105
L131.3291 68.3710
" />
<path d="M131.3291 68.3710
L131.3895 68.4919
" />
<path d="M131.3895 68.4919
L131.3895 68.6129
" />
<path d="M131.3895 68.6129
L131.3291 68.7338
" />
<path d="M131.3291 68.7338
L131.2686 68.7943
" />
<path d="M131.2686 68.7943
L131.1476 68.8548
" />
<path d="M131.1476 68.8548
L130.9057 68.9152
" />
<path d="M130.9057 68.9152
L130.6033 68.9152
" />
<path d="M130.6033 68.9152
L130.3614 68.8548
" />
<path d="M130.3614 68.8548
L130.2405 68.7943
" />
<path d="M130.2405 68.7943
L130.1800 68.7338
" />
<path d="M130.1800 68.7338
L130.1195 68.6129
" />
</g><text x="138.4300" y="65.5320"
textLength="10.3086" font-size="2.0320" lengthAdjust="spacingAndGlyphs"
text-anchor="middle" opacity="0">TMC2209</text>
<g class="stroked-text"><desc>TMC2209</desc>
<path d="M133.4589 63.9430
L134.3298 63.9430
" />
<path d="M133.8943 65.4670
L133.8943 63.9430
" />
<path d="M134.8377 65.4670
L134.8377 63.9430
" />
<path d="M134.8377 63.9430
L135.3457 65.0316
" />
<path d="M135.3457 65.0316
L135.8537 63.9430
" />
<path d="M135.8537 63.9430
L135.8537 65.4670
" />
<path d="M137.4503 65.3219
L137.3777 65.3945
" />
<path d="M137.3777 65.3945
L137.1600 65.4670
" />
<path d="M137.1600 65.4670
L137.0148 65.4670
" />
<path d="M137.0148 65.4670
L136.7971 65.3945
" />
<path d="M136.7971 65.3945
L136.6520 65.2493
" />
<path d="M136.6520 65.2493
L136.5794 65.1042
" />
<path d="M136.5794 65.1042
L136.5068 64.8139
" />
<path d="M136.5068 64.8139
L136.5068 64.5962
" />
<path d="M136.5068 64.5962
L136.5794 64.3059
" />
<path d="M136.5794 64.3059
L136.6520 64.1607
" />
<path d="M136.6520 64.1607
L136.7971 64.0156
" />
<path d="M136.7971 64.0156
L137.0148 63.9430
" />
<path d="M137.0148 63.9430
L137.1600 63.9430
" />
<path d="M137.1600 63.9430
L137.3777 64.0156
" />
<path d="M137.3777 64.0156
L137.4503 64.0882
" />
<path d="M138.0308 64.0882
L138.1034 64.0156
" />
<path d="M138.1034 64.0156
L138.2486 63.9430
" />
<path d="M138.2486 63.9430
L138.6114 63.9430
" />
<path d="M138.6114 63.9430
L138.7566 64.0156
" />
<path d="M138.7566 64.0156
L138.8291 64.0882
" />
<path d="M138.8291 64.0882
L138.9017 64.2333
" />
<path d="M138.9017 64.2333
L138.9017 64.3785
" />
<path d="M138.9017 64.3785
L138.8291 64.5962
" />
<path d="M138.8291 64.5962
L137.9583 65.4670
" />
<path d="M137.9583 65.4670
L138.9017 65.4670
" />
<path d="M139.4822 64.0882
L139.5548 64.0156
" />
<path d="M139.5548 64.0156
L139.7000 63.9430
" />
<path d="M139.7000 63.9430
L140.0628 63.9430
" />
<path d="M140.0628 63.9430
L140.2080 64.0156
" />
<path d="M140.2080 64.0156
L140.2805 64.0882
" />
<path d="M140.2805 64.0882
L140.3531 64.2333
" />
<path d="M140.3531 64.2333
L140.3531 64.3785
" />
<path d="M140.3531 64.3785
L140.2805 64.5962
" />
<path d="M140.2805 64.5962
L139.4097 65.4670
" />
<path d="M139.4097 65.4670
L140.3531 65.4670
" />
<path d="M141.2965 63.9430
L141.4416 63.9430
" />
<path d="M141.4416 63.9430
L141.5868 64.0156
" />
<path d="M141.5868 64.0156
L141.6594 64.0882
" />
<path d="M141.6594 64.0882
L141.7319 64.2333
" />
<path d="M141.7319 64.2333
L141.8045 64.5236
" />
<path d="M141.8045 64.5236
L141.8045 64.8865
" />
<path d="M141.8045 64.8865
L141.7319 65.1767
" />
<path d="M141.7319 65.1767
L141.6594 65.3219
" />
<path d="M141.6594 65.3219
L141.5868 65.3945
" />
<path d="M141.5868 65.3945
L141.4416 65.4670
" />
<path d="M141.4416 65.4670
L141.2965 65.4670
" />
<path d="M141.2965 65.4670
L141.1514 65.3945
" />
<path d="M141.1514 65.3945
L141.0788 65.3219
" />
<path d="M141.0788 65.3219
L141.0062 65.1767
" />
<path d="M141.0062 65.1767
L140.9336 64.8865
" />
<path d="M140.9336 64.8865
L140.9336 64.5236
" />
<path d="M140.9336 64.5236
L141.0062 64.2333
" />
<path d="M141.0062 64.2333
L141.0788 64.0882
" />
<path d="M141.0788 64.0882
L141.1514 64.0156
" />
<path d="M141.1514 64.0156
L141.2965 63.9430
" />
<path d="M142.5302 65.4670
L142.8205 65.4670
" />
<path d="M142.8205 65.4670
L142.9656 65.3945
" />
<path d="M142.9656 65.3945
L143.0382 65.3219
" />
<path d="M143.0382 65.3219
L143.1833 65.1042
" />
<path d="M143.1833 65.1042
L143.2559 64.8139
" />
<path d="M143.2559 64.8139
L143.2559 64.2333
" />
<path d="M143.2559 64.2333
L143.1833 64.0882
" />
<path d="M143.1833 64.0882
L143.1108 64.0156
" />
<path d="M143.1108 64.0156
L142.9656 63.9430
" />
<path d="M142.9656 63.9430
L142.6753 63.9430
" />
<path d="M142.6753 63.9430
L142.5302 64.0156
" />
<path d="M142.5302 64.0156
L142.4576 64.0882
" />
<path d="M142.4576 64.0882
L142.3850 64.2333
" />
<path d="M142.3850 64.2333
L142.3850 64.5962
" />
<path d="M142.3850 64.5962
L142.4576 64.7413
" />
<path d="M142.4576 64.7413
L142.5302 64.8139
" />
<path d="M142.5302 64.8139
L142.6753 64.8865
" />
<path d="M142.6753 64.8865
L142.9656 64.8865
" />
<path d="M142.9656 64.8865
L143.1108 64.8139
" />
<path d="M143.1108 64.8139
L143.1833 64.7413
" />
<path d="M143.1833 64.7413
L143.2559 64.5962
" />
</g></g>
</g>
<g style="fill:#006464; fill-opacity:0.0; 
stroke:#006464; stroke-width:0.1524; stroke-opacity:1; 
stroke-linecap:round; stroke-linejoin:round;">
<g >
</g>
<g style="fill:#840000; fill-opacity:0.0; 
stroke:#840000; stroke-width:0.1524; stroke-opacity:1; 
stroke-linecap:round; stroke-linejoin:round;">
<rect x="151.130000" y="52.070000" width="20.320000" height="25.400000" rx="0.000000" />
<path d="M161.2900 77.4700
L161.2900 80.0100
" />
</g>
<g style="fill:#006464; fill-opacity:0.0; 
stroke:#006464; stroke-width:0.1524; stroke-opacity:1; 
stroke-linecap:round; stroke-linejoin:round;">
<g transform="rotate(-90.000000 161.2900 76.4540)">
<text x="161.2900" y="77.0890"
textLength="9.6218" font-size="1.6933" lengthAdjust="spacingAndGlyphs"
text-anchor="start" opacity="0">PDN_UART</text>
</g>
<g class="stroked-text"><desc>PDN_UART</desc>
<path d="M161.8695 76.0514
L160.5995 76.0514
" />
<path d="M160.5995 76.0514
L160.5995 75.5676
" />
<path d="M160.5995 75.5676
L160.6600 75.4466
" />
<path d="M160.6600 75.4466
L160.7205 75.3861
" />
<path d="M160.7205 75.3861
L160.8414 75.3257
" />
<path d="M160.8414 75.3257
L161.0229 75.3257
" />
<path d="M161.0229 75.3257
L161.1438 75.3861
" />
<path d="M161.1438 75.3861
L161.2043 75.4466
" />
<path d="M161.2043 75.4466
L161.2648 75.5676
" />
<path d="M161.2648 75.5676
L161.2648 76.0514
" />
<path d="M161.8695 74.7814
L160.5995 74.7814
" />
<path d="M160.5995 74.7814
L160.5995 74.4790
" />
<path d="M160.5995 74.4790
L160.6600 74.2976
" />
<path d="M160.6600 74.2976
L160.7810 74.1766
" />
<path d="M160.7810 74.1766
L160.9019 74.1161
" />
<path d="M160.9019 74.1161
L161.1438 74.0557
" />
<path d="M161.1438 74.0557
L161.3252 74.0557
" />
<path d="M161.3252 74.0557
L161.5671 74.1161
" />
<path d="M161.5671 74.1161
L161.6881 74.1766
" />
<path d="M161.6881 74.1766
L161.8091 74.2976
" />
<path d="M161.8091 74.2976
L161.8695 74.4790
" />
<path d="M161.8695 74.4790
L161.8695 74.7814
" />
<path d="M161.8695 73.5114
L160.5995 73.5114
" />
<path d="M160.5995 73.5114
L161.8695 72.7857
" />
<path d="M161.8695 72.7857
L160.5995 72.7857
" />
<path d="M161.9905 72.4833
L161.9905 71.5156
" />
<path d="M160.5995 71.2133
L161.6276 71.2133
" />
<path d="M161.6276 71.2133
L161.7486 71.1528
" />
<path d="M161.7486 71.1528
L161.8091 71.0923
" />
<path d="M161.8091 71.0923
L161.8695 70.9714
" />
<path d="M161.8695 70.9714
L161.8695 70.7295
" />
<path d="M161.8695 70.7295
L161.8091 70.6085
" />
<path d="M161.8091 70.6085
L161.7486 70.5480
" />
<path d="M161.7486 70.5480
L161.6276 70.4876
" />
<path d="M161.6276 70.4876
L160.5995 70.4876
" />
<path d="M161.5067 69.9432
L161.5067 69.3385
" />
<path d="M161.8695 70.0642
L160.5995 69.6409
" />
<path d="M160.5995 69.6409
L161.8695 69.2175
" />
<path d="M161.8695 68.0685
L161.2648 68.4918
" />
<path d="M161.8695 68.7942
L160.5995 68.7942
" />
<path d="M160.5995 68.7942
L160.5995 68.3104
" />
<path d="M160.5995 68.3104
L160.6600 68.1894
" />
<path d="M160.6600 68.1894
L160.7205 68.1289
" />
<path d="M160.7205 68.1289
L160.8414 68.0685
" />
<path d="M160.8414 68.0685
L161.0229 68.0685
" />
<path d="M161.0229 68.0685
L161.1438 68.1289
" />
<path d="M161.1438 68.1289
L161.2043 68.1894
" />
<path d="M161.2043 68.1894
L161.2648 68.3104
" />
<path d="M161.2648 68.3104
L161.2648 68.7942
" />
<path d="M160.5995 67.7056
L160.5995 66.9799
" />
<path d="M161.8695 67.3427
L160.5995 67.3427
" />
</g></g>
<g style="fill:#840000; fill-opacity:0.0; 
stroke:#840000; stroke-width:0.1524; stroke-opacity:1; 
stroke-linecap:round; stroke-linejoin:round;">
<path d="M156.2100 77.4700
L156.2100 80.0100
" />
</g>
<g style="fill:#006464; fill-opacity:0.0; 
stroke:#006464; stroke-width:0.1524; stroke-opacity:1; 
stroke-linecap:round; stroke-linejoin:round;">
<g transform="rotate(-90.000000 156.2100 76.4540)">
<text x="156.2100" y="77.0890"
textLength="8.5331" font-size="1.6933" lengthAdjust="spacingAndGlyphs"
text-anchor="start" opacity="0">MS2_AD1</text>
</g>
<g class="stroked-text"><desc>MS2_AD1</desc>
<path d="M156.7895 76.0514
L155.5195 76.0514
" />
<path d="M155.5195 76.0514
L156.4267 75.6280
" />
<path d="M156.4267 75.6280
L155.5195 75.2047
" />
<path d="M155.5195 75.2047
L156.7895 75.2047
" />
<path d="M156.7291 74.6604
L156.7895 74.4790
" />
<path d="M156.7895 74.4790
L156.7895 74.1766
" />
<path d="M156.7895 74.1766
L156.7291 74.0557
" />
<path d="M156.7291 74.0557
L156.6686 73.9952
" />
<path d="M156.6686 73.9952
L156.5476 73.9347
" />
<path d="M156.5476 73.9347
L156.4267 73.9347
" />
<path d="M156.4267 73.9347
L156.3057 73.9952
" />
<path d="M156.3057 73.9952
L156.2452 74.0557
" />
<path d="M156.2452 74.0557
L156.1848 74.1766
" />
<path d="M156.1848 74.1766
L156.1243 74.4185
" />
<path d="M156.1243 74.4185
L156.0638 74.5395
" />
<path d="M156.0638 74.5395
L156.0033 74.6000
" />
<path d="M156.0033 74.6000
L155.8824 74.6604
" />
<path d="M155.8824 74.6604
L155.7614 74.6604
" />
<path d="M155.7614 74.6604
L155.6405 74.6000
" />
<path d="M155.6405 74.6000
L155.5800 74.5395
" />
<path d="M155.5800 74.5395
L155.5195 74.4185
" />
<path d="M155.5195 74.4185
L155.5195 74.1162
" />
<path d="M155.5195 74.1162
L155.5800 73.9347
" />
<path d="M155.6405 73.4509
L155.5800 73.3905
" />
<path d="M155.5800 73.3905
L155.5195 73.2695
" />
<path d="M155.5195 73.2695
L155.5195 72.9671
" />
<path d="M155.5195 72.9671
L155.5800 72.8462
" />
<path d="M155.5800 72.8462
L155.6405 72.7857
" />
<path d="M155.6405 72.7857
L155.7614 72.7252
" />
<path d="M155.7614 72.7252
L155.8824 72.7252
" />
<path d="M155.8824 72.7252
L156.0638 72.7857
" />
<path d="M156.0638 72.7857
L156.7895 73.5114
" />
<path d="M156.7895 73.5114
L156.7895 72.7252
" />
<path d="M156.9105 72.4834
L156.9105 71.5157
" />
<path d="M156.4267 71.2738
L156.4267 70.6691
" />
<path d="M156.7895 71.3948
L155.5195 70.9715
" />
<path d="M155.5195 70.9715
L156.7895 70.5481
" />
<path d="M156.7895 70.1248
L155.5195 70.1248
" />
<path d="M155.5195 70.1248
L155.5195 69.8224
" />
<path d="M155.5195 69.8224
L155.5800 69.6410
" />
<path d="M155.5800 69.6410
L155.7010 69.5200
" />
<path d="M155.7010 69.5200
L155.8219 69.4595
" />
<path d="M155.8219 69.4595
L156.0638 69.3991
" />
<path d="M156.0638 69.3991
L156.2452 69.3991
" />
<path d="M156.2452 69.3991
L156.4871 69.4595
" />
<path d="M156.4871 69.4595
L156.6081 69.5200
" />
<path d="M156.6081 69.5200
L156.7291 69.6410
" />
<path d="M156.7291 69.6410
L156.7895 69.8224
" />
<path d="M156.7895 69.8224
L156.7895 70.1248
" />
<path d="M156.7895 68.1895
L156.7895 68.9152
" />
<path d="M156.7895 68.5524
L155.5195 68.5524
" />
<path d="M155.5195 68.5524
L155.7010 68.6733
" />
<path d="M155.7010 68.6733
L155.8219 68.7943
" />
<path d="M155.8219 68.7943
L155.8824 68.9152
" />
</g></g>
<g style="fill:#840000; fill-opacity:0.0; 
stroke:#840000; stroke-width:0.1524; stroke-opacity:1; 
stroke-linecap:round; stroke-linejoin:round;">
<path d="M153.6700 77.4700
L153.6700 80.0100
" />
</g>
<g style="fill:#006464; fill-opacity:0.0; 
stroke:#006464; stroke-width:0.1524; stroke-opacity:1; 
stroke-linecap:round; stroke-linejoin:round;">
<g transform="rotate(-90.000000 153.6700 76.4540)">
<text x="153.6700" y="77.0890"
textLength="8.5331" font-size="1.6933" lengthAdjust="spacingAndGlyphs"
text-anchor="start" opacity="0">MS1_AD0</text>
</g>
<g class="stroked-text"><desc>MS1_AD0</desc>
<path d="M154.2495 76.0514
L152.9795 76.0514
" />
<path d="M152.9795 76.0514
L153.8867 75.6280
" />
<path d="M153.8867 75.6280
L152.9795 75.2047
" />
<path d="M152.9795 75.2047
L154.2495 75.2047
" />
<path d="M154.1891 74.6604
L154.2495 74.4790
" />
<path d="M154.2495 74.4790
L154.2495 74.1766
" />
<path d="M154.2495 74.1766
L154.1891 74.0557
" />
<path d="M154.1891 74.0557
L154.1286 73.9952
" />
<path d="M154.1286 73.9952
L154.0076 73.9347
" />
<path d="M154.0076 73.9347
L153.8867 73.9347
" />
<path d="M153.8867 73.9347
L153.7657 73.9952
" />
<path d="M153.7657 73.9952
L153.7052 74.0557
" />
<path d="M153.7052 74.0557
L153.6448 74.1766
" />
<path d="M153.6448 74.1766
L153.5843 74.4185
" />
<path d="M153.5843 74.4185
L153.5238 74.5395
" />
<path d="M153.5238 74.5395
L153.4633 74.6000
" />
<path d="M153.4633 74.6000
L153.3424 74.6604
" />
<path d="M153.3424 74.6604
L153.2214 74.6604
" />
<path d="M153.2214 74.6604
L153.1005 74.6000
" />
<path d="M153.1005 74.6000
L153.0400 74.5395
" />
<path d="M153.0400 74.5395
L152.9795 74.4185
" />
<path d="M152.9795 74.4185
L152.9795 74.1162
" />
<path d="M152.9795 74.1162
L153.0400 73.9347
" />
<path d="M154.2495 72.7252
L154.2495 73.4509
" />
<path d="M154.2495 73.0881
L152.9795 73.0881
" />
<path d="M152.9795 73.0881
L153.1610 73.2090
" />
<path d="M153.1610 73.2090
L153.2819 73.3300
" />
<path d="M153.2819 73.3300
L153.3424 73.4509
" />
<path d="M154.3705 72.4834
L154.3705 71.5157
" />
<path d="M153.8867 71.2738
L153.8867 70.6691
" />
<path d="M154.2495 71.3948
L152.9795 70.9715
" />
<path d="M152.9795 70.9715
L154.2495 70.5481
" />
<path d="M154.2495 70.1248
L152.9795 70.1248
" />
<path d="M152.9795 70.1248
L152.9795 69.8224
" />
<path d="M152.9795 69.8224
L153.0400 69.6410
" />
<path d="M153.0400 69.6410
L153.1610 69.5200
" />
<path d="M153.1610 69.5200
L153.2819 69.4595
" />
<path d="M153.2819 69.4595
L153.5238 69.3991
" />
<path d="M153.5238 69.3991
L153.7052 69.3991
" />
<path d="M153.7052 69.3991
L153.9471 69.4595
" />
<path d="M153.9471 69.4595
L154.0681 69.5200
" />
<path d="M154.0681 69.5200
L154.1891 69.6410
" />
<path d="M154.1891 69.6410
L154.2495 69.8224
" />
<path d="M154.2495 69.8224
L154.2495 70.1248
" />
<path d="M152.9795 68.6129
L152.9795 68.4919
" />
<path d="M152.9795 68.4919
L153.0400 68.3710
" />
<path d="M153.0400 68.3710
L153.1005 68.3105
" />
<path d="M153.1005 68.3105
L153.2214 68.2500
" />
<path d="M153.2214 68.2500
L153.4633 68.1895
" />
<path d="M153.4633 68.1895
L153.7657 68.1895
" />
<path d="M153.7657 68.1895
L154.0076 68.2500
" />
<path d="M154.0076 68.2500
L154.1286 68.3105
" />
<path d="M154.1286 68.3105
L154.1891 68.3710
" />
<path d="M154.1891 68.3710
L154.2495 68.4919
" />
<path d="M154.2495 68.4919
L154.2495 68.6129
" />
<path d="M154.2495 68.6129
L154.1891 68.7338
" />
<path d="M154.1891 68.7338
L154.1286 68.7943
" />
<path d="M154.1286 68.7943
L154.0076 68.8548
" />
<path d="M154.0076 68.8548
L153.7657 68.9152
" />
<path d="M153.7657 68.9152
L153.4633 68.9152
" />
<path d="M153.4633 68.9152
L153.2214 68.8548
" />
<path d="M153.2214 68.8548
L153.1005 68.7943
" />
<path d="M153.1005 68.7943
L153.0400 68.7338
" />
<path d="M153.0400 68.7338
L152.9795 68.6129
" />
</g><text x="161.2900" y="65.5320"
textLength="10.3086" font-size="2.0320" lengthAdjust="spacingAndGlyphs"
text-anchor="middle" opacity="0">TMC2209</text>
<g class="stroked-text"><desc>TMC2209</desc>
<path d="M156.3189 63.9430
L157.1898 63.9430
" />
<path d="M156.7543 65.4670
L156.7543 63.9430
" />
<path d="M157.6977 65.4670
L157.6977 63.9430
" />
<path d="M157.6977 63.9430
L158.2057 65.0316
" />
<path d="M158.2057 65.0316
L158.7137 63.9430
" />
<path d="M158.7137 63.9430
L158.7137 65.4670
" />
<path d="M160.3103 65.3219
L160.2377 65.3945
" />
<path d="M160.2377 65.3945
L160.0200 65.4670
" />
<path d="M160.0200 65.4670
L159.8748 65.4670
" />
<path d="M159.8748 65.4670
L159.6571 65.3945
" />
<path d="M159.6571 65.3945
L159.5120 65.2493
" />
<path d="M159.5120 65.2493
L159.4394 65.1042
" />
<path d="M159.4394 65.1042
L159.3668 64.8139
" />
<path d="M159.3668 64.8139
L159.3668 64.5962
" />
<path d="M159.3668 64.5962
L159.4394 64.3059
" />
<path d="M159.4394 64.3059
L159.5120 64.1607
" />
<path d="M159.5120 64.1607
L159.6571 64.0156
" />
<path d="M159.6571 64.0156
L159.8748 63.9430
" />
<path d="M159.8748 63.9430
L160.0200 63.9430
" />
<path d="M160.0200 63.9430
L160.2377 64.0156
" />
<path d="M160.2377 64.0156
L160.3103 64.0882
" />
<path d="M160.8908 64.0882
L160.9634 64.0156
" />
<path d="M160.9634 64.0156
L161.1086 63.9430
" />
<path d="M161.1086 63.9430
L161.4714 63.9430
" />
<path d="M161.4714 63.9430
L161.6166 64.0156
" />
<path d="M161.6166 64.0156
L161.6891 64.0882
" />
<path d="M161.6891 64.0882
L161.7617 64.2333
" />
<path d="M161.7617 64.2333
L161.7617 64.3785
" />
<path d="M161.7617 64.3785
L161.6891 64.5962
" />
<path d="M161.6891 64.5962
L160.8183 65.4670
" />
<path d="M160.8183 65.4670
L161.7617 65.4670
" />
<path d="M162.3422 64.0882
L162.4148 64.0156
" />
<path d="M162.4148 64.0156
L162.5600 63.9430
" />
<path d="M162.5600 63.9430
L162.9228 63.9430
" />
<path d="M162.9228 63.9430
L163.0680 64.0156
" />
<path d="M163.0680 64.0156
L163.1405 64.0882
" />
<path d="M163.1405 64.0882
L163.2131 64.2333
" />
<path d="M163.2131 64.2333
L163.2131 64.3785
" />
<path d="M163.2131 64.3785
L163.1405 64.5962
" />
<path d="M163.1405 64.5962
L162.2697 65.4670
" />
<path d="M162.2697 65.4670
L163.2131 65.4670
" />
<path d="M164.1565 63.9430
L164.3016 63.9430
" />
<path d="M164.3016 63.9430
L164.4468 64.0156
" />
<path d="M164.4468 64.0156
L164.5194 64.0882
" />
<path d="M164.5194 64.0882
L164.5919 64.2333
" />
<path d="M164.5919 64.2333
L164.6645 64.5236
" />
<path d="M164.6645 64.5236
L164.6645 64.8865
" />
<path d="M164.6645 64.8865
L164.5919 65.1767
" />
<path d="M164.5919 65.1767
L164.5194 65.3219
" />
<path d="M164.5194 65.3219
L164.4468 65.3945
" />
<path d="M164.4468 65.3945
L164.3016 65.4670
" />
<path d="M164.3016 65.4670
L164.1565 65.4670
" />
<path d="M164.1565 65.4670
L164.0114 65.3945
" />
<path d="M164.0114 65.3945
L163.9388 65.3219
" />
<path d="M163.9388 65.3219
L163.8662 65.1767
" />
<path d="M163.8662 65.1767
L163.7936 64.8865
" />
<path d="M163.7936 64.8865
L163.7936 64.5236
" />
<path d="M163.7936 64.5236
L163.8662 64.2333
" />
<path d="M163.8662 64.2333
L163.9388 64.0882
" />
<path d="M163.9388 64.0882
L164.0114 64.0156
" />
<path d="M164.0114 64.0156
L164.1565 63.9430
" />
<path d="M165.3902 65.4670
L165.6805 65.4670
" />
<path d="M165.6805 65.4670
L165.8256 65.3945
" />
<path d="M165.8256 65.3945
L165.8982 65.3219
" />
<path d="M165.8982 65.3219
L166.0433 65.1042
" />
<path d="M166.0433 65.1042
L166.1159 64.8139
" />
<path d="M166.1159 64.8139
L166.1159 64.2333
" />
<path d="M166.1159 64.2333
L166.0433 64.0882
" />
<path d="M166.0433 64.0882
L165.9708 64.0156
" />
<path d="M165.9708 64.0156
L165.8256 63.9430
" />
<path d="M165.8256 63.9430
L165.5353 63.9430
" />
<path d="M165.5353 63.9430
L165.3902 64.0156
" />
<path d="M165.3902 64.0156
L165.3176 64.0882
" />
<path d="M165.3176 64.0882
L165.2450 64.2333
" />
<path d="M165.2450 64.2333
L165.2450 64.5962
" />
<path d="M165.2450 64.5962
L165.3176 64.7413
" />
<path d="M165.3176 64.7413
L165.3902 64.8139
" />
<path d="M165.3902 64.8139
L165.5353 64.8865
" />
<path d="M165.5353 64.8865
L165.8256 64.8865
" />
<path d="M165.8256 64.8865
L165.9708 64.8139
" />
<path d="M165.9708 64.8139
L166.0433 64.7413
" />
<path d="M166.0433 64.7413
L166.1159 64.5962
" />
</g></g>
</g>
<g style="fill:#006464; fill-opacity:0.0; 
stroke:#006464; stroke-width:0.1588; stroke-opacity:1; 
stroke-linecap:round; stroke-linejoin:round;">
</g>
<g style="fill:#006464; fill-opacity:0.0; 
stroke:#006464; stroke-width:0.1524; stroke-opacity:1; 
stroke-linecap:round; stroke-linejoin:round;">
</g>
<g style="fill:#0F0F0F; fill-opacity:0.0; 
stroke:#0F0F0F; stroke-width:0.1524; stroke-opacity:1; 
stroke-linecap:round; stroke-linejoin:round;">
<text x="153.6700" y="82.2007"
textLength="7.2633" font-size="1.6933" lengthAdjust="spacingAndGlyphs"
text-anchor="end" opacity="0">+VCCIO</text>
<g class="stroked-text"><desc>+VCCIO</desc>
<path d="M146.7358 81.5534
L147.7035 81.5534
" />
<path d="M147.2196 82.0372
L147.2196 81.0696
" />
<path d="M148.1268 80.7672
L148.5501 82.0372
" />
<path d="M148.5501 82.0372
L148.9735 80.7672
" />
<path d="M150.1225 81.9163
L150.0621 81.9768
" />
<path d="M150.0621 81.9768
L149.8806 82.0372
" />
<path d="M149.8806 82.0372
L149.7597 82.0372
" />
<path d="M149.7597 82.0372
L149.5783 81.9768
" />
<path d="M149.5783 81.9768
L149.4573 81.8558
" />
<path d="M149.4573 81.8558
L149.3968 81.7348
" />
<path d="M149.3968 81.7348
L149.3364 81.4929
" />
<path d="M149.3364 81.4929
L149.3364 81.3115
" />
<path d="M149.3364 81.3115
L149.3968 81.0696
" />
<path d="M149.3968 81.0696
L149.4573 80.9487
" />
<path d="M149.4573 80.9487
L149.5783 80.8277
" />
<path d="M149.5783 80.8277
L149.7597 80.7672
" />
<path d="M149.7597 80.7672
L149.8806 80.7672
" />
<path d="M149.8806 80.7672
L150.0621 80.8277
" />
<path d="M150.0621 80.8277
L150.1225 80.8882
" />
<path d="M151.3925 81.9163
L151.3321 81.9768
" />
<path d="M151.3321 81.9768
L151.1506 82.0372
" />
<path d="M151.1506 82.0372
L151.0297 82.0372
" />
<path d="M151.0297 82.0372
L150.8483 81.9768
" />
<path d="M150.8483 81.9768
L150.7273 81.8558
" />
<path d="M150.7273 81.8558
L150.6668 81.7348
" />
<path d="M150.6668 81.7348
L150.6064 81.4929
" />
<path d="M150.6064 81.4929
L150.6064 81.3115
" />
<path d="M150.6064 81.3115
L150.6668 81.0696
" />
<path d="M150.6668 81.0696
L150.7273 80.9487
" />
<path d="M150.7273 80.9487
L150.8483 80.8277
" />
<path d="M150.8483 80.8277
L151.0297 80.7672
" />
<path d="M151.0297 80.7672
L151.1506 80.7672
" />
<path d="M151.1506 80.7672
L151.3321 80.8277
" />
<path d="M151.3321 80.8277
L151.3925 80.8882
" />
<path d="M151.9368 82.0372
L151.9368 80.7672
" />
<path d="M152.7835 80.7672
L153.0254 80.7672
" />
<path d="M153.0254 80.7672
L153.1464 80.8277
" />
<path d="M153.1464 80.8277
L153.2673 80.9487
" />
<path d="M153.2673 80.9487
L153.3278 81.1906
" />
<path d="M153.3278 81.1906
L153.3278 81.6139
" />
<path d="M153.3278 81.6139
L153.2673 81.8558
" />
<path d="M153.2673 81.8558
L153.1464 81.9768
" />
<path d="M153.1464 81.9768
L153.0254 82.0372
" />
<path d="M153.0254 82.0372
L152.7835 82.0372
" />
<path d="M152.7835 82.0372
L152.6626 81.9768
" />
<path d="M152.6626 81.9768
L152.5416 81.8558
" />
<path d="M152.5416 81.8558
L152.4812 81.6139
" />
<path d="M152.4812 81.6139
L152.4812 81.1906
" />
<path d="M152.4812 81.1906
L152.5416 80.9487
" />
<path d="M152.5416 80.9487
L152.6626 80.8277
" />
<path d="M152.6626 80.8277
L152.7835 80.7672
" />
</g></g>
<g style="fill:#009600; fill-opacity:0.0; 
stroke:#009600; stroke-width:0.1524; stroke-opacity:1; 
stroke-linecap:round; stroke-linejoin:round;">
<path d="M100.3300 87.6300
L138.4300 87.6300
" />
<path d="M138.4300 87.6300
L161.2900 87.6300
" />
<path d="M138.4300 80.0100
L138.4300 87.6300
" />
<path d="M161.2900 80.0100
L161.2900 87.6300
" />
<path d="M153.6700 80.0100
L153.6700 82.5500
" />
</g>
<g style="fill:#000084; fill-opacity:0.0; 
stroke:#000084; stroke-width:0.1524; stroke-opacity:1; 
stroke-linecap:round; stroke-linejoin:round;">
<path d="M130.2004 79.4004
L131.4196 80.6196
" />
<path d="M131.4196 79.4004
L130.2004 80.6196
" />
<path d="M99.7204 106.0704
L100.9396 107.2896
" />
<path d="M100.9396 106.0704
L99.7204 107.2896
" />
<path d="M132.7404 79.4004
L133.9596 80.6196
" />
<path d="M133.9596 79.4004
L132.7404 80.6196
" />
<path d="M155.6004 79.4004
L156.8196 80.6196
" />
<path d="M156.8196 79.4004
L155.6004 80.6196
" />
</g>
<g style="fill:#009600; fill-opacity:0.0; 
stroke:#009600; stroke-width:0.1524; stroke-opacity:1; 
stroke-linecap:round; stroke-linejoin:round;">
</g>
<g style="fill:#009600; fill-opacity:1.0000; 
stroke:#009600; stroke-width:0.1524; stroke-opacity:1; 
stroke-linecap:round; stroke-linejoin:round;">
<circle cx="138.4300" cy="87.6300" r="0.4572" /> 
</g> 
</svg>
