<?xml version="1.0" encoding="UTF-8" standalone="no"?>
<svg
   version="1.1"
   width="94.132401mm"
   height="57.302399mm"
   viewBox="0 0 94.132401 57.302398"
   id="svg96645"
   sodipodi:docname="TMC2209_unidirectional_multiple.svg"
   xmlns:inkscape="http://www.inkscape.org/namespaces/inkscape"
   xmlns:sodipodi="http://sodipodi.sourceforge.net/DTD/sodipodi-0.dtd"
   xmlns="http://www.w3.org/2000/svg"
   xmlns:svg="http://www.w3.org/2000/svg">
  <defs
     id="defs96649" />
  <sodipodi:namedview
     id="namedview96647"
     pagecolor="#ffffff"
     bordercolor="#666666"
     borderopacity="1.0"
     inkscape:showpageshadow="2"
     inkscape:pageopacity="0.0"
     inkscape:pagecheckerboard="0"
     inkscape:deskcolor="#d1d1d1"
     inkscape:document-units="mm" />
  <title
     id="title95693">SVG Image created as trinamic_wiring-TMC2209-TMC2209_UNIDIRECTIONAL_MULTIPLE.svg date 2023/06/27 13:13:37 </title>
  <desc
     id="desc95695">Image generated by Eeschema-SVG </desc>
  <g
     style="fill:#000000;fill-opacity:1;stroke:#000000;stroke-linecap:round;stroke-linejoin:round;stroke-opacity:1"
     id="g95697"
     transform="translate(-77.393801,-51.9938)" />
  <g
     style="fill:#000000;fill-opacity:0;stroke:#000000;stroke-width:0.1524;stroke-linecap:round;stroke-linejoin:round;stroke-opacity:1"
     id="g95989"
     transform="translate(-77.393801,-51.9938)">
    <g
       id="g95699" />
    <g
       style="fill:#840000;fill-opacity:0;stroke:#840000;stroke-width:0.1524;stroke-linecap:round;stroke-linejoin:round;stroke-opacity:1"
       id="g95705">
      <rect
         x="128.27"
         y="52.07"
         width="20.32"
         height="25.4"
         rx="0.000000"
         id="rect95701" />
      <path
         d="m 138.43,77.47 v 2.54"
         id="path95703" />
    </g>
    <g
       style="fill:#006464;fill-opacity:0;stroke:#006464;stroke-width:0.1524;stroke-linecap:round;stroke-linejoin:round;stroke-opacity:1"
       id="g95987">
      <g
         transform="rotate(-90,138.43,76.454)"
         id="g95709">
        <text
           x="138.42999"
           y="77.088997"
           textLength="9.6218004"
           font-size="1.6933px"
           lengthAdjust="spacingAndGlyphs"
           text-anchor="start"
           opacity="0"
           id="text95707">PDN_UART</text>
      </g>
      <g
         class="stroked-text"
         id="g95815">
        <desc
           id="desc95711">PDN_UART</desc>
        <path
           d="m 139.0095,76.0514 h -1.27"
           id="path95713" />
        <path
           d="M 137.7395,76.0514 V 75.5676"
           id="path95715" />
        <path
           d="M 137.7395,75.5676 137.8,75.4466"
           id="path95717" />
        <path
           d="m 137.8,75.4466 0.0605,-0.0605"
           id="path95719" />
        <path
           d="m 137.8605,75.3861 0.1209,-0.0604"
           id="path95721" />
        <path
           d="m 137.9814,75.3257 h 0.1815"
           id="path95723" />
        <path
           d="m 138.1629,75.3257 0.1209,0.0604"
           id="path95725" />
        <path
           d="m 138.2838,75.3861 0.0605,0.0605"
           id="path95727" />
        <path
           d="m 138.3443,75.4466 0.0605,0.121"
           id="path95729" />
        <path
           d="m 138.4048,75.5676 v 0.4838"
           id="path95731" />
        <path
           d="m 139.0095,74.7814 h -1.27"
           id="path95733" />
        <path
           d="M 137.7395,74.7814 V 74.479"
           id="path95735" />
        <path
           d="M 137.7395,74.479 137.8,74.2976"
           id="path95737" />
        <path
           d="m 137.8,74.2976 0.121,-0.121"
           id="path95739" />
        <path
           d="m 137.921,74.1766 0.1209,-0.0605"
           id="path95741" />
        <path
           d="m 138.0419,74.1161 0.2419,-0.0604"
           id="path95743" />
        <path
           d="m 138.2838,74.0557 h 0.1814"
           id="path95745" />
        <path
           d="m 138.4652,74.0557 0.2419,0.0604"
           id="path95747" />
        <path
           d="m 138.7071,74.1161 0.121,0.0605"
           id="path95749" />
        <path
           d="m 138.8281,74.1766 0.121,0.121"
           id="path95751" />
        <path
           d="m 138.9491,74.2976 0.0604,0.1814"
           id="path95753" />
        <path
           d="m 139.0095,74.479 v 0.3024"
           id="path95755" />
        <path
           d="m 139.0095,73.5114 h -1.27"
           id="path95757" />
        <path
           d="m 137.7395,73.5114 1.27,-0.7257"
           id="path95759" />
        <path
           d="m 139.0095,72.7857 h -1.27"
           id="path95761" />
        <path
           d="M 139.1305,72.4833 V 71.5156"
           id="path95763" />
        <path
           d="m 137.7395,71.2133 h 1.0281"
           id="path95765" />
        <path
           d="m 138.7676,71.2133 0.121,-0.0605"
           id="path95767" />
        <path
           d="m 138.8886,71.1528 0.0605,-0.0605"
           id="path95769" />
        <path
           d="m 138.9491,71.0923 0.0604,-0.1209"
           id="path95771" />
        <path
           d="M 139.0095,70.9714 V 70.7295"
           id="path95773" />
        <path
           d="m 139.0095,70.7295 -0.0604,-0.121"
           id="path95775" />
        <path
           d="M 138.9491,70.6085 138.8886,70.548"
           id="path95777" />
        <path
           d="m 138.8886,70.548 -0.121,-0.0604"
           id="path95779" />
        <path
           d="m 138.7676,70.4876 h -1.0281"
           id="path95781" />
        <path
           d="M 138.6467,69.9432 V 69.3385"
           id="path95783" />
        <path
           d="m 139.0095,70.0642 -1.27,-0.4233"
           id="path95785" />
        <path
           d="m 137.7395,69.6409 1.27,-0.4234"
           id="path95787" />
        <path
           d="m 139.0095,68.0685 -0.6047,0.4233"
           id="path95789" />
        <path
           d="m 139.0095,68.7942 h -1.27"
           id="path95791" />
        <path
           d="M 137.7395,68.7942 V 68.3104"
           id="path95793" />
        <path
           d="M 137.7395,68.3104 137.8,68.1894"
           id="path95795" />
        <path
           d="m 137.8,68.1894 0.0605,-0.0605"
           id="path95797" />
        <path
           d="m 137.8605,68.1289 0.1209,-0.0604"
           id="path95799" />
        <path
           d="m 137.9814,68.0685 h 0.1815"
           id="path95801" />
        <path
           d="m 138.1629,68.0685 0.1209,0.0604"
           id="path95803" />
        <path
           d="m 138.2838,68.1289 0.0605,0.0605"
           id="path95805" />
        <path
           d="m 138.3443,68.1894 0.0605,0.121"
           id="path95807" />
        <path
           d="m 138.4048,68.3104 v 0.4838"
           id="path95809" />
        <path
           d="M 137.7395,67.7056 V 66.9799"
           id="path95811" />
        <path
           d="m 139.0095,67.3427 h -1.27"
           id="path95813" />
      </g>
      <text
         x="138.42999"
         y="65.531998"
         textLength="10.3086"
         font-size="2.032px"
         lengthAdjust="spacingAndGlyphs"
         text-anchor="middle"
         opacity="0"
         id="text95817">TMC2209</text>
      <g
         class="stroked-text"
         id="g95985">
        <desc
           id="desc95819">TMC2209</desc>
        <path
           d="m 133.4589,63.943 h 0.8709"
           id="path95821" />
        <path
           d="M 133.8943,65.467 V 63.943"
           id="path95823" />
        <path
           d="M 134.8377,65.467 V 63.943"
           id="path95825" />
        <path
           d="m 134.8377,63.943 0.508,1.0886"
           id="path95827" />
        <path
           d="m 135.3457,65.0316 0.508,-1.0886"
           id="path95829" />
        <path
           d="m 135.8537,63.943 v 1.524"
           id="path95831" />
        <path
           d="m 137.4503,65.3219 -0.0726,0.0726"
           id="path95833" />
        <path
           d="M 137.3777,65.3945 137.16,65.467"
           id="path95835" />
        <path
           d="m 137.16,65.467 h -0.1452"
           id="path95837" />
        <path
           d="m 137.0148,65.467 -0.2177,-0.0725"
           id="path95839" />
        <path
           d="M 136.7971,65.3945 136.652,65.2493"
           id="path95841" />
        <path
           d="m 136.652,65.2493 -0.0726,-0.1451"
           id="path95843" />
        <path
           d="m 136.5794,65.1042 -0.0726,-0.2903"
           id="path95845" />
        <path
           d="M 136.5068,64.8139 V 64.5962"
           id="path95847" />
        <path
           d="m 136.5068,64.5962 0.0726,-0.2903"
           id="path95849" />
        <path
           d="m 136.5794,64.3059 0.0726,-0.1452"
           id="path95851" />
        <path
           d="m 136.652,64.1607 0.1451,-0.1451"
           id="path95853" />
        <path
           d="m 136.7971,64.0156 0.2177,-0.0726"
           id="path95855" />
        <path
           d="M 137.0148,63.943 H 137.16"
           id="path95857" />
        <path
           d="m 137.16,63.943 0.2177,0.0726"
           id="path95859" />
        <path
           d="m 137.3777,64.0156 0.0726,0.0726"
           id="path95861" />
        <path
           d="m 138.0308,64.0882 0.0726,-0.0726"
           id="path95863" />
        <path
           d="m 138.1034,64.0156 0.1452,-0.0726"
           id="path95865" />
        <path
           d="m 138.2486,63.943 h 0.3628"
           id="path95867" />
        <path
           d="m 138.6114,63.943 0.1452,0.0726"
           id="path95869" />
        <path
           d="m 138.7566,64.0156 0.0725,0.0726"
           id="path95871" />
        <path
           d="m 138.8291,64.0882 0.0726,0.1451"
           id="path95873" />
        <path
           d="m 138.9017,64.2333 v 0.1452"
           id="path95875" />
        <path
           d="m 138.9017,64.3785 -0.0726,0.2177"
           id="path95877" />
        <path
           d="m 138.8291,64.5962 -0.8708,0.8708"
           id="path95879" />
        <path
           d="m 137.9583,65.467 h 0.9434"
           id="path95881" />
        <path
           d="m 139.4822,64.0882 0.0726,-0.0726"
           id="path95883" />
        <path
           d="M 139.5548,64.0156 139.7,63.943"
           id="path95885" />
        <path
           d="m 139.7,63.943 h 0.3628"
           id="path95887" />
        <path
           d="m 140.0628,63.943 0.1452,0.0726"
           id="path95889" />
        <path
           d="m 140.208,64.0156 0.0725,0.0726"
           id="path95891" />
        <path
           d="m 140.2805,64.0882 0.0726,0.1451"
           id="path95893" />
        <path
           d="m 140.3531,64.2333 v 0.1452"
           id="path95895" />
        <path
           d="m 140.3531,64.3785 -0.0726,0.2177"
           id="path95897" />
        <path
           d="m 140.2805,64.5962 -0.8708,0.8708"
           id="path95899" />
        <path
           d="m 139.4097,65.467 h 0.9434"
           id="path95901" />
        <path
           d="m 141.2965,63.943 h 0.1451"
           id="path95903" />
        <path
           d="m 141.4416,63.943 0.1452,0.0726"
           id="path95905" />
        <path
           d="m 141.5868,64.0156 0.0726,0.0726"
           id="path95907" />
        <path
           d="m 141.6594,64.0882 0.0725,0.1451"
           id="path95909" />
        <path
           d="m 141.7319,64.2333 0.0726,0.2903"
           id="path95911" />
        <path
           d="m 141.8045,64.5236 v 0.3629"
           id="path95913" />
        <path
           d="m 141.8045,64.8865 -0.0726,0.2902"
           id="path95915" />
        <path
           d="m 141.7319,65.1767 -0.0725,0.1452"
           id="path95917" />
        <path
           d="m 141.6594,65.3219 -0.0726,0.0726"
           id="path95919" />
        <path
           d="m 141.5868,65.3945 -0.1452,0.0725"
           id="path95921" />
        <path
           d="m 141.4416,65.467 h -0.1451"
           id="path95923" />
        <path
           d="m 141.2965,65.467 -0.1451,-0.0725"
           id="path95925" />
        <path
           d="m 141.1514,65.3945 -0.0726,-0.0726"
           id="path95927" />
        <path
           d="m 141.0788,65.3219 -0.0726,-0.1452"
           id="path95929" />
        <path
           d="m 141.0062,65.1767 -0.0726,-0.2902"
           id="path95931" />
        <path
           d="M 140.9336,64.8865 V 64.5236"
           id="path95933" />
        <path
           d="m 140.9336,64.5236 0.0726,-0.2903"
           id="path95935" />
        <path
           d="m 141.0062,64.2333 0.0726,-0.1451"
           id="path95937" />
        <path
           d="m 141.0788,64.0882 0.0726,-0.0726"
           id="path95939" />
        <path
           d="m 141.1514,64.0156 0.1451,-0.0726"
           id="path95941" />
        <path
           d="m 142.5302,65.467 h 0.2903"
           id="path95943" />
        <path
           d="m 142.8205,65.467 0.1451,-0.0725"
           id="path95945" />
        <path
           d="m 142.9656,65.3945 0.0726,-0.0726"
           id="path95947" />
        <path
           d="m 143.0382,65.3219 0.1451,-0.2177"
           id="path95949" />
        <path
           d="m 143.1833,65.1042 0.0726,-0.2903"
           id="path95951" />
        <path
           d="M 143.2559,64.8139 V 64.2333"
           id="path95953" />
        <path
           d="m 143.2559,64.2333 -0.0726,-0.1451"
           id="path95955" />
        <path
           d="m 143.1833,64.0882 -0.0725,-0.0726"
           id="path95957" />
        <path
           d="M 143.1108,64.0156 142.9656,63.943"
           id="path95959" />
        <path
           d="m 142.9656,63.943 h -0.2903"
           id="path95961" />
        <path
           d="m 142.6753,63.943 -0.1451,0.0726"
           id="path95963" />
        <path
           d="m 142.5302,64.0156 -0.0726,0.0726"
           id="path95965" />
        <path
           d="m 142.4576,64.0882 -0.0726,0.1451"
           id="path95967" />
        <path
           d="m 142.385,64.2333 v 0.3629"
           id="path95969" />
        <path
           d="m 142.385,64.5962 0.0726,0.1451"
           id="path95971" />
        <path
           d="m 142.4576,64.7413 0.0726,0.0726"
           id="path95973" />
        <path
           d="m 142.5302,64.8139 0.1451,0.0726"
           id="path95975" />
        <path
           d="m 142.6753,64.8865 h 0.2903"
           id="path95977" />
        <path
           d="m 142.9656,64.8865 0.1452,-0.0726"
           id="path95979" />
        <path
           d="m 143.1108,64.8139 0.0725,-0.0726"
           id="path95981" />
        <path
           d="m 143.1833,64.7413 0.0726,-0.1451"
           id="path95983" />
      </g>
    </g>
  </g>
  <g
     style="fill:#006464;fill-opacity:0;stroke:#006464;stroke-width:0.1524;stroke-linecap:round;stroke-linejoin:round;stroke-opacity:1"
     id="g96281"
     transform="translate(-77.393801,-51.9938)">
    <g
       id="g95991" />
    <g
       style="fill:#840000;fill-opacity:0;stroke:#840000;stroke-width:0.1524;stroke-linecap:round;stroke-linejoin:round;stroke-opacity:1"
       id="g95997">
      <rect
         x="151.13"
         y="52.07"
         width="20.32"
         height="25.4"
         rx="0.000000"
         id="rect95993" />
      <path
         d="m 161.29,77.47 v 2.54"
         id="path95995" />
    </g>
    <g
       style="fill:#006464;fill-opacity:0;stroke:#006464;stroke-width:0.1524;stroke-linecap:round;stroke-linejoin:round;stroke-opacity:1"
       id="g96279">
      <g
         transform="rotate(-90,161.29,76.454)"
         id="g96001">
        <text
           x="161.28999"
           y="77.088997"
           textLength="9.6218004"
           font-size="1.6933px"
           lengthAdjust="spacingAndGlyphs"
           text-anchor="start"
           opacity="0"
           id="text95999">PDN_UART</text>
      </g>
      <g
         class="stroked-text"
         id="g96107">
        <desc
           id="desc96003">PDN_UART</desc>
        <path
           d="m 161.8695,76.0514 h -1.27"
           id="path96005" />
        <path
           d="M 160.5995,76.0514 V 75.5676"
           id="path96007" />
        <path
           d="m 160.5995,75.5676 0.0605,-0.121"
           id="path96009" />
        <path
           d="m 160.66,75.4466 0.0605,-0.0605"
           id="path96011" />
        <path
           d="m 160.7205,75.3861 0.1209,-0.0604"
           id="path96013" />
        <path
           d="m 160.8414,75.3257 h 0.1815"
           id="path96015" />
        <path
           d="m 161.0229,75.3257 0.1209,0.0604"
           id="path96017" />
        <path
           d="m 161.1438,75.3861 0.0605,0.0605"
           id="path96019" />
        <path
           d="m 161.2043,75.4466 0.0605,0.121"
           id="path96021" />
        <path
           d="m 161.2648,75.5676 v 0.4838"
           id="path96023" />
        <path
           d="m 161.8695,74.7814 h -1.27"
           id="path96025" />
        <path
           d="M 160.5995,74.7814 V 74.479"
           id="path96027" />
        <path
           d="M 160.5995,74.479 160.66,74.2976"
           id="path96029" />
        <path
           d="m 160.66,74.2976 0.121,-0.121"
           id="path96031" />
        <path
           d="m 160.781,74.1766 0.1209,-0.0605"
           id="path96033" />
        <path
           d="m 160.9019,74.1161 0.2419,-0.0604"
           id="path96035" />
        <path
           d="m 161.1438,74.0557 h 0.1814"
           id="path96037" />
        <path
           d="m 161.3252,74.0557 0.2419,0.0604"
           id="path96039" />
        <path
           d="m 161.5671,74.1161 0.121,0.0605"
           id="path96041" />
        <path
           d="m 161.6881,74.1766 0.121,0.121"
           id="path96043" />
        <path
           d="m 161.8091,74.2976 0.0604,0.1814"
           id="path96045" />
        <path
           d="m 161.8695,74.479 v 0.3024"
           id="path96047" />
        <path
           d="m 161.8695,73.5114 h -1.27"
           id="path96049" />
        <path
           d="m 160.5995,73.5114 1.27,-0.7257"
           id="path96051" />
        <path
           d="m 161.8695,72.7857 h -1.27"
           id="path96053" />
        <path
           d="M 161.9905,72.4833 V 71.5156"
           id="path96055" />
        <path
           d="m 160.5995,71.2133 h 1.0281"
           id="path96057" />
        <path
           d="m 161.6276,71.2133 0.121,-0.0605"
           id="path96059" />
        <path
           d="m 161.7486,71.1528 0.0605,-0.0605"
           id="path96061" />
        <path
           d="m 161.8091,71.0923 0.0604,-0.1209"
           id="path96063" />
        <path
           d="M 161.8695,70.9714 V 70.7295"
           id="path96065" />
        <path
           d="m 161.8695,70.7295 -0.0604,-0.121"
           id="path96067" />
        <path
           d="M 161.8091,70.6085 161.7486,70.548"
           id="path96069" />
        <path
           d="m 161.7486,70.548 -0.121,-0.0604"
           id="path96071" />
        <path
           d="m 161.6276,70.4876 h -1.0281"
           id="path96073" />
        <path
           d="M 161.5067,69.9432 V 69.3385"
           id="path96075" />
        <path
           d="m 161.8695,70.0642 -1.27,-0.4233"
           id="path96077" />
        <path
           d="m 160.5995,69.6409 1.27,-0.4234"
           id="path96079" />
        <path
           d="m 161.8695,68.0685 -0.6047,0.4233"
           id="path96081" />
        <path
           d="m 161.8695,68.7942 h -1.27"
           id="path96083" />
        <path
           d="M 160.5995,68.7942 V 68.3104"
           id="path96085" />
        <path
           d="m 160.5995,68.3104 0.0605,-0.121"
           id="path96087" />
        <path
           d="m 160.66,68.1894 0.0605,-0.0605"
           id="path96089" />
        <path
           d="m 160.7205,68.1289 0.1209,-0.0604"
           id="path96091" />
        <path
           d="m 160.8414,68.0685 h 0.1815"
           id="path96093" />
        <path
           d="m 161.0229,68.0685 0.1209,0.0604"
           id="path96095" />
        <path
           d="m 161.1438,68.1289 0.0605,0.0605"
           id="path96097" />
        <path
           d="m 161.2043,68.1894 0.0605,0.121"
           id="path96099" />
        <path
           d="m 161.2648,68.3104 v 0.4838"
           id="path96101" />
        <path
           d="M 160.5995,67.7056 V 66.9799"
           id="path96103" />
        <path
           d="m 161.8695,67.3427 h -1.27"
           id="path96105" />
      </g>
      <text
         x="161.28999"
         y="65.531998"
         textLength="10.3086"
         font-size="2.032px"
         lengthAdjust="spacingAndGlyphs"
         text-anchor="middle"
         opacity="0"
         id="text96109">TMC2209</text>
      <g
         class="stroked-text"
         id="g96277">
        <desc
           id="desc96111">TMC2209</desc>
        <path
           d="m 156.3189,63.943 h 0.8709"
           id="path96113" />
        <path
           d="M 156.7543,65.467 V 63.943"
           id="path96115" />
        <path
           d="M 157.6977,65.467 V 63.943"
           id="path96117" />
        <path
           d="m 157.6977,63.943 0.508,1.0886"
           id="path96119" />
        <path
           d="m 158.2057,65.0316 0.508,-1.0886"
           id="path96121" />
        <path
           d="m 158.7137,63.943 v 1.524"
           id="path96123" />
        <path
           d="m 160.3103,65.3219 -0.0726,0.0726"
           id="path96125" />
        <path
           d="M 160.2377,65.3945 160.02,65.467"
           id="path96127" />
        <path
           d="m 160.02,65.467 h -0.1452"
           id="path96129" />
        <path
           d="m 159.8748,65.467 -0.2177,-0.0725"
           id="path96131" />
        <path
           d="M 159.6571,65.3945 159.512,65.2493"
           id="path96133" />
        <path
           d="m 159.512,65.2493 -0.0726,-0.1451"
           id="path96135" />
        <path
           d="m 159.4394,65.1042 -0.0726,-0.2903"
           id="path96137" />
        <path
           d="M 159.3668,64.8139 V 64.5962"
           id="path96139" />
        <path
           d="m 159.3668,64.5962 0.0726,-0.2903"
           id="path96141" />
        <path
           d="m 159.4394,64.3059 0.0726,-0.1452"
           id="path96143" />
        <path
           d="m 159.512,64.1607 0.1451,-0.1451"
           id="path96145" />
        <path
           d="m 159.6571,64.0156 0.2177,-0.0726"
           id="path96147" />
        <path
           d="M 159.8748,63.943 H 160.02"
           id="path96149" />
        <path
           d="m 160.02,63.943 0.2177,0.0726"
           id="path96151" />
        <path
           d="m 160.2377,64.0156 0.0726,0.0726"
           id="path96153" />
        <path
           d="m 160.8908,64.0882 0.0726,-0.0726"
           id="path96155" />
        <path
           d="m 160.9634,64.0156 0.1452,-0.0726"
           id="path96157" />
        <path
           d="m 161.1086,63.943 h 0.3628"
           id="path96159" />
        <path
           d="m 161.4714,63.943 0.1452,0.0726"
           id="path96161" />
        <path
           d="m 161.6166,64.0156 0.0725,0.0726"
           id="path96163" />
        <path
           d="m 161.6891,64.0882 0.0726,0.1451"
           id="path96165" />
        <path
           d="m 161.7617,64.2333 v 0.1452"
           id="path96167" />
        <path
           d="m 161.7617,64.3785 -0.0726,0.2177"
           id="path96169" />
        <path
           d="m 161.6891,64.5962 -0.8708,0.8708"
           id="path96171" />
        <path
           d="m 160.8183,65.467 h 0.9434"
           id="path96173" />
        <path
           d="m 162.3422,64.0882 0.0726,-0.0726"
           id="path96175" />
        <path
           d="M 162.4148,64.0156 162.56,63.943"
           id="path96177" />
        <path
           d="m 162.56,63.943 h 0.3628"
           id="path96179" />
        <path
           d="m 162.9228,63.943 0.1452,0.0726"
           id="path96181" />
        <path
           d="m 163.068,64.0156 0.0725,0.0726"
           id="path96183" />
        <path
           d="m 163.1405,64.0882 0.0726,0.1451"
           id="path96185" />
        <path
           d="m 163.2131,64.2333 v 0.1452"
           id="path96187" />
        <path
           d="m 163.2131,64.3785 -0.0726,0.2177"
           id="path96189" />
        <path
           d="m 163.1405,64.5962 -0.8708,0.8708"
           id="path96191" />
        <path
           d="m 162.2697,65.467 h 0.9434"
           id="path96193" />
        <path
           d="m 164.1565,63.943 h 0.1451"
           id="path96195" />
        <path
           d="m 164.3016,63.943 0.1452,0.0726"
           id="path96197" />
        <path
           d="m 164.4468,64.0156 0.0726,0.0726"
           id="path96199" />
        <path
           d="m 164.5194,64.0882 0.0725,0.1451"
           id="path96201" />
        <path
           d="m 164.5919,64.2333 0.0726,0.2903"
           id="path96203" />
        <path
           d="m 164.6645,64.5236 v 0.3629"
           id="path96205" />
        <path
           d="m 164.6645,64.8865 -0.0726,0.2902"
           id="path96207" />
        <path
           d="m 164.5919,65.1767 -0.0725,0.1452"
           id="path96209" />
        <path
           d="m 164.5194,65.3219 -0.0726,0.0726"
           id="path96211" />
        <path
           d="m 164.4468,65.3945 -0.1452,0.0725"
           id="path96213" />
        <path
           d="m 164.3016,65.467 h -0.1451"
           id="path96215" />
        <path
           d="m 164.1565,65.467 -0.1451,-0.0725"
           id="path96217" />
        <path
           d="m 164.0114,65.3945 -0.0726,-0.0726"
           id="path96219" />
        <path
           d="m 163.9388,65.3219 -0.0726,-0.1452"
           id="path96221" />
        <path
           d="m 163.8662,65.1767 -0.0726,-0.2902"
           id="path96223" />
        <path
           d="M 163.7936,64.8865 V 64.5236"
           id="path96225" />
        <path
           d="m 163.7936,64.5236 0.0726,-0.2903"
           id="path96227" />
        <path
           d="m 163.8662,64.2333 0.0726,-0.1451"
           id="path96229" />
        <path
           d="m 163.9388,64.0882 0.0726,-0.0726"
           id="path96231" />
        <path
           d="m 164.0114,64.0156 0.1451,-0.0726"
           id="path96233" />
        <path
           d="m 165.3902,65.467 h 0.2903"
           id="path96235" />
        <path
           d="m 165.6805,65.467 0.1451,-0.0725"
           id="path96237" />
        <path
           d="m 165.8256,65.3945 0.0726,-0.0726"
           id="path96239" />
        <path
           d="m 165.8982,65.3219 0.1451,-0.2177"
           id="path96241" />
        <path
           d="m 166.0433,65.1042 0.0726,-0.2903"
           id="path96243" />
        <path
           d="M 166.1159,64.8139 V 64.2333"
           id="path96245" />
        <path
           d="m 166.1159,64.2333 -0.0726,-0.1451"
           id="path96247" />
        <path
           d="m 166.0433,64.0882 -0.0725,-0.0726"
           id="path96249" />
        <path
           d="M 165.9708,64.0156 165.8256,63.943"
           id="path96251" />
        <path
           d="m 165.8256,63.943 h -0.2903"
           id="path96253" />
        <path
           d="m 165.5353,63.943 -0.1451,0.0726"
           id="path96255" />
        <path
           d="m 165.3902,64.0156 -0.0726,0.0726"
           id="path96257" />
        <path
           d="m 165.3176,64.0882 -0.0726,0.1451"
           id="path96259" />
        <path
           d="m 165.245,64.2333 v 0.3629"
           id="path96261" />
        <path
           d="m 165.245,64.5962 0.0726,0.1451"
           id="path96263" />
        <path
           d="m 165.3176,64.7413 0.0726,0.0726"
           id="path96265" />
        <path
           d="m 165.3902,64.8139 0.1451,0.0726"
           id="path96267" />
        <path
           d="m 165.5353,64.8865 h 0.2903"
           id="path96269" />
        <path
           d="m 165.8256,64.8865 0.1452,-0.0726"
           id="path96271" />
        <path
           d="m 165.9708,64.8139 0.0725,-0.0726"
           id="path96273" />
        <path
           d="m 166.0433,64.7413 0.0726,-0.1451"
           id="path96275" />
      </g>
    </g>
  </g>
  <g
     style="fill:#006464;fill-opacity:0;stroke:#006464;stroke-width:0.1524;stroke-linecap:round;stroke-linejoin:round;stroke-opacity:1"
     id="g96619"
     transform="translate(-77.393801,-51.9938)">
    <g
       id="g96283" />
    <g
       style="fill:#840000;fill-opacity:0;stroke:#840000;stroke-width:0.1524;stroke-linecap:round;stroke-linejoin:round;stroke-opacity:1"
       id="g96289">
      <rect
         x="77.470001"
         y="83.82"
         width="20.32"
         height="25.4"
         rx="0.000000"
         id="rect96285" />
      <path
         d="m 97.79,106.68 h 2.54"
         id="path96287" />
    </g>
    <g
       style="fill:#006464;fill-opacity:0;stroke:#006464;stroke-width:0.1524;stroke-linecap:round;stroke-linejoin:round;stroke-opacity:1"
       id="g96323">
      <text
         x="96.774002"
         y="107.315"
         textLength="2.6064999"
         font-size="1.6933px"
         lengthAdjust="spacingAndGlyphs"
         text-anchor="end"
         opacity="0"
         id="text96291">RX</text>
      <g
         class="stroked-text"
         id="g96321">
        <desc
           id="desc96293">RX</desc>
        <path
           d="M 95.2223,107.2595 94.799,106.6548"
           id="path96295" />
        <path
           d="m 94.4966,107.2595 v -1.27"
           id="path96297" />
        <path
           d="m 94.4966,105.9895 h 0.4838"
           id="path96299" />
        <path
           d="m 94.9804,105.9895 0.121,0.0605"
           id="path96301" />
        <path
           d="m 95.1014,106.05 0.0605,0.0605"
           id="path96303" />
        <path
           d="m 95.1619,106.1105 0.0604,0.1209"
           id="path96305" />
        <path
           d="m 95.2223,106.2314 v 0.1815"
           id="path96307" />
        <path
           d="m 95.2223,106.4129 -0.0604,0.1209"
           id="path96309" />
        <path
           d="m 95.1619,106.5338 -0.0605,0.0605"
           id="path96311" />
        <path
           d="m 95.1014,106.5943 -0.121,0.0605"
           id="path96313" />
        <path
           d="M 94.9804,106.6548 H 94.4966"
           id="path96315" />
        <path
           d="m 95.6457,105.9895 0.8466,1.27"
           id="path96317" />
        <path
           d="m 96.4923,105.9895 -0.8466,1.27"
           id="path96319" />
      </g>
    </g>
    <g
       style="fill:#840000;fill-opacity:0;stroke:#840000;stroke-width:0.1524;stroke-linecap:round;stroke-linejoin:round;stroke-opacity:1"
       id="g96327">
      <path
         d="m 97.79,87.63 h 2.54"
         id="path96325" />
    </g>
    <g
       style="fill:#006464;fill-opacity:0;stroke:#006464;stroke-width:0.1524;stroke-linecap:round;stroke-linejoin:round;stroke-opacity:1"
       id="g96617">
      <text
         x="96.774002"
         y="88.264999"
         textLength="2.3041"
         font-size="1.6933px"
         lengthAdjust="spacingAndGlyphs"
         text-anchor="end"
         opacity="0"
         id="text96329">TX</text>
      <g
         class="stroked-text"
         id="g96341">
        <desc
           id="desc96331">TX</desc>
        <path
           d="m 94.6176,86.9395 h 0.7257"
           id="path96333" />
        <path
           d="m 94.9805,88.2095 v -1.27"
           id="path96335" />
        <path
           d="m 95.6457,86.9395 0.8466,1.27"
           id="path96337" />
        <path
           d="m 96.4923,86.9395 -0.8466,1.27"
           id="path96339" />
      </g>
      <text
         x="87.629997"
         y="97.281998"
         textLength="17.566099"
         font-size="2.032px"
         lengthAdjust="spacingAndGlyphs"
         text-anchor="middle"
         opacity="0"
         id="text96343">microcontroller</text>
      <g
         class="stroked-text"
         id="g96615">
        <desc
           id="desc96345">microcontroller</desc>
        <path
           d="M 79.2479,97.217 V 96.201"
           id="path96347" />
        <path
           d="m 79.2479,96.3462 0.0726,-0.0726"
           id="path96349" />
        <path
           d="M 79.3205,96.2736 79.4656,96.201"
           id="path96351" />
        <path
           d="m 79.4656,96.201 h 0.2177"
           id="path96353" />
        <path
           d="m 79.6833,96.201 0.1452,0.0726"
           id="path96355" />
        <path
           d="m 79.8285,96.2736 0.0726,0.1451"
           id="path96357" />
        <path
           d="M 79.9011,96.4187 V 97.217"
           id="path96359" />
        <path
           d="m 79.9011,96.4187 0.0725,-0.1451"
           id="path96361" />
        <path
           d="M 79.9736,96.2736 80.1188,96.201"
           id="path96363" />
        <path
           d="m 80.1188,96.201 h 0.2177"
           id="path96365" />
        <path
           d="m 80.3365,96.201 0.1451,0.0726"
           id="path96367" />
        <path
           d="m 80.4816,96.2736 0.0726,0.1451"
           id="path96369" />
        <path
           d="M 80.5542,96.4187 V 97.217"
           id="path96371" />
        <path
           d="M 81.2799,97.217 V 96.201"
           id="path96373" />
        <path
           d="m 81.2799,95.693 -0.0726,0.0726"
           id="path96375" />
        <path
           d="m 81.2073,95.7656 0.0726,0.0726"
           id="path96377" />
        <path
           d="m 81.2799,95.8382 0.0726,-0.0726"
           id="path96379" />
        <path
           d="M 81.3525,95.7656 81.2799,95.693"
           id="path96381" />
        <path
           d="m 81.2799,95.693 v 0.1452"
           id="path96383" />
        <path
           d="M 82.6588,97.1445 82.5136,97.217"
           id="path96385" />
        <path
           d="M 82.5136,97.217 H 82.2233"
           id="path96387" />
        <path
           d="M 82.2233,97.217 82.0782,97.1445"
           id="path96389" />
        <path
           d="M 82.0782,97.1445 82.0056,97.0719"
           id="path96391" />
        <path
           d="M 82.0056,97.0719 81.933,96.9267"
           id="path96393" />
        <path
           d="M 81.933,96.9267 V 96.4913"
           id="path96395" />
        <path
           d="m 81.933,96.4913 0.0726,-0.1451"
           id="path96397" />
        <path
           d="m 82.0056,96.3462 0.0726,-0.0726"
           id="path96399" />
        <path
           d="M 82.0782,96.2736 82.2233,96.201"
           id="path96401" />
        <path
           d="m 82.2233,96.201 h 0.2903"
           id="path96403" />
        <path
           d="m 82.5136,96.201 0.1452,0.0726"
           id="path96405" />
        <path
           d="M 83.3119,97.217 V 96.201"
           id="path96407" />
        <path
           d="m 83.3119,96.4913 0.0726,-0.1451"
           id="path96409" />
        <path
           d="m 83.3845,96.3462 0.0726,-0.0726"
           id="path96411" />
        <path
           d="M 83.4571,96.2736 83.6022,96.201"
           id="path96413" />
        <path
           d="m 83.6022,96.201 h 0.1451"
           id="path96415" />
        <path
           d="M 84.473,97.217 84.3279,97.1445"
           id="path96417" />
        <path
           d="M 84.3279,97.1445 84.2553,97.0719"
           id="path96419" />
        <path
           d="M 84.2553,97.0719 84.1827,96.9267"
           id="path96421" />
        <path
           d="M 84.1827,96.9267 V 96.4913"
           id="path96423" />
        <path
           d="m 84.1827,96.4913 0.0726,-0.1451"
           id="path96425" />
        <path
           d="m 84.2553,96.3462 0.0726,-0.0726"
           id="path96427" />
        <path
           d="M 84.3279,96.2736 84.473,96.201"
           id="path96429" />
        <path
           d="m 84.473,96.201 h 0.2177"
           id="path96431" />
        <path
           d="m 84.6907,96.201 0.1452,0.0726"
           id="path96433" />
        <path
           d="m 84.8359,96.2736 0.0726,0.0726"
           id="path96435" />
        <path
           d="m 84.9085,96.3462 0.0725,0.1451"
           id="path96437" />
        <path
           d="m 84.981,96.4913 v 0.4354"
           id="path96439" />
        <path
           d="m 84.981,96.9267 -0.0725,0.1452"
           id="path96441" />
        <path
           d="m 84.9085,97.0719 -0.0726,0.0726"
           id="path96443" />
        <path
           d="M 84.8359,97.1445 84.6907,97.217"
           id="path96445" />
        <path
           d="M 84.6907,97.217 H 84.473"
           id="path96447" />
        <path
           d="M 86.2874,97.1445 86.1422,97.217"
           id="path96449" />
        <path
           d="M 86.1422,97.217 H 85.8519"
           id="path96451" />
        <path
           d="M 85.8519,97.217 85.7068,97.1445"
           id="path96453" />
        <path
           d="M 85.7068,97.1445 85.6342,97.0719"
           id="path96455" />
        <path
           d="M 85.6342,97.0719 85.5616,96.9267"
           id="path96457" />
        <path
           d="M 85.5616,96.9267 V 96.4913"
           id="path96459" />
        <path
           d="m 85.5616,96.4913 0.0726,-0.1451"
           id="path96461" />
        <path
           d="m 85.6342,96.3462 0.0726,-0.0726"
           id="path96463" />
        <path
           d="M 85.7068,96.2736 85.8519,96.201"
           id="path96465" />
        <path
           d="m 85.8519,96.201 h 0.2903"
           id="path96467" />
        <path
           d="m 86.1422,96.201 0.1452,0.0726"
           id="path96469" />
        <path
           d="M 87.1582,97.217 87.0131,97.1445"
           id="path96471" />
        <path
           d="M 87.0131,97.1445 86.9405,97.0719"
           id="path96473" />
        <path
           d="M 86.9405,97.0719 86.8679,96.9267"
           id="path96475" />
        <path
           d="M 86.8679,96.9267 V 96.4913"
           id="path96477" />
        <path
           d="m 86.8679,96.4913 0.0726,-0.1451"
           id="path96479" />
        <path
           d="m 86.9405,96.3462 0.0726,-0.0726"
           id="path96481" />
        <path
           d="M 87.0131,96.2736 87.1582,96.201"
           id="path96483" />
        <path
           d="m 87.1582,96.201 h 0.2177"
           id="path96485" />
        <path
           d="m 87.3759,96.201 0.1452,0.0726"
           id="path96487" />
        <path
           d="m 87.5211,96.2736 0.0726,0.0726"
           id="path96489" />
        <path
           d="m 87.5937,96.3462 0.0725,0.1451"
           id="path96491" />
        <path
           d="m 87.6662,96.4913 v 0.4354"
           id="path96493" />
        <path
           d="m 87.6662,96.9267 -0.0725,0.1452"
           id="path96495" />
        <path
           d="m 87.5937,97.0719 -0.0726,0.0726"
           id="path96497" />
        <path
           d="M 87.5211,97.1445 87.3759,97.217"
           id="path96499" />
        <path
           d="M 87.3759,97.217 H 87.1582"
           id="path96501" />
        <path
           d="m 88.3194,96.201 v 1.016"
           id="path96503" />
        <path
           d="M 88.3194,96.3462 88.392,96.2736"
           id="path96505" />
        <path
           d="M 88.392,96.2736 88.5371,96.201"
           id="path96507" />
        <path
           d="m 88.5371,96.201 h 0.2177"
           id="path96509" />
        <path
           d="M 88.7548,96.201 88.9,96.2736"
           id="path96511" />
        <path
           d="m 88.9,96.2736 0.0726,0.1451"
           id="path96513" />
        <path
           d="M 88.9726,96.4187 V 97.217"
           id="path96515" />
        <path
           d="m 89.4806,96.201 h 0.5806"
           id="path96517" />
        <path
           d="m 89.6983,95.693 v 1.3063"
           id="path96519" />
        <path
           d="m 89.6983,96.9993 0.0726,0.1452"
           id="path96521" />
        <path
           d="M 89.7709,97.1445 89.916,97.217"
           id="path96523" />
        <path
           d="m 89.916,97.217 h 0.1452"
           id="path96525" />
        <path
           d="M 90.5692,97.217 V 96.201"
           id="path96527" />
        <path
           d="m 90.5692,96.4913 0.0726,-0.1451"
           id="path96529" />
        <path
           d="m 90.6418,96.3462 0.0726,-0.0726"
           id="path96531" />
        <path
           d="M 90.7144,96.2736 90.8595,96.201"
           id="path96533" />
        <path
           d="m 90.8595,96.201 h 0.1451"
           id="path96535" />
        <path
           d="M 91.7303,97.217 91.5852,97.1445"
           id="path96537" />
        <path
           d="M 91.5852,97.1445 91.5126,97.0719"
           id="path96539" />
        <path
           d="M 91.5126,97.0719 91.44,96.9267"
           id="path96541" />
        <path
           d="M 91.44,96.9267 V 96.4913"
           id="path96543" />
        <path
           d="m 91.44,96.4913 0.0726,-0.1451"
           id="path96545" />
        <path
           d="m 91.5126,96.3462 0.0726,-0.0726"
           id="path96547" />
        <path
           d="M 91.5852,96.2736 91.7303,96.201"
           id="path96549" />
        <path
           d="M 91.7303,96.201 H 91.948"
           id="path96551" />
        <path
           d="m 91.948,96.201 0.1452,0.0726"
           id="path96553" />
        <path
           d="m 92.0932,96.2736 0.0726,0.0726"
           id="path96555" />
        <path
           d="m 92.1658,96.3462 0.0725,0.1451"
           id="path96557" />
        <path
           d="m 92.2383,96.4913 v 0.4354"
           id="path96559" />
        <path
           d="m 92.2383,96.9267 -0.0725,0.1452"
           id="path96561" />
        <path
           d="m 92.1658,97.0719 -0.0726,0.0726"
           id="path96563" />
        <path
           d="M 92.0932,97.1445 91.948,97.217"
           id="path96565" />
        <path
           d="M 91.948,97.217 H 91.7303"
           id="path96567" />
        <path
           d="M 93.1092,97.217 92.9641,97.1445"
           id="path96569" />
        <path
           d="M 92.9641,97.1445 92.8915,96.9993"
           id="path96571" />
        <path
           d="M 92.8915,96.9993 V 95.693"
           id="path96573" />
        <path
           d="M 93.9075,97.217 93.7624,97.1445"
           id="path96575" />
        <path
           d="M 93.7624,97.1445 93.6898,96.9993"
           id="path96577" />
        <path
           d="M 93.6898,96.9993 V 95.693"
           id="path96579" />
        <path
           d="M 95.0687,97.1445 94.9235,97.217"
           id="path96581" />
        <path
           d="M 94.9235,97.217 H 94.6333"
           id="path96583" />
        <path
           d="M 94.6333,97.217 94.4881,97.1445"
           id="path96585" />
        <path
           d="M 94.4881,97.1445 94.4155,96.9993"
           id="path96587" />
        <path
           d="M 94.4155,96.9993 V 96.4187"
           id="path96589" />
        <path
           d="m 94.4155,96.4187 0.0726,-0.1451"
           id="path96591" />
        <path
           d="M 94.4881,96.2736 94.6333,96.201"
           id="path96593" />
        <path
           d="m 94.6333,96.201 h 0.2902"
           id="path96595" />
        <path
           d="m 94.9235,96.201 0.1452,0.0726"
           id="path96597" />
        <path
           d="m 95.0687,96.2736 0.0726,0.1451"
           id="path96599" />
        <path
           d="m 95.1413,96.4187 v 0.1452"
           id="path96601" />
        <path
           d="M 95.1413,96.5639 94.4155,96.709"
           id="path96603" />
        <path
           d="M 95.7944,97.217 V 96.201"
           id="path96605" />
        <path
           d="M 95.7944,96.4913 95.867,96.3462"
           id="path96607" />
        <path
           d="m 95.867,96.3462 0.0726,-0.0726"
           id="path96609" />
        <path
           d="M 95.9396,96.2736 96.0847,96.201"
           id="path96611" />
        <path
           d="m 96.0847,96.201 h 0.1451"
           id="path96613" />
      </g>
    </g>
  </g>
  <g
     style="fill:#006464;fill-opacity:0;stroke:#006464;stroke-width:0.1524;stroke-linecap:round;stroke-linejoin:round;stroke-opacity:1"
     id="g96621"
     transform="translate(-77.393801,-51.9938)" />
  <g
     style="fill:#009600;fill-opacity:0;stroke:#009600;stroke-width:0.1524;stroke-linecap:round;stroke-linejoin:round;stroke-opacity:1"
     id="g96631"
     transform="translate(-77.393801,-51.9938)">
    <path
       d="m 138.43,87.63 h 22.86"
       id="path96623" />
    <path
       d="m 138.43,80.01 v 7.62"
       id="path96625" />
    <path
       d="m 161.29,80.01 v 7.62"
       id="path96627" />
    <path
       d="m 100.33,87.63 h 38.1"
       id="path96629" />
  </g>
  <g
     style="fill:#000084;fill-opacity:0;stroke:#000084;stroke-width:0.1524;stroke-linecap:round;stroke-linejoin:round;stroke-opacity:1"
     id="g96637"
     transform="translate(-77.393801,-51.9938)">
    <path
       d="m 99.7204,106.0704 1.2192,1.2192"
       id="path96633" />
    <path
       d="m 100.9396,106.0704 -1.2192,1.2192"
       id="path96635" />
  </g>
  <g
     style="fill:#009600;fill-opacity:0;stroke:#009600;stroke-width:0.1524;stroke-linecap:round;stroke-linejoin:round;stroke-opacity:1"
     id="g96639"
     transform="translate(-77.393801,-51.9938)" />
  <g
     style="fill:#009600;fill-opacity:1;stroke:#009600;stroke-width:0.1524;stroke-linecap:round;stroke-linejoin:round;stroke-opacity:1"
     id="g96643"
     transform="translate(-77.393801,-51.9938)">
    <circle
       cx="138.42999"
       cy="87.629997"
       r="0.45719999"
       id="circle96641" />
  </g>
</svg>
