<?xml version="1.0" encoding="UTF-8" standalone="no"?>
<svg
   version="1.1"
   width="71.2724mm"
   height="57.302399mm"
   viewBox="0 0 71.272401 57.302398"
   id="svg700"
   sodipodi:docname="TMC2209_bidirectional_coupled.svg"
   xmlns:inkscape="http://www.inkscape.org/namespaces/inkscape"
   xmlns:sodipodi="http://sodipodi.sourceforge.net/DTD/sodipodi-0.dtd"
   xmlns="http://www.w3.org/2000/svg"
   xmlns:svg="http://www.w3.org/2000/svg">
  <defs
     id="defs704" />
  <sodipodi:namedview
     id="namedview702"
     pagecolor="#ffffff"
     bordercolor="#666666"
     borderopacity="1.0"
     inkscape:showpageshadow="2"
     inkscape:pageopacity="0.0"
     inkscape:pagecheckerboard="0"
     inkscape:deskcolor="#d1d1d1"
     inkscape:document-units="mm" />
  <title
     id="title2">SVG Image created as trinamic_wiring-TMC2209-TMC2209_BIDIRECTIONAL_COUPLED.svg date 2023/06/27 13:13:37 </title>
  <desc
     id="desc4">Image generated by Eeschema-SVG </desc>
  <g
     style="fill:#000000;fill-opacity:1;stroke:#000000;stroke-linecap:round;stroke-linejoin:round;stroke-opacity:1"
     id="g6"
     transform="translate(-77.393801,-51.9938)" />
  <g
     style="fill:#000000;fill-opacity:0;stroke:#000000;stroke-width:0.1524;stroke-linecap:round;stroke-linejoin:round;stroke-opacity:1"
     id="g344"
     transform="translate(-77.393801,-51.9938)">
    <g
       id="g8" />
    <g
       style="fill:#840000;fill-opacity:0;stroke:#840000;stroke-width:0.1524;stroke-linecap:round;stroke-linejoin:round;stroke-opacity:1"
       id="g14">
      <rect
         x="77.470001"
         y="83.82"
         width="20.32"
         height="25.4"
         rx="0.000000"
         id="rect10" />
      <path
         d="m 97.79,106.68 h 2.54"
         id="path12" />
    </g>
    <g
       style="fill:#006464;fill-opacity:0;stroke:#006464;stroke-width:0.1524;stroke-linecap:round;stroke-linejoin:round;stroke-opacity:1"
       id="g48">
      <text
         x="96.774002"
         y="107.315"
         textLength="2.6064999"
         font-size="1.6933px"
         lengthAdjust="spacingAndGlyphs"
         text-anchor="end"
         opacity="0"
         id="text16">RX</text>
      <g
         class="stroked-text"
         id="g46">
        <desc
           id="desc18">RX</desc>
        <path
           d="M 95.2223,107.2595 94.799,106.6548"
           id="path20" />
        <path
           d="m 94.4966,107.2595 v -1.27"
           id="path22" />
        <path
           d="m 94.4966,105.9895 h 0.4838"
           id="path24" />
        <path
           d="m 94.9804,105.9895 0.121,0.0605"
           id="path26" />
        <path
           d="m 95.1014,106.05 0.0605,0.0605"
           id="path28" />
        <path
           d="m 95.1619,106.1105 0.0604,0.1209"
           id="path30" />
        <path
           d="m 95.2223,106.2314 v 0.1815"
           id="path32" />
        <path
           d="m 95.2223,106.4129 -0.0604,0.1209"
           id="path34" />
        <path
           d="m 95.1619,106.5338 -0.0605,0.0605"
           id="path36" />
        <path
           d="m 95.1014,106.5943 -0.121,0.0605"
           id="path38" />
        <path
           d="M 94.9804,106.6548 H 94.4966"
           id="path40" />
        <path
           d="m 95.6457,105.9895 0.8466,1.27"
           id="path42" />
        <path
           d="m 96.4923,105.9895 -0.8466,1.27"
           id="path44" />
      </g>
    </g>
    <g
       style="fill:#840000;fill-opacity:0;stroke:#840000;stroke-width:0.1524;stroke-linecap:round;stroke-linejoin:round;stroke-opacity:1"
       id="g52">
      <path
         d="m 97.79,87.63 h 2.54"
         id="path50" />
    </g>
    <g
       style="fill:#006464;fill-opacity:0;stroke:#006464;stroke-width:0.1524;stroke-linecap:round;stroke-linejoin:round;stroke-opacity:1"
       id="g342">
      <text
         x="96.774002"
         y="88.264999"
         textLength="2.3041"
         font-size="1.6933px"
         lengthAdjust="spacingAndGlyphs"
         text-anchor="end"
         opacity="0"
         id="text54">TX</text>
      <g
         class="stroked-text"
         id="g66">
        <desc
           id="desc56">TX</desc>
        <path
           d="m 94.6176,86.9395 h 0.7257"
           id="path58" />
        <path
           d="m 94.9805,88.2095 v -1.27"
           id="path60" />
        <path
           d="m 95.6457,86.9395 0.8466,1.27"
           id="path62" />
        <path
           d="m 96.4923,86.9395 -0.8466,1.27"
           id="path64" />
      </g>
      <text
         x="87.629997"
         y="97.281998"
         textLength="17.566099"
         font-size="2.032px"
         lengthAdjust="spacingAndGlyphs"
         text-anchor="middle"
         opacity="0"
         id="text68">microcontroller</text>
      <g
         class="stroked-text"
         id="g340">
        <desc
           id="desc70">microcontroller</desc>
        <path
           d="M 79.2479,97.217 V 96.201"
           id="path72" />
        <path
           d="m 79.2479,96.3462 0.0726,-0.0726"
           id="path74" />
        <path
           d="M 79.3205,96.2736 79.4656,96.201"
           id="path76" />
        <path
           d="m 79.4656,96.201 h 0.2177"
           id="path78" />
        <path
           d="m 79.6833,96.201 0.1452,0.0726"
           id="path80" />
        <path
           d="m 79.8285,96.2736 0.0726,0.1451"
           id="path82" />
        <path
           d="M 79.9011,96.4187 V 97.217"
           id="path84" />
        <path
           d="m 79.9011,96.4187 0.0725,-0.1451"
           id="path86" />
        <path
           d="M 79.9736,96.2736 80.1188,96.201"
           id="path88" />
        <path
           d="m 80.1188,96.201 h 0.2177"
           id="path90" />
        <path
           d="m 80.3365,96.201 0.1451,0.0726"
           id="path92" />
        <path
           d="m 80.4816,96.2736 0.0726,0.1451"
           id="path94" />
        <path
           d="M 80.5542,96.4187 V 97.217"
           id="path96" />
        <path
           d="M 81.2799,97.217 V 96.201"
           id="path98" />
        <path
           d="m 81.2799,95.693 -0.0726,0.0726"
           id="path100" />
        <path
           d="m 81.2073,95.7656 0.0726,0.0726"
           id="path102" />
        <path
           d="m 81.2799,95.8382 0.0726,-0.0726"
           id="path104" />
        <path
           d="M 81.3525,95.7656 81.2799,95.693"
           id="path106" />
        <path
           d="m 81.2799,95.693 v 0.1452"
           id="path108" />
        <path
           d="M 82.6588,97.1445 82.5136,97.217"
           id="path110" />
        <path
           d="M 82.5136,97.217 H 82.2233"
           id="path112" />
        <path
           d="M 82.2233,97.217 82.0782,97.1445"
           id="path114" />
        <path
           d="M 82.0782,97.1445 82.0056,97.0719"
           id="path116" />
        <path
           d="M 82.0056,97.0719 81.933,96.9267"
           id="path118" />
        <path
           d="M 81.933,96.9267 V 96.4913"
           id="path120" />
        <path
           d="m 81.933,96.4913 0.0726,-0.1451"
           id="path122" />
        <path
           d="m 82.0056,96.3462 0.0726,-0.0726"
           id="path124" />
        <path
           d="M 82.0782,96.2736 82.2233,96.201"
           id="path126" />
        <path
           d="m 82.2233,96.201 h 0.2903"
           id="path128" />
        <path
           d="m 82.5136,96.201 0.1452,0.0726"
           id="path130" />
        <path
           d="M 83.3119,97.217 V 96.201"
           id="path132" />
        <path
           d="m 83.3119,96.4913 0.0726,-0.1451"
           id="path134" />
        <path
           d="m 83.3845,96.3462 0.0726,-0.0726"
           id="path136" />
        <path
           d="M 83.4571,96.2736 83.6022,96.201"
           id="path138" />
        <path
           d="m 83.6022,96.201 h 0.1451"
           id="path140" />
        <path
           d="M 84.473,97.217 84.3279,97.1445"
           id="path142" />
        <path
           d="M 84.3279,97.1445 84.2553,97.0719"
           id="path144" />
        <path
           d="M 84.2553,97.0719 84.1827,96.9267"
           id="path146" />
        <path
           d="M 84.1827,96.9267 V 96.4913"
           id="path148" />
        <path
           d="m 84.1827,96.4913 0.0726,-0.1451"
           id="path150" />
        <path
           d="m 84.2553,96.3462 0.0726,-0.0726"
           id="path152" />
        <path
           d="M 84.3279,96.2736 84.473,96.201"
           id="path154" />
        <path
           d="m 84.473,96.201 h 0.2177"
           id="path156" />
        <path
           d="m 84.6907,96.201 0.1452,0.0726"
           id="path158" />
        <path
           d="m 84.8359,96.2736 0.0726,0.0726"
           id="path160" />
        <path
           d="m 84.9085,96.3462 0.0725,0.1451"
           id="path162" />
        <path
           d="m 84.981,96.4913 v 0.4354"
           id="path164" />
        <path
           d="m 84.981,96.9267 -0.0725,0.1452"
           id="path166" />
        <path
           d="m 84.9085,97.0719 -0.0726,0.0726"
           id="path168" />
        <path
           d="M 84.8359,97.1445 84.6907,97.217"
           id="path170" />
        <path
           d="M 84.6907,97.217 H 84.473"
           id="path172" />
        <path
           d="M 86.2874,97.1445 86.1422,97.217"
           id="path174" />
        <path
           d="M 86.1422,97.217 H 85.8519"
           id="path176" />
        <path
           d="M 85.8519,97.217 85.7068,97.1445"
           id="path178" />
        <path
           d="M 85.7068,97.1445 85.6342,97.0719"
           id="path180" />
        <path
           d="M 85.6342,97.0719 85.5616,96.9267"
           id="path182" />
        <path
           d="M 85.5616,96.9267 V 96.4913"
           id="path184" />
        <path
           d="m 85.5616,96.4913 0.0726,-0.1451"
           id="path186" />
        <path
           d="m 85.6342,96.3462 0.0726,-0.0726"
           id="path188" />
        <path
           d="M 85.7068,96.2736 85.8519,96.201"
           id="path190" />
        <path
           d="m 85.8519,96.201 h 0.2903"
           id="path192" />
        <path
           d="m 86.1422,96.201 0.1452,0.0726"
           id="path194" />
        <path
           d="M 87.1582,97.217 87.0131,97.1445"
           id="path196" />
        <path
           d="M 87.0131,97.1445 86.9405,97.0719"
           id="path198" />
        <path
           d="M 86.9405,97.0719 86.8679,96.9267"
           id="path200" />
        <path
           d="M 86.8679,96.9267 V 96.4913"
           id="path202" />
        <path
           d="m 86.8679,96.4913 0.0726,-0.1451"
           id="path204" />
        <path
           d="m 86.9405,96.3462 0.0726,-0.0726"
           id="path206" />
        <path
           d="M 87.0131,96.2736 87.1582,96.201"
           id="path208" />
        <path
           d="m 87.1582,96.201 h 0.2177"
           id="path210" />
        <path
           d="m 87.3759,96.201 0.1452,0.0726"
           id="path212" />
        <path
           d="m 87.5211,96.2736 0.0726,0.0726"
           id="path214" />
        <path
           d="m 87.5937,96.3462 0.0725,0.1451"
           id="path216" />
        <path
           d="m 87.6662,96.4913 v 0.4354"
           id="path218" />
        <path
           d="m 87.6662,96.9267 -0.0725,0.1452"
           id="path220" />
        <path
           d="m 87.5937,97.0719 -0.0726,0.0726"
           id="path222" />
        <path
           d="M 87.5211,97.1445 87.3759,97.217"
           id="path224" />
        <path
           d="M 87.3759,97.217 H 87.1582"
           id="path226" />
        <path
           d="m 88.3194,96.201 v 1.016"
           id="path228" />
        <path
           d="M 88.3194,96.3462 88.392,96.2736"
           id="path230" />
        <path
           d="M 88.392,96.2736 88.5371,96.201"
           id="path232" />
        <path
           d="m 88.5371,96.201 h 0.2177"
           id="path234" />
        <path
           d="M 88.7548,96.201 88.9,96.2736"
           id="path236" />
        <path
           d="m 88.9,96.2736 0.0726,0.1451"
           id="path238" />
        <path
           d="M 88.9726,96.4187 V 97.217"
           id="path240" />
        <path
           d="m 89.4806,96.201 h 0.5806"
           id="path242" />
        <path
           d="m 89.6983,95.693 v 1.3063"
           id="path244" />
        <path
           d="m 89.6983,96.9993 0.0726,0.1452"
           id="path246" />
        <path
           d="M 89.7709,97.1445 89.916,97.217"
           id="path248" />
        <path
           d="m 89.916,97.217 h 0.1452"
           id="path250" />
        <path
           d="M 90.5692,97.217 V 96.201"
           id="path252" />
        <path
           d="m 90.5692,96.4913 0.0726,-0.1451"
           id="path254" />
        <path
           d="m 90.6418,96.3462 0.0726,-0.0726"
           id="path256" />
        <path
           d="M 90.7144,96.2736 90.8595,96.201"
           id="path258" />
        <path
           d="m 90.8595,96.201 h 0.1451"
           id="path260" />
        <path
           d="M 91.7303,97.217 91.5852,97.1445"
           id="path262" />
        <path
           d="M 91.5852,97.1445 91.5126,97.0719"
           id="path264" />
        <path
           d="M 91.5126,97.0719 91.44,96.9267"
           id="path266" />
        <path
           d="M 91.44,96.9267 V 96.4913"
           id="path268" />
        <path
           d="m 91.44,96.4913 0.0726,-0.1451"
           id="path270" />
        <path
           d="m 91.5126,96.3462 0.0726,-0.0726"
           id="path272" />
        <path
           d="M 91.5852,96.2736 91.7303,96.201"
           id="path274" />
        <path
           d="M 91.7303,96.201 H 91.948"
           id="path276" />
        <path
           d="m 91.948,96.201 0.1452,0.0726"
           id="path278" />
        <path
           d="m 92.0932,96.2736 0.0726,0.0726"
           id="path280" />
        <path
           d="m 92.1658,96.3462 0.0725,0.1451"
           id="path282" />
        <path
           d="m 92.2383,96.4913 v 0.4354"
           id="path284" />
        <path
           d="m 92.2383,96.9267 -0.0725,0.1452"
           id="path286" />
        <path
           d="m 92.1658,97.0719 -0.0726,0.0726"
           id="path288" />
        <path
           d="M 92.0932,97.1445 91.948,97.217"
           id="path290" />
        <path
           d="M 91.948,97.217 H 91.7303"
           id="path292" />
        <path
           d="M 93.1092,97.217 92.9641,97.1445"
           id="path294" />
        <path
           d="M 92.9641,97.1445 92.8915,96.9993"
           id="path296" />
        <path
           d="M 92.8915,96.9993 V 95.693"
           id="path298" />
        <path
           d="M 93.9075,97.217 93.7624,97.1445"
           id="path300" />
        <path
           d="M 93.7624,97.1445 93.6898,96.9993"
           id="path302" />
        <path
           d="M 93.6898,96.9993 V 95.693"
           id="path304" />
        <path
           d="M 95.0687,97.1445 94.9235,97.217"
           id="path306" />
        <path
           d="M 94.9235,97.217 H 94.6333"
           id="path308" />
        <path
           d="M 94.6333,97.217 94.4881,97.1445"
           id="path310" />
        <path
           d="M 94.4881,97.1445 94.4155,96.9993"
           id="path312" />
        <path
           d="M 94.4155,96.9993 V 96.4187"
           id="path314" />
        <path
           d="m 94.4155,96.4187 0.0726,-0.1451"
           id="path316" />
        <path
           d="M 94.4881,96.2736 94.6333,96.201"
           id="path318" />
        <path
           d="m 94.6333,96.201 h 0.2902"
           id="path320" />
        <path
           d="m 94.9235,96.201 0.1452,0.0726"
           id="path322" />
        <path
           d="m 95.0687,96.2736 0.0726,0.1451"
           id="path324" />
        <path
           d="m 95.1413,96.4187 v 0.1452"
           id="path326" />
        <path
           d="M 95.1413,96.5639 94.4155,96.709"
           id="path328" />
        <path
           d="M 95.7944,97.217 V 96.201"
           id="path330" />
        <path
           d="M 95.7944,96.4913 95.867,96.3462"
           id="path332" />
        <path
           d="m 95.867,96.3462 0.0726,-0.0726"
           id="path334" />
        <path
           d="M 95.9396,96.2736 96.0847,96.201"
           id="path336" />
        <path
           d="m 96.0847,96.201 h 0.1451"
           id="path338" />
      </g>
    </g>
  </g>
  <g
     style="fill:#006464;fill-opacity:0;stroke:#006464;stroke-width:0.1524;stroke-linecap:round;stroke-linejoin:round;stroke-opacity:1"
     id="g386"
     transform="translate(-77.393801,-51.9938)">
    <g
       id="g346" />
    <g
       style="fill:#840000;fill-opacity:0;stroke:#840000;stroke-width:0.1524;stroke-linecap:round;stroke-linejoin:round;stroke-opacity:1"
       id="g348" />
    <g
       style="fill:#840000;fill-opacity:0;stroke:#840000;stroke-width:0.3048;stroke-linecap:round;stroke-linejoin:round;stroke-opacity:1"
       id="g352">
      <rect
         x="101.854"
         y="92.709999"
         width="2.0320001"
         height="7.6199999"
         rx="0.000000"
         id="rect350" />
    </g>
    <g
       style="fill:#840000;fill-opacity:0;stroke:#840000;stroke-width:0.1524;stroke-linecap:round;stroke-linejoin:round;stroke-opacity:1"
       id="g358">
      <path
         d="M 102.87,92.71 V 90.17"
         id="path354" />
      <path
         d="m 102.87,100.33 v 2.54"
         id="path356" />
    </g>
    <g
       style="fill:#006464;fill-opacity:0;stroke:#006464;stroke-width:0.1524;stroke-linecap:round;stroke-linejoin:round;stroke-opacity:1"
       id="g384">
      <g
         transform="rotate(-90,102.87,96.52)"
         id="g362">
        <text
           x="102.87"
           y="96.901001"
           textLength="1.5712"
           font-size="1.016px"
           lengthAdjust="spacingAndGlyphs"
           text-anchor="middle"
           opacity="0"
           id="text360">1k</text>
      </g>
      <g
         class="stroked-text"
         id="g382">
        <desc
           id="desc364">1k</desc>
        <path
           d="m 103.2145,96.6107 v 0.4354"
           id="path366" />
        <path
           d="m 103.2145,96.8284 h -0.762"
           id="path368" />
        <path
           d="m 102.4525,96.8284 0.1089,0.0726"
           id="path370" />
        <path
           d="m 102.5614,96.901 0.0726,0.0725"
           id="path372" />
        <path
           d="m 102.634,96.9735 0.0363,0.0726"
           id="path374" />
        <path
           d="m 103.2145,96.2841 h -0.762"
           id="path376" />
        <path
           d="m 102.9243,96.2116 0.2902,-0.2178"
           id="path378" />
        <path
           d="m 102.7065,95.9938 0.2903,0.2903"
           id="path380" />
      </g>
    </g>
  </g>
  <g
     style="fill:#006464;fill-opacity:0;stroke:#006464;stroke-width:0.1524;stroke-linecap:round;stroke-linejoin:round;stroke-opacity:1"
     id="g678"
     transform="translate(-77.393801,-51.9938)">
    <g
       id="g388" />
    <g
       style="fill:#840000;fill-opacity:0;stroke:#840000;stroke-width:0.1524;stroke-linecap:round;stroke-linejoin:round;stroke-opacity:1"
       id="g394">
      <rect
         x="128.27"
         y="52.07"
         width="20.32"
         height="25.4"
         rx="0.000000"
         id="rect390" />
      <path
         d="m 138.43,77.47 v 2.54"
         id="path392" />
    </g>
    <g
       style="fill:#006464;fill-opacity:0;stroke:#006464;stroke-width:0.1524;stroke-linecap:round;stroke-linejoin:round;stroke-opacity:1"
       id="g676">
      <g
         transform="rotate(-90,138.43,76.454)"
         id="g398">
        <text
           x="138.42999"
           y="77.088997"
           textLength="9.6218004"
           font-size="1.6933px"
           lengthAdjust="spacingAndGlyphs"
           text-anchor="start"
           opacity="0"
           id="text396">PDN_UART</text>
      </g>
      <g
         class="stroked-text"
         id="g504">
        <desc
           id="desc400">PDN_UART</desc>
        <path
           d="m 139.0095,76.0514 h -1.27"
           id="path402" />
        <path
           d="M 137.7395,76.0514 V 75.5676"
           id="path404" />
        <path
           d="M 137.7395,75.5676 137.8,75.4466"
           id="path406" />
        <path
           d="m 137.8,75.4466 0.0605,-0.0605"
           id="path408" />
        <path
           d="m 137.8605,75.3861 0.1209,-0.0604"
           id="path410" />
        <path
           d="m 137.9814,75.3257 h 0.1815"
           id="path412" />
        <path
           d="m 138.1629,75.3257 0.1209,0.0604"
           id="path414" />
        <path
           d="m 138.2838,75.3861 0.0605,0.0605"
           id="path416" />
        <path
           d="m 138.3443,75.4466 0.0605,0.121"
           id="path418" />
        <path
           d="m 138.4048,75.5676 v 0.4838"
           id="path420" />
        <path
           d="m 139.0095,74.7814 h -1.27"
           id="path422" />
        <path
           d="M 137.7395,74.7814 V 74.479"
           id="path424" />
        <path
           d="M 137.7395,74.479 137.8,74.2976"
           id="path426" />
        <path
           d="m 137.8,74.2976 0.121,-0.121"
           id="path428" />
        <path
           d="m 137.921,74.1766 0.1209,-0.0605"
           id="path430" />
        <path
           d="m 138.0419,74.1161 0.2419,-0.0604"
           id="path432" />
        <path
           d="m 138.2838,74.0557 h 0.1814"
           id="path434" />
        <path
           d="m 138.4652,74.0557 0.2419,0.0604"
           id="path436" />
        <path
           d="m 138.7071,74.1161 0.121,0.0605"
           id="path438" />
        <path
           d="m 138.8281,74.1766 0.121,0.121"
           id="path440" />
        <path
           d="m 138.9491,74.2976 0.0604,0.1814"
           id="path442" />
        <path
           d="m 139.0095,74.479 v 0.3024"
           id="path444" />
        <path
           d="m 139.0095,73.5114 h -1.27"
           id="path446" />
        <path
           d="m 137.7395,73.5114 1.27,-0.7257"
           id="path448" />
        <path
           d="m 139.0095,72.7857 h -1.27"
           id="path450" />
        <path
           d="M 139.1305,72.4833 V 71.5156"
           id="path452" />
        <path
           d="m 137.7395,71.2133 h 1.0281"
           id="path454" />
        <path
           d="m 138.7676,71.2133 0.121,-0.0605"
           id="path456" />
        <path
           d="m 138.8886,71.1528 0.0605,-0.0605"
           id="path458" />
        <path
           d="m 138.9491,71.0923 0.0604,-0.1209"
           id="path460" />
        <path
           d="M 139.0095,70.9714 V 70.7295"
           id="path462" />
        <path
           d="m 139.0095,70.7295 -0.0604,-0.121"
           id="path464" />
        <path
           d="M 138.9491,70.6085 138.8886,70.548"
           id="path466" />
        <path
           d="m 138.8886,70.548 -0.121,-0.0604"
           id="path468" />
        <path
           d="m 138.7676,70.4876 h -1.0281"
           id="path470" />
        <path
           d="M 138.6467,69.9432 V 69.3385"
           id="path472" />
        <path
           d="m 139.0095,70.0642 -1.27,-0.4233"
           id="path474" />
        <path
           d="m 137.7395,69.6409 1.27,-0.4234"
           id="path476" />
        <path
           d="m 139.0095,68.0685 -0.6047,0.4233"
           id="path478" />
        <path
           d="m 139.0095,68.7942 h -1.27"
           id="path480" />
        <path
           d="M 137.7395,68.7942 V 68.3104"
           id="path482" />
        <path
           d="M 137.7395,68.3104 137.8,68.1894"
           id="path484" />
        <path
           d="m 137.8,68.1894 0.0605,-0.0605"
           id="path486" />
        <path
           d="m 137.8605,68.1289 0.1209,-0.0604"
           id="path488" />
        <path
           d="m 137.9814,68.0685 h 0.1815"
           id="path490" />
        <path
           d="m 138.1629,68.0685 0.1209,0.0604"
           id="path492" />
        <path
           d="m 138.2838,68.1289 0.0605,0.0605"
           id="path494" />
        <path
           d="m 138.3443,68.1894 0.0605,0.121"
           id="path496" />
        <path
           d="m 138.4048,68.3104 v 0.4838"
           id="path498" />
        <path
           d="M 137.7395,67.7056 V 66.9799"
           id="path500" />
        <path
           d="m 139.0095,67.3427 h -1.27"
           id="path502" />
      </g>
      <text
         x="138.42999"
         y="65.531998"
         textLength="10.3086"
         font-size="2.032px"
         lengthAdjust="spacingAndGlyphs"
         text-anchor="middle"
         opacity="0"
         id="text506">TMC2209</text>
      <g
         class="stroked-text"
         id="g674">
        <desc
           id="desc508">TMC2209</desc>
        <path
           d="m 133.4589,63.943 h 0.8709"
           id="path510" />
        <path
           d="M 133.8943,65.467 V 63.943"
           id="path512" />
        <path
           d="M 134.8377,65.467 V 63.943"
           id="path514" />
        <path
           d="m 134.8377,63.943 0.508,1.0886"
           id="path516" />
        <path
           d="m 135.3457,65.0316 0.508,-1.0886"
           id="path518" />
        <path
           d="m 135.8537,63.943 v 1.524"
           id="path520" />
        <path
           d="m 137.4503,65.3219 -0.0726,0.0726"
           id="path522" />
        <path
           d="M 137.3777,65.3945 137.16,65.467"
           id="path524" />
        <path
           d="m 137.16,65.467 h -0.1452"
           id="path526" />
        <path
           d="m 137.0148,65.467 -0.2177,-0.0725"
           id="path528" />
        <path
           d="M 136.7971,65.3945 136.652,65.2493"
           id="path530" />
        <path
           d="m 136.652,65.2493 -0.0726,-0.1451"
           id="path532" />
        <path
           d="m 136.5794,65.1042 -0.0726,-0.2903"
           id="path534" />
        <path
           d="M 136.5068,64.8139 V 64.5962"
           id="path536" />
        <path
           d="m 136.5068,64.5962 0.0726,-0.2903"
           id="path538" />
        <path
           d="m 136.5794,64.3059 0.0726,-0.1452"
           id="path540" />
        <path
           d="m 136.652,64.1607 0.1451,-0.1451"
           id="path542" />
        <path
           d="m 136.7971,64.0156 0.2177,-0.0726"
           id="path544" />
        <path
           d="M 137.0148,63.943 H 137.16"
           id="path546" />
        <path
           d="m 137.16,63.943 0.2177,0.0726"
           id="path548" />
        <path
           d="m 137.3777,64.0156 0.0726,0.0726"
           id="path550" />
        <path
           d="m 138.0308,64.0882 0.0726,-0.0726"
           id="path552" />
        <path
           d="m 138.1034,64.0156 0.1452,-0.0726"
           id="path554" />
        <path
           d="m 138.2486,63.943 h 0.3628"
           id="path556" />
        <path
           d="m 138.6114,63.943 0.1452,0.0726"
           id="path558" />
        <path
           d="m 138.7566,64.0156 0.0725,0.0726"
           id="path560" />
        <path
           d="m 138.8291,64.0882 0.0726,0.1451"
           id="path562" />
        <path
           d="m 138.9017,64.2333 v 0.1452"
           id="path564" />
        <path
           d="m 138.9017,64.3785 -0.0726,0.2177"
           id="path566" />
        <path
           d="m 138.8291,64.5962 -0.8708,0.8708"
           id="path568" />
        <path
           d="m 137.9583,65.467 h 0.9434"
           id="path570" />
        <path
           d="m 139.4822,64.0882 0.0726,-0.0726"
           id="path572" />
        <path
           d="M 139.5548,64.0156 139.7,63.943"
           id="path574" />
        <path
           d="m 139.7,63.943 h 0.3628"
           id="path576" />
        <path
           d="m 140.0628,63.943 0.1452,0.0726"
           id="path578" />
        <path
           d="m 140.208,64.0156 0.0725,0.0726"
           id="path580" />
        <path
           d="m 140.2805,64.0882 0.0726,0.1451"
           id="path582" />
        <path
           d="m 140.3531,64.2333 v 0.1452"
           id="path584" />
        <path
           d="m 140.3531,64.3785 -0.0726,0.2177"
           id="path586" />
        <path
           d="m 140.2805,64.5962 -0.8708,0.8708"
           id="path588" />
        <path
           d="m 139.4097,65.467 h 0.9434"
           id="path590" />
        <path
           d="m 141.2965,63.943 h 0.1451"
           id="path592" />
        <path
           d="m 141.4416,63.943 0.1452,0.0726"
           id="path594" />
        <path
           d="m 141.5868,64.0156 0.0726,0.0726"
           id="path596" />
        <path
           d="m 141.6594,64.0882 0.0725,0.1451"
           id="path598" />
        <path
           d="m 141.7319,64.2333 0.0726,0.2903"
           id="path600" />
        <path
           d="m 141.8045,64.5236 v 0.3629"
           id="path602" />
        <path
           d="m 141.8045,64.8865 -0.0726,0.2902"
           id="path604" />
        <path
           d="m 141.7319,65.1767 -0.0725,0.1452"
           id="path606" />
        <path
           d="m 141.6594,65.3219 -0.0726,0.0726"
           id="path608" />
        <path
           d="m 141.5868,65.3945 -0.1452,0.0725"
           id="path610" />
        <path
           d="m 141.4416,65.467 h -0.1451"
           id="path612" />
        <path
           d="m 141.2965,65.467 -0.1451,-0.0725"
           id="path614" />
        <path
           d="m 141.1514,65.3945 -0.0726,-0.0726"
           id="path616" />
        <path
           d="m 141.0788,65.3219 -0.0726,-0.1452"
           id="path618" />
        <path
           d="m 141.0062,65.1767 -0.0726,-0.2902"
           id="path620" />
        <path
           d="M 140.9336,64.8865 V 64.5236"
           id="path622" />
        <path
           d="m 140.9336,64.5236 0.0726,-0.2903"
           id="path624" />
        <path
           d="m 141.0062,64.2333 0.0726,-0.1451"
           id="path626" />
        <path
           d="m 141.0788,64.0882 0.0726,-0.0726"
           id="path628" />
        <path
           d="m 141.1514,64.0156 0.1451,-0.0726"
           id="path630" />
        <path
           d="m 142.5302,65.467 h 0.2903"
           id="path632" />
        <path
           d="m 142.8205,65.467 0.1451,-0.0725"
           id="path634" />
        <path
           d="m 142.9656,65.3945 0.0726,-0.0726"
           id="path636" />
        <path
           d="m 143.0382,65.3219 0.1451,-0.2177"
           id="path638" />
        <path
           d="m 143.1833,65.1042 0.0726,-0.2903"
           id="path640" />
        <path
           d="M 143.2559,64.8139 V 64.2333"
           id="path642" />
        <path
           d="m 143.2559,64.2333 -0.0726,-0.1451"
           id="path644" />
        <path
           d="m 143.1833,64.0882 -0.0725,-0.0726"
           id="path646" />
        <path
           d="M 143.1108,64.0156 142.9656,63.943"
           id="path648" />
        <path
           d="m 142.9656,63.943 h -0.2903"
           id="path650" />
        <path
           d="m 142.6753,63.943 -0.1451,0.0726"
           id="path652" />
        <path
           d="m 142.5302,64.0156 -0.0726,0.0726"
           id="path654" />
        <path
           d="m 142.4576,64.0882 -0.0726,0.1451"
           id="path656" />
        <path
           d="m 142.385,64.2333 v 0.3629"
           id="path658" />
        <path
           d="m 142.385,64.5962 0.0726,0.1451"
           id="path660" />
        <path
           d="m 142.4576,64.7413 0.0726,0.0726"
           id="path662" />
        <path
           d="m 142.5302,64.8139 0.1451,0.0726"
           id="path664" />
        <path
           d="m 142.6753,64.8865 h 0.2903"
           id="path666" />
        <path
           d="m 142.9656,64.8865 0.1452,-0.0726"
           id="path668" />
        <path
           d="m 143.1108,64.8139 0.0725,-0.0726"
           id="path670" />
        <path
           d="m 143.1833,64.7413 0.0726,-0.1451"
           id="path672" />
      </g>
    </g>
  </g>
  <g
     style="fill:#006464;fill-opacity:0;stroke:#006464;stroke-width:0.1524;stroke-linecap:round;stroke-linejoin:round;stroke-opacity:1"
     id="g680"
     transform="translate(-77.393801,-51.9938)" />
  <g
     style="fill:#009600;fill-opacity:0;stroke:#009600;stroke-width:0.1524;stroke-linecap:round;stroke-linejoin:round;stroke-opacity:1"
     id="g694"
     transform="translate(-77.393801,-51.9938)">
    <path
       d="m 100.33,106.68 h 2.54"
       id="path682" />
    <path
       d="m 100.33,87.63 h 2.54"
       id="path684" />
    <path
       d="m 102.87,102.87 v 3.81"
       id="path686" />
    <path
       d="m 102.87,106.68 h 35.56"
       id="path688" />
    <path
       d="m 102.87,87.63 v 2.54"
       id="path690" />
    <path
       d="m 138.43,80.01 v 26.67"
       id="path692" />
  </g>
  <g
     style="fill:#009600;fill-opacity:1;stroke:#009600;stroke-width:0.1524;stroke-linecap:round;stroke-linejoin:round;stroke-opacity:1"
     id="g698"
     transform="translate(-77.393801,-51.9938)">
    <circle
       cx="102.87"
       cy="106.68"
       r="0.45719999"
       id="circle696" />
  </g>
</svg>
