<?xml version="1.0" encoding="UTF-8" standalone="no"?>
<svg
   xmlns:dc="http://purl.org/dc/elements/1.1/"
   xmlns:cc="http://creativecommons.org/ns#"
   xmlns:rdf="http://www.w3.org/1999/02/22-rdf-syntax-ns#"
   xmlns:svg="http://www.w3.org/2000/svg"
   xmlns="http://www.w3.org/2000/svg"
   version="1.1"
   width="94.361mm"
   height="57.530998mm"
   viewBox="0 0 94.361001 57.530998"
   id="svg65080">
  <metadata
     id="metadata65086">
    <rdf:RDF>
      <cc:Work
         rdf:about="">
        <dc:format>image/svg+xml</dc:format>
        <dc:type
           rdf:resource="http://purl.org/dc/dcmitype/StillImage" />
      </cc:Work>
    </rdf:RDF>
  </metadata>
  <defs
     id="defs65084" />
  <title
     id="title64090">SVG Image created as trinamic_wiring-TMC2209-unidirectional-multiple.svg date 2023/08/01 16:21:29 </title>
  <desc
     id="desc64092">Image generated by Eeschema-SVG </desc>
  <g
     style="fill:#000000;fill-opacity:1;stroke:#000000;stroke-linecap:round;stroke-linejoin:round;stroke-opacity:1"
     id="g64094"
     transform="translate(-77.279501,-51.8795)" />
  <g
     style="fill:#000000;fill-opacity:0;stroke:#000000;stroke-width:0.1524;stroke-linecap:round;stroke-linejoin:round;stroke-opacity:1"
     id="g64392"
     transform="translate(-77.279501,-51.8795)">
    <g
       id="g64096" />
    <g
       style="fill:#840000;fill-opacity:0;stroke:#840000;stroke-width:0.1524;stroke-linecap:round;stroke-linejoin:round;stroke-opacity:1"
       id="g64098" />
    <g
       style="fill:#840000;fill-opacity:0;stroke:#840000;stroke-width:0.381;stroke-linecap:round;stroke-linejoin:round;stroke-opacity:1"
       id="g64104">
      <rect
         x="128.27"
         y="52.07"
         width="20.32"
         height="25.4"
         rx="0.000000"
         id="rect64100" />
      <path
         d="m 138.43,77.47 v 2.54"
         id="path64102" />
    </g>
    <g
       style="fill:#006464;fill-opacity:0;stroke:#006464;stroke-width:0.381;stroke-linecap:round;stroke-linejoin:round;stroke-opacity:1"
       id="g64106" />
    <g
       style="fill:#006464;fill-opacity:0;stroke:#006464;stroke-width:0.1524;stroke-linecap:round;stroke-linejoin:round;stroke-opacity:1"
       id="g64218">
      <g
         transform="rotate(-90,138.43,76.454)"
         id="g64110">
        <text
           x="138.42999"
           y="77.088997"
           textLength="9.698"
           font-size="1.6933px"
           lengthAdjust="spacingAndGlyphs"
           text-anchor="start"
           opacity="0"
           id="text64108">PDN_UART</text>
      </g>
      <g
         class="stroked-text"
         id="g64216">
        <desc
           id="desc64112">PDN_UART</desc>
        <path
           d="m 139.0095,76.0514 h -1.27"
           id="path64114" />
        <path
           d="M 137.7395,76.0514 V 75.5676"
           id="path64116" />
        <path
           d="M 137.7395,75.5676 137.8,75.4466"
           id="path64118" />
        <path
           d="m 137.8,75.4466 0.0605,-0.0605"
           id="path64120" />
        <path
           d="m 137.8605,75.3861 0.1209,-0.0604"
           id="path64122" />
        <path
           d="m 137.9814,75.3257 h 0.1815"
           id="path64124" />
        <path
           d="m 138.1629,75.3257 0.1209,0.0604"
           id="path64126" />
        <path
           d="m 138.2838,75.3861 0.0605,0.0605"
           id="path64128" />
        <path
           d="m 138.3443,75.4466 0.0605,0.121"
           id="path64130" />
        <path
           d="m 138.4048,75.5676 v 0.4838"
           id="path64132" />
        <path
           d="m 139.0095,74.7814 h -1.27"
           id="path64134" />
        <path
           d="M 137.7395,74.7814 V 74.479"
           id="path64136" />
        <path
           d="M 137.7395,74.479 137.8,74.2976"
           id="path64138" />
        <path
           d="m 137.8,74.2976 0.121,-0.121"
           id="path64140" />
        <path
           d="m 137.921,74.1766 0.1209,-0.0605"
           id="path64142" />
        <path
           d="m 138.0419,74.1161 0.2419,-0.0604"
           id="path64144" />
        <path
           d="m 138.2838,74.0557 h 0.1814"
           id="path64146" />
        <path
           d="m 138.4652,74.0557 0.2419,0.0604"
           id="path64148" />
        <path
           d="m 138.7071,74.1161 0.121,0.0605"
           id="path64150" />
        <path
           d="m 138.8281,74.1766 0.121,0.121"
           id="path64152" />
        <path
           d="m 138.9491,74.2976 0.0604,0.1814"
           id="path64154" />
        <path
           d="m 139.0095,74.479 v 0.3024"
           id="path64156" />
        <path
           d="m 139.0095,73.5114 h -1.27"
           id="path64158" />
        <path
           d="m 137.7395,73.5114 1.27,-0.7257"
           id="path64160" />
        <path
           d="m 139.0095,72.7857 h -1.27"
           id="path64162" />
        <path
           d="M 139.1305,72.4833 V 71.5156"
           id="path64164" />
        <path
           d="m 137.7395,71.2133 h 1.0281"
           id="path64166" />
        <path
           d="m 138.7676,71.2133 0.121,-0.0605"
           id="path64168" />
        <path
           d="m 138.8886,71.1528 0.0605,-0.0605"
           id="path64170" />
        <path
           d="m 138.9491,71.0923 0.0604,-0.1209"
           id="path64172" />
        <path
           d="M 139.0095,70.9714 V 70.7295"
           id="path64174" />
        <path
           d="m 139.0095,70.7295 -0.0604,-0.121"
           id="path64176" />
        <path
           d="M 138.9491,70.6085 138.8886,70.548"
           id="path64178" />
        <path
           d="m 138.8886,70.548 -0.121,-0.0604"
           id="path64180" />
        <path
           d="m 138.7676,70.4876 h -1.0281"
           id="path64182" />
        <path
           d="M 138.6467,69.9432 V 69.3385"
           id="path64184" />
        <path
           d="m 139.0095,70.0642 -1.27,-0.4233"
           id="path64186" />
        <path
           d="m 137.7395,69.6409 1.27,-0.4234"
           id="path64188" />
        <path
           d="m 139.0095,68.0685 -0.6047,0.4233"
           id="path64190" />
        <path
           d="m 139.0095,68.7942 h -1.27"
           id="path64192" />
        <path
           d="M 137.7395,68.7942 V 68.3104"
           id="path64194" />
        <path
           d="M 137.7395,68.3104 137.8,68.1894"
           id="path64196" />
        <path
           d="m 137.8,68.1894 0.0605,-0.0605"
           id="path64198" />
        <path
           d="m 137.8605,68.1289 0.1209,-0.0604"
           id="path64200" />
        <path
           d="m 137.9814,68.0685 h 0.1815"
           id="path64202" />
        <path
           d="m 138.1629,68.0685 0.1209,0.0604"
           id="path64204" />
        <path
           d="m 138.2838,68.1289 0.0605,0.0605"
           id="path64206" />
        <path
           d="m 138.3443,68.1894 0.0605,0.121"
           id="path64208" />
        <path
           d="m 138.4048,68.3104 v 0.4838"
           id="path64210" />
        <path
           d="M 137.7395,67.7056 V 66.9799"
           id="path64212" />
        <path
           d="m 139.0095,67.3427 h -1.27"
           id="path64214" />
      </g>
    </g>
    <g
       style="fill:#006464;fill-opacity:0;stroke:#006464;stroke-width:0.381;stroke-linecap:round;stroke-linejoin:round;stroke-opacity:1"
       id="g64390">
      <text
         x="138.42999"
         y="65.531998"
         textLength="11.0706"
         font-size="2.032px"
         lengthAdjust="spacingAndGlyphs"
         text-anchor="middle"
         opacity="0"
         id="text64220">TMC2209</text>
      <g
         class="stroked-text"
         id="g64388">
        <desc
           id="desc64222">TMC2209</desc>
        <path
           d="m 133.4589,63.9311 h 0.8709"
           id="path64224" />
        <path
           d="m 133.8943,65.4551 v -1.524"
           id="path64226" />
        <path
           d="m 134.8377,65.4551 v -1.524"
           id="path64228" />
        <path
           d="m 134.8377,63.9311 0.508,1.0886"
           id="path64230" />
        <path
           d="m 135.3457,65.0197 0.508,-1.0886"
           id="path64232" />
        <path
           d="m 135.8537,63.9311 v 1.524"
           id="path64234" />
        <path
           d="m 137.4503,65.31 -0.0726,0.0726"
           id="path64236" />
        <path
           d="M 137.3777,65.3826 137.16,65.4551"
           id="path64238" />
        <path
           d="m 137.16,65.4551 h -0.1452"
           id="path64240" />
        <path
           d="m 137.0148,65.4551 -0.2177,-0.0725"
           id="path64242" />
        <path
           d="M 136.7971,65.3826 136.652,65.2374"
           id="path64244" />
        <path
           d="m 136.652,65.2374 -0.0726,-0.1451"
           id="path64246" />
        <path
           d="M 136.5794,65.0923 136.5068,64.802"
           id="path64248" />
        <path
           d="M 136.5068,64.802 V 64.5843"
           id="path64250" />
        <path
           d="m 136.5068,64.5843 0.0726,-0.2903"
           id="path64252" />
        <path
           d="m 136.5794,64.294 0.0726,-0.1452"
           id="path64254" />
        <path
           d="m 136.652,64.1488 0.1451,-0.1451"
           id="path64256" />
        <path
           d="m 136.7971,64.0037 0.2177,-0.0726"
           id="path64258" />
        <path
           d="M 137.0148,63.9311 H 137.16"
           id="path64260" />
        <path
           d="m 137.16,63.9311 0.2177,0.0726"
           id="path64262" />
        <path
           d="m 137.3777,64.0037 0.0726,0.0726"
           id="path64264" />
        <path
           d="m 138.0308,64.0763 0.0726,-0.0726"
           id="path64266" />
        <path
           d="m 138.1034,64.0037 0.1452,-0.0726"
           id="path64268" />
        <path
           d="m 138.2486,63.9311 h 0.3628"
           id="path64270" />
        <path
           d="m 138.6114,63.9311 0.1452,0.0726"
           id="path64272" />
        <path
           d="m 138.7566,64.0037 0.0725,0.0726"
           id="path64274" />
        <path
           d="m 138.8291,64.0763 0.0726,0.1451"
           id="path64276" />
        <path
           d="m 138.9017,64.2214 v 0.1452"
           id="path64278" />
        <path
           d="m 138.9017,64.3666 -0.0726,0.2177"
           id="path64280" />
        <path
           d="m 138.8291,64.5843 -0.8708,0.8708"
           id="path64282" />
        <path
           d="m 137.9583,65.4551 h 0.9434"
           id="path64284" />
        <path
           d="m 139.4822,64.0763 0.0726,-0.0726"
           id="path64286" />
        <path
           d="M 139.5548,64.0037 139.7,63.9311"
           id="path64288" />
        <path
           d="m 139.7,63.9311 h 0.3628"
           id="path64290" />
        <path
           d="m 140.0628,63.9311 0.1452,0.0726"
           id="path64292" />
        <path
           d="m 140.208,64.0037 0.0725,0.0726"
           id="path64294" />
        <path
           d="m 140.2805,64.0763 0.0726,0.1451"
           id="path64296" />
        <path
           d="m 140.3531,64.2214 v 0.1452"
           id="path64298" />
        <path
           d="m 140.3531,64.3666 -0.0726,0.2177"
           id="path64300" />
        <path
           d="m 140.2805,64.5843 -0.8708,0.8708"
           id="path64302" />
        <path
           d="m 139.4097,65.4551 h 0.9434"
           id="path64304" />
        <path
           d="m 141.2965,63.9311 h 0.1451"
           id="path64306" />
        <path
           d="m 141.4416,63.9311 0.1452,0.0726"
           id="path64308" />
        <path
           d="m 141.5868,64.0037 0.0726,0.0726"
           id="path64310" />
        <path
           d="m 141.6594,64.0763 0.0725,0.1451"
           id="path64312" />
        <path
           d="m 141.7319,64.2214 0.0726,0.2903"
           id="path64314" />
        <path
           d="m 141.8045,64.5117 v 0.3629"
           id="path64316" />
        <path
           d="m 141.8045,64.8746 -0.0726,0.2902"
           id="path64318" />
        <path
           d="M 141.7319,65.1648 141.6594,65.31"
           id="path64320" />
        <path
           d="m 141.6594,65.31 -0.0726,0.0726"
           id="path64322" />
        <path
           d="m 141.5868,65.3826 -0.1452,0.0725"
           id="path64324" />
        <path
           d="m 141.4416,65.4551 h -0.1451"
           id="path64326" />
        <path
           d="m 141.2965,65.4551 -0.1451,-0.0725"
           id="path64328" />
        <path
           d="M 141.1514,65.3826 141.0788,65.31"
           id="path64330" />
        <path
           d="m 141.0788,65.31 -0.0726,-0.1452"
           id="path64332" />
        <path
           d="m 141.0062,65.1648 -0.0726,-0.2902"
           id="path64334" />
        <path
           d="M 140.9336,64.8746 V 64.5117"
           id="path64336" />
        <path
           d="m 140.9336,64.5117 0.0726,-0.2903"
           id="path64338" />
        <path
           d="m 141.0062,64.2214 0.0726,-0.1451"
           id="path64340" />
        <path
           d="m 141.0788,64.0763 0.0726,-0.0726"
           id="path64342" />
        <path
           d="m 141.1514,64.0037 0.1451,-0.0726"
           id="path64344" />
        <path
           d="m 142.5302,65.4551 h 0.2903"
           id="path64346" />
        <path
           d="m 142.8205,65.4551 0.1451,-0.0725"
           id="path64348" />
        <path
           d="M 142.9656,65.3826 143.0382,65.31"
           id="path64350" />
        <path
           d="m 143.0382,65.31 0.1451,-0.2177"
           id="path64352" />
        <path
           d="m 143.1833,65.0923 0.0726,-0.2903"
           id="path64354" />
        <path
           d="M 143.2559,64.802 V 64.2214"
           id="path64356" />
        <path
           d="m 143.2559,64.2214 -0.0726,-0.1451"
           id="path64358" />
        <path
           d="m 143.1833,64.0763 -0.0725,-0.0726"
           id="path64360" />
        <path
           d="m 143.1108,64.0037 -0.1452,-0.0726"
           id="path64362" />
        <path
           d="m 142.9656,63.9311 h -0.2903"
           id="path64364" />
        <path
           d="m 142.6753,63.9311 -0.1451,0.0726"
           id="path64366" />
        <path
           d="m 142.5302,64.0037 -0.0726,0.0726"
           id="path64368" />
        <path
           d="m 142.4576,64.0763 -0.0726,0.1451"
           id="path64370" />
        <path
           d="m 142.385,64.2214 v 0.3629"
           id="path64372" />
        <path
           d="m 142.385,64.5843 0.0726,0.1451"
           id="path64374" />
        <path
           d="m 142.4576,64.7294 0.0726,0.0726"
           id="path64376" />
        <path
           d="m 142.5302,64.802 0.1451,0.0726"
           id="path64378" />
        <path
           d="m 142.6753,64.8746 h 0.2903"
           id="path64380" />
        <path
           d="m 142.9656,64.8746 0.1452,-0.0726"
           id="path64382" />
        <path
           d="m 143.1108,64.802 0.0725,-0.0726"
           id="path64384" />
        <path
           d="m 143.1833,64.7294 0.0726,-0.1451"
           id="path64386" />
      </g>
    </g>
  </g>
  <g
     style="fill:#006464;fill-opacity:0;stroke:#006464;stroke-width:0.1524;stroke-linecap:round;stroke-linejoin:round;stroke-opacity:1"
     id="g64690"
     transform="translate(-77.279501,-51.8795)">
    <g
       id="g64394" />
    <g
       style="fill:#840000;fill-opacity:0;stroke:#840000;stroke-width:0.1524;stroke-linecap:round;stroke-linejoin:round;stroke-opacity:1"
       id="g64396" />
    <g
       style="fill:#840000;fill-opacity:0;stroke:#840000;stroke-width:0.381;stroke-linecap:round;stroke-linejoin:round;stroke-opacity:1"
       id="g64402">
      <rect
         x="151.13"
         y="52.07"
         width="20.32"
         height="25.4"
         rx="0.000000"
         id="rect64398" />
      <path
         d="m 161.29,77.47 v 2.54"
         id="path64400" />
    </g>
    <g
       style="fill:#006464;fill-opacity:0;stroke:#006464;stroke-width:0.381;stroke-linecap:round;stroke-linejoin:round;stroke-opacity:1"
       id="g64404" />
    <g
       style="fill:#006464;fill-opacity:0;stroke:#006464;stroke-width:0.1524;stroke-linecap:round;stroke-linejoin:round;stroke-opacity:1"
       id="g64516">
      <g
         transform="rotate(-90,161.29,76.454)"
         id="g64408">
        <text
           x="161.28999"
           y="77.088997"
           textLength="9.698"
           font-size="1.6933px"
           lengthAdjust="spacingAndGlyphs"
           text-anchor="start"
           opacity="0"
           id="text64406">PDN_UART</text>
      </g>
      <g
         class="stroked-text"
         id="g64514">
        <desc
           id="desc64410">PDN_UART</desc>
        <path
           d="m 161.8695,76.0514 h -1.27"
           id="path64412" />
        <path
           d="M 160.5995,76.0514 V 75.5676"
           id="path64414" />
        <path
           d="m 160.5995,75.5676 0.0605,-0.121"
           id="path64416" />
        <path
           d="m 160.66,75.4466 0.0605,-0.0605"
           id="path64418" />
        <path
           d="m 160.7205,75.3861 0.1209,-0.0604"
           id="path64420" />
        <path
           d="m 160.8414,75.3257 h 0.1815"
           id="path64422" />
        <path
           d="m 161.0229,75.3257 0.1209,0.0604"
           id="path64424" />
        <path
           d="m 161.1438,75.3861 0.0605,0.0605"
           id="path64426" />
        <path
           d="m 161.2043,75.4466 0.0605,0.121"
           id="path64428" />
        <path
           d="m 161.2648,75.5676 v 0.4838"
           id="path64430" />
        <path
           d="m 161.8695,74.7814 h -1.27"
           id="path64432" />
        <path
           d="M 160.5995,74.7814 V 74.479"
           id="path64434" />
        <path
           d="M 160.5995,74.479 160.66,74.2976"
           id="path64436" />
        <path
           d="m 160.66,74.2976 0.121,-0.121"
           id="path64438" />
        <path
           d="m 160.781,74.1766 0.1209,-0.0605"
           id="path64440" />
        <path
           d="m 160.9019,74.1161 0.2419,-0.0604"
           id="path64442" />
        <path
           d="m 161.1438,74.0557 h 0.1814"
           id="path64444" />
        <path
           d="m 161.3252,74.0557 0.2419,0.0604"
           id="path64446" />
        <path
           d="m 161.5671,74.1161 0.121,0.0605"
           id="path64448" />
        <path
           d="m 161.6881,74.1766 0.121,0.121"
           id="path64450" />
        <path
           d="m 161.8091,74.2976 0.0604,0.1814"
           id="path64452" />
        <path
           d="m 161.8695,74.479 v 0.3024"
           id="path64454" />
        <path
           d="m 161.8695,73.5114 h -1.27"
           id="path64456" />
        <path
           d="m 160.5995,73.5114 1.27,-0.7257"
           id="path64458" />
        <path
           d="m 161.8695,72.7857 h -1.27"
           id="path64460" />
        <path
           d="M 161.9905,72.4833 V 71.5156"
           id="path64462" />
        <path
           d="m 160.5995,71.2133 h 1.0281"
           id="path64464" />
        <path
           d="m 161.6276,71.2133 0.121,-0.0605"
           id="path64466" />
        <path
           d="m 161.7486,71.1528 0.0605,-0.0605"
           id="path64468" />
        <path
           d="m 161.8091,71.0923 0.0604,-0.1209"
           id="path64470" />
        <path
           d="M 161.8695,70.9714 V 70.7295"
           id="path64472" />
        <path
           d="m 161.8695,70.7295 -0.0604,-0.121"
           id="path64474" />
        <path
           d="M 161.8091,70.6085 161.7486,70.548"
           id="path64476" />
        <path
           d="m 161.7486,70.548 -0.121,-0.0604"
           id="path64478" />
        <path
           d="m 161.6276,70.4876 h -1.0281"
           id="path64480" />
        <path
           d="M 161.5067,69.9432 V 69.3385"
           id="path64482" />
        <path
           d="m 161.8695,70.0642 -1.27,-0.4233"
           id="path64484" />
        <path
           d="m 160.5995,69.6409 1.27,-0.4234"
           id="path64486" />
        <path
           d="m 161.8695,68.0685 -0.6047,0.4233"
           id="path64488" />
        <path
           d="m 161.8695,68.7942 h -1.27"
           id="path64490" />
        <path
           d="M 160.5995,68.7942 V 68.3104"
           id="path64492" />
        <path
           d="m 160.5995,68.3104 0.0605,-0.121"
           id="path64494" />
        <path
           d="m 160.66,68.1894 0.0605,-0.0605"
           id="path64496" />
        <path
           d="m 160.7205,68.1289 0.1209,-0.0604"
           id="path64498" />
        <path
           d="m 160.8414,68.0685 h 0.1815"
           id="path64500" />
        <path
           d="m 161.0229,68.0685 0.1209,0.0604"
           id="path64502" />
        <path
           d="m 161.1438,68.1289 0.0605,0.0605"
           id="path64504" />
        <path
           d="m 161.2043,68.1894 0.0605,0.121"
           id="path64506" />
        <path
           d="m 161.2648,68.3104 v 0.4838"
           id="path64508" />
        <path
           d="M 160.5995,67.7056 V 66.9799"
           id="path64510" />
        <path
           d="m 161.8695,67.3427 h -1.27"
           id="path64512" />
      </g>
    </g>
    <g
       style="fill:#006464;fill-opacity:0;stroke:#006464;stroke-width:0.381;stroke-linecap:round;stroke-linejoin:round;stroke-opacity:1"
       id="g64688">
      <text
         x="161.28999"
         y="65.531998"
         textLength="11.0706"
         font-size="2.032px"
         lengthAdjust="spacingAndGlyphs"
         text-anchor="middle"
         opacity="0"
         id="text64518">TMC2209</text>
      <g
         class="stroked-text"
         id="g64686">
        <desc
           id="desc64520">TMC2209</desc>
        <path
           d="m 156.3189,63.9311 h 0.8709"
           id="path64522" />
        <path
           d="m 156.7543,65.4551 v -1.524"
           id="path64524" />
        <path
           d="m 157.6977,65.4551 v -1.524"
           id="path64526" />
        <path
           d="m 157.6977,63.9311 0.508,1.0886"
           id="path64528" />
        <path
           d="m 158.2057,65.0197 0.508,-1.0886"
           id="path64530" />
        <path
           d="m 158.7137,63.9311 v 1.524"
           id="path64532" />
        <path
           d="m 160.3103,65.31 -0.0726,0.0726"
           id="path64534" />
        <path
           d="M 160.2377,65.3826 160.02,65.4551"
           id="path64536" />
        <path
           d="m 160.02,65.4551 h -0.1452"
           id="path64538" />
        <path
           d="m 159.8748,65.4551 -0.2177,-0.0725"
           id="path64540" />
        <path
           d="M 159.6571,65.3826 159.512,65.2374"
           id="path64542" />
        <path
           d="m 159.512,65.2374 -0.0726,-0.1451"
           id="path64544" />
        <path
           d="M 159.4394,65.0923 159.3668,64.802"
           id="path64546" />
        <path
           d="M 159.3668,64.802 V 64.5843"
           id="path64548" />
        <path
           d="m 159.3668,64.5843 0.0726,-0.2903"
           id="path64550" />
        <path
           d="m 159.4394,64.294 0.0726,-0.1452"
           id="path64552" />
        <path
           d="m 159.512,64.1488 0.1451,-0.1451"
           id="path64554" />
        <path
           d="m 159.6571,64.0037 0.2177,-0.0726"
           id="path64556" />
        <path
           d="M 159.8748,63.9311 H 160.02"
           id="path64558" />
        <path
           d="m 160.02,63.9311 0.2177,0.0726"
           id="path64560" />
        <path
           d="m 160.2377,64.0037 0.0726,0.0726"
           id="path64562" />
        <path
           d="m 160.8908,64.0763 0.0726,-0.0726"
           id="path64564" />
        <path
           d="m 160.9634,64.0037 0.1452,-0.0726"
           id="path64566" />
        <path
           d="m 161.1086,63.9311 h 0.3628"
           id="path64568" />
        <path
           d="m 161.4714,63.9311 0.1452,0.0726"
           id="path64570" />
        <path
           d="m 161.6166,64.0037 0.0725,0.0726"
           id="path64572" />
        <path
           d="m 161.6891,64.0763 0.0726,0.1451"
           id="path64574" />
        <path
           d="m 161.7617,64.2214 v 0.1452"
           id="path64576" />
        <path
           d="m 161.7617,64.3666 -0.0726,0.2177"
           id="path64578" />
        <path
           d="m 161.6891,64.5843 -0.8708,0.8708"
           id="path64580" />
        <path
           d="m 160.8183,65.4551 h 0.9434"
           id="path64582" />
        <path
           d="m 162.3422,64.0763 0.0726,-0.0726"
           id="path64584" />
        <path
           d="M 162.4148,64.0037 162.56,63.9311"
           id="path64586" />
        <path
           d="m 162.56,63.9311 h 0.3628"
           id="path64588" />
        <path
           d="m 162.9228,63.9311 0.1452,0.0726"
           id="path64590" />
        <path
           d="m 163.068,64.0037 0.0725,0.0726"
           id="path64592" />
        <path
           d="m 163.1405,64.0763 0.0726,0.1451"
           id="path64594" />
        <path
           d="m 163.2131,64.2214 v 0.1452"
           id="path64596" />
        <path
           d="m 163.2131,64.3666 -0.0726,0.2177"
           id="path64598" />
        <path
           d="m 163.1405,64.5843 -0.8708,0.8708"
           id="path64600" />
        <path
           d="m 162.2697,65.4551 h 0.9434"
           id="path64602" />
        <path
           d="m 164.1565,63.9311 h 0.1451"
           id="path64604" />
        <path
           d="m 164.3016,63.9311 0.1452,0.0726"
           id="path64606" />
        <path
           d="m 164.4468,64.0037 0.0726,0.0726"
           id="path64608" />
        <path
           d="m 164.5194,64.0763 0.0725,0.1451"
           id="path64610" />
        <path
           d="m 164.5919,64.2214 0.0726,0.2903"
           id="path64612" />
        <path
           d="m 164.6645,64.5117 v 0.3629"
           id="path64614" />
        <path
           d="m 164.6645,64.8746 -0.0726,0.2902"
           id="path64616" />
        <path
           d="M 164.5919,65.1648 164.5194,65.31"
           id="path64618" />
        <path
           d="m 164.5194,65.31 -0.0726,0.0726"
           id="path64620" />
        <path
           d="m 164.4468,65.3826 -0.1452,0.0725"
           id="path64622" />
        <path
           d="m 164.3016,65.4551 h -0.1451"
           id="path64624" />
        <path
           d="m 164.1565,65.4551 -0.1451,-0.0725"
           id="path64626" />
        <path
           d="M 164.0114,65.3826 163.9388,65.31"
           id="path64628" />
        <path
           d="m 163.9388,65.31 -0.0726,-0.1452"
           id="path64630" />
        <path
           d="m 163.8662,65.1648 -0.0726,-0.2902"
           id="path64632" />
        <path
           d="M 163.7936,64.8746 V 64.5117"
           id="path64634" />
        <path
           d="m 163.7936,64.5117 0.0726,-0.2903"
           id="path64636" />
        <path
           d="m 163.8662,64.2214 0.0726,-0.1451"
           id="path64638" />
        <path
           d="m 163.9388,64.0763 0.0726,-0.0726"
           id="path64640" />
        <path
           d="m 164.0114,64.0037 0.1451,-0.0726"
           id="path64642" />
        <path
           d="m 165.3902,65.4551 h 0.2903"
           id="path64644" />
        <path
           d="m 165.6805,65.4551 0.1451,-0.0725"
           id="path64646" />
        <path
           d="M 165.8256,65.3826 165.8982,65.31"
           id="path64648" />
        <path
           d="m 165.8982,65.31 0.1451,-0.2177"
           id="path64650" />
        <path
           d="m 166.0433,65.0923 0.0726,-0.2903"
           id="path64652" />
        <path
           d="M 166.1159,64.802 V 64.2214"
           id="path64654" />
        <path
           d="m 166.1159,64.2214 -0.0726,-0.1451"
           id="path64656" />
        <path
           d="m 166.0433,64.0763 -0.0725,-0.0726"
           id="path64658" />
        <path
           d="m 165.9708,64.0037 -0.1452,-0.0726"
           id="path64660" />
        <path
           d="m 165.8256,63.9311 h -0.2903"
           id="path64662" />
        <path
           d="m 165.5353,63.9311 -0.1451,0.0726"
           id="path64664" />
        <path
           d="m 165.3902,64.0037 -0.0726,0.0726"
           id="path64666" />
        <path
           d="m 165.3176,64.0763 -0.0726,0.1451"
           id="path64668" />
        <path
           d="m 165.245,64.2214 v 0.3629"
           id="path64670" />
        <path
           d="m 165.245,64.5843 0.0726,0.1451"
           id="path64672" />
        <path
           d="m 165.3176,64.7294 0.0726,0.0726"
           id="path64674" />
        <path
           d="m 165.3902,64.802 0.1451,0.0726"
           id="path64676" />
        <path
           d="m 165.5353,64.8746 h 0.2903"
           id="path64678" />
        <path
           d="m 165.8256,64.8746 0.1452,-0.0726"
           id="path64680" />
        <path
           d="m 165.9708,64.802 0.0725,-0.0726"
           id="path64682" />
        <path
           d="m 166.0433,64.7294 0.0726,-0.1451"
           id="path64684" />
      </g>
    </g>
  </g>
  <g
     style="fill:#006464;fill-opacity:0;stroke:#006464;stroke-width:0.1524;stroke-linecap:round;stroke-linejoin:round;stroke-opacity:1"
     id="g65038"
     transform="translate(-77.279501,-51.8795)">
    <g
       id="g64692" />
    <g
       style="fill:#840000;fill-opacity:0;stroke:#840000;stroke-width:0.1524;stroke-linecap:round;stroke-linejoin:round;stroke-opacity:1"
       id="g64694" />
    <g
       style="fill:#840000;fill-opacity:0;stroke:#840000;stroke-width:0.381;stroke-linecap:round;stroke-linejoin:round;stroke-opacity:1"
       id="g64700">
      <rect
         x="77.470001"
         y="83.82"
         width="20.32"
         height="25.4"
         rx="0.000000"
         id="rect64696" />
      <path
         d="m 97.79,106.68 h 2.54"
         id="path64698" />
    </g>
    <g
       style="fill:#006464;fill-opacity:0;stroke:#006464;stroke-width:0.381;stroke-linecap:round;stroke-linejoin:round;stroke-opacity:1"
       id="g64702" />
    <g
       style="fill:#006464;fill-opacity:0;stroke:#006464;stroke-width:0.1524;stroke-linecap:round;stroke-linejoin:round;stroke-opacity:1"
       id="g64736">
      <text
         x="96.774002"
         y="107.315"
         textLength="2.6826999"
         font-size="1.6933px"
         lengthAdjust="spacingAndGlyphs"
         text-anchor="end"
         opacity="0"
         id="text64704">RX</text>
      <g
         class="stroked-text"
         id="g64734">
        <desc
           id="desc64706">RX</desc>
        <path
           d="M 95.2223,107.2595 94.799,106.6548"
           id="path64708" />
        <path
           d="m 94.4966,107.2595 v -1.27"
           id="path64710" />
        <path
           d="m 94.4966,105.9895 h 0.4838"
           id="path64712" />
        <path
           d="m 94.9804,105.9895 0.121,0.0605"
           id="path64714" />
        <path
           d="m 95.1014,106.05 0.0605,0.0605"
           id="path64716" />
        <path
           d="m 95.1619,106.1105 0.0604,0.1209"
           id="path64718" />
        <path
           d="m 95.2223,106.2314 v 0.1815"
           id="path64720" />
        <path
           d="m 95.2223,106.4129 -0.0604,0.1209"
           id="path64722" />
        <path
           d="m 95.1619,106.5338 -0.0605,0.0605"
           id="path64724" />
        <path
           d="m 95.1014,106.5943 -0.121,0.0605"
           id="path64726" />
        <path
           d="M 94.9804,106.6548 H 94.4966"
           id="path64728" />
        <path
           d="m 95.6457,105.9895 0.8466,1.27"
           id="path64730" />
        <path
           d="m 96.4923,105.9895 -0.8466,1.27"
           id="path64732" />
      </g>
    </g>
    <g
       style="fill:#840000;fill-opacity:0;stroke:#840000;stroke-width:0.1524;stroke-linecap:round;stroke-linejoin:round;stroke-opacity:1"
       id="g64738" />
    <g
       style="fill:#840000;fill-opacity:0;stroke:#840000;stroke-width:0.381;stroke-linecap:round;stroke-linejoin:round;stroke-opacity:1"
       id="g64742">
      <path
         d="m 97.79,87.63 h 2.54"
         id="path64740" />
    </g>
    <g
       style="fill:#006464;fill-opacity:0;stroke:#006464;stroke-width:0.381;stroke-linecap:round;stroke-linejoin:round;stroke-opacity:1"
       id="g64744" />
    <g
       style="fill:#006464;fill-opacity:0;stroke:#006464;stroke-width:0.1524;stroke-linecap:round;stroke-linejoin:round;stroke-opacity:1"
       id="g64760">
      <text
         x="96.774002"
         y="88.264999"
         textLength="2.3803"
         font-size="1.6933px"
         lengthAdjust="spacingAndGlyphs"
         text-anchor="end"
         opacity="0"
         id="text64746">TX</text>
      <g
         class="stroked-text"
         id="g64758">
        <desc
           id="desc64748">TX</desc>
        <path
           d="m 94.6176,86.9395 h 0.7257"
           id="path64750" />
        <path
           d="m 94.9805,88.2095 v -1.27"
           id="path64752" />
        <path
           d="m 95.6457,86.9395 0.8466,1.27"
           id="path64754" />
        <path
           d="m 96.4923,86.9395 -0.8466,1.27"
           id="path64756" />
      </g>
    </g>
    <g
       style="fill:#006464;fill-opacity:0;stroke:#006464;stroke-width:0.381;stroke-linecap:round;stroke-linejoin:round;stroke-opacity:1"
       id="g65036">
      <text
         x="87.629997"
         y="97.281998"
         textLength="18.3281"
         font-size="2.032px"
         lengthAdjust="spacingAndGlyphs"
         text-anchor="middle"
         opacity="0"
         id="text64762">microcontroller</text>
      <g
         class="stroked-text"
         id="g65034">
        <desc
           id="desc64764">microcontroller</desc>
        <path
           d="m 79.2479,97.2051 v -1.016"
           id="path64766" />
        <path
           d="m 79.2479,96.3343 0.0726,-0.0726"
           id="path64768" />
        <path
           d="m 79.3205,96.2617 0.1451,-0.0726"
           id="path64770" />
        <path
           d="m 79.4656,96.1891 h 0.2177"
           id="path64772" />
        <path
           d="m 79.6833,96.1891 0.1452,0.0726"
           id="path64774" />
        <path
           d="m 79.8285,96.2617 0.0726,0.1451"
           id="path64776" />
        <path
           d="m 79.9011,96.4068 v 0.7983"
           id="path64778" />
        <path
           d="m 79.9011,96.4068 0.0725,-0.1451"
           id="path64780" />
        <path
           d="m 79.9736,96.2617 0.1452,-0.0726"
           id="path64782" />
        <path
           d="m 80.1188,96.1891 h 0.2177"
           id="path64784" />
        <path
           d="m 80.3365,96.1891 0.1451,0.0726"
           id="path64786" />
        <path
           d="m 80.4816,96.2617 0.0726,0.1451"
           id="path64788" />
        <path
           d="m 80.5542,96.4068 v 0.7983"
           id="path64790" />
        <path
           d="m 81.2799,97.2051 v -1.016"
           id="path64792" />
        <path
           d="m 81.2799,95.6811 -0.0726,0.0726"
           id="path64794" />
        <path
           d="m 81.2073,95.7537 0.0726,0.0726"
           id="path64796" />
        <path
           d="m 81.2799,95.8263 0.0726,-0.0726"
           id="path64798" />
        <path
           d="M 81.3525,95.7537 81.2799,95.6811"
           id="path64800" />
        <path
           d="m 81.2799,95.6811 v 0.1452"
           id="path64802" />
        <path
           d="m 82.6588,97.1326 -0.1452,0.0725"
           id="path64804" />
        <path
           d="M 82.5136,97.2051 H 82.2233"
           id="path64806" />
        <path
           d="M 82.2233,97.2051 82.0782,97.1326"
           id="path64808" />
        <path
           d="M 82.0782,97.1326 82.0056,97.06"
           id="path64810" />
        <path
           d="M 82.0056,97.06 81.933,96.9148"
           id="path64812" />
        <path
           d="M 81.933,96.9148 V 96.4794"
           id="path64814" />
        <path
           d="m 81.933,96.4794 0.0726,-0.1451"
           id="path64816" />
        <path
           d="m 82.0056,96.3343 0.0726,-0.0726"
           id="path64818" />
        <path
           d="m 82.0782,96.2617 0.1451,-0.0726"
           id="path64820" />
        <path
           d="m 82.2233,96.1891 h 0.2903"
           id="path64822" />
        <path
           d="m 82.5136,96.1891 0.1452,0.0726"
           id="path64824" />
        <path
           d="m 83.3119,97.2051 v -1.016"
           id="path64826" />
        <path
           d="m 83.3119,96.4794 0.0726,-0.1451"
           id="path64828" />
        <path
           d="m 83.3845,96.3343 0.0726,-0.0726"
           id="path64830" />
        <path
           d="m 83.4571,96.2617 0.1451,-0.0726"
           id="path64832" />
        <path
           d="m 83.6022,96.1891 h 0.1451"
           id="path64834" />
        <path
           d="M 84.473,97.2051 84.3279,97.1326"
           id="path64836" />
        <path
           d="M 84.3279,97.1326 84.2553,97.06"
           id="path64838" />
        <path
           d="M 84.2553,97.06 84.1827,96.9148"
           id="path64840" />
        <path
           d="M 84.1827,96.9148 V 96.4794"
           id="path64842" />
        <path
           d="m 84.1827,96.4794 0.0726,-0.1451"
           id="path64844" />
        <path
           d="m 84.2553,96.3343 0.0726,-0.0726"
           id="path64846" />
        <path
           d="M 84.3279,96.2617 84.473,96.1891"
           id="path64848" />
        <path
           d="m 84.473,96.1891 h 0.2177"
           id="path64850" />
        <path
           d="m 84.6907,96.1891 0.1452,0.0726"
           id="path64852" />
        <path
           d="m 84.8359,96.2617 0.0726,0.0726"
           id="path64854" />
        <path
           d="m 84.9085,96.3343 0.0725,0.1451"
           id="path64856" />
        <path
           d="m 84.981,96.4794 v 0.4354"
           id="path64858" />
        <path
           d="M 84.981,96.9148 84.9085,97.06"
           id="path64860" />
        <path
           d="m 84.9085,97.06 -0.0726,0.0726"
           id="path64862" />
        <path
           d="m 84.8359,97.1326 -0.1452,0.0725"
           id="path64864" />
        <path
           d="M 84.6907,97.2051 H 84.473"
           id="path64866" />
        <path
           d="m 86.2874,97.1326 -0.1452,0.0725"
           id="path64868" />
        <path
           d="M 86.1422,97.2051 H 85.8519"
           id="path64870" />
        <path
           d="M 85.8519,97.2051 85.7068,97.1326"
           id="path64872" />
        <path
           d="M 85.7068,97.1326 85.6342,97.06"
           id="path64874" />
        <path
           d="M 85.6342,97.06 85.5616,96.9148"
           id="path64876" />
        <path
           d="M 85.5616,96.9148 V 96.4794"
           id="path64878" />
        <path
           d="m 85.5616,96.4794 0.0726,-0.1451"
           id="path64880" />
        <path
           d="m 85.6342,96.3343 0.0726,-0.0726"
           id="path64882" />
        <path
           d="m 85.7068,96.2617 0.1451,-0.0726"
           id="path64884" />
        <path
           d="m 85.8519,96.1891 h 0.2903"
           id="path64886" />
        <path
           d="m 86.1422,96.1891 0.1452,0.0726"
           id="path64888" />
        <path
           d="M 87.1582,97.2051 87.0131,97.1326"
           id="path64890" />
        <path
           d="M 87.0131,97.1326 86.9405,97.06"
           id="path64892" />
        <path
           d="M 86.9405,97.06 86.8679,96.9148"
           id="path64894" />
        <path
           d="M 86.8679,96.9148 V 96.4794"
           id="path64896" />
        <path
           d="m 86.8679,96.4794 0.0726,-0.1451"
           id="path64898" />
        <path
           d="m 86.9405,96.3343 0.0726,-0.0726"
           id="path64900" />
        <path
           d="m 87.0131,96.2617 0.1451,-0.0726"
           id="path64902" />
        <path
           d="m 87.1582,96.1891 h 0.2177"
           id="path64904" />
        <path
           d="m 87.3759,96.1891 0.1452,0.0726"
           id="path64906" />
        <path
           d="m 87.5211,96.2617 0.0726,0.0726"
           id="path64908" />
        <path
           d="m 87.5937,96.3343 0.0725,0.1451"
           id="path64910" />
        <path
           d="m 87.6662,96.4794 v 0.4354"
           id="path64912" />
        <path
           d="M 87.6662,96.9148 87.5937,97.06"
           id="path64914" />
        <path
           d="m 87.5937,97.06 -0.0726,0.0726"
           id="path64916" />
        <path
           d="m 87.5211,97.1326 -0.1452,0.0725"
           id="path64918" />
        <path
           d="M 87.3759,97.2051 H 87.1582"
           id="path64920" />
        <path
           d="m 88.3194,96.1891 v 1.016"
           id="path64922" />
        <path
           d="M 88.3194,96.3343 88.392,96.2617"
           id="path64924" />
        <path
           d="m 88.392,96.2617 0.1451,-0.0726"
           id="path64926" />
        <path
           d="m 88.5371,96.1891 h 0.2177"
           id="path64928" />
        <path
           d="M 88.7548,96.1891 88.9,96.2617"
           id="path64930" />
        <path
           d="m 88.9,96.2617 0.0726,0.1451"
           id="path64932" />
        <path
           d="m 88.9726,96.4068 v 0.7983"
           id="path64934" />
        <path
           d="m 89.4806,96.1891 h 0.5806"
           id="path64936" />
        <path
           d="m 89.6983,95.6811 v 1.3063"
           id="path64938" />
        <path
           d="m 89.6983,96.9874 0.0726,0.1452"
           id="path64940" />
        <path
           d="m 89.7709,97.1326 0.1451,0.0725"
           id="path64942" />
        <path
           d="m 89.916,97.2051 h 0.1452"
           id="path64944" />
        <path
           d="m 90.5692,97.2051 v -1.016"
           id="path64946" />
        <path
           d="m 90.5692,96.4794 0.0726,-0.1451"
           id="path64948" />
        <path
           d="m 90.6418,96.3343 0.0726,-0.0726"
           id="path64950" />
        <path
           d="m 90.7144,96.2617 0.1451,-0.0726"
           id="path64952" />
        <path
           d="m 90.8595,96.1891 h 0.1451"
           id="path64954" />
        <path
           d="M 91.7303,97.2051 91.5852,97.1326"
           id="path64956" />
        <path
           d="M 91.5852,97.1326 91.5126,97.06"
           id="path64958" />
        <path
           d="M 91.5126,97.06 91.44,96.9148"
           id="path64960" />
        <path
           d="M 91.44,96.9148 V 96.4794"
           id="path64962" />
        <path
           d="m 91.44,96.4794 0.0726,-0.1451"
           id="path64964" />
        <path
           d="m 91.5126,96.3343 0.0726,-0.0726"
           id="path64966" />
        <path
           d="m 91.5852,96.2617 0.1451,-0.0726"
           id="path64968" />
        <path
           d="M 91.7303,96.1891 H 91.948"
           id="path64970" />
        <path
           d="m 91.948,96.1891 0.1452,0.0726"
           id="path64972" />
        <path
           d="m 92.0932,96.2617 0.0726,0.0726"
           id="path64974" />
        <path
           d="m 92.1658,96.3343 0.0725,0.1451"
           id="path64976" />
        <path
           d="m 92.2383,96.4794 v 0.4354"
           id="path64978" />
        <path
           d="M 92.2383,96.9148 92.1658,97.06"
           id="path64980" />
        <path
           d="m 92.1658,97.06 -0.0726,0.0726"
           id="path64982" />
        <path
           d="M 92.0932,97.1326 91.948,97.2051"
           id="path64984" />
        <path
           d="M 91.948,97.2051 H 91.7303"
           id="path64986" />
        <path
           d="M 93.1092,97.2051 92.9641,97.1326"
           id="path64988" />
        <path
           d="M 92.9641,97.1326 92.8915,96.9874"
           id="path64990" />
        <path
           d="M 92.8915,96.9874 V 95.6811"
           id="path64992" />
        <path
           d="M 93.9075,97.2051 93.7624,97.1326"
           id="path64994" />
        <path
           d="M 93.7624,97.1326 93.6898,96.9874"
           id="path64996" />
        <path
           d="M 93.6898,96.9874 V 95.6811"
           id="path64998" />
        <path
           d="m 95.0687,97.1326 -0.1452,0.0725"
           id="path65000" />
        <path
           d="M 94.9235,97.2051 H 94.6333"
           id="path65002" />
        <path
           d="M 94.6333,97.2051 94.4881,97.1326"
           id="path65004" />
        <path
           d="M 94.4881,97.1326 94.4155,96.9874"
           id="path65006" />
        <path
           d="M 94.4155,96.9874 V 96.4068"
           id="path65008" />
        <path
           d="m 94.4155,96.4068 0.0726,-0.1451"
           id="path65010" />
        <path
           d="m 94.4881,96.2617 0.1452,-0.0726"
           id="path65012" />
        <path
           d="m 94.6333,96.1891 h 0.2902"
           id="path65014" />
        <path
           d="m 94.9235,96.1891 0.1452,0.0726"
           id="path65016" />
        <path
           d="m 95.0687,96.2617 0.0726,0.1451"
           id="path65018" />
        <path
           d="M 95.1413,96.4068 V 96.552"
           id="path65020" />
        <path
           d="m 95.1413,96.552 -0.7258,0.1451"
           id="path65022" />
        <path
           d="m 95.7944,97.2051 v -1.016"
           id="path65024" />
        <path
           d="M 95.7944,96.4794 95.867,96.3343"
           id="path65026" />
        <path
           d="m 95.867,96.3343 0.0726,-0.0726"
           id="path65028" />
        <path
           d="m 95.9396,96.2617 0.1451,-0.0726"
           id="path65030" />
        <path
           d="m 96.0847,96.1891 h 0.1451"
           id="path65032" />
      </g>
    </g>
  </g>
  <g
     style="fill:#006464;fill-opacity:0;stroke:#006464;stroke-width:0.1524;stroke-linecap:round;stroke-linejoin:round;stroke-opacity:1"
     id="g65040"
     transform="translate(-77.279501,-51.8795)" />
  <g
     style="fill:#009600;fill-opacity:0;stroke:#009600;stroke-width:0.1524;stroke-linecap:round;stroke-linejoin:round;stroke-opacity:1"
     id="g65042"
     transform="translate(-77.279501,-51.8795)" />
  <g
     style="fill:#009600;fill-opacity:0;stroke:#009600;stroke-width:0.381;stroke-linecap:round;stroke-linejoin:round;stroke-opacity:1"
     id="g65046"
     transform="translate(-77.279501,-51.8795)">
    <path
       d="m 138.43,87.63 h 22.86"
       id="path65044" />
  </g>
  <g
     style="fill:#009600;fill-opacity:0;stroke:#009600;stroke-width:0.1524;stroke-linecap:round;stroke-linejoin:round;stroke-opacity:1"
     id="g65048"
     transform="translate(-77.279501,-51.8795)" />
  <g
     style="fill:#009600;fill-opacity:0;stroke:#009600;stroke-width:0.381;stroke-linecap:round;stroke-linejoin:round;stroke-opacity:1"
     id="g65052"
     transform="translate(-77.279501,-51.8795)">
    <path
       d="m 138.43,80.01 v 7.62"
       id="path65050" />
  </g>
  <g
     style="fill:#009600;fill-opacity:0;stroke:#009600;stroke-width:0.1524;stroke-linecap:round;stroke-linejoin:round;stroke-opacity:1"
     id="g65054"
     transform="translate(-77.279501,-51.8795)" />
  <g
     style="fill:#009600;fill-opacity:0;stroke:#009600;stroke-width:0.381;stroke-linecap:round;stroke-linejoin:round;stroke-opacity:1"
     id="g65058"
     transform="translate(-77.279501,-51.8795)">
    <path
       d="m 161.29,80.01 v 7.62"
       id="path65056" />
  </g>
  <g
     style="fill:#009600;fill-opacity:0;stroke:#009600;stroke-width:0.1524;stroke-linecap:round;stroke-linejoin:round;stroke-opacity:1"
     id="g65060"
     transform="translate(-77.279501,-51.8795)" />
  <g
     style="fill:#009600;fill-opacity:0;stroke:#009600;stroke-width:0.381;stroke-linecap:round;stroke-linejoin:round;stroke-opacity:1"
     id="g65064"
     transform="translate(-77.279501,-51.8795)">
    <path
       d="m 100.33,87.63 h 38.1"
       id="path65062" />
  </g>
  <g
     style="fill:#009600;fill-opacity:0;stroke:#009600;stroke-width:0.1524;stroke-linecap:round;stroke-linejoin:round;stroke-opacity:1"
     id="g65066"
     transform="translate(-77.279501,-51.8795)" />
  <g
     style="fill:#000084;fill-opacity:0;stroke:#000084;stroke-width:0.1524;stroke-linecap:round;stroke-linejoin:round;stroke-opacity:1"
     id="g65072"
     transform="translate(-77.279501,-51.8795)">
    <path
       d="m 99.7204,106.0704 1.2192,1.2192"
       id="path65068" />
    <path
       d="m 100.9396,106.0704 -1.2192,1.2192"
       id="path65070" />
  </g>
  <g
     style="fill:#009600;fill-opacity:0;stroke:#009600;stroke-width:0.1524;stroke-linecap:round;stroke-linejoin:round;stroke-opacity:1"
     id="g65074"
     transform="translate(-77.279501,-51.8795)" />
  <g
     style="fill:#009600;fill-opacity:1;stroke:#009600;stroke-width:0.1524;stroke-linecap:round;stroke-linejoin:round;stroke-opacity:1"
     id="g65078"
     transform="translate(-77.279501,-51.8795)">
    <circle
       cx="138.42999"
       cy="87.629997"
       r="0.45719999"
       id="circle65076" />
  </g>
</svg>
