<?xml version="1.0" encoding="UTF-8" standalone="no"?>
<svg
   xmlns:dc="http://purl.org/dc/elements/1.1/"
   xmlns:cc="http://creativecommons.org/ns#"
   xmlns:rdf="http://www.w3.org/1999/02/22-rdf-syntax-ns#"
   xmlns:svg="http://www.w3.org/2000/svg"
   xmlns="http://www.w3.org/2000/svg"
   version="1.1"
   width="71.500992mm"
   height="53.721001mm"
   viewBox="0 0 71.500992 53.721"
   id="svg80198">
  <metadata
     id="metadata80204">
    <rdf:RDF>
      <cc:Work
         rdf:about="">
        <dc:format>image/svg+xml</dc:format>
        <dc:type
           rdf:resource="http://purl.org/dc/dcmitype/StillImage" />
      </cc:Work>
    </rdf:RDF>
  </metadata>
  <defs
     id="defs80202" />
  <title
     id="title79332">SVG Image created as trinamic_wiring-TMC2209-unidirectional-multiple.svg date 2023/08/02 16:28:28 </title>
  <desc
     id="desc79334">Image generated by Eeschema-SVG </desc>
  <g
     style="fill:#000000;fill-opacity:1;stroke:#000000;stroke-linecap:round;stroke-linejoin:round;stroke-opacity:1"
     id="g79336"
     transform="translate(-102.6795,-74.7395)" />
  <g
     style="fill:#000000;fill-opacity:0;stroke:#000000;stroke-width:0.1524;stroke-linecap:round;stroke-linejoin:round;stroke-opacity:1"
     id="g79578"
     transform="translate(-102.6795,-74.7395)">
    <g
       id="g79338" />
    <g
       style="fill:#586e75;fill-opacity:0;stroke:#586e75;stroke-width:0.1524;stroke-linecap:round;stroke-linejoin:round;stroke-opacity:1"
       id="g79340" />
    <g
       style="fill:#586e75;fill-opacity:0;stroke:#586e75;stroke-width:0.381;stroke-linecap:round;stroke-linejoin:round;stroke-opacity:1"
       id="g79516">
      <rect
         x="153.67"
         y="74.93"
         width="20.32"
         height="25.4"
         rx="0.000000"
         id="rect79342" />
      <text
         x="163.83"
         y="88.264999"
         textLength="9.4160004"
         font-size="1.6933px"
         lengthAdjust="spacingAndGlyphs"
         text-anchor="middle"
         opacity="0"
         id="text79344">TMC2209</text>
      <g
         class="stroked-text"
         id="g79512">
        <desc
           id="desc79346">TMC2209</desc>
        <path
           d="m 159.6874,86.9276 h 0.7257"
           id="path79348" />
        <path
           d="m 160.0503,88.1976 v -1.27"
           id="path79350" />
        <path
           d="m 160.8364,88.1976 v -1.27"
           id="path79352" />
        <path
           d="m 160.8364,86.9276 0.4234,0.9072"
           id="path79354" />
        <path
           d="m 161.2598,87.8348 0.4233,-0.9072"
           id="path79356" />
        <path
           d="m 161.6831,86.9276 v 1.27"
           id="path79358" />
        <path
           d="m 163.0135,88.0767 -0.0604,0.0605"
           id="path79360" />
        <path
           d="m 162.9531,88.1372 -0.1815,0.0604"
           id="path79362" />
        <path
           d="m 162.7716,88.1976 h -0.1209"
           id="path79364" />
        <path
           d="m 162.6507,88.1976 -0.1814,-0.0604"
           id="path79366" />
        <path
           d="m 162.4693,88.1372 -0.121,-0.121"
           id="path79368" />
        <path
           d="m 162.3483,88.0162 -0.0605,-0.121"
           id="path79370" />
        <path
           d="m 162.2878,87.8952 -0.0604,-0.2419"
           id="path79372" />
        <path
           d="M 162.2274,87.6533 V 87.4719"
           id="path79374" />
        <path
           d="M 162.2274,87.4719 162.2878,87.23"
           id="path79376" />
        <path
           d="m 162.2878,87.23 0.0605,-0.1209"
           id="path79378" />
        <path
           d="m 162.3483,87.1091 0.121,-0.121"
           id="path79380" />
        <path
           d="m 162.4693,86.9881 0.1814,-0.0605"
           id="path79382" />
        <path
           d="m 162.6507,86.9276 h 0.1209"
           id="path79384" />
        <path
           d="m 162.7716,86.9276 0.1815,0.0605"
           id="path79386" />
        <path
           d="m 162.9531,86.9881 0.0604,0.0605"
           id="path79388" />
        <path
           d="m 163.4974,87.0486 0.0604,-0.0605"
           id="path79390" />
        <path
           d="m 163.5578,86.9881 0.121,-0.0605"
           id="path79392" />
        <path
           d="m 163.6788,86.9276 h 0.3024"
           id="path79394" />
        <path
           d="m 163.9812,86.9276 0.1209,0.0605"
           id="path79396" />
        <path
           d="m 164.1021,86.9881 0.0605,0.0605"
           id="path79398" />
        <path
           d="m 164.1626,87.0486 0.0605,0.1209"
           id="path79400" />
        <path
           d="m 164.2231,87.1695 v 0.121"
           id="path79402" />
        <path
           d="m 164.2231,87.2905 -0.0605,0.1814"
           id="path79404" />
        <path
           d="m 164.1626,87.4719 -0.7257,0.7257"
           id="path79406" />
        <path
           d="m 163.4369,88.1976 h 0.7862"
           id="path79408" />
        <path
           d="m 164.7069,87.0486 0.0604,-0.0605"
           id="path79410" />
        <path
           d="m 164.7673,86.9881 0.121,-0.0605"
           id="path79412" />
        <path
           d="m 164.8883,86.9276 h 0.3024"
           id="path79414" />
        <path
           d="m 165.1907,86.9276 0.1209,0.0605"
           id="path79416" />
        <path
           d="m 165.3116,86.9881 0.0605,0.0605"
           id="path79418" />
        <path
           d="m 165.3721,87.0486 0.0605,0.1209"
           id="path79420" />
        <path
           d="m 165.4326,87.1695 v 0.121"
           id="path79422" />
        <path
           d="m 165.4326,87.2905 -0.0605,0.1814"
           id="path79424" />
        <path
           d="m 165.3721,87.4719 -0.7257,0.7257"
           id="path79426" />
        <path
           d="m 164.6464,88.1976 h 0.7862"
           id="path79428" />
        <path
           d="m 166.2187,86.9276 h 0.121"
           id="path79430" />
        <path
           d="m 166.3397,86.9276 0.1209,0.0605"
           id="path79432" />
        <path
           d="m 166.4606,86.9881 0.0605,0.0605"
           id="path79434" />
        <path
           d="m 166.5211,87.0486 0.0605,0.1209"
           id="path79436" />
        <path
           d="m 166.5816,87.1695 0.0605,0.2419"
           id="path79438" />
        <path
           d="m 166.6421,87.4114 v 0.3024"
           id="path79440" />
        <path
           d="m 166.6421,87.7138 -0.0605,0.2419"
           id="path79442" />
        <path
           d="m 166.5816,87.9557 -0.0605,0.121"
           id="path79444" />
        <path
           d="m 166.5211,88.0767 -0.0605,0.0605"
           id="path79446" />
        <path
           d="m 166.4606,88.1372 -0.1209,0.0604"
           id="path79448" />
        <path
           d="m 166.3397,88.1976 h -0.121"
           id="path79450" />
        <path
           d="m 166.2187,88.1976 -0.1209,-0.0604"
           id="path79452" />
        <path
           d="m 166.0978,88.1372 -0.0605,-0.0605"
           id="path79454" />
        <path
           d="m 166.0373,88.0767 -0.0605,-0.121"
           id="path79456" />
        <path
           d="m 165.9768,87.9557 -0.0604,-0.2419"
           id="path79458" />
        <path
           d="M 165.9164,87.7138 V 87.4114"
           id="path79460" />
        <path
           d="m 165.9164,87.4114 0.0604,-0.2419"
           id="path79462" />
        <path
           d="m 165.9768,87.1695 0.0605,-0.1209"
           id="path79464" />
        <path
           d="m 166.0373,87.0486 0.0605,-0.0605"
           id="path79466" />
        <path
           d="m 166.0978,86.9881 0.1209,-0.0605"
           id="path79468" />
        <path
           d="m 167.2468,88.1976 h 0.2419"
           id="path79470" />
        <path
           d="m 167.4887,88.1976 0.121,-0.0604"
           id="path79472" />
        <path
           d="m 167.6097,88.1372 0.0604,-0.0605"
           id="path79474" />
        <path
           d="m 167.6701,88.0767 0.121,-0.1815"
           id="path79476" />
        <path
           d="m 167.7911,87.8952 0.0605,-0.2419"
           id="path79478" />
        <path
           d="M 167.8516,87.6533 V 87.1695"
           id="path79480" />
        <path
           d="m 167.8516,87.1695 -0.0605,-0.1209"
           id="path79482" />
        <path
           d="m 167.7911,87.0486 -0.0605,-0.0605"
           id="path79484" />
        <path
           d="m 167.7306,86.9881 -0.1209,-0.0605"
           id="path79486" />
        <path
           d="m 167.6097,86.9276 h -0.2419"
           id="path79488" />
        <path
           d="m 167.3678,86.9276 -0.121,0.0605"
           id="path79490" />
        <path
           d="m 167.2468,86.9881 -0.0605,0.0605"
           id="path79492" />
        <path
           d="m 167.1863,87.0486 -0.0604,0.1209"
           id="path79494" />
        <path
           d="m 167.1259,87.1695 v 0.3024"
           id="path79496" />
        <path
           d="m 167.1259,87.4719 0.0604,0.121"
           id="path79498" />
        <path
           d="m 167.1863,87.5929 0.0605,0.0604"
           id="path79500" />
        <path
           d="m 167.2468,87.6533 0.121,0.0605"
           id="path79502" />
        <path
           d="m 167.3678,87.7138 h 0.2419"
           id="path79504" />
        <path
           d="m 167.6097,87.7138 0.1209,-0.0605"
           id="path79506" />
        <path
           d="m 167.7306,87.6533 0.0605,-0.0604"
           id="path79508" />
        <path
           d="m 167.7911,87.5929 0.0605,-0.121"
           id="path79510" />
      </g>
      <path
         d="m 153.67,77.47 h -2.54"
         id="path79514" />
    </g>
    <g
       style="fill:#cb4b16;fill-opacity:0;stroke:#cb4b16;stroke-width:0.381;stroke-linecap:round;stroke-linejoin:round;stroke-opacity:1"
       id="g79518" />
    <g
       style="fill:#cb4b16;fill-opacity:0;stroke:#cb4b16;stroke-width:0.1524;stroke-linecap:round;stroke-linejoin:round;stroke-opacity:1"
       id="g79576">
      <text
         x="154.686"
         y="78.105003"
         textLength="4.8599"
         font-size="1.6933px"
         lengthAdjust="spacingAndGlyphs"
         text-anchor="start"
         opacity="0"
         id="text79520">UART</text>
      <g
         class="stroked-text"
         id="g79574">
        <desc
           id="desc79522">UART</desc>
        <path
           d="m 155.0885,76.7795 v 1.0281"
           id="path79524" />
        <path
           d="m 155.0885,77.8076 0.0605,0.121"
           id="path79526" />
        <path
           d="m 155.149,77.9286 0.0605,0.0605"
           id="path79528" />
        <path
           d="m 155.2095,77.9891 0.1209,0.0604"
           id="path79530" />
        <path
           d="m 155.3304,78.0495 h 0.2419"
           id="path79532" />
        <path
           d="m 155.5723,78.0495 0.121,-0.0604"
           id="path79534" />
        <path
           d="m 155.6933,77.9891 0.0605,-0.0605"
           id="path79536" />
        <path
           d="m 155.7538,77.9286 0.0604,-0.121"
           id="path79538" />
        <path
           d="M 155.8142,77.8076 V 76.7795"
           id="path79540" />
        <path
           d="m 156.3586,77.6867 h 0.6047"
           id="path79542" />
        <path
           d="m 156.2376,78.0495 0.4233,-1.27"
           id="path79544" />
        <path
           d="m 156.6609,76.7795 0.4234,1.27"
           id="path79546" />
        <path
           d="M 158.2333,78.0495 157.81,77.4448"
           id="path79548" />
        <path
           d="m 157.5076,78.0495 v -1.27"
           id="path79550" />
        <path
           d="m 157.5076,76.7795 h 0.4838"
           id="path79552" />
        <path
           d="m 157.9914,76.7795 0.121,0.0605"
           id="path79554" />
        <path
           d="m 158.1124,76.84 0.0605,0.0605"
           id="path79556" />
        <path
           d="m 158.1729,76.9005 0.0604,0.1209"
           id="path79558" />
        <path
           d="m 158.2333,77.0214 v 0.1815"
           id="path79560" />
        <path
           d="m 158.2333,77.2029 -0.0604,0.1209"
           id="path79562" />
        <path
           d="m 158.1729,77.3238 -0.0605,0.0605"
           id="path79564" />
        <path
           d="m 158.1124,77.3843 -0.121,0.0605"
           id="path79566" />
        <path
           d="m 157.9914,77.4448 h -0.4838"
           id="path79568" />
        <path
           d="m 158.5962,76.7795 h 0.7257"
           id="path79570" />
        <path
           d="m 158.9591,78.0495 v -1.27"
           id="path79572" />
      </g>
    </g>
  </g>
  <g
     style="fill:#cb4b16;fill-opacity:0;stroke:#cb4b16;stroke-width:0.1524;stroke-linecap:round;stroke-linejoin:round;stroke-opacity:1"
     id="g79820"
     transform="translate(-102.6795,-74.7395)">
    <g
       id="g79580" />
    <g
       style="fill:#586e75;fill-opacity:0;stroke:#586e75;stroke-width:0.1524;stroke-linecap:round;stroke-linejoin:round;stroke-opacity:1"
       id="g79582" />
    <g
       style="fill:#586e75;fill-opacity:0;stroke:#586e75;stroke-width:0.381;stroke-linecap:round;stroke-linejoin:round;stroke-opacity:1"
       id="g79758">
      <rect
         x="153.67"
         y="102.87"
         width="20.32"
         height="25.4"
         rx="0.000000"
         id="rect79584" />
      <text
         x="163.83"
         y="116.205"
         textLength="9.4160004"
         font-size="1.6933px"
         lengthAdjust="spacingAndGlyphs"
         text-anchor="middle"
         opacity="0"
         id="text79586">TMC2209</text>
      <g
         class="stroked-text"
         id="g79754">
        <desc
           id="desc79588">TMC2209</desc>
        <path
           d="m 159.6874,114.8676 h 0.7257"
           id="path79590" />
        <path
           d="m 160.0503,116.1376 v -1.27"
           id="path79592" />
        <path
           d="m 160.8364,116.1376 v -1.27"
           id="path79594" />
        <path
           d="m 160.8364,114.8676 0.4234,0.9072"
           id="path79596" />
        <path
           d="m 161.2598,115.7748 0.4233,-0.9072"
           id="path79598" />
        <path
           d="m 161.6831,114.8676 v 1.27"
           id="path79600" />
        <path
           d="m 163.0135,116.0167 -0.0604,0.0605"
           id="path79602" />
        <path
           d="m 162.9531,116.0772 -0.1815,0.0604"
           id="path79604" />
        <path
           d="m 162.7716,116.1376 h -0.1209"
           id="path79606" />
        <path
           d="m 162.6507,116.1376 -0.1814,-0.0604"
           id="path79608" />
        <path
           d="m 162.4693,116.0772 -0.121,-0.121"
           id="path79610" />
        <path
           d="m 162.3483,115.9562 -0.0605,-0.121"
           id="path79612" />
        <path
           d="m 162.2878,115.8352 -0.0604,-0.2419"
           id="path79614" />
        <path
           d="m 162.2274,115.5933 v -0.1814"
           id="path79616" />
        <path
           d="m 162.2274,115.4119 0.0604,-0.2419"
           id="path79618" />
        <path
           d="m 162.2878,115.17 0.0605,-0.1209"
           id="path79620" />
        <path
           d="m 162.3483,115.0491 0.121,-0.121"
           id="path79622" />
        <path
           d="m 162.4693,114.9281 0.1814,-0.0605"
           id="path79624" />
        <path
           d="m 162.6507,114.8676 h 0.1209"
           id="path79626" />
        <path
           d="m 162.7716,114.8676 0.1815,0.0605"
           id="path79628" />
        <path
           d="m 162.9531,114.9281 0.0604,0.0605"
           id="path79630" />
        <path
           d="m 163.4974,114.9886 0.0604,-0.0605"
           id="path79632" />
        <path
           d="m 163.5578,114.9281 0.121,-0.0605"
           id="path79634" />
        <path
           d="m 163.6788,114.8676 h 0.3024"
           id="path79636" />
        <path
           d="m 163.9812,114.8676 0.1209,0.0605"
           id="path79638" />
        <path
           d="m 164.1021,114.9281 0.0605,0.0605"
           id="path79640" />
        <path
           d="m 164.1626,114.9886 0.0605,0.1209"
           id="path79642" />
        <path
           d="m 164.2231,115.1095 v 0.121"
           id="path79644" />
        <path
           d="m 164.2231,115.2305 -0.0605,0.1814"
           id="path79646" />
        <path
           d="m 164.1626,115.4119 -0.7257,0.7257"
           id="path79648" />
        <path
           d="m 163.4369,116.1376 h 0.7862"
           id="path79650" />
        <path
           d="m 164.7069,114.9886 0.0604,-0.0605"
           id="path79652" />
        <path
           d="m 164.7673,114.9281 0.121,-0.0605"
           id="path79654" />
        <path
           d="m 164.8883,114.8676 h 0.3024"
           id="path79656" />
        <path
           d="m 165.1907,114.8676 0.1209,0.0605"
           id="path79658" />
        <path
           d="m 165.3116,114.9281 0.0605,0.0605"
           id="path79660" />
        <path
           d="m 165.3721,114.9886 0.0605,0.1209"
           id="path79662" />
        <path
           d="m 165.4326,115.1095 v 0.121"
           id="path79664" />
        <path
           d="m 165.4326,115.2305 -0.0605,0.1814"
           id="path79666" />
        <path
           d="m 165.3721,115.4119 -0.7257,0.7257"
           id="path79668" />
        <path
           d="m 164.6464,116.1376 h 0.7862"
           id="path79670" />
        <path
           d="m 166.2187,114.8676 h 0.121"
           id="path79672" />
        <path
           d="m 166.3397,114.8676 0.1209,0.0605"
           id="path79674" />
        <path
           d="m 166.4606,114.9281 0.0605,0.0605"
           id="path79676" />
        <path
           d="m 166.5211,114.9886 0.0605,0.1209"
           id="path79678" />
        <path
           d="m 166.5816,115.1095 0.0605,0.2419"
           id="path79680" />
        <path
           d="m 166.6421,115.3514 v 0.3024"
           id="path79682" />
        <path
           d="m 166.6421,115.6538 -0.0605,0.2419"
           id="path79684" />
        <path
           d="m 166.5816,115.8957 -0.0605,0.121"
           id="path79686" />
        <path
           d="m 166.5211,116.0167 -0.0605,0.0605"
           id="path79688" />
        <path
           d="m 166.4606,116.0772 -0.1209,0.0604"
           id="path79690" />
        <path
           d="m 166.3397,116.1376 h -0.121"
           id="path79692" />
        <path
           d="m 166.2187,116.1376 -0.1209,-0.0604"
           id="path79694" />
        <path
           d="m 166.0978,116.0772 -0.0605,-0.0605"
           id="path79696" />
        <path
           d="m 166.0373,116.0167 -0.0605,-0.121"
           id="path79698" />
        <path
           d="m 165.9768,115.8957 -0.0604,-0.2419"
           id="path79700" />
        <path
           d="m 165.9164,115.6538 v -0.3024"
           id="path79702" />
        <path
           d="m 165.9164,115.3514 0.0604,-0.2419"
           id="path79704" />
        <path
           d="m 165.9768,115.1095 0.0605,-0.1209"
           id="path79706" />
        <path
           d="m 166.0373,114.9886 0.0605,-0.0605"
           id="path79708" />
        <path
           d="m 166.0978,114.9281 0.1209,-0.0605"
           id="path79710" />
        <path
           d="m 167.2468,116.1376 h 0.2419"
           id="path79712" />
        <path
           d="m 167.4887,116.1376 0.121,-0.0604"
           id="path79714" />
        <path
           d="m 167.6097,116.0772 0.0604,-0.0605"
           id="path79716" />
        <path
           d="m 167.6701,116.0167 0.121,-0.1815"
           id="path79718" />
        <path
           d="m 167.7911,115.8352 0.0605,-0.2419"
           id="path79720" />
        <path
           d="m 167.8516,115.5933 v -0.4838"
           id="path79722" />
        <path
           d="m 167.8516,115.1095 -0.0605,-0.1209"
           id="path79724" />
        <path
           d="m 167.7911,114.9886 -0.0605,-0.0605"
           id="path79726" />
        <path
           d="m 167.7306,114.9281 -0.1209,-0.0605"
           id="path79728" />
        <path
           d="m 167.6097,114.8676 h -0.2419"
           id="path79730" />
        <path
           d="m 167.3678,114.8676 -0.121,0.0605"
           id="path79732" />
        <path
           d="m 167.2468,114.9281 -0.0605,0.0605"
           id="path79734" />
        <path
           d="m 167.1863,114.9886 -0.0604,0.1209"
           id="path79736" />
        <path
           d="m 167.1259,115.1095 v 0.3024"
           id="path79738" />
        <path
           d="m 167.1259,115.4119 0.0604,0.121"
           id="path79740" />
        <path
           d="m 167.1863,115.5329 0.0605,0.0604"
           id="path79742" />
        <path
           d="m 167.2468,115.5933 0.121,0.0605"
           id="path79744" />
        <path
           d="m 167.3678,115.6538 h 0.2419"
           id="path79746" />
        <path
           d="m 167.6097,115.6538 0.1209,-0.0605"
           id="path79748" />
        <path
           d="m 167.7306,115.5933 0.0605,-0.0604"
           id="path79750" />
        <path
           d="m 167.7911,115.5329 0.0605,-0.121"
           id="path79752" />
      </g>
      <path
         d="m 153.67,105.41 h -2.54"
         id="path79756" />
    </g>
    <g
       style="fill:#cb4b16;fill-opacity:0;stroke:#cb4b16;stroke-width:0.381;stroke-linecap:round;stroke-linejoin:round;stroke-opacity:1"
       id="g79760" />
    <g
       style="fill:#cb4b16;fill-opacity:0;stroke:#cb4b16;stroke-width:0.1524;stroke-linecap:round;stroke-linejoin:round;stroke-opacity:1"
       id="g79818">
      <text
         x="154.686"
         y="106.045"
         textLength="4.8599"
         font-size="1.6933px"
         lengthAdjust="spacingAndGlyphs"
         text-anchor="start"
         opacity="0"
         id="text79762">UART</text>
      <g
         class="stroked-text"
         id="g79816">
        <desc
           id="desc79764">UART</desc>
        <path
           d="m 155.0885,104.7195 v 1.0281"
           id="path79766" />
        <path
           d="m 155.0885,105.7476 0.0605,0.121"
           id="path79768" />
        <path
           d="m 155.149,105.8686 0.0605,0.0605"
           id="path79770" />
        <path
           d="m 155.2095,105.9291 0.1209,0.0604"
           id="path79772" />
        <path
           d="m 155.3304,105.9895 h 0.2419"
           id="path79774" />
        <path
           d="m 155.5723,105.9895 0.121,-0.0604"
           id="path79776" />
        <path
           d="m 155.6933,105.9291 0.0605,-0.0605"
           id="path79778" />
        <path
           d="m 155.7538,105.8686 0.0604,-0.121"
           id="path79780" />
        <path
           d="m 155.8142,105.7476 v -1.0281"
           id="path79782" />
        <path
           d="m 156.3586,105.6267 h 0.6047"
           id="path79784" />
        <path
           d="m 156.2376,105.9895 0.4233,-1.27"
           id="path79786" />
        <path
           d="m 156.6609,104.7195 0.4234,1.27"
           id="path79788" />
        <path
           d="M 158.2333,105.9895 157.81,105.3848"
           id="path79790" />
        <path
           d="m 157.5076,105.9895 v -1.27"
           id="path79792" />
        <path
           d="m 157.5076,104.7195 h 0.4838"
           id="path79794" />
        <path
           d="m 157.9914,104.7195 0.121,0.0605"
           id="path79796" />
        <path
           d="m 158.1124,104.78 0.0605,0.0605"
           id="path79798" />
        <path
           d="m 158.1729,104.8405 0.0604,0.1209"
           id="path79800" />
        <path
           d="m 158.2333,104.9614 v 0.1815"
           id="path79802" />
        <path
           d="m 158.2333,105.1429 -0.0604,0.1209"
           id="path79804" />
        <path
           d="m 158.1729,105.2638 -0.0605,0.0605"
           id="path79806" />
        <path
           d="m 158.1124,105.3243 -0.121,0.0605"
           id="path79808" />
        <path
           d="m 157.9914,105.3848 h -0.4838"
           id="path79810" />
        <path
           d="m 158.5962,104.7195 h 0.7257"
           id="path79812" />
        <path
           d="m 158.9591,105.9895 v -1.27"
           id="path79814" />
      </g>
    </g>
  </g>
  <g
     style="fill:#cb4b16;fill-opacity:0;stroke:#cb4b16;stroke-width:0.1524;stroke-linecap:round;stroke-linejoin:round;stroke-opacity:1"
     id="g80156"
     transform="translate(-102.6795,-74.7395)">
    <g
       id="g79822" />
    <g
       style="fill:#586e75;fill-opacity:0;stroke:#586e75;stroke-width:0.1524;stroke-linecap:round;stroke-linejoin:round;stroke-opacity:1"
       id="g79824" />
    <g
       style="fill:#586e75;fill-opacity:0;stroke:#586e75;stroke-width:0.381;stroke-linecap:round;stroke-linejoin:round;stroke-opacity:1"
       id="g80094">
      <rect
         x="102.87"
         y="74.93"
         width="20.32"
         height="25.4"
         rx="0.000000"
         id="rect79826" />
      <text
         x="113.03"
         y="88.264999"
         textLength="18.790001"
         font-size="1.6933px"
         lengthAdjust="spacingAndGlyphs"
         text-anchor="middle"
         opacity="0"
         id="text79828">MICROCONTROLLER</text>
      <g
         class="stroked-text"
         id="g80090">
        <desc
           id="desc79830">MICROCONTROLLER</desc>
        <path
           d="m 104.3818,88.1976 v -1.27"
           id="path79832" />
        <path
           d="m 104.3818,86.9276 0.4234,0.9072"
           id="path79834" />
        <path
           d="m 104.8052,87.8348 0.4233,-0.9072"
           id="path79836" />
        <path
           d="m 105.2285,86.9276 v 1.27"
           id="path79838" />
        <path
           d="m 105.8332,88.1976 v -1.27"
           id="path79840" />
        <path
           d="m 107.1637,88.0767 -0.0604,0.0605"
           id="path79842" />
        <path
           d="m 107.1033,88.1372 -0.1815,0.0604"
           id="path79844" />
        <path
           d="m 106.9218,88.1976 h -0.1209"
           id="path79846" />
        <path
           d="m 106.8009,88.1976 -0.1814,-0.0604"
           id="path79848" />
        <path
           d="m 106.6195,88.1372 -0.121,-0.121"
           id="path79850" />
        <path
           d="m 106.4985,88.0162 -0.0605,-0.121"
           id="path79852" />
        <path
           d="m 106.438,87.8952 -0.0604,-0.2419"
           id="path79854" />
        <path
           d="M 106.3776,87.6533 V 87.4719"
           id="path79856" />
        <path
           d="M 106.3776,87.4719 106.438,87.23"
           id="path79858" />
        <path
           d="m 106.438,87.23 0.0605,-0.1209"
           id="path79860" />
        <path
           d="m 106.4985,87.1091 0.121,-0.121"
           id="path79862" />
        <path
           d="m 106.6195,86.9881 0.1814,-0.0605"
           id="path79864" />
        <path
           d="m 106.8009,86.9276 h 0.1209"
           id="path79866" />
        <path
           d="m 106.9218,86.9276 0.1815,0.0605"
           id="path79868" />
        <path
           d="m 107.1033,86.9881 0.0604,0.0605"
           id="path79870" />
        <path
           d="m 108.4337,88.1976 -0.4233,-0.6047"
           id="path79872" />
        <path
           d="m 107.708,88.1976 v -1.27"
           id="path79874" />
        <path
           d="m 107.708,86.9276 h 0.4838"
           id="path79876" />
        <path
           d="m 108.1918,86.9276 0.121,0.0605"
           id="path79878" />
        <path
           d="m 108.3128,86.9881 0.0605,0.0605"
           id="path79880" />
        <path
           d="m 108.3733,87.0486 0.0604,0.1209"
           id="path79882" />
        <path
           d="M 108.4337,87.1695 V 87.351"
           id="path79884" />
        <path
           d="m 108.4337,87.351 -0.0604,0.1209"
           id="path79886" />
        <path
           d="m 108.3733,87.4719 -0.0605,0.0605"
           id="path79888" />
        <path
           d="m 108.3128,87.5324 -0.121,0.0605"
           id="path79890" />
        <path
           d="M 108.1918,87.5929 H 107.708"
           id="path79892" />
        <path
           d="m 109.2199,86.9276 h 0.2419"
           id="path79894" />
        <path
           d="m 109.4618,86.9276 0.121,0.0605"
           id="path79896" />
        <path
           d="m 109.5828,86.9881 0.1209,0.121"
           id="path79898" />
        <path
           d="m 109.7037,87.1091 0.0605,0.2419"
           id="path79900" />
        <path
           d="m 109.7642,87.351 v 0.4233"
           id="path79902" />
        <path
           d="m 109.7642,87.7743 -0.0605,0.2419"
           id="path79904" />
        <path
           d="m 109.7037,88.0162 -0.1209,0.121"
           id="path79906" />
        <path
           d="m 109.5828,88.1372 -0.121,0.0604"
           id="path79908" />
        <path
           d="m 109.4618,88.1976 h -0.2419"
           id="path79910" />
        <path
           d="M 109.2199,88.1976 109.099,88.1372"
           id="path79912" />
        <path
           d="m 109.099,88.1372 -0.121,-0.121"
           id="path79914" />
        <path
           d="m 108.978,88.0162 -0.0604,-0.2419"
           id="path79916" />
        <path
           d="M 108.9176,87.7743 V 87.351"
           id="path79918" />
        <path
           d="m 108.9176,87.351 0.0604,-0.2419"
           id="path79920" />
        <path
           d="m 108.978,87.1091 0.121,-0.121"
           id="path79922" />
        <path
           d="m 109.099,86.9881 0.1209,-0.0605"
           id="path79924" />
        <path
           d="m 111.0342,88.0767 -0.0604,0.0605"
           id="path79926" />
        <path
           d="m 110.9738,88.1372 -0.1815,0.0604"
           id="path79928" />
        <path
           d="m 110.7923,88.1976 h -0.1209"
           id="path79930" />
        <path
           d="M 110.6714,88.1976 110.49,88.1372"
           id="path79932" />
        <path
           d="m 110.49,88.1372 -0.121,-0.121"
           id="path79934" />
        <path
           d="m 110.369,88.0162 -0.0605,-0.121"
           id="path79936" />
        <path
           d="m 110.3085,87.8952 -0.0604,-0.2419"
           id="path79938" />
        <path
           d="M 110.2481,87.6533 V 87.4719"
           id="path79940" />
        <path
           d="M 110.2481,87.4719 110.3085,87.23"
           id="path79942" />
        <path
           d="m 110.3085,87.23 0.0605,-0.1209"
           id="path79944" />
        <path
           d="m 110.369,87.1091 0.121,-0.121"
           id="path79946" />
        <path
           d="m 110.49,86.9881 0.1814,-0.0605"
           id="path79948" />
        <path
           d="m 110.6714,86.9276 h 0.1209"
           id="path79950" />
        <path
           d="m 110.7923,86.9276 0.1815,0.0605"
           id="path79952" />
        <path
           d="m 110.9738,86.9881 0.0604,0.0605"
           id="path79954" />
        <path
           d="m 111.8204,86.9276 h 0.2419"
           id="path79956" />
        <path
           d="m 112.0623,86.9276 0.121,0.0605"
           id="path79958" />
        <path
           d="m 112.1833,86.9881 0.1209,0.121"
           id="path79960" />
        <path
           d="m 112.3042,87.1091 0.0605,0.2419"
           id="path79962" />
        <path
           d="m 112.3647,87.351 v 0.4233"
           id="path79964" />
        <path
           d="m 112.3647,87.7743 -0.0605,0.2419"
           id="path79966" />
        <path
           d="m 112.3042,88.0162 -0.1209,0.121"
           id="path79968" />
        <path
           d="m 112.1833,88.1372 -0.121,0.0604"
           id="path79970" />
        <path
           d="m 112.0623,88.1976 h -0.2419"
           id="path79972" />
        <path
           d="m 111.8204,88.1976 -0.1209,-0.0604"
           id="path79974" />
        <path
           d="m 111.6995,88.1372 -0.121,-0.121"
           id="path79976" />
        <path
           d="m 111.5785,88.0162 -0.0604,-0.2419"
           id="path79978" />
        <path
           d="M 111.5181,87.7743 V 87.351"
           id="path79980" />
        <path
           d="m 111.5181,87.351 0.0604,-0.2419"
           id="path79982" />
        <path
           d="m 111.5785,87.1091 0.121,-0.121"
           id="path79984" />
        <path
           d="m 111.6995,86.9881 0.1209,-0.0605"
           id="path79986" />
        <path
           d="m 112.909,88.1976 v -1.27"
           id="path79988" />
        <path
           d="m 112.909,86.9276 0.7257,1.27"
           id="path79990" />
        <path
           d="m 113.6347,88.1976 v -1.27"
           id="path79992" />
        <path
           d="m 114.0581,86.9276 h 0.7257"
           id="path79994" />
        <path
           d="m 114.421,88.1976 v -1.27"
           id="path79996" />
        <path
           d="m 115.9328,88.1976 -0.4233,-0.6047"
           id="path79998" />
        <path
           d="m 115.2071,88.1976 v -1.27"
           id="path80000" />
        <path
           d="m 115.2071,86.9276 h 0.4838"
           id="path80002" />
        <path
           d="m 115.6909,86.9276 0.121,0.0605"
           id="path80004" />
        <path
           d="m 115.8119,86.9881 0.0605,0.0605"
           id="path80006" />
        <path
           d="m 115.8724,87.0486 0.0604,0.1209"
           id="path80008" />
        <path
           d="M 115.9328,87.1695 V 87.351"
           id="path80010" />
        <path
           d="m 115.9328,87.351 -0.0604,0.1209"
           id="path80012" />
        <path
           d="m 115.8724,87.4719 -0.0605,0.0605"
           id="path80014" />
        <path
           d="m 115.8119,87.5324 -0.121,0.0605"
           id="path80016" />
        <path
           d="m 115.6909,87.5929 h -0.4838"
           id="path80018" />
        <path
           d="m 116.719,86.9276 h 0.2419"
           id="path80020" />
        <path
           d="m 116.9609,86.9276 0.121,0.0605"
           id="path80022" />
        <path
           d="m 117.0819,86.9881 0.1209,0.121"
           id="path80024" />
        <path
           d="m 117.2028,87.1091 0.0605,0.2419"
           id="path80026" />
        <path
           d="m 117.2633,87.351 v 0.4233"
           id="path80028" />
        <path
           d="m 117.2633,87.7743 -0.0605,0.2419"
           id="path80030" />
        <path
           d="m 117.2028,88.0162 -0.1209,0.121"
           id="path80032" />
        <path
           d="m 117.0819,88.1372 -0.121,0.0604"
           id="path80034" />
        <path
           d="M 116.9609,88.1976 H 116.719"
           id="path80036" />
        <path
           d="m 116.719,88.1976 -0.1209,-0.0604"
           id="path80038" />
        <path
           d="m 116.5981,88.1372 -0.121,-0.121"
           id="path80040" />
        <path
           d="m 116.4771,88.0162 -0.0604,-0.2419"
           id="path80042" />
        <path
           d="M 116.4167,87.7743 V 87.351"
           id="path80044" />
        <path
           d="m 116.4167,87.351 0.0604,-0.2419"
           id="path80046" />
        <path
           d="m 116.4771,87.1091 0.121,-0.121"
           id="path80048" />
        <path
           d="m 116.5981,86.9881 0.1209,-0.0605"
           id="path80050" />
        <path
           d="m 118.4124,88.1976 h -0.6048"
           id="path80052" />
        <path
           d="m 117.8076,88.1976 v -1.27"
           id="path80054" />
        <path
           d="m 119.4405,88.1976 h -0.6048"
           id="path80056" />
        <path
           d="m 118.8357,88.1976 v -1.27"
           id="path80058" />
        <path
           d="m 119.8638,87.5324 h 0.4234"
           id="path80060" />
        <path
           d="m 120.4686,88.1976 h -0.6048"
           id="path80062" />
        <path
           d="m 119.8638,88.1976 v -1.27"
           id="path80064" />
        <path
           d="m 119.8638,86.9276 h 0.6048"
           id="path80066" />
        <path
           d="m 121.7385,88.1976 -0.4233,-0.6047"
           id="path80068" />
        <path
           d="m 121.0128,88.1976 v -1.27"
           id="path80070" />
        <path
           d="m 121.0128,86.9276 h 0.4838"
           id="path80072" />
        <path
           d="m 121.4966,86.9276 0.121,0.0605"
           id="path80074" />
        <path
           d="m 121.6176,86.9881 0.0605,0.0605"
           id="path80076" />
        <path
           d="m 121.6781,87.0486 0.0604,0.1209"
           id="path80078" />
        <path
           d="M 121.7385,87.1695 V 87.351"
           id="path80080" />
        <path
           d="m 121.7385,87.351 -0.0604,0.1209"
           id="path80082" />
        <path
           d="m 121.6781,87.4719 -0.0605,0.0605"
           id="path80084" />
        <path
           d="m 121.6176,87.5324 -0.121,0.0605"
           id="path80086" />
        <path
           d="m 121.4966,87.5929 h -0.4838"
           id="path80088" />
      </g>
      <path
         d="m 123.19,80.01 h 2.54"
         id="path80092" />
    </g>
    <g
       style="fill:#cb4b16;fill-opacity:0;stroke:#cb4b16;stroke-width:0.381;stroke-linecap:round;stroke-linejoin:round;stroke-opacity:1"
       id="g80096" />
    <g
       style="fill:#cb4b16;fill-opacity:0;stroke:#cb4b16;stroke-width:0.1524;stroke-linecap:round;stroke-linejoin:round;stroke-opacity:1"
       id="g80130">
      <text
         x="122.174"
         y="80.644997"
         textLength="2.6826999"
         font-size="1.6933px"
         lengthAdjust="spacingAndGlyphs"
         text-anchor="end"
         opacity="0"
         id="text80098">RX</text>
      <g
         class="stroked-text"
         id="g80128">
        <desc
           id="desc80100">RX</desc>
        <path
           d="M 120.6223,80.5895 120.199,79.9848"
           id="path80102" />
        <path
           d="m 119.8966,80.5895 v -1.27"
           id="path80104" />
        <path
           d="m 119.8966,79.3195 h 0.4838"
           id="path80106" />
        <path
           d="m 120.3804,79.3195 0.121,0.0605"
           id="path80108" />
        <path
           d="m 120.5014,79.38 0.0605,0.0605"
           id="path80110" />
        <path
           d="m 120.5619,79.4405 0.0604,0.1209"
           id="path80112" />
        <path
           d="m 120.6223,79.5614 v 0.1815"
           id="path80114" />
        <path
           d="m 120.6223,79.7429 -0.0604,0.1209"
           id="path80116" />
        <path
           d="m 120.5619,79.8638 -0.0605,0.0605"
           id="path80118" />
        <path
           d="m 120.5014,79.9243 -0.121,0.0605"
           id="path80120" />
        <path
           d="m 120.3804,79.9848 h -0.4838"
           id="path80122" />
        <path
           d="m 121.0457,79.3195 0.8466,1.27"
           id="path80124" />
        <path
           d="m 121.8923,79.3195 -0.8466,1.27"
           id="path80126" />
      </g>
    </g>
    <g
       style="fill:#586e75;fill-opacity:0;stroke:#586e75;stroke-width:0.1524;stroke-linecap:round;stroke-linejoin:round;stroke-opacity:1"
       id="g80132" />
    <g
       style="fill:#586e75;fill-opacity:0;stroke:#586e75;stroke-width:0.381;stroke-linecap:round;stroke-linejoin:round;stroke-opacity:1"
       id="g80136">
      <path
         d="m 123.19,77.47 h 2.54"
         id="path80134" />
    </g>
    <g
       style="fill:#cb4b16;fill-opacity:0;stroke:#cb4b16;stroke-width:0.381;stroke-linecap:round;stroke-linejoin:round;stroke-opacity:1"
       id="g80138" />
    <g
       style="fill:#cb4b16;fill-opacity:0;stroke:#cb4b16;stroke-width:0.1524;stroke-linecap:round;stroke-linejoin:round;stroke-opacity:1"
       id="g80154">
      <text
         x="122.174"
         y="78.105003"
         textLength="2.3803"
         font-size="1.6933px"
         lengthAdjust="spacingAndGlyphs"
         text-anchor="end"
         opacity="0"
         id="text80140">TX</text>
      <g
         class="stroked-text"
         id="g80152">
        <desc
           id="desc80142">TX</desc>
        <path
           d="m 120.0176,76.7795 h 0.7257"
           id="path80144" />
        <path
           d="m 120.3805,78.0495 v -1.27"
           id="path80146" />
        <path
           d="m 121.0457,76.7795 0.8466,1.27"
           id="path80148" />
        <path
           d="m 121.8923,76.7795 -0.8466,1.27"
           id="path80150" />
      </g>
    </g>
  </g>
  <g
     style="fill:#cb4b16;fill-opacity:0;stroke:#cb4b16;stroke-width:0.1524;stroke-linecap:round;stroke-linejoin:round;stroke-opacity:1"
     id="g80158"
     transform="translate(-102.6795,-74.7395)" />
  <g
     style="fill:#859900;fill-opacity:0;stroke:#859900;stroke-width:0.1524;stroke-linecap:round;stroke-linejoin:round;stroke-opacity:1"
     id="g80160"
     transform="translate(-102.6795,-74.7395)" />
  <g
     style="fill:#859900;fill-opacity:0;stroke:#859900;stroke-width:0.381;stroke-linecap:round;stroke-linejoin:round;stroke-opacity:1"
     id="g80164"
     transform="translate(-102.6795,-74.7395)">
    <path
       d="m 148.59,77.47 h 2.54"
       id="path80162" />
  </g>
  <g
     style="fill:#859900;fill-opacity:0;stroke:#859900;stroke-width:0.1524;stroke-linecap:round;stroke-linejoin:round;stroke-opacity:1"
     id="g80166"
     transform="translate(-102.6795,-74.7395)" />
  <g
     style="fill:#859900;fill-opacity:0;stroke:#859900;stroke-width:0.381;stroke-linecap:round;stroke-linejoin:round;stroke-opacity:1"
     id="g80170"
     transform="translate(-102.6795,-74.7395)">
    <path
       d="m 148.59,77.47 v 27.94"
       id="path80168" />
  </g>
  <g
     style="fill:#859900;fill-opacity:0;stroke:#859900;stroke-width:0.1524;stroke-linecap:round;stroke-linejoin:round;stroke-opacity:1"
     id="g80172"
     transform="translate(-102.6795,-74.7395)" />
  <g
     style="fill:#859900;fill-opacity:0;stroke:#859900;stroke-width:0.381;stroke-linecap:round;stroke-linejoin:round;stroke-opacity:1"
     id="g80176"
     transform="translate(-102.6795,-74.7395)">
    <path
       d="m 148.59,105.41 h 2.54"
       id="path80174" />
  </g>
  <g
     style="fill:#859900;fill-opacity:0;stroke:#859900;stroke-width:0.1524;stroke-linecap:round;stroke-linejoin:round;stroke-opacity:1"
     id="g80178"
     transform="translate(-102.6795,-74.7395)" />
  <g
     style="fill:#859900;fill-opacity:0;stroke:#859900;stroke-width:0.381;stroke-linecap:round;stroke-linejoin:round;stroke-opacity:1"
     id="g80182"
     transform="translate(-102.6795,-74.7395)">
    <path
       d="m 125.73,77.47 h 22.86"
       id="path80180" />
  </g>
  <g
     style="fill:#859900;fill-opacity:0;stroke:#859900;stroke-width:0.1524;stroke-linecap:round;stroke-linejoin:round;stroke-opacity:1"
     id="g80184"
     transform="translate(-102.6795,-74.7395)" />
  <g
     style="fill:#6c71c4;fill-opacity:0;stroke:#6c71c4;stroke-width:0.1524;stroke-linecap:round;stroke-linejoin:round;stroke-opacity:1"
     id="g80190"
     transform="translate(-102.6795,-74.7395)">
    <path
       d="m 125.1204,79.4004 1.2192,1.2192"
       id="path80186" />
    <path
       d="m 126.3396,79.4004 -1.2192,1.2192"
       id="path80188" />
  </g>
  <g
     style="fill:#859900;fill-opacity:0;stroke:#859900;stroke-width:0.1524;stroke-linecap:round;stroke-linejoin:round;stroke-opacity:1"
     id="g80192"
     transform="translate(-102.6795,-74.7395)" />
  <g
     style="fill:#859900;fill-opacity:1;stroke:#859900;stroke-width:0.1524;stroke-linecap:round;stroke-linejoin:round;stroke-opacity:1"
     id="g80196"
     transform="translate(-102.6795,-74.7395)">
    <circle
       cx="148.59"
       cy="77.470001"
       r="0.45719999"
       id="circle80194" />
  </g>
</svg>
