<?xml version="1.0" encoding="UTF-8" standalone="no"?>
<svg
   xmlns:dc="http://purl.org/dc/elements/1.1/"
   xmlns:cc="http://creativecommons.org/ns#"
   xmlns:rdf="http://www.w3.org/1999/02/22-rdf-syntax-ns#"
   xmlns:svg="http://www.w3.org/2000/svg"
   xmlns="http://www.w3.org/2000/svg"
   version="1.1"
   width="71.500992mm"
   height="53.721001mm"
   viewBox="0 0 71.500992 53.721"
   id="svg72730">
  <metadata
     id="metadata72736">
    <rdf:RDF>
      <cc:Work
         rdf:about="">
        <dc:format>image/svg+xml</dc:format>
        <dc:type
           rdf:resource="http://purl.org/dc/dcmitype/StillImage" />
      </cc:Work>
    </rdf:RDF>
  </metadata>
  <defs
     id="defs72734" />
  <title
     id="title71760">SVG Image created as trinamic_wiring-TMC2209-unidirectional-multiple-uart.svg date 2023/08/02 14:11:37 </title>
  <desc
     id="desc71762">Image generated by Eeschema-SVG </desc>
  <g
     style="fill:#000000;fill-opacity:1;stroke:#000000;stroke-linecap:round;stroke-linejoin:round;stroke-opacity:1"
     id="g71764"
     transform="translate(-102.6795,-74.7395)" />
  <g
     style="fill:#000000;fill-opacity:0;stroke:#000000;stroke-width:0.1524;stroke-linecap:round;stroke-linejoin:round;stroke-opacity:1"
     id="g72206"
     transform="translate(-102.6795,-74.7395)">
    <g
       id="g71766" />
    <g
       style="fill:#586e75;fill-opacity:0;stroke:#586e75;stroke-width:0.1524;stroke-linecap:round;stroke-linejoin:round;stroke-opacity:1"
       id="g71768" />
    <g
       style="fill:#586e75;fill-opacity:0;stroke:#586e75;stroke-width:0.381;stroke-linecap:round;stroke-linejoin:round;stroke-opacity:1"
       id="g72038">
      <rect
         x="102.87"
         y="74.93"
         width="20.32"
         height="25.4"
         rx="0.000000"
         id="rect71770" />
      <text
         x="113.03"
         y="88.264999"
         textLength="18.790001"
         font-size="1.6933px"
         lengthAdjust="spacingAndGlyphs"
         text-anchor="middle"
         opacity="0"
         id="text71772">MICROCONTROLLER</text>
      <g
         class="stroked-text"
         id="g72034">
        <desc
           id="desc71774">MICROCONTROLLER</desc>
        <path
           d="m 104.3818,88.1976 v -1.27"
           id="path71776" />
        <path
           d="m 104.3818,86.9276 0.4234,0.9072"
           id="path71778" />
        <path
           d="m 104.8052,87.8348 0.4233,-0.9072"
           id="path71780" />
        <path
           d="m 105.2285,86.9276 v 1.27"
           id="path71782" />
        <path
           d="m 105.8332,88.1976 v -1.27"
           id="path71784" />
        <path
           d="m 107.1637,88.0767 -0.0604,0.0605"
           id="path71786" />
        <path
           d="m 107.1033,88.1372 -0.1815,0.0604"
           id="path71788" />
        <path
           d="m 106.9218,88.1976 h -0.1209"
           id="path71790" />
        <path
           d="m 106.8009,88.1976 -0.1814,-0.0604"
           id="path71792" />
        <path
           d="m 106.6195,88.1372 -0.121,-0.121"
           id="path71794" />
        <path
           d="m 106.4985,88.0162 -0.0605,-0.121"
           id="path71796" />
        <path
           d="m 106.438,87.8952 -0.0604,-0.2419"
           id="path71798" />
        <path
           d="M 106.3776,87.6533 V 87.4719"
           id="path71800" />
        <path
           d="M 106.3776,87.4719 106.438,87.23"
           id="path71802" />
        <path
           d="m 106.438,87.23 0.0605,-0.1209"
           id="path71804" />
        <path
           d="m 106.4985,87.1091 0.121,-0.121"
           id="path71806" />
        <path
           d="m 106.6195,86.9881 0.1814,-0.0605"
           id="path71808" />
        <path
           d="m 106.8009,86.9276 h 0.1209"
           id="path71810" />
        <path
           d="m 106.9218,86.9276 0.1815,0.0605"
           id="path71812" />
        <path
           d="m 107.1033,86.9881 0.0604,0.0605"
           id="path71814" />
        <path
           d="m 108.4337,88.1976 -0.4233,-0.6047"
           id="path71816" />
        <path
           d="m 107.708,88.1976 v -1.27"
           id="path71818" />
        <path
           d="m 107.708,86.9276 h 0.4838"
           id="path71820" />
        <path
           d="m 108.1918,86.9276 0.121,0.0605"
           id="path71822" />
        <path
           d="m 108.3128,86.9881 0.0605,0.0605"
           id="path71824" />
        <path
           d="m 108.3733,87.0486 0.0604,0.1209"
           id="path71826" />
        <path
           d="M 108.4337,87.1695 V 87.351"
           id="path71828" />
        <path
           d="m 108.4337,87.351 -0.0604,0.1209"
           id="path71830" />
        <path
           d="m 108.3733,87.4719 -0.0605,0.0605"
           id="path71832" />
        <path
           d="m 108.3128,87.5324 -0.121,0.0605"
           id="path71834" />
        <path
           d="M 108.1918,87.5929 H 107.708"
           id="path71836" />
        <path
           d="m 109.2199,86.9276 h 0.2419"
           id="path71838" />
        <path
           d="m 109.4618,86.9276 0.121,0.0605"
           id="path71840" />
        <path
           d="m 109.5828,86.9881 0.1209,0.121"
           id="path71842" />
        <path
           d="m 109.7037,87.1091 0.0605,0.2419"
           id="path71844" />
        <path
           d="m 109.7642,87.351 v 0.4233"
           id="path71846" />
        <path
           d="m 109.7642,87.7743 -0.0605,0.2419"
           id="path71848" />
        <path
           d="m 109.7037,88.0162 -0.1209,0.121"
           id="path71850" />
        <path
           d="m 109.5828,88.1372 -0.121,0.0604"
           id="path71852" />
        <path
           d="m 109.4618,88.1976 h -0.2419"
           id="path71854" />
        <path
           d="M 109.2199,88.1976 109.099,88.1372"
           id="path71856" />
        <path
           d="m 109.099,88.1372 -0.121,-0.121"
           id="path71858" />
        <path
           d="m 108.978,88.0162 -0.0604,-0.2419"
           id="path71860" />
        <path
           d="M 108.9176,87.7743 V 87.351"
           id="path71862" />
        <path
           d="m 108.9176,87.351 0.0604,-0.2419"
           id="path71864" />
        <path
           d="m 108.978,87.1091 0.121,-0.121"
           id="path71866" />
        <path
           d="m 109.099,86.9881 0.1209,-0.0605"
           id="path71868" />
        <path
           d="m 111.0342,88.0767 -0.0604,0.0605"
           id="path71870" />
        <path
           d="m 110.9738,88.1372 -0.1815,0.0604"
           id="path71872" />
        <path
           d="m 110.7923,88.1976 h -0.1209"
           id="path71874" />
        <path
           d="M 110.6714,88.1976 110.49,88.1372"
           id="path71876" />
        <path
           d="m 110.49,88.1372 -0.121,-0.121"
           id="path71878" />
        <path
           d="m 110.369,88.0162 -0.0605,-0.121"
           id="path71880" />
        <path
           d="m 110.3085,87.8952 -0.0604,-0.2419"
           id="path71882" />
        <path
           d="M 110.2481,87.6533 V 87.4719"
           id="path71884" />
        <path
           d="M 110.2481,87.4719 110.3085,87.23"
           id="path71886" />
        <path
           d="m 110.3085,87.23 0.0605,-0.1209"
           id="path71888" />
        <path
           d="m 110.369,87.1091 0.121,-0.121"
           id="path71890" />
        <path
           d="m 110.49,86.9881 0.1814,-0.0605"
           id="path71892" />
        <path
           d="m 110.6714,86.9276 h 0.1209"
           id="path71894" />
        <path
           d="m 110.7923,86.9276 0.1815,0.0605"
           id="path71896" />
        <path
           d="m 110.9738,86.9881 0.0604,0.0605"
           id="path71898" />
        <path
           d="m 111.8204,86.9276 h 0.2419"
           id="path71900" />
        <path
           d="m 112.0623,86.9276 0.121,0.0605"
           id="path71902" />
        <path
           d="m 112.1833,86.9881 0.1209,0.121"
           id="path71904" />
        <path
           d="m 112.3042,87.1091 0.0605,0.2419"
           id="path71906" />
        <path
           d="m 112.3647,87.351 v 0.4233"
           id="path71908" />
        <path
           d="m 112.3647,87.7743 -0.0605,0.2419"
           id="path71910" />
        <path
           d="m 112.3042,88.0162 -0.1209,0.121"
           id="path71912" />
        <path
           d="m 112.1833,88.1372 -0.121,0.0604"
           id="path71914" />
        <path
           d="m 112.0623,88.1976 h -0.2419"
           id="path71916" />
        <path
           d="m 111.8204,88.1976 -0.1209,-0.0604"
           id="path71918" />
        <path
           d="m 111.6995,88.1372 -0.121,-0.121"
           id="path71920" />
        <path
           d="m 111.5785,88.0162 -0.0604,-0.2419"
           id="path71922" />
        <path
           d="M 111.5181,87.7743 V 87.351"
           id="path71924" />
        <path
           d="m 111.5181,87.351 0.0604,-0.2419"
           id="path71926" />
        <path
           d="m 111.5785,87.1091 0.121,-0.121"
           id="path71928" />
        <path
           d="m 111.6995,86.9881 0.1209,-0.0605"
           id="path71930" />
        <path
           d="m 112.909,88.1976 v -1.27"
           id="path71932" />
        <path
           d="m 112.909,86.9276 0.7257,1.27"
           id="path71934" />
        <path
           d="m 113.6347,88.1976 v -1.27"
           id="path71936" />
        <path
           d="m 114.0581,86.9276 h 0.7257"
           id="path71938" />
        <path
           d="m 114.421,88.1976 v -1.27"
           id="path71940" />
        <path
           d="m 115.9328,88.1976 -0.4233,-0.6047"
           id="path71942" />
        <path
           d="m 115.2071,88.1976 v -1.27"
           id="path71944" />
        <path
           d="m 115.2071,86.9276 h 0.4838"
           id="path71946" />
        <path
           d="m 115.6909,86.9276 0.121,0.0605"
           id="path71948" />
        <path
           d="m 115.8119,86.9881 0.0605,0.0605"
           id="path71950" />
        <path
           d="m 115.8724,87.0486 0.0604,0.1209"
           id="path71952" />
        <path
           d="M 115.9328,87.1695 V 87.351"
           id="path71954" />
        <path
           d="m 115.9328,87.351 -0.0604,0.1209"
           id="path71956" />
        <path
           d="m 115.8724,87.4719 -0.0605,0.0605"
           id="path71958" />
        <path
           d="m 115.8119,87.5324 -0.121,0.0605"
           id="path71960" />
        <path
           d="m 115.6909,87.5929 h -0.4838"
           id="path71962" />
        <path
           d="m 116.719,86.9276 h 0.2419"
           id="path71964" />
        <path
           d="m 116.9609,86.9276 0.121,0.0605"
           id="path71966" />
        <path
           d="m 117.0819,86.9881 0.1209,0.121"
           id="path71968" />
        <path
           d="m 117.2028,87.1091 0.0605,0.2419"
           id="path71970" />
        <path
           d="m 117.2633,87.351 v 0.4233"
           id="path71972" />
        <path
           d="m 117.2633,87.7743 -0.0605,0.2419"
           id="path71974" />
        <path
           d="m 117.2028,88.0162 -0.1209,0.121"
           id="path71976" />
        <path
           d="m 117.0819,88.1372 -0.121,0.0604"
           id="path71978" />
        <path
           d="M 116.9609,88.1976 H 116.719"
           id="path71980" />
        <path
           d="m 116.719,88.1976 -0.1209,-0.0604"
           id="path71982" />
        <path
           d="m 116.5981,88.1372 -0.121,-0.121"
           id="path71984" />
        <path
           d="m 116.4771,88.0162 -0.0604,-0.2419"
           id="path71986" />
        <path
           d="M 116.4167,87.7743 V 87.351"
           id="path71988" />
        <path
           d="m 116.4167,87.351 0.0604,-0.2419"
           id="path71990" />
        <path
           d="m 116.4771,87.1091 0.121,-0.121"
           id="path71992" />
        <path
           d="m 116.5981,86.9881 0.1209,-0.0605"
           id="path71994" />
        <path
           d="m 118.4124,88.1976 h -0.6048"
           id="path71996" />
        <path
           d="m 117.8076,88.1976 v -1.27"
           id="path71998" />
        <path
           d="m 119.4405,88.1976 h -0.6048"
           id="path72000" />
        <path
           d="m 118.8357,88.1976 v -1.27"
           id="path72002" />
        <path
           d="m 119.8638,87.5324 h 0.4234"
           id="path72004" />
        <path
           d="m 120.4686,88.1976 h -0.6048"
           id="path72006" />
        <path
           d="m 119.8638,88.1976 v -1.27"
           id="path72008" />
        <path
           d="m 119.8638,86.9276 h 0.6048"
           id="path72010" />
        <path
           d="m 121.7385,88.1976 -0.4233,-0.6047"
           id="path72012" />
        <path
           d="m 121.0128,88.1976 v -1.27"
           id="path72014" />
        <path
           d="m 121.0128,86.9276 h 0.4838"
           id="path72016" />
        <path
           d="m 121.4966,86.9276 0.121,0.0605"
           id="path72018" />
        <path
           d="m 121.6176,86.9881 0.0605,0.0605"
           id="path72020" />
        <path
           d="m 121.6781,87.0486 0.0604,0.1209"
           id="path72022" />
        <path
           d="M 121.7385,87.1695 V 87.351"
           id="path72024" />
        <path
           d="m 121.7385,87.351 -0.0604,0.1209"
           id="path72026" />
        <path
           d="m 121.6781,87.4719 -0.0605,0.0605"
           id="path72028" />
        <path
           d="m 121.6176,87.5324 -0.121,0.0605"
           id="path72030" />
        <path
           d="m 121.4966,87.5929 h -0.4838"
           id="path72032" />
      </g>
      <path
         d="m 123.19,80.01 h 2.54"
         id="path72036" />
    </g>
    <g
       style="fill:#cb4b16;fill-opacity:0;stroke:#cb4b16;stroke-width:0.381;stroke-linecap:round;stroke-linejoin:round;stroke-opacity:1"
       id="g72040" />
    <g
       style="fill:#cb4b16;fill-opacity:0;stroke:#cb4b16;stroke-width:0.1524;stroke-linecap:round;stroke-linejoin:round;stroke-opacity:1"
       id="g72074">
      <text
         x="122.174"
         y="80.644997"
         textLength="2.6826999"
         font-size="1.6933px"
         lengthAdjust="spacingAndGlyphs"
         text-anchor="end"
         opacity="0"
         id="text72042">RX</text>
      <g
         class="stroked-text"
         id="g72072">
        <desc
           id="desc72044">RX</desc>
        <path
           d="M 120.6223,80.5895 120.199,79.9848"
           id="path72046" />
        <path
           d="m 119.8966,80.5895 v -1.27"
           id="path72048" />
        <path
           d="m 119.8966,79.3195 h 0.4838"
           id="path72050" />
        <path
           d="m 120.3804,79.3195 0.121,0.0605"
           id="path72052" />
        <path
           d="m 120.5014,79.38 0.0605,0.0605"
           id="path72054" />
        <path
           d="m 120.5619,79.4405 0.0604,0.1209"
           id="path72056" />
        <path
           d="m 120.6223,79.5614 v 0.1815"
           id="path72058" />
        <path
           d="m 120.6223,79.7429 -0.0604,0.1209"
           id="path72060" />
        <path
           d="m 120.5619,79.8638 -0.0605,0.0605"
           id="path72062" />
        <path
           d="m 120.5014,79.9243 -0.121,0.0605"
           id="path72064" />
        <path
           d="m 120.3804,79.9848 h -0.4838"
           id="path72066" />
        <path
           d="m 121.0457,79.3195 0.8466,1.27"
           id="path72068" />
        <path
           d="m 121.8923,79.3195 -0.8466,1.27"
           id="path72070" />
      </g>
    </g>
    <g
       style="fill:#586e75;fill-opacity:0;stroke:#586e75;stroke-width:0.1524;stroke-linecap:round;stroke-linejoin:round;stroke-opacity:1"
       id="g72076" />
    <g
       style="fill:#586e75;fill-opacity:0;stroke:#586e75;stroke-width:0.381;stroke-linecap:round;stroke-linejoin:round;stroke-opacity:1"
       id="g72080">
      <path
         d="m 123.19,77.47 h 2.54"
         id="path72078" />
    </g>
    <g
       style="fill:#cb4b16;fill-opacity:0;stroke:#cb4b16;stroke-width:0.381;stroke-linecap:round;stroke-linejoin:round;stroke-opacity:1"
       id="g72082" />
    <g
       style="fill:#cb4b16;fill-opacity:0;stroke:#cb4b16;stroke-width:0.1524;stroke-linecap:round;stroke-linejoin:round;stroke-opacity:1"
       id="g72098">
      <text
         x="122.174"
         y="78.105003"
         textLength="2.3803"
         font-size="1.6933px"
         lengthAdjust="spacingAndGlyphs"
         text-anchor="end"
         opacity="0"
         id="text72084">TX</text>
      <g
         class="stroked-text"
         id="g72096">
        <desc
           id="desc72086">TX</desc>
        <path
           d="m 120.0176,76.7795 h 0.7257"
           id="path72088" />
        <path
           d="m 120.3805,78.0495 v -1.27"
           id="path72090" />
        <path
           d="m 121.0457,76.7795 0.8466,1.27"
           id="path72092" />
        <path
           d="m 121.8923,76.7795 -0.8466,1.27"
           id="path72094" />
      </g>
    </g>
    <g
       style="fill:#586e75;fill-opacity:0;stroke:#586e75;stroke-width:0.1524;stroke-linecap:round;stroke-linejoin:round;stroke-opacity:1"
       id="g72100" />
    <g
       style="fill:#586e75;fill-opacity:0;stroke:#586e75;stroke-width:0.381;stroke-linecap:round;stroke-linejoin:round;stroke-opacity:1"
       id="g72104">
      <path
         d="m 123.19,92.71 h 2.54"
         id="path72102" />
    </g>
    <g
       style="fill:#cb4b16;fill-opacity:0;stroke:#cb4b16;stroke-width:0.381;stroke-linecap:round;stroke-linejoin:round;stroke-opacity:1"
       id="g72106" />
    <g
       style="fill:#cb4b16;fill-opacity:0;stroke:#cb4b16;stroke-width:0.1524;stroke-linecap:round;stroke-linejoin:round;stroke-opacity:1"
       id="g72160">
      <text
         x="122.174"
         y="93.345001"
         textLength="3.8922"
         font-size="1.6933px"
         lengthAdjust="spacingAndGlyphs"
         text-anchor="end"
         opacity="0"
         id="text72108">RX2</text>
      <g
         class="stroked-text"
         id="g72158">
        <desc
           id="desc72110">RX2</desc>
        <path
           d="m 119.4128,93.2895 -0.4233,-0.6047"
           id="path72112" />
        <path
           d="m 118.6871,93.2895 v -1.27"
           id="path72114" />
        <path
           d="m 118.6871,92.0195 h 0.4838"
           id="path72116" />
        <path
           d="m 119.1709,92.0195 0.121,0.0605"
           id="path72118" />
        <path
           d="m 119.2919,92.08 0.0605,0.0605"
           id="path72120" />
        <path
           d="m 119.3524,92.1405 0.0604,0.1209"
           id="path72122" />
        <path
           d="m 119.4128,92.2614 v 0.1815"
           id="path72124" />
        <path
           d="m 119.4128,92.4429 -0.0604,0.1209"
           id="path72126" />
        <path
           d="m 119.3524,92.5638 -0.0605,0.0605"
           id="path72128" />
        <path
           d="m 119.2919,92.6243 -0.121,0.0605"
           id="path72130" />
        <path
           d="m 119.1709,92.6848 h -0.4838"
           id="path72132" />
        <path
           d="m 119.8362,92.0195 0.8466,1.27"
           id="path72134" />
        <path
           d="m 120.6828,92.0195 -0.8466,1.27"
           id="path72136" />
        <path
           d="M 121.1062,92.1405 121.1666,92.08"
           id="path72138" />
        <path
           d="m 121.1666,92.08 0.121,-0.0605"
           id="path72140" />
        <path
           d="M 121.2876,92.0195 H 121.59"
           id="path72142" />
        <path
           d="m 121.59,92.0195 0.1209,0.0605"
           id="path72144" />
        <path
           d="m 121.7109,92.08 0.0605,0.0605"
           id="path72146" />
        <path
           d="m 121.7714,92.1405 0.0605,0.1209"
           id="path72148" />
        <path
           d="m 121.8319,92.2614 v 0.121"
           id="path72150" />
        <path
           d="m 121.8319,92.3824 -0.0605,0.1814"
           id="path72152" />
        <path
           d="m 121.7714,92.5638 -0.7257,0.7257"
           id="path72154" />
        <path
           d="m 121.0457,93.2895 h 0.7862"
           id="path72156" />
      </g>
    </g>
    <g
       style="fill:#586e75;fill-opacity:0;stroke:#586e75;stroke-width:0.1524;stroke-linecap:round;stroke-linejoin:round;stroke-opacity:1"
       id="g72162" />
    <g
       style="fill:#586e75;fill-opacity:0;stroke:#586e75;stroke-width:0.381;stroke-linecap:round;stroke-linejoin:round;stroke-opacity:1"
       id="g72166">
      <path
         d="m 123.19,90.17 h 2.54"
         id="path72164" />
    </g>
    <g
       style="fill:#cb4b16;fill-opacity:0;stroke:#cb4b16;stroke-width:0.381;stroke-linecap:round;stroke-linejoin:round;stroke-opacity:1"
       id="g72168" />
    <g
       style="fill:#cb4b16;fill-opacity:0;stroke:#cb4b16;stroke-width:0.1524;stroke-linecap:round;stroke-linejoin:round;stroke-opacity:1"
       id="g72204">
      <text
         x="122.174"
         y="90.805"
         textLength="3.5897999"
         font-size="1.6933px"
         lengthAdjust="spacingAndGlyphs"
         text-anchor="end"
         opacity="0"
         id="text72170">TX2</text>
      <g
         class="stroked-text"
         id="g72202">
        <desc
           id="desc72172">TX2</desc>
        <path
           d="m 118.8081,89.4795 h 0.7257"
           id="path72174" />
        <path
           d="m 119.171,90.7495 v -1.27"
           id="path72176" />
        <path
           d="m 119.8362,89.4795 0.8466,1.27"
           id="path72178" />
        <path
           d="m 120.6828,89.4795 -0.8466,1.27"
           id="path72180" />
        <path
           d="M 121.1062,89.6005 121.1666,89.54"
           id="path72182" />
        <path
           d="m 121.1666,89.54 0.121,-0.0605"
           id="path72184" />
        <path
           d="M 121.2876,89.4795 H 121.59"
           id="path72186" />
        <path
           d="m 121.59,89.4795 0.1209,0.0605"
           id="path72188" />
        <path
           d="m 121.7109,89.54 0.0605,0.0605"
           id="path72190" />
        <path
           d="m 121.7714,89.6005 0.0605,0.1209"
           id="path72192" />
        <path
           d="m 121.8319,89.7214 v 0.121"
           id="path72194" />
        <path
           d="m 121.8319,89.8424 -0.0605,0.1814"
           id="path72196" />
        <path
           d="m 121.7714,90.0238 -0.7257,0.7257"
           id="path72198" />
        <path
           d="m 121.0457,90.7495 h 0.7862"
           id="path72200" />
      </g>
    </g>
  </g>
  <g
     style="fill:#cb4b16;fill-opacity:0;stroke:#cb4b16;stroke-width:0.1524;stroke-linecap:round;stroke-linejoin:round;stroke-opacity:1"
     id="g72448"
     transform="translate(-102.6795,-74.7395)">
    <g
       id="g72208" />
    <g
       style="fill:#586e75;fill-opacity:0;stroke:#586e75;stroke-width:0.1524;stroke-linecap:round;stroke-linejoin:round;stroke-opacity:1"
       id="g72210" />
    <g
       style="fill:#586e75;fill-opacity:0;stroke:#586e75;stroke-width:0.381;stroke-linecap:round;stroke-linejoin:round;stroke-opacity:1"
       id="g72386">
      <rect
         x="153.67"
         y="74.93"
         width="20.32"
         height="25.4"
         rx="0.000000"
         id="rect72212" />
      <text
         x="163.83"
         y="88.264999"
         textLength="9.4160004"
         font-size="1.6933px"
         lengthAdjust="spacingAndGlyphs"
         text-anchor="middle"
         opacity="0"
         id="text72214">TMC2209</text>
      <g
         class="stroked-text"
         id="g72382">
        <desc
           id="desc72216">TMC2209</desc>
        <path
           d="m 159.6874,86.9276 h 0.7257"
           id="path72218" />
        <path
           d="m 160.0503,88.1976 v -1.27"
           id="path72220" />
        <path
           d="m 160.8364,88.1976 v -1.27"
           id="path72222" />
        <path
           d="m 160.8364,86.9276 0.4234,0.9072"
           id="path72224" />
        <path
           d="m 161.2598,87.8348 0.4233,-0.9072"
           id="path72226" />
        <path
           d="m 161.6831,86.9276 v 1.27"
           id="path72228" />
        <path
           d="m 163.0135,88.0767 -0.0604,0.0605"
           id="path72230" />
        <path
           d="m 162.9531,88.1372 -0.1815,0.0604"
           id="path72232" />
        <path
           d="m 162.7716,88.1976 h -0.1209"
           id="path72234" />
        <path
           d="m 162.6507,88.1976 -0.1814,-0.0604"
           id="path72236" />
        <path
           d="m 162.4693,88.1372 -0.121,-0.121"
           id="path72238" />
        <path
           d="m 162.3483,88.0162 -0.0605,-0.121"
           id="path72240" />
        <path
           d="m 162.2878,87.8952 -0.0604,-0.2419"
           id="path72242" />
        <path
           d="M 162.2274,87.6533 V 87.4719"
           id="path72244" />
        <path
           d="M 162.2274,87.4719 162.2878,87.23"
           id="path72246" />
        <path
           d="m 162.2878,87.23 0.0605,-0.1209"
           id="path72248" />
        <path
           d="m 162.3483,87.1091 0.121,-0.121"
           id="path72250" />
        <path
           d="m 162.4693,86.9881 0.1814,-0.0605"
           id="path72252" />
        <path
           d="m 162.6507,86.9276 h 0.1209"
           id="path72254" />
        <path
           d="m 162.7716,86.9276 0.1815,0.0605"
           id="path72256" />
        <path
           d="m 162.9531,86.9881 0.0604,0.0605"
           id="path72258" />
        <path
           d="m 163.4974,87.0486 0.0604,-0.0605"
           id="path72260" />
        <path
           d="m 163.5578,86.9881 0.121,-0.0605"
           id="path72262" />
        <path
           d="m 163.6788,86.9276 h 0.3024"
           id="path72264" />
        <path
           d="m 163.9812,86.9276 0.1209,0.0605"
           id="path72266" />
        <path
           d="m 164.1021,86.9881 0.0605,0.0605"
           id="path72268" />
        <path
           d="m 164.1626,87.0486 0.0605,0.1209"
           id="path72270" />
        <path
           d="m 164.2231,87.1695 v 0.121"
           id="path72272" />
        <path
           d="m 164.2231,87.2905 -0.0605,0.1814"
           id="path72274" />
        <path
           d="m 164.1626,87.4719 -0.7257,0.7257"
           id="path72276" />
        <path
           d="m 163.4369,88.1976 h 0.7862"
           id="path72278" />
        <path
           d="m 164.7069,87.0486 0.0604,-0.0605"
           id="path72280" />
        <path
           d="m 164.7673,86.9881 0.121,-0.0605"
           id="path72282" />
        <path
           d="m 164.8883,86.9276 h 0.3024"
           id="path72284" />
        <path
           d="m 165.1907,86.9276 0.1209,0.0605"
           id="path72286" />
        <path
           d="m 165.3116,86.9881 0.0605,0.0605"
           id="path72288" />
        <path
           d="m 165.3721,87.0486 0.0605,0.1209"
           id="path72290" />
        <path
           d="m 165.4326,87.1695 v 0.121"
           id="path72292" />
        <path
           d="m 165.4326,87.2905 -0.0605,0.1814"
           id="path72294" />
        <path
           d="m 165.3721,87.4719 -0.7257,0.7257"
           id="path72296" />
        <path
           d="m 164.6464,88.1976 h 0.7862"
           id="path72298" />
        <path
           d="m 166.2187,86.9276 h 0.121"
           id="path72300" />
        <path
           d="m 166.3397,86.9276 0.1209,0.0605"
           id="path72302" />
        <path
           d="m 166.4606,86.9881 0.0605,0.0605"
           id="path72304" />
        <path
           d="m 166.5211,87.0486 0.0605,0.1209"
           id="path72306" />
        <path
           d="m 166.5816,87.1695 0.0605,0.2419"
           id="path72308" />
        <path
           d="m 166.6421,87.4114 v 0.3024"
           id="path72310" />
        <path
           d="m 166.6421,87.7138 -0.0605,0.2419"
           id="path72312" />
        <path
           d="m 166.5816,87.9557 -0.0605,0.121"
           id="path72314" />
        <path
           d="m 166.5211,88.0767 -0.0605,0.0605"
           id="path72316" />
        <path
           d="m 166.4606,88.1372 -0.1209,0.0604"
           id="path72318" />
        <path
           d="m 166.3397,88.1976 h -0.121"
           id="path72320" />
        <path
           d="m 166.2187,88.1976 -0.1209,-0.0604"
           id="path72322" />
        <path
           d="m 166.0978,88.1372 -0.0605,-0.0605"
           id="path72324" />
        <path
           d="m 166.0373,88.0767 -0.0605,-0.121"
           id="path72326" />
        <path
           d="m 165.9768,87.9557 -0.0604,-0.2419"
           id="path72328" />
        <path
           d="M 165.9164,87.7138 V 87.4114"
           id="path72330" />
        <path
           d="m 165.9164,87.4114 0.0604,-0.2419"
           id="path72332" />
        <path
           d="m 165.9768,87.1695 0.0605,-0.1209"
           id="path72334" />
        <path
           d="m 166.0373,87.0486 0.0605,-0.0605"
           id="path72336" />
        <path
           d="m 166.0978,86.9881 0.1209,-0.0605"
           id="path72338" />
        <path
           d="m 167.2468,88.1976 h 0.2419"
           id="path72340" />
        <path
           d="m 167.4887,88.1976 0.121,-0.0604"
           id="path72342" />
        <path
           d="m 167.6097,88.1372 0.0604,-0.0605"
           id="path72344" />
        <path
           d="m 167.6701,88.0767 0.121,-0.1815"
           id="path72346" />
        <path
           d="m 167.7911,87.8952 0.0605,-0.2419"
           id="path72348" />
        <path
           d="M 167.8516,87.6533 V 87.1695"
           id="path72350" />
        <path
           d="m 167.8516,87.1695 -0.0605,-0.1209"
           id="path72352" />
        <path
           d="m 167.7911,87.0486 -0.0605,-0.0605"
           id="path72354" />
        <path
           d="m 167.7306,86.9881 -0.1209,-0.0605"
           id="path72356" />
        <path
           d="m 167.6097,86.9276 h -0.2419"
           id="path72358" />
        <path
           d="m 167.3678,86.9276 -0.121,0.0605"
           id="path72360" />
        <path
           d="m 167.2468,86.9881 -0.0605,0.0605"
           id="path72362" />
        <path
           d="m 167.1863,87.0486 -0.0604,0.1209"
           id="path72364" />
        <path
           d="m 167.1259,87.1695 v 0.3024"
           id="path72366" />
        <path
           d="m 167.1259,87.4719 0.0604,0.121"
           id="path72368" />
        <path
           d="m 167.1863,87.5929 0.0605,0.0604"
           id="path72370" />
        <path
           d="m 167.2468,87.6533 0.121,0.0605"
           id="path72372" />
        <path
           d="m 167.3678,87.7138 h 0.2419"
           id="path72374" />
        <path
           d="m 167.6097,87.7138 0.1209,-0.0605"
           id="path72376" />
        <path
           d="m 167.7306,87.6533 0.0605,-0.0604"
           id="path72378" />
        <path
           d="m 167.7911,87.5929 0.0605,-0.121"
           id="path72380" />
      </g>
      <path
         d="m 153.67,77.47 h -2.54"
         id="path72384" />
    </g>
    <g
       style="fill:#cb4b16;fill-opacity:0;stroke:#cb4b16;stroke-width:0.381;stroke-linecap:round;stroke-linejoin:round;stroke-opacity:1"
       id="g72388" />
    <g
       style="fill:#cb4b16;fill-opacity:0;stroke:#cb4b16;stroke-width:0.1524;stroke-linecap:round;stroke-linejoin:round;stroke-opacity:1"
       id="g72446">
      <text
         x="154.686"
         y="78.105003"
         textLength="4.8599"
         font-size="1.6933px"
         lengthAdjust="spacingAndGlyphs"
         text-anchor="start"
         opacity="0"
         id="text72390">UART</text>
      <g
         class="stroked-text"
         id="g72444">
        <desc
           id="desc72392">UART</desc>
        <path
           d="m 155.0885,76.7795 v 1.0281"
           id="path72394" />
        <path
           d="m 155.0885,77.8076 0.0605,0.121"
           id="path72396" />
        <path
           d="m 155.149,77.9286 0.0605,0.0605"
           id="path72398" />
        <path
           d="m 155.2095,77.9891 0.1209,0.0604"
           id="path72400" />
        <path
           d="m 155.3304,78.0495 h 0.2419"
           id="path72402" />
        <path
           d="m 155.5723,78.0495 0.121,-0.0604"
           id="path72404" />
        <path
           d="m 155.6933,77.9891 0.0605,-0.0605"
           id="path72406" />
        <path
           d="m 155.7538,77.9286 0.0604,-0.121"
           id="path72408" />
        <path
           d="M 155.8142,77.8076 V 76.7795"
           id="path72410" />
        <path
           d="m 156.3586,77.6867 h 0.6047"
           id="path72412" />
        <path
           d="m 156.2376,78.0495 0.4233,-1.27"
           id="path72414" />
        <path
           d="m 156.6609,76.7795 0.4234,1.27"
           id="path72416" />
        <path
           d="M 158.2333,78.0495 157.81,77.4448"
           id="path72418" />
        <path
           d="m 157.5076,78.0495 v -1.27"
           id="path72420" />
        <path
           d="m 157.5076,76.7795 h 0.4838"
           id="path72422" />
        <path
           d="m 157.9914,76.7795 0.121,0.0605"
           id="path72424" />
        <path
           d="m 158.1124,76.84 0.0605,0.0605"
           id="path72426" />
        <path
           d="m 158.1729,76.9005 0.0604,0.1209"
           id="path72428" />
        <path
           d="m 158.2333,77.0214 v 0.1815"
           id="path72430" />
        <path
           d="m 158.2333,77.2029 -0.0604,0.1209"
           id="path72432" />
        <path
           d="m 158.1729,77.3238 -0.0605,0.0605"
           id="path72434" />
        <path
           d="m 158.1124,77.3843 -0.121,0.0605"
           id="path72436" />
        <path
           d="m 157.9914,77.4448 h -0.4838"
           id="path72438" />
        <path
           d="m 158.5962,76.7795 h 0.7257"
           id="path72440" />
        <path
           d="m 158.9591,78.0495 v -1.27"
           id="path72442" />
      </g>
    </g>
  </g>
  <g
     style="fill:#cb4b16;fill-opacity:0;stroke:#cb4b16;stroke-width:0.1524;stroke-linecap:round;stroke-linejoin:round;stroke-opacity:1"
     id="g72690"
     transform="translate(-102.6795,-74.7395)">
    <g
       id="g72450" />
    <g
       style="fill:#586e75;fill-opacity:0;stroke:#586e75;stroke-width:0.1524;stroke-linecap:round;stroke-linejoin:round;stroke-opacity:1"
       id="g72452" />
    <g
       style="fill:#586e75;fill-opacity:0;stroke:#586e75;stroke-width:0.381;stroke-linecap:round;stroke-linejoin:round;stroke-opacity:1"
       id="g72628">
      <rect
         x="153.67"
         y="102.87"
         width="20.32"
         height="25.4"
         rx="0.000000"
         id="rect72454" />
      <text
         x="163.83"
         y="116.205"
         textLength="9.4160004"
         font-size="1.6933px"
         lengthAdjust="spacingAndGlyphs"
         text-anchor="middle"
         opacity="0"
         id="text72456">TMC2209</text>
      <g
         class="stroked-text"
         id="g72624">
        <desc
           id="desc72458">TMC2209</desc>
        <path
           d="m 159.6874,114.8676 h 0.7257"
           id="path72460" />
        <path
           d="m 160.0503,116.1376 v -1.27"
           id="path72462" />
        <path
           d="m 160.8364,116.1376 v -1.27"
           id="path72464" />
        <path
           d="m 160.8364,114.8676 0.4234,0.9072"
           id="path72466" />
        <path
           d="m 161.2598,115.7748 0.4233,-0.9072"
           id="path72468" />
        <path
           d="m 161.6831,114.8676 v 1.27"
           id="path72470" />
        <path
           d="m 163.0135,116.0167 -0.0604,0.0605"
           id="path72472" />
        <path
           d="m 162.9531,116.0772 -0.1815,0.0604"
           id="path72474" />
        <path
           d="m 162.7716,116.1376 h -0.1209"
           id="path72476" />
        <path
           d="m 162.6507,116.1376 -0.1814,-0.0604"
           id="path72478" />
        <path
           d="m 162.4693,116.0772 -0.121,-0.121"
           id="path72480" />
        <path
           d="m 162.3483,115.9562 -0.0605,-0.121"
           id="path72482" />
        <path
           d="m 162.2878,115.8352 -0.0604,-0.2419"
           id="path72484" />
        <path
           d="m 162.2274,115.5933 v -0.1814"
           id="path72486" />
        <path
           d="m 162.2274,115.4119 0.0604,-0.2419"
           id="path72488" />
        <path
           d="m 162.2878,115.17 0.0605,-0.1209"
           id="path72490" />
        <path
           d="m 162.3483,115.0491 0.121,-0.121"
           id="path72492" />
        <path
           d="m 162.4693,114.9281 0.1814,-0.0605"
           id="path72494" />
        <path
           d="m 162.6507,114.8676 h 0.1209"
           id="path72496" />
        <path
           d="m 162.7716,114.8676 0.1815,0.0605"
           id="path72498" />
        <path
           d="m 162.9531,114.9281 0.0604,0.0605"
           id="path72500" />
        <path
           d="m 163.4974,114.9886 0.0604,-0.0605"
           id="path72502" />
        <path
           d="m 163.5578,114.9281 0.121,-0.0605"
           id="path72504" />
        <path
           d="m 163.6788,114.8676 h 0.3024"
           id="path72506" />
        <path
           d="m 163.9812,114.8676 0.1209,0.0605"
           id="path72508" />
        <path
           d="m 164.1021,114.9281 0.0605,0.0605"
           id="path72510" />
        <path
           d="m 164.1626,114.9886 0.0605,0.1209"
           id="path72512" />
        <path
           d="m 164.2231,115.1095 v 0.121"
           id="path72514" />
        <path
           d="m 164.2231,115.2305 -0.0605,0.1814"
           id="path72516" />
        <path
           d="m 164.1626,115.4119 -0.7257,0.7257"
           id="path72518" />
        <path
           d="m 163.4369,116.1376 h 0.7862"
           id="path72520" />
        <path
           d="m 164.7069,114.9886 0.0604,-0.0605"
           id="path72522" />
        <path
           d="m 164.7673,114.9281 0.121,-0.0605"
           id="path72524" />
        <path
           d="m 164.8883,114.8676 h 0.3024"
           id="path72526" />
        <path
           d="m 165.1907,114.8676 0.1209,0.0605"
           id="path72528" />
        <path
           d="m 165.3116,114.9281 0.0605,0.0605"
           id="path72530" />
        <path
           d="m 165.3721,114.9886 0.0605,0.1209"
           id="path72532" />
        <path
           d="m 165.4326,115.1095 v 0.121"
           id="path72534" />
        <path
           d="m 165.4326,115.2305 -0.0605,0.1814"
           id="path72536" />
        <path
           d="m 165.3721,115.4119 -0.7257,0.7257"
           id="path72538" />
        <path
           d="m 164.6464,116.1376 h 0.7862"
           id="path72540" />
        <path
           d="m 166.2187,114.8676 h 0.121"
           id="path72542" />
        <path
           d="m 166.3397,114.8676 0.1209,0.0605"
           id="path72544" />
        <path
           d="m 166.4606,114.9281 0.0605,0.0605"
           id="path72546" />
        <path
           d="m 166.5211,114.9886 0.0605,0.1209"
           id="path72548" />
        <path
           d="m 166.5816,115.1095 0.0605,0.2419"
           id="path72550" />
        <path
           d="m 166.6421,115.3514 v 0.3024"
           id="path72552" />
        <path
           d="m 166.6421,115.6538 -0.0605,0.2419"
           id="path72554" />
        <path
           d="m 166.5816,115.8957 -0.0605,0.121"
           id="path72556" />
        <path
           d="m 166.5211,116.0167 -0.0605,0.0605"
           id="path72558" />
        <path
           d="m 166.4606,116.0772 -0.1209,0.0604"
           id="path72560" />
        <path
           d="m 166.3397,116.1376 h -0.121"
           id="path72562" />
        <path
           d="m 166.2187,116.1376 -0.1209,-0.0604"
           id="path72564" />
        <path
           d="m 166.0978,116.0772 -0.0605,-0.0605"
           id="path72566" />
        <path
           d="m 166.0373,116.0167 -0.0605,-0.121"
           id="path72568" />
        <path
           d="m 165.9768,115.8957 -0.0604,-0.2419"
           id="path72570" />
        <path
           d="m 165.9164,115.6538 v -0.3024"
           id="path72572" />
        <path
           d="m 165.9164,115.3514 0.0604,-0.2419"
           id="path72574" />
        <path
           d="m 165.9768,115.1095 0.0605,-0.1209"
           id="path72576" />
        <path
           d="m 166.0373,114.9886 0.0605,-0.0605"
           id="path72578" />
        <path
           d="m 166.0978,114.9281 0.1209,-0.0605"
           id="path72580" />
        <path
           d="m 167.2468,116.1376 h 0.2419"
           id="path72582" />
        <path
           d="m 167.4887,116.1376 0.121,-0.0604"
           id="path72584" />
        <path
           d="m 167.6097,116.0772 0.0604,-0.0605"
           id="path72586" />
        <path
           d="m 167.6701,116.0167 0.121,-0.1815"
           id="path72588" />
        <path
           d="m 167.7911,115.8352 0.0605,-0.2419"
           id="path72590" />
        <path
           d="m 167.8516,115.5933 v -0.4838"
           id="path72592" />
        <path
           d="m 167.8516,115.1095 -0.0605,-0.1209"
           id="path72594" />
        <path
           d="m 167.7911,114.9886 -0.0605,-0.0605"
           id="path72596" />
        <path
           d="m 167.7306,114.9281 -0.1209,-0.0605"
           id="path72598" />
        <path
           d="m 167.6097,114.8676 h -0.2419"
           id="path72600" />
        <path
           d="m 167.3678,114.8676 -0.121,0.0605"
           id="path72602" />
        <path
           d="m 167.2468,114.9281 -0.0605,0.0605"
           id="path72604" />
        <path
           d="m 167.1863,114.9886 -0.0604,0.1209"
           id="path72606" />
        <path
           d="m 167.1259,115.1095 v 0.3024"
           id="path72608" />
        <path
           d="m 167.1259,115.4119 0.0604,0.121"
           id="path72610" />
        <path
           d="m 167.1863,115.5329 0.0605,0.0604"
           id="path72612" />
        <path
           d="m 167.2468,115.5933 0.121,0.0605"
           id="path72614" />
        <path
           d="m 167.3678,115.6538 h 0.2419"
           id="path72616" />
        <path
           d="m 167.6097,115.6538 0.1209,-0.0605"
           id="path72618" />
        <path
           d="m 167.7306,115.5933 0.0605,-0.0604"
           id="path72620" />
        <path
           d="m 167.7911,115.5329 0.0605,-0.121"
           id="path72622" />
      </g>
      <path
         d="m 153.67,105.41 h -2.54"
         id="path72626" />
    </g>
    <g
       style="fill:#cb4b16;fill-opacity:0;stroke:#cb4b16;stroke-width:0.381;stroke-linecap:round;stroke-linejoin:round;stroke-opacity:1"
       id="g72630" />
    <g
       style="fill:#cb4b16;fill-opacity:0;stroke:#cb4b16;stroke-width:0.1524;stroke-linecap:round;stroke-linejoin:round;stroke-opacity:1"
       id="g72688">
      <text
         x="154.686"
         y="106.045"
         textLength="4.8599"
         font-size="1.6933px"
         lengthAdjust="spacingAndGlyphs"
         text-anchor="start"
         opacity="0"
         id="text72632">UART</text>
      <g
         class="stroked-text"
         id="g72686">
        <desc
           id="desc72634">UART</desc>
        <path
           d="m 155.0885,104.7195 v 1.0281"
           id="path72636" />
        <path
           d="m 155.0885,105.7476 0.0605,0.121"
           id="path72638" />
        <path
           d="m 155.149,105.8686 0.0605,0.0605"
           id="path72640" />
        <path
           d="m 155.2095,105.9291 0.1209,0.0604"
           id="path72642" />
        <path
           d="m 155.3304,105.9895 h 0.2419"
           id="path72644" />
        <path
           d="m 155.5723,105.9895 0.121,-0.0604"
           id="path72646" />
        <path
           d="m 155.6933,105.9291 0.0605,-0.0605"
           id="path72648" />
        <path
           d="m 155.7538,105.8686 0.0604,-0.121"
           id="path72650" />
        <path
           d="m 155.8142,105.7476 v -1.0281"
           id="path72652" />
        <path
           d="m 156.3586,105.6267 h 0.6047"
           id="path72654" />
        <path
           d="m 156.2376,105.9895 0.4233,-1.27"
           id="path72656" />
        <path
           d="m 156.6609,104.7195 0.4234,1.27"
           id="path72658" />
        <path
           d="M 158.2333,105.9895 157.81,105.3848"
           id="path72660" />
        <path
           d="m 157.5076,105.9895 v -1.27"
           id="path72662" />
        <path
           d="m 157.5076,104.7195 h 0.4838"
           id="path72664" />
        <path
           d="m 157.9914,104.7195 0.121,0.0605"
           id="path72666" />
        <path
           d="m 158.1124,104.78 0.0605,0.0605"
           id="path72668" />
        <path
           d="m 158.1729,104.8405 0.0604,0.1209"
           id="path72670" />
        <path
           d="m 158.2333,104.9614 v 0.1815"
           id="path72672" />
        <path
           d="m 158.2333,105.1429 -0.0604,0.1209"
           id="path72674" />
        <path
           d="m 158.1729,105.2638 -0.0605,0.0605"
           id="path72676" />
        <path
           d="m 158.1124,105.3243 -0.121,0.0605"
           id="path72678" />
        <path
           d="m 157.9914,105.3848 h -0.4838"
           id="path72680" />
        <path
           d="m 158.5962,104.7195 h 0.7257"
           id="path72682" />
        <path
           d="m 158.9591,105.9895 v -1.27"
           id="path72684" />
      </g>
    </g>
  </g>
  <g
     style="fill:#cb4b16;fill-opacity:0;stroke:#cb4b16;stroke-width:0.1524;stroke-linecap:round;stroke-linejoin:round;stroke-opacity:1"
     id="g72692"
     transform="translate(-102.6795,-74.7395)" />
  <g
     style="fill:#859900;fill-opacity:0;stroke:#859900;stroke-width:0.1524;stroke-linecap:round;stroke-linejoin:round;stroke-opacity:1"
     id="g72694"
     transform="translate(-102.6795,-74.7395)" />
  <g
     style="fill:#859900;fill-opacity:0;stroke:#859900;stroke-width:0.381;stroke-linecap:round;stroke-linejoin:round;stroke-opacity:1"
     id="g72698"
     transform="translate(-102.6795,-74.7395)">
    <path
       d="m 125.73,77.47 h 25.4"
       id="path72696" />
  </g>
  <g
     style="fill:#859900;fill-opacity:0;stroke:#859900;stroke-width:0.1524;stroke-linecap:round;stroke-linejoin:round;stroke-opacity:1"
     id="g72700"
     transform="translate(-102.6795,-74.7395)" />
  <g
     style="fill:#859900;fill-opacity:0;stroke:#859900;stroke-width:0.381;stroke-linecap:round;stroke-linejoin:round;stroke-opacity:1"
     id="g72704"
     transform="translate(-102.6795,-74.7395)">
    <path
       d="m 125.73,90.17 h 22.86"
       id="path72702" />
  </g>
  <g
     style="fill:#859900;fill-opacity:0;stroke:#859900;stroke-width:0.1524;stroke-linecap:round;stroke-linejoin:round;stroke-opacity:1"
     id="g72706"
     transform="translate(-102.6795,-74.7395)" />
  <g
     style="fill:#859900;fill-opacity:0;stroke:#859900;stroke-width:0.381;stroke-linecap:round;stroke-linejoin:round;stroke-opacity:1"
     id="g72710"
     transform="translate(-102.6795,-74.7395)">
    <path
       d="m 148.59,90.17 v 15.24"
       id="path72708" />
  </g>
  <g
     style="fill:#859900;fill-opacity:0;stroke:#859900;stroke-width:0.1524;stroke-linecap:round;stroke-linejoin:round;stroke-opacity:1"
     id="g72712"
     transform="translate(-102.6795,-74.7395)" />
  <g
     style="fill:#859900;fill-opacity:0;stroke:#859900;stroke-width:0.381;stroke-linecap:round;stroke-linejoin:round;stroke-opacity:1"
     id="g72716"
     transform="translate(-102.6795,-74.7395)">
    <path
       d="m 148.59,105.41 h 2.54"
       id="path72714" />
  </g>
  <g
     style="fill:#859900;fill-opacity:0;stroke:#859900;stroke-width:0.1524;stroke-linecap:round;stroke-linejoin:round;stroke-opacity:1"
     id="g72718"
     transform="translate(-102.6795,-74.7395)" />
  <g
     style="fill:#6c71c4;fill-opacity:0;stroke:#6c71c4;stroke-width:0.1524;stroke-linecap:round;stroke-linejoin:round;stroke-opacity:1"
     id="g72728"
     transform="translate(-102.6795,-74.7395)">
    <path
       d="m 125.1204,79.4004 1.2192,1.2192"
       id="path72720" />
    <path
       d="m 126.3396,79.4004 -1.2192,1.2192"
       id="path72722" />
    <path
       d="m 125.1204,92.1004 1.2192,1.2192"
       id="path72724" />
    <path
       d="m 126.3396,92.1004 -1.2192,1.2192"
       id="path72726" />
  </g>
</svg>
