<?xml version="1.0" encoding="UTF-8" standalone="no"?>
<svg
   xmlns:dc="http://purl.org/dc/elements/1.1/"
   xmlns:cc="http://creativecommons.org/ns#"
   xmlns:rdf="http://www.w3.org/1999/02/22-rdf-syntax-ns#"
   xmlns:svg="http://www.w3.org/2000/svg"
   xmlns="http://www.w3.org/2000/svg"
   version="1.1"
   width="71.500999mm"
   height="57.530998mm"
   viewBox="0 0 71.501 57.530998"
   id="svg67442">
  <metadata
     id="metadata67448">
    <rdf:RDF>
      <cc:Work
         rdf:about="">
        <dc:format>image/svg+xml</dc:format>
        <dc:type
           rdf:resource="http://purl.org/dc/dcmitype/StillImage" />
      </cc:Work>
    </rdf:RDF>
  </metadata>
  <defs
     id="defs67446" />
  <title
     id="title66768">SVG Image created as trinamic_wiring-TMC2209-unidirectional.svg date 2023/08/01 16:21:29 </title>
  <desc
     id="desc66770">Image generated by Eeschema-SVG </desc>
  <g
     style="fill:#000000;fill-opacity:1;stroke:#000000;stroke-linecap:round;stroke-linejoin:round;stroke-opacity:1"
     id="g66772"
     transform="translate(-77.279501,-51.8795)" />
  <g
     style="fill:#000000;fill-opacity:0;stroke:#000000;stroke-width:0.1524;stroke-linecap:round;stroke-linejoin:round;stroke-opacity:1"
     id="g67120"
     transform="translate(-77.279501,-51.8795)">
    <g
       id="g66774" />
    <g
       style="fill:#840000;fill-opacity:0;stroke:#840000;stroke-width:0.1524;stroke-linecap:round;stroke-linejoin:round;stroke-opacity:1"
       id="g66776" />
    <g
       style="fill:#840000;fill-opacity:0;stroke:#840000;stroke-width:0.381;stroke-linecap:round;stroke-linejoin:round;stroke-opacity:1"
       id="g66782">
      <rect
         x="77.470001"
         y="83.82"
         width="20.32"
         height="25.4"
         rx="0.000000"
         id="rect66778" />
      <path
         d="m 97.79,106.68 h 2.54"
         id="path66780" />
    </g>
    <g
       style="fill:#006464;fill-opacity:0;stroke:#006464;stroke-width:0.381;stroke-linecap:round;stroke-linejoin:round;stroke-opacity:1"
       id="g66784" />
    <g
       style="fill:#006464;fill-opacity:0;stroke:#006464;stroke-width:0.1524;stroke-linecap:round;stroke-linejoin:round;stroke-opacity:1"
       id="g66818">
      <text
         x="96.774002"
         y="107.315"
         textLength="2.6826999"
         font-size="1.6933px"
         lengthAdjust="spacingAndGlyphs"
         text-anchor="end"
         opacity="0"
         id="text66786">RX</text>
      <g
         class="stroked-text"
         id="g66816">
        <desc
           id="desc66788">RX</desc>
        <path
           d="M 95.2223,107.2595 94.799,106.6548"
           id="path66790" />
        <path
           d="m 94.4966,107.2595 v -1.27"
           id="path66792" />
        <path
           d="m 94.4966,105.9895 h 0.4838"
           id="path66794" />
        <path
           d="m 94.9804,105.9895 0.121,0.0605"
           id="path66796" />
        <path
           d="m 95.1014,106.05 0.0605,0.0605"
           id="path66798" />
        <path
           d="m 95.1619,106.1105 0.0604,0.1209"
           id="path66800" />
        <path
           d="m 95.2223,106.2314 v 0.1815"
           id="path66802" />
        <path
           d="m 95.2223,106.4129 -0.0604,0.1209"
           id="path66804" />
        <path
           d="m 95.1619,106.5338 -0.0605,0.0605"
           id="path66806" />
        <path
           d="m 95.1014,106.5943 -0.121,0.0605"
           id="path66808" />
        <path
           d="M 94.9804,106.6548 H 94.4966"
           id="path66810" />
        <path
           d="m 95.6457,105.9895 0.8466,1.27"
           id="path66812" />
        <path
           d="m 96.4923,105.9895 -0.8466,1.27"
           id="path66814" />
      </g>
    </g>
    <g
       style="fill:#840000;fill-opacity:0;stroke:#840000;stroke-width:0.1524;stroke-linecap:round;stroke-linejoin:round;stroke-opacity:1"
       id="g66820" />
    <g
       style="fill:#840000;fill-opacity:0;stroke:#840000;stroke-width:0.381;stroke-linecap:round;stroke-linejoin:round;stroke-opacity:1"
       id="g66824">
      <path
         d="m 97.79,87.63 h 2.54"
         id="path66822" />
    </g>
    <g
       style="fill:#006464;fill-opacity:0;stroke:#006464;stroke-width:0.381;stroke-linecap:round;stroke-linejoin:round;stroke-opacity:1"
       id="g66826" />
    <g
       style="fill:#006464;fill-opacity:0;stroke:#006464;stroke-width:0.1524;stroke-linecap:round;stroke-linejoin:round;stroke-opacity:1"
       id="g66842">
      <text
         x="96.774002"
         y="88.264999"
         textLength="2.3803"
         font-size="1.6933px"
         lengthAdjust="spacingAndGlyphs"
         text-anchor="end"
         opacity="0"
         id="text66828">TX</text>
      <g
         class="stroked-text"
         id="g66840">
        <desc
           id="desc66830">TX</desc>
        <path
           d="m 94.6176,86.9395 h 0.7257"
           id="path66832" />
        <path
           d="m 94.9805,88.2095 v -1.27"
           id="path66834" />
        <path
           d="m 95.6457,86.9395 0.8466,1.27"
           id="path66836" />
        <path
           d="m 96.4923,86.9395 -0.8466,1.27"
           id="path66838" />
      </g>
    </g>
    <g
       style="fill:#006464;fill-opacity:0;stroke:#006464;stroke-width:0.381;stroke-linecap:round;stroke-linejoin:round;stroke-opacity:1"
       id="g67118">
      <text
         x="87.629997"
         y="97.281998"
         textLength="18.3281"
         font-size="2.032px"
         lengthAdjust="spacingAndGlyphs"
         text-anchor="middle"
         opacity="0"
         id="text66844">microcontroller</text>
      <g
         class="stroked-text"
         id="g67116">
        <desc
           id="desc66846">microcontroller</desc>
        <path
           d="m 79.2479,97.2051 v -1.016"
           id="path66848" />
        <path
           d="m 79.2479,96.3343 0.0726,-0.0726"
           id="path66850" />
        <path
           d="m 79.3205,96.2617 0.1451,-0.0726"
           id="path66852" />
        <path
           d="m 79.4656,96.1891 h 0.2177"
           id="path66854" />
        <path
           d="m 79.6833,96.1891 0.1452,0.0726"
           id="path66856" />
        <path
           d="m 79.8285,96.2617 0.0726,0.1451"
           id="path66858" />
        <path
           d="m 79.9011,96.4068 v 0.7983"
           id="path66860" />
        <path
           d="m 79.9011,96.4068 0.0725,-0.1451"
           id="path66862" />
        <path
           d="m 79.9736,96.2617 0.1452,-0.0726"
           id="path66864" />
        <path
           d="m 80.1188,96.1891 h 0.2177"
           id="path66866" />
        <path
           d="m 80.3365,96.1891 0.1451,0.0726"
           id="path66868" />
        <path
           d="m 80.4816,96.2617 0.0726,0.1451"
           id="path66870" />
        <path
           d="m 80.5542,96.4068 v 0.7983"
           id="path66872" />
        <path
           d="m 81.2799,97.2051 v -1.016"
           id="path66874" />
        <path
           d="m 81.2799,95.6811 -0.0726,0.0726"
           id="path66876" />
        <path
           d="m 81.2073,95.7537 0.0726,0.0726"
           id="path66878" />
        <path
           d="m 81.2799,95.8263 0.0726,-0.0726"
           id="path66880" />
        <path
           d="M 81.3525,95.7537 81.2799,95.6811"
           id="path66882" />
        <path
           d="m 81.2799,95.6811 v 0.1452"
           id="path66884" />
        <path
           d="m 82.6588,97.1326 -0.1452,0.0725"
           id="path66886" />
        <path
           d="M 82.5136,97.2051 H 82.2233"
           id="path66888" />
        <path
           d="M 82.2233,97.2051 82.0782,97.1326"
           id="path66890" />
        <path
           d="M 82.0782,97.1326 82.0056,97.06"
           id="path66892" />
        <path
           d="M 82.0056,97.06 81.933,96.9148"
           id="path66894" />
        <path
           d="M 81.933,96.9148 V 96.4794"
           id="path66896" />
        <path
           d="m 81.933,96.4794 0.0726,-0.1451"
           id="path66898" />
        <path
           d="m 82.0056,96.3343 0.0726,-0.0726"
           id="path66900" />
        <path
           d="m 82.0782,96.2617 0.1451,-0.0726"
           id="path66902" />
        <path
           d="m 82.2233,96.1891 h 0.2903"
           id="path66904" />
        <path
           d="m 82.5136,96.1891 0.1452,0.0726"
           id="path66906" />
        <path
           d="m 83.3119,97.2051 v -1.016"
           id="path66908" />
        <path
           d="m 83.3119,96.4794 0.0726,-0.1451"
           id="path66910" />
        <path
           d="m 83.3845,96.3343 0.0726,-0.0726"
           id="path66912" />
        <path
           d="m 83.4571,96.2617 0.1451,-0.0726"
           id="path66914" />
        <path
           d="m 83.6022,96.1891 h 0.1451"
           id="path66916" />
        <path
           d="M 84.473,97.2051 84.3279,97.1326"
           id="path66918" />
        <path
           d="M 84.3279,97.1326 84.2553,97.06"
           id="path66920" />
        <path
           d="M 84.2553,97.06 84.1827,96.9148"
           id="path66922" />
        <path
           d="M 84.1827,96.9148 V 96.4794"
           id="path66924" />
        <path
           d="m 84.1827,96.4794 0.0726,-0.1451"
           id="path66926" />
        <path
           d="m 84.2553,96.3343 0.0726,-0.0726"
           id="path66928" />
        <path
           d="M 84.3279,96.2617 84.473,96.1891"
           id="path66930" />
        <path
           d="m 84.473,96.1891 h 0.2177"
           id="path66932" />
        <path
           d="m 84.6907,96.1891 0.1452,0.0726"
           id="path66934" />
        <path
           d="m 84.8359,96.2617 0.0726,0.0726"
           id="path66936" />
        <path
           d="m 84.9085,96.3343 0.0725,0.1451"
           id="path66938" />
        <path
           d="m 84.981,96.4794 v 0.4354"
           id="path66940" />
        <path
           d="M 84.981,96.9148 84.9085,97.06"
           id="path66942" />
        <path
           d="m 84.9085,97.06 -0.0726,0.0726"
           id="path66944" />
        <path
           d="m 84.8359,97.1326 -0.1452,0.0725"
           id="path66946" />
        <path
           d="M 84.6907,97.2051 H 84.473"
           id="path66948" />
        <path
           d="m 86.2874,97.1326 -0.1452,0.0725"
           id="path66950" />
        <path
           d="M 86.1422,97.2051 H 85.8519"
           id="path66952" />
        <path
           d="M 85.8519,97.2051 85.7068,97.1326"
           id="path66954" />
        <path
           d="M 85.7068,97.1326 85.6342,97.06"
           id="path66956" />
        <path
           d="M 85.6342,97.06 85.5616,96.9148"
           id="path66958" />
        <path
           d="M 85.5616,96.9148 V 96.4794"
           id="path66960" />
        <path
           d="m 85.5616,96.4794 0.0726,-0.1451"
           id="path66962" />
        <path
           d="m 85.6342,96.3343 0.0726,-0.0726"
           id="path66964" />
        <path
           d="m 85.7068,96.2617 0.1451,-0.0726"
           id="path66966" />
        <path
           d="m 85.8519,96.1891 h 0.2903"
           id="path66968" />
        <path
           d="m 86.1422,96.1891 0.1452,0.0726"
           id="path66970" />
        <path
           d="M 87.1582,97.2051 87.0131,97.1326"
           id="path66972" />
        <path
           d="M 87.0131,97.1326 86.9405,97.06"
           id="path66974" />
        <path
           d="M 86.9405,97.06 86.8679,96.9148"
           id="path66976" />
        <path
           d="M 86.8679,96.9148 V 96.4794"
           id="path66978" />
        <path
           d="m 86.8679,96.4794 0.0726,-0.1451"
           id="path66980" />
        <path
           d="m 86.9405,96.3343 0.0726,-0.0726"
           id="path66982" />
        <path
           d="m 87.0131,96.2617 0.1451,-0.0726"
           id="path66984" />
        <path
           d="m 87.1582,96.1891 h 0.2177"
           id="path66986" />
        <path
           d="m 87.3759,96.1891 0.1452,0.0726"
           id="path66988" />
        <path
           d="m 87.5211,96.2617 0.0726,0.0726"
           id="path66990" />
        <path
           d="m 87.5937,96.3343 0.0725,0.1451"
           id="path66992" />
        <path
           d="m 87.6662,96.4794 v 0.4354"
           id="path66994" />
        <path
           d="M 87.6662,96.9148 87.5937,97.06"
           id="path66996" />
        <path
           d="m 87.5937,97.06 -0.0726,0.0726"
           id="path66998" />
        <path
           d="m 87.5211,97.1326 -0.1452,0.0725"
           id="path67000" />
        <path
           d="M 87.3759,97.2051 H 87.1582"
           id="path67002" />
        <path
           d="m 88.3194,96.1891 v 1.016"
           id="path67004" />
        <path
           d="M 88.3194,96.3343 88.392,96.2617"
           id="path67006" />
        <path
           d="m 88.392,96.2617 0.1451,-0.0726"
           id="path67008" />
        <path
           d="m 88.5371,96.1891 h 0.2177"
           id="path67010" />
        <path
           d="M 88.7548,96.1891 88.9,96.2617"
           id="path67012" />
        <path
           d="m 88.9,96.2617 0.0726,0.1451"
           id="path67014" />
        <path
           d="m 88.9726,96.4068 v 0.7983"
           id="path67016" />
        <path
           d="m 89.4806,96.1891 h 0.5806"
           id="path67018" />
        <path
           d="m 89.6983,95.6811 v 1.3063"
           id="path67020" />
        <path
           d="m 89.6983,96.9874 0.0726,0.1452"
           id="path67022" />
        <path
           d="m 89.7709,97.1326 0.1451,0.0725"
           id="path67024" />
        <path
           d="m 89.916,97.2051 h 0.1452"
           id="path67026" />
        <path
           d="m 90.5692,97.2051 v -1.016"
           id="path67028" />
        <path
           d="m 90.5692,96.4794 0.0726,-0.1451"
           id="path67030" />
        <path
           d="m 90.6418,96.3343 0.0726,-0.0726"
           id="path67032" />
        <path
           d="m 90.7144,96.2617 0.1451,-0.0726"
           id="path67034" />
        <path
           d="m 90.8595,96.1891 h 0.1451"
           id="path67036" />
        <path
           d="M 91.7303,97.2051 91.5852,97.1326"
           id="path67038" />
        <path
           d="M 91.5852,97.1326 91.5126,97.06"
           id="path67040" />
        <path
           d="M 91.5126,97.06 91.44,96.9148"
           id="path67042" />
        <path
           d="M 91.44,96.9148 V 96.4794"
           id="path67044" />
        <path
           d="m 91.44,96.4794 0.0726,-0.1451"
           id="path67046" />
        <path
           d="m 91.5126,96.3343 0.0726,-0.0726"
           id="path67048" />
        <path
           d="m 91.5852,96.2617 0.1451,-0.0726"
           id="path67050" />
        <path
           d="M 91.7303,96.1891 H 91.948"
           id="path67052" />
        <path
           d="m 91.948,96.1891 0.1452,0.0726"
           id="path67054" />
        <path
           d="m 92.0932,96.2617 0.0726,0.0726"
           id="path67056" />
        <path
           d="m 92.1658,96.3343 0.0725,0.1451"
           id="path67058" />
        <path
           d="m 92.2383,96.4794 v 0.4354"
           id="path67060" />
        <path
           d="M 92.2383,96.9148 92.1658,97.06"
           id="path67062" />
        <path
           d="m 92.1658,97.06 -0.0726,0.0726"
           id="path67064" />
        <path
           d="M 92.0932,97.1326 91.948,97.2051"
           id="path67066" />
        <path
           d="M 91.948,97.2051 H 91.7303"
           id="path67068" />
        <path
           d="M 93.1092,97.2051 92.9641,97.1326"
           id="path67070" />
        <path
           d="M 92.9641,97.1326 92.8915,96.9874"
           id="path67072" />
        <path
           d="M 92.8915,96.9874 V 95.6811"
           id="path67074" />
        <path
           d="M 93.9075,97.2051 93.7624,97.1326"
           id="path67076" />
        <path
           d="M 93.7624,97.1326 93.6898,96.9874"
           id="path67078" />
        <path
           d="M 93.6898,96.9874 V 95.6811"
           id="path67080" />
        <path
           d="m 95.0687,97.1326 -0.1452,0.0725"
           id="path67082" />
        <path
           d="M 94.9235,97.2051 H 94.6333"
           id="path67084" />
        <path
           d="M 94.6333,97.2051 94.4881,97.1326"
           id="path67086" />
        <path
           d="M 94.4881,97.1326 94.4155,96.9874"
           id="path67088" />
        <path
           d="M 94.4155,96.9874 V 96.4068"
           id="path67090" />
        <path
           d="m 94.4155,96.4068 0.0726,-0.1451"
           id="path67092" />
        <path
           d="m 94.4881,96.2617 0.1452,-0.0726"
           id="path67094" />
        <path
           d="m 94.6333,96.1891 h 0.2902"
           id="path67096" />
        <path
           d="m 94.9235,96.1891 0.1452,0.0726"
           id="path67098" />
        <path
           d="m 95.0687,96.2617 0.0726,0.1451"
           id="path67100" />
        <path
           d="M 95.1413,96.4068 V 96.552"
           id="path67102" />
        <path
           d="m 95.1413,96.552 -0.7258,0.1451"
           id="path67104" />
        <path
           d="m 95.7944,97.2051 v -1.016"
           id="path67106" />
        <path
           d="M 95.7944,96.4794 95.867,96.3343"
           id="path67108" />
        <path
           d="m 95.867,96.3343 0.0726,-0.0726"
           id="path67110" />
        <path
           d="m 95.9396,96.2617 0.1451,-0.0726"
           id="path67112" />
        <path
           d="m 96.0847,96.1891 h 0.1451"
           id="path67114" />
      </g>
    </g>
  </g>
  <g
     style="fill:#006464;fill-opacity:0;stroke:#006464;stroke-width:0.1524;stroke-linecap:round;stroke-linejoin:round;stroke-opacity:1"
     id="g67418"
     transform="translate(-77.279501,-51.8795)">
    <g
       id="g67122" />
    <g
       style="fill:#840000;fill-opacity:0;stroke:#840000;stroke-width:0.1524;stroke-linecap:round;stroke-linejoin:round;stroke-opacity:1"
       id="g67124" />
    <g
       style="fill:#840000;fill-opacity:0;stroke:#840000;stroke-width:0.381;stroke-linecap:round;stroke-linejoin:round;stroke-opacity:1"
       id="g67130">
      <rect
         x="128.27"
         y="52.07"
         width="20.32"
         height="25.4"
         rx="0.000000"
         id="rect67126" />
      <path
         d="m 138.43,77.47 v 2.54"
         id="path67128" />
    </g>
    <g
       style="fill:#006464;fill-opacity:0;stroke:#006464;stroke-width:0.381;stroke-linecap:round;stroke-linejoin:round;stroke-opacity:1"
       id="g67132" />
    <g
       style="fill:#006464;fill-opacity:0;stroke:#006464;stroke-width:0.1524;stroke-linecap:round;stroke-linejoin:round;stroke-opacity:1"
       id="g67244">
      <g
         transform="rotate(-90,138.43,76.454)"
         id="g67136">
        <text
           x="138.42999"
           y="77.088997"
           textLength="9.698"
           font-size="1.6933px"
           lengthAdjust="spacingAndGlyphs"
           text-anchor="start"
           opacity="0"
           id="text67134">PDN_UART</text>
      </g>
      <g
         class="stroked-text"
         id="g67242">
        <desc
           id="desc67138">PDN_UART</desc>
        <path
           d="m 139.0095,76.0514 h -1.27"
           id="path67140" />
        <path
           d="M 137.7395,76.0514 V 75.5676"
           id="path67142" />
        <path
           d="M 137.7395,75.5676 137.8,75.4466"
           id="path67144" />
        <path
           d="m 137.8,75.4466 0.0605,-0.0605"
           id="path67146" />
        <path
           d="m 137.8605,75.3861 0.1209,-0.0604"
           id="path67148" />
        <path
           d="m 137.9814,75.3257 h 0.1815"
           id="path67150" />
        <path
           d="m 138.1629,75.3257 0.1209,0.0604"
           id="path67152" />
        <path
           d="m 138.2838,75.3861 0.0605,0.0605"
           id="path67154" />
        <path
           d="m 138.3443,75.4466 0.0605,0.121"
           id="path67156" />
        <path
           d="m 138.4048,75.5676 v 0.4838"
           id="path67158" />
        <path
           d="m 139.0095,74.7814 h -1.27"
           id="path67160" />
        <path
           d="M 137.7395,74.7814 V 74.479"
           id="path67162" />
        <path
           d="M 137.7395,74.479 137.8,74.2976"
           id="path67164" />
        <path
           d="m 137.8,74.2976 0.121,-0.121"
           id="path67166" />
        <path
           d="m 137.921,74.1766 0.1209,-0.0605"
           id="path67168" />
        <path
           d="m 138.0419,74.1161 0.2419,-0.0604"
           id="path67170" />
        <path
           d="m 138.2838,74.0557 h 0.1814"
           id="path67172" />
        <path
           d="m 138.4652,74.0557 0.2419,0.0604"
           id="path67174" />
        <path
           d="m 138.7071,74.1161 0.121,0.0605"
           id="path67176" />
        <path
           d="m 138.8281,74.1766 0.121,0.121"
           id="path67178" />
        <path
           d="m 138.9491,74.2976 0.0604,0.1814"
           id="path67180" />
        <path
           d="m 139.0095,74.479 v 0.3024"
           id="path67182" />
        <path
           d="m 139.0095,73.5114 h -1.27"
           id="path67184" />
        <path
           d="m 137.7395,73.5114 1.27,-0.7257"
           id="path67186" />
        <path
           d="m 139.0095,72.7857 h -1.27"
           id="path67188" />
        <path
           d="M 139.1305,72.4833 V 71.5156"
           id="path67190" />
        <path
           d="m 137.7395,71.2133 h 1.0281"
           id="path67192" />
        <path
           d="m 138.7676,71.2133 0.121,-0.0605"
           id="path67194" />
        <path
           d="m 138.8886,71.1528 0.0605,-0.0605"
           id="path67196" />
        <path
           d="m 138.9491,71.0923 0.0604,-0.1209"
           id="path67198" />
        <path
           d="M 139.0095,70.9714 V 70.7295"
           id="path67200" />
        <path
           d="m 139.0095,70.7295 -0.0604,-0.121"
           id="path67202" />
        <path
           d="M 138.9491,70.6085 138.8886,70.548"
           id="path67204" />
        <path
           d="m 138.8886,70.548 -0.121,-0.0604"
           id="path67206" />
        <path
           d="m 138.7676,70.4876 h -1.0281"
           id="path67208" />
        <path
           d="M 138.6467,69.9432 V 69.3385"
           id="path67210" />
        <path
           d="m 139.0095,70.0642 -1.27,-0.4233"
           id="path67212" />
        <path
           d="m 137.7395,69.6409 1.27,-0.4234"
           id="path67214" />
        <path
           d="m 139.0095,68.0685 -0.6047,0.4233"
           id="path67216" />
        <path
           d="m 139.0095,68.7942 h -1.27"
           id="path67218" />
        <path
           d="M 137.7395,68.7942 V 68.3104"
           id="path67220" />
        <path
           d="M 137.7395,68.3104 137.8,68.1894"
           id="path67222" />
        <path
           d="m 137.8,68.1894 0.0605,-0.0605"
           id="path67224" />
        <path
           d="m 137.8605,68.1289 0.1209,-0.0604"
           id="path67226" />
        <path
           d="m 137.9814,68.0685 h 0.1815"
           id="path67228" />
        <path
           d="m 138.1629,68.0685 0.1209,0.0604"
           id="path67230" />
        <path
           d="m 138.2838,68.1289 0.0605,0.0605"
           id="path67232" />
        <path
           d="m 138.3443,68.1894 0.0605,0.121"
           id="path67234" />
        <path
           d="m 138.4048,68.3104 v 0.4838"
           id="path67236" />
        <path
           d="M 137.7395,67.7056 V 66.9799"
           id="path67238" />
        <path
           d="m 139.0095,67.3427 h -1.27"
           id="path67240" />
      </g>
    </g>
    <g
       style="fill:#006464;fill-opacity:0;stroke:#006464;stroke-width:0.381;stroke-linecap:round;stroke-linejoin:round;stroke-opacity:1"
       id="g67416">
      <text
         x="138.42999"
         y="65.531998"
         textLength="11.0706"
         font-size="2.032px"
         lengthAdjust="spacingAndGlyphs"
         text-anchor="middle"
         opacity="0"
         id="text67246">TMC2209</text>
      <g
         class="stroked-text"
         id="g67414">
        <desc
           id="desc67248">TMC2209</desc>
        <path
           d="m 133.4589,63.9311 h 0.8709"
           id="path67250" />
        <path
           d="m 133.8943,65.4551 v -1.524"
           id="path67252" />
        <path
           d="m 134.8377,65.4551 v -1.524"
           id="path67254" />
        <path
           d="m 134.8377,63.9311 0.508,1.0886"
           id="path67256" />
        <path
           d="m 135.3457,65.0197 0.508,-1.0886"
           id="path67258" />
        <path
           d="m 135.8537,63.9311 v 1.524"
           id="path67260" />
        <path
           d="m 137.4503,65.31 -0.0726,0.0726"
           id="path67262" />
        <path
           d="M 137.3777,65.3826 137.16,65.4551"
           id="path67264" />
        <path
           d="m 137.16,65.4551 h -0.1452"
           id="path67266" />
        <path
           d="m 137.0148,65.4551 -0.2177,-0.0725"
           id="path67268" />
        <path
           d="M 136.7971,65.3826 136.652,65.2374"
           id="path67270" />
        <path
           d="m 136.652,65.2374 -0.0726,-0.1451"
           id="path67272" />
        <path
           d="M 136.5794,65.0923 136.5068,64.802"
           id="path67274" />
        <path
           d="M 136.5068,64.802 V 64.5843"
           id="path67276" />
        <path
           d="m 136.5068,64.5843 0.0726,-0.2903"
           id="path67278" />
        <path
           d="m 136.5794,64.294 0.0726,-0.1452"
           id="path67280" />
        <path
           d="m 136.652,64.1488 0.1451,-0.1451"
           id="path67282" />
        <path
           d="m 136.7971,64.0037 0.2177,-0.0726"
           id="path67284" />
        <path
           d="M 137.0148,63.9311 H 137.16"
           id="path67286" />
        <path
           d="m 137.16,63.9311 0.2177,0.0726"
           id="path67288" />
        <path
           d="m 137.3777,64.0037 0.0726,0.0726"
           id="path67290" />
        <path
           d="m 138.0308,64.0763 0.0726,-0.0726"
           id="path67292" />
        <path
           d="m 138.1034,64.0037 0.1452,-0.0726"
           id="path67294" />
        <path
           d="m 138.2486,63.9311 h 0.3628"
           id="path67296" />
        <path
           d="m 138.6114,63.9311 0.1452,0.0726"
           id="path67298" />
        <path
           d="m 138.7566,64.0037 0.0725,0.0726"
           id="path67300" />
        <path
           d="m 138.8291,64.0763 0.0726,0.1451"
           id="path67302" />
        <path
           d="m 138.9017,64.2214 v 0.1452"
           id="path67304" />
        <path
           d="m 138.9017,64.3666 -0.0726,0.2177"
           id="path67306" />
        <path
           d="m 138.8291,64.5843 -0.8708,0.8708"
           id="path67308" />
        <path
           d="m 137.9583,65.4551 h 0.9434"
           id="path67310" />
        <path
           d="m 139.4822,64.0763 0.0726,-0.0726"
           id="path67312" />
        <path
           d="M 139.5548,64.0037 139.7,63.9311"
           id="path67314" />
        <path
           d="m 139.7,63.9311 h 0.3628"
           id="path67316" />
        <path
           d="m 140.0628,63.9311 0.1452,0.0726"
           id="path67318" />
        <path
           d="m 140.208,64.0037 0.0725,0.0726"
           id="path67320" />
        <path
           d="m 140.2805,64.0763 0.0726,0.1451"
           id="path67322" />
        <path
           d="m 140.3531,64.2214 v 0.1452"
           id="path67324" />
        <path
           d="m 140.3531,64.3666 -0.0726,0.2177"
           id="path67326" />
        <path
           d="m 140.2805,64.5843 -0.8708,0.8708"
           id="path67328" />
        <path
           d="m 139.4097,65.4551 h 0.9434"
           id="path67330" />
        <path
           d="m 141.2965,63.9311 h 0.1451"
           id="path67332" />
        <path
           d="m 141.4416,63.9311 0.1452,0.0726"
           id="path67334" />
        <path
           d="m 141.5868,64.0037 0.0726,0.0726"
           id="path67336" />
        <path
           d="m 141.6594,64.0763 0.0725,0.1451"
           id="path67338" />
        <path
           d="m 141.7319,64.2214 0.0726,0.2903"
           id="path67340" />
        <path
           d="m 141.8045,64.5117 v 0.3629"
           id="path67342" />
        <path
           d="m 141.8045,64.8746 -0.0726,0.2902"
           id="path67344" />
        <path
           d="M 141.7319,65.1648 141.6594,65.31"
           id="path67346" />
        <path
           d="m 141.6594,65.31 -0.0726,0.0726"
           id="path67348" />
        <path
           d="m 141.5868,65.3826 -0.1452,0.0725"
           id="path67350" />
        <path
           d="m 141.4416,65.4551 h -0.1451"
           id="path67352" />
        <path
           d="m 141.2965,65.4551 -0.1451,-0.0725"
           id="path67354" />
        <path
           d="M 141.1514,65.3826 141.0788,65.31"
           id="path67356" />
        <path
           d="m 141.0788,65.31 -0.0726,-0.1452"
           id="path67358" />
        <path
           d="m 141.0062,65.1648 -0.0726,-0.2902"
           id="path67360" />
        <path
           d="M 140.9336,64.8746 V 64.5117"
           id="path67362" />
        <path
           d="m 140.9336,64.5117 0.0726,-0.2903"
           id="path67364" />
        <path
           d="m 141.0062,64.2214 0.0726,-0.1451"
           id="path67366" />
        <path
           d="m 141.0788,64.0763 0.0726,-0.0726"
           id="path67368" />
        <path
           d="m 141.1514,64.0037 0.1451,-0.0726"
           id="path67370" />
        <path
           d="m 142.5302,65.4551 h 0.2903"
           id="path67372" />
        <path
           d="m 142.8205,65.4551 0.1451,-0.0725"
           id="path67374" />
        <path
           d="M 142.9656,65.3826 143.0382,65.31"
           id="path67376" />
        <path
           d="m 143.0382,65.31 0.1451,-0.2177"
           id="path67378" />
        <path
           d="m 143.1833,65.0923 0.0726,-0.2903"
           id="path67380" />
        <path
           d="M 143.2559,64.802 V 64.2214"
           id="path67382" />
        <path
           d="m 143.2559,64.2214 -0.0726,-0.1451"
           id="path67384" />
        <path
           d="m 143.1833,64.0763 -0.0725,-0.0726"
           id="path67386" />
        <path
           d="m 143.1108,64.0037 -0.1452,-0.0726"
           id="path67388" />
        <path
           d="m 142.9656,63.9311 h -0.2903"
           id="path67390" />
        <path
           d="m 142.6753,63.9311 -0.1451,0.0726"
           id="path67392" />
        <path
           d="m 142.5302,64.0037 -0.0726,0.0726"
           id="path67394" />
        <path
           d="m 142.4576,64.0763 -0.0726,0.1451"
           id="path67396" />
        <path
           d="m 142.385,64.2214 v 0.3629"
           id="path67398" />
        <path
           d="m 142.385,64.5843 0.0726,0.1451"
           id="path67400" />
        <path
           d="m 142.4576,64.7294 0.0726,0.0726"
           id="path67402" />
        <path
           d="m 142.5302,64.802 0.1451,0.0726"
           id="path67404" />
        <path
           d="m 142.6753,64.8746 h 0.2903"
           id="path67406" />
        <path
           d="m 142.9656,64.8746 0.1452,-0.0726"
           id="path67408" />
        <path
           d="m 143.1108,64.802 0.0725,-0.0726"
           id="path67410" />
        <path
           d="m 143.1833,64.7294 0.0726,-0.1451"
           id="path67412" />
      </g>
    </g>
  </g>
  <g
     style="fill:#006464;fill-opacity:0;stroke:#006464;stroke-width:0.1524;stroke-linecap:round;stroke-linejoin:round;stroke-opacity:1"
     id="g67420"
     transform="translate(-77.279501,-51.8795)" />
  <g
     style="fill:#009600;fill-opacity:0;stroke:#009600;stroke-width:0.1524;stroke-linecap:round;stroke-linejoin:round;stroke-opacity:1"
     id="g67422"
     transform="translate(-77.279501,-51.8795)" />
  <g
     style="fill:#009600;fill-opacity:0;stroke:#009600;stroke-width:0.381;stroke-linecap:round;stroke-linejoin:round;stroke-opacity:1"
     id="g67426"
     transform="translate(-77.279501,-51.8795)">
    <path
       d="m 138.43,80.01 v 7.62"
       id="path67424" />
  </g>
  <g
     style="fill:#009600;fill-opacity:0;stroke:#009600;stroke-width:0.1524;stroke-linecap:round;stroke-linejoin:round;stroke-opacity:1"
     id="g67428"
     transform="translate(-77.279501,-51.8795)" />
  <g
     style="fill:#009600;fill-opacity:0;stroke:#009600;stroke-width:0.381;stroke-linecap:round;stroke-linejoin:round;stroke-opacity:1"
     id="g67432"
     transform="translate(-77.279501,-51.8795)">
    <path
       d="m 100.33,87.63 h 38.1"
       id="path67430" />
  </g>
  <g
     style="fill:#009600;fill-opacity:0;stroke:#009600;stroke-width:0.1524;stroke-linecap:round;stroke-linejoin:round;stroke-opacity:1"
     id="g67434"
     transform="translate(-77.279501,-51.8795)" />
  <g
     style="fill:#000084;fill-opacity:0;stroke:#000084;stroke-width:0.1524;stroke-linecap:round;stroke-linejoin:round;stroke-opacity:1"
     id="g67440"
     transform="translate(-77.279501,-51.8795)">
    <path
       d="m 99.7204,106.0704 1.2192,1.2192"
       id="path67436" />
    <path
       d="m 100.9396,106.0704 -1.2192,1.2192"
       id="path67438" />
  </g>
</svg>
