<?xml version="1.0" encoding="UTF-8" standalone="no"?>
<svg
   xmlns:dc="http://purl.org/dc/elements/1.1/"
   xmlns:cc="http://creativecommons.org/ns#"
   xmlns:rdf="http://www.w3.org/1999/02/22-rdf-syntax-ns#"
   xmlns:svg="http://www.w3.org/2000/svg"
   xmlns="http://www.w3.org/2000/svg"
   version="1.1"
   width="59.795937mm"
   height="25.781mm"
   viewBox="0 0 59.795937 25.781"
   id="svg3964">
  <metadata
     id="metadata3970">
    <rdf:RDF>
      <cc:Work
         rdf:about="">
        <dc:format>image/svg+xml</dc:format>
        <dc:type
           rdf:resource="http://purl.org/dc/dcmitype/StillImage" />
      </cc:Work>
    </rdf:RDF>
  </metadata>
  <defs
     id="defs3968" />
  <title
     id="title3132">SVG Image created as trinamic_wiring-TMC2209-description.svg date 2023/08/02 16:28:28 </title>
  <desc
     id="desc3134">Image generated by Eeschema-SVG </desc>
  <g
     style="fill:#000000;fill-opacity:1;stroke:#000000;stroke-linecap:round;stroke-linejoin:round;stroke-opacity:1"
     id="g3136"
     transform="translate(-113.82576,-78.549498)" />
  <g
     style="fill:#000000;fill-opacity:0;stroke:#000000;stroke-width:0.1524;stroke-linecap:round;stroke-linejoin:round;stroke-opacity:1"
     id="g3138"
     transform="translate(-113.82576,-78.549498)" />
  <g
     style="fill:#000000;fill-opacity:0;stroke:#000000;stroke-width:0.1588;stroke-linecap:round;stroke-linejoin:round;stroke-opacity:1"
     id="g3140"
     transform="translate(-113.82576,-78.549498)" />
  <g
     style="fill:#000000;fill-opacity:0;stroke:#000000;stroke-width:0.381;stroke-linecap:round;stroke-linejoin:round;stroke-opacity:1"
     id="g3142"
     transform="translate(-113.82576,-78.549498)" />
  <g
     style="fill:#000000;fill-opacity:0;stroke:#000000;stroke-width:0.1588;stroke-linecap:round;stroke-linejoin:round;stroke-opacity:1"
     id="g3144"
     transform="translate(-113.82576,-78.549498)" />
  <g
     style="fill:#000000;fill-opacity:0;stroke:#000000;stroke-width:0.381;stroke-linecap:round;stroke-linejoin:round;stroke-opacity:1"
     id="g3146"
     transform="translate(-113.82576,-78.549498)" />
  <g
     style="fill:#000000;fill-opacity:0;stroke:#000000;stroke-width:0.1588;stroke-linecap:round;stroke-linejoin:round;stroke-opacity:1"
     id="g3148"
     transform="translate(-113.82576,-78.549498)" />
  <g
     style="fill:#000000;fill-opacity:0;stroke:#000000;stroke-width:0.381;stroke-linecap:round;stroke-linejoin:round;stroke-opacity:1"
     id="g3150"
     transform="translate(-113.82576,-78.549498)" />
  <g
     style="fill:#000000;fill-opacity:0;stroke:#000000;stroke-width:0.1588;stroke-linecap:round;stroke-linejoin:round;stroke-opacity:1"
     id="g3152"
     transform="translate(-113.82576,-78.549498)" />
  <g
     style="fill:#000000;fill-opacity:0;stroke:#000000;stroke-width:0.381;stroke-linecap:round;stroke-linejoin:round;stroke-opacity:1"
     id="g3154"
     transform="translate(-113.82576,-78.549498)" />
  <g
     style="fill:#000000;fill-opacity:0;stroke:#000000;stroke-width:0.1588;stroke-linecap:round;stroke-linejoin:round;stroke-opacity:1"
     id="g3156"
     transform="translate(-113.82576,-78.549498)" />
  <g
     style="fill:#000000;fill-opacity:0;stroke:#000000;stroke-width:0.381;stroke-linecap:round;stroke-linejoin:round;stroke-opacity:1"
     id="g3158"
     transform="translate(-113.82576,-78.549498)" />
  <g
     style="fill:#000000;fill-opacity:0;stroke:#000000;stroke-width:0.1588;stroke-linecap:round;stroke-linejoin:round;stroke-opacity:1"
     id="g3160"
     transform="translate(-113.82576,-78.549498)" />
  <g
     style="fill:#000000;fill-opacity:0;stroke:#000000;stroke-width:0.381;stroke-linecap:round;stroke-linejoin:round;stroke-opacity:1"
     id="g3162"
     transform="translate(-113.82576,-78.549498)" />
  <g
     style="fill:#000000;fill-opacity:0;stroke:#000000;stroke-width:0.1588;stroke-linecap:round;stroke-linejoin:round;stroke-opacity:1"
     id="g3164"
     transform="translate(-113.82576,-78.549498)" />
  <g
     style="fill:#000000;fill-opacity:0;stroke:#000000;stroke-width:0.381;stroke-linecap:round;stroke-linejoin:round;stroke-opacity:1"
     id="g3166"
     transform="translate(-113.82576,-78.549498)" />
  <g
     style="fill:#000000;fill-opacity:0;stroke:#000000;stroke-width:0.1588;stroke-linecap:round;stroke-linejoin:round;stroke-opacity:1"
     id="g3168"
     transform="translate(-113.82576,-78.549498)" />
  <g
     style="fill:#000000;fill-opacity:0;stroke:#000000;stroke-width:0.381;stroke-linecap:round;stroke-linejoin:round;stroke-opacity:1"
     id="g3170"
     transform="translate(-113.82576,-78.549498)" />
  <g
     style="fill:#000000;fill-opacity:0;stroke:#000000;stroke-width:0.1588;stroke-linecap:round;stroke-linejoin:round;stroke-opacity:1"
     id="g3172"
     transform="translate(-113.82576,-78.549498)" />
  <g
     style="fill:#000000;fill-opacity:0;stroke:#000000;stroke-width:0.381;stroke-linecap:round;stroke-linejoin:round;stroke-opacity:1"
     id="g3174"
     transform="translate(-113.82576,-78.549498)" />
  <g
     style="fill:#000000;fill-opacity:0;stroke:#000000;stroke-width:0.1588;stroke-linecap:round;stroke-linejoin:round;stroke-opacity:1"
     id="g3176"
     transform="translate(-113.82576,-78.549498)" />
  <g
     style="fill:#000000;fill-opacity:0;stroke:#000000;stroke-width:0.381;stroke-linecap:round;stroke-linejoin:round;stroke-opacity:1"
     id="g3178"
     transform="translate(-113.82576,-78.549498)" />
  <g
     style="fill:#000000;fill-opacity:0;stroke:#000000;stroke-width:0.1588;stroke-linecap:round;stroke-linejoin:round;stroke-opacity:1"
     id="g3180"
     transform="translate(-113.82576,-78.549498)" />
  <g
     style="fill:#000000;fill-opacity:0;stroke:#000000;stroke-width:0.381;stroke-linecap:round;stroke-linejoin:round;stroke-opacity:1"
     id="g3182"
     transform="translate(-113.82576,-78.549498)" />
  <g
     style="fill:#000000;fill-opacity:0;stroke:#000000;stroke-width:0.1524;stroke-linecap:round;stroke-linejoin:round;stroke-opacity:1"
     id="g3226"
     transform="translate(-113.82576,-78.549498)">
    <g
       id="g3184" />
    <g
       style="fill:#586e75;fill-opacity:0;stroke:#586e75;stroke-width:0.1524;stroke-linecap:round;stroke-linejoin:round;stroke-opacity:1"
       id="g3186" />
    <g
       style="fill:#586e75;fill-opacity:0;stroke:#586e75;stroke-width:0.381;stroke-linecap:round;stroke-linejoin:round;stroke-opacity:1"
       id="g3224">
      <path
         style="fill:none;fill-opacity:0;stroke:#586e75;stroke-width:0.381;stroke-linecap:round;stroke-linejoin:round;stroke-opacity:1"
         d="m 168.91,89.408 v -3.81 l 1.27,2.54 1.27,-2.54 v 3.81"
         id="path3188" />
      <path
         d="m 165.735,90.17 a 0.635,0.635 0 0 0 0,-1.27"
         id="path3190" />
      <path
         d="m 165.735,88.9 a 0.635,0.635 0 0 0 0,-1.27"
         id="path3192" />
      <path
         d="m 165.735,87.63 a 0.635,0.635 0 0 0 0,-1.27"
         id="path3194" />
      <path
         d="m 165.735,86.36 a 0.635,0.635 0 0 0 0,-1.27"
         id="path3196" />
      <path
         d="m 168.91,92.075 a 0.635,0.635 0 0 0 -1.27,0"
         id="path3198" />
      <path
         d="m 170.18,92.075 a 0.635,0.635 0 0 0 -1.27,0"
         id="path3200" />
      <path
         style="fill:none;fill-opacity:0;stroke:#586e75;stroke-width:0.381;stroke-linecap:round;stroke-linejoin:round;stroke-opacity:1"
         d="m 165.1,90.17 h 0.635"
         id="path3202" />
      <path
         style="fill:none;fill-opacity:0;stroke:#586e75;stroke-width:0.381;stroke-linecap:round;stroke-linejoin:round;stroke-opacity:1"
         d="m 165.1,85.09 h 0.635"
         id="path3204" />
      <path
         style="fill:none;fill-opacity:0;stroke:#586e75;stroke-width:0.381;stroke-linecap:round;stroke-linejoin:round;stroke-opacity:1"
         d="M 167.64,92.71 V 92.075"
         id="path3206" />
      <path
         style="fill:none;fill-opacity:0;stroke:#586e75;stroke-width:0.381;stroke-linecap:round;stroke-linejoin:round;stroke-opacity:1"
         d="M 172.72,92.71 V 92.075"
         id="path3208" />
      <circle
         cx="170.17999"
         cy="87.629997"
         r="3.2512"
         id="circle3210" />
      <path
         d="m 171.45,92.075 a 0.635,0.635 0 0 0 -1.27,0"
         id="path3212" />
      <path
         d="m 172.72,92.075 a 0.635,0.635 0 0 0 -1.27,0"
         id="path3214" />
      <path
         d="m 165.1,85.09 h -3.81"
         id="path3216" />
      <path
         d="m 165.1,90.17 h -3.81"
         id="path3218" />
      <path
         d="m 167.64,92.71 v 3.81"
         id="path3220" />
      <path
         d="m 172.72,92.71 v 3.81"
         id="path3222" />
    </g>
  </g>
  <g
     style="fill:#586e75;fill-opacity:0;stroke:#586e75;stroke-width:0.1524;stroke-linecap:round;stroke-linejoin:round;stroke-opacity:1"
     id="g3418"
     transform="translate(-113.82576,-78.549498)">
    <g
       id="g3228" />
    <g
       style="fill:#586e75;fill-opacity:0;stroke:#586e75;stroke-width:0.381;stroke-linecap:round;stroke-linejoin:round;stroke-opacity:1"
       id="g3416">
      <rect
         x="124.46"
         y="78.739998"
         width="20.32"
         height="25.4"
         rx="0.000000"
         id="rect3230" />
      <text
         x="134.62"
         y="92.074997"
         textLength="9.4160004"
         font-size="1.6933px"
         lengthAdjust="spacingAndGlyphs"
         text-anchor="middle"
         opacity="0"
         id="text3232">TMC2209</text>
      <g
         class="stroked-text"
         id="g3400">
        <desc
           id="desc3234">TMC2209</desc>
        <path
           d="m 130.4774,90.7376 h 0.7257"
           id="path3236" />
        <path
           d="m 130.8403,92.0076 v -1.27"
           id="path3238" />
        <path
           d="m 131.6264,92.0076 v -1.27"
           id="path3240" />
        <path
           d="m 131.6264,90.7376 0.4234,0.9072"
           id="path3242" />
        <path
           d="m 132.0498,91.6448 0.4233,-0.9072"
           id="path3244" />
        <path
           d="m 132.4731,90.7376 v 1.27"
           id="path3246" />
        <path
           d="m 133.8035,91.8867 -0.0604,0.0605"
           id="path3248" />
        <path
           d="m 133.7431,91.9472 -0.1815,0.0604"
           id="path3250" />
        <path
           d="m 133.5616,92.0076 h -0.1209"
           id="path3252" />
        <path
           d="m 133.4407,92.0076 -0.1814,-0.0604"
           id="path3254" />
        <path
           d="m 133.2593,91.9472 -0.121,-0.121"
           id="path3256" />
        <path
           d="m 133.1383,91.8262 -0.0605,-0.121"
           id="path3258" />
        <path
           d="m 133.0778,91.7052 -0.0604,-0.2419"
           id="path3260" />
        <path
           d="M 133.0174,91.4633 V 91.2819"
           id="path3262" />
        <path
           d="M 133.0174,91.2819 133.0778,91.04"
           id="path3264" />
        <path
           d="m 133.0778,91.04 0.0605,-0.1209"
           id="path3266" />
        <path
           d="m 133.1383,90.9191 0.121,-0.121"
           id="path3268" />
        <path
           d="m 133.2593,90.7981 0.1814,-0.0605"
           id="path3270" />
        <path
           d="m 133.4407,90.7376 h 0.1209"
           id="path3272" />
        <path
           d="m 133.5616,90.7376 0.1815,0.0605"
           id="path3274" />
        <path
           d="m 133.7431,90.7981 0.0604,0.0605"
           id="path3276" />
        <path
           d="m 134.2874,90.8586 0.0604,-0.0605"
           id="path3278" />
        <path
           d="m 134.3478,90.7981 0.121,-0.0605"
           id="path3280" />
        <path
           d="m 134.4688,90.7376 h 0.3024"
           id="path3282" />
        <path
           d="m 134.7712,90.7376 0.1209,0.0605"
           id="path3284" />
        <path
           d="m 134.8921,90.7981 0.0605,0.0605"
           id="path3286" />
        <path
           d="m 134.9526,90.8586 0.0605,0.1209"
           id="path3288" />
        <path
           d="m 135.0131,90.9795 v 0.121"
           id="path3290" />
        <path
           d="m 135.0131,91.1005 -0.0605,0.1814"
           id="path3292" />
        <path
           d="m 134.9526,91.2819 -0.7257,0.7257"
           id="path3294" />
        <path
           d="m 134.2269,92.0076 h 0.7862"
           id="path3296" />
        <path
           d="m 135.4969,90.8586 0.0604,-0.0605"
           id="path3298" />
        <path
           d="m 135.5573,90.7981 0.121,-0.0605"
           id="path3300" />
        <path
           d="m 135.6783,90.7376 h 0.3024"
           id="path3302" />
        <path
           d="m 135.9807,90.7376 0.1209,0.0605"
           id="path3304" />
        <path
           d="m 136.1016,90.7981 0.0605,0.0605"
           id="path3306" />
        <path
           d="m 136.1621,90.8586 0.0605,0.1209"
           id="path3308" />
        <path
           d="m 136.2226,90.9795 v 0.121"
           id="path3310" />
        <path
           d="m 136.2226,91.1005 -0.0605,0.1814"
           id="path3312" />
        <path
           d="m 136.1621,91.2819 -0.7257,0.7257"
           id="path3314" />
        <path
           d="m 135.4364,92.0076 h 0.7862"
           id="path3316" />
        <path
           d="m 137.0087,90.7376 h 0.121"
           id="path3318" />
        <path
           d="m 137.1297,90.7376 0.1209,0.0605"
           id="path3320" />
        <path
           d="m 137.2506,90.7981 0.0605,0.0605"
           id="path3322" />
        <path
           d="m 137.3111,90.8586 0.0605,0.1209"
           id="path3324" />
        <path
           d="m 137.3716,90.9795 0.0605,0.2419"
           id="path3326" />
        <path
           d="m 137.4321,91.2214 v 0.3024"
           id="path3328" />
        <path
           d="m 137.4321,91.5238 -0.0605,0.2419"
           id="path3330" />
        <path
           d="m 137.3716,91.7657 -0.0605,0.121"
           id="path3332" />
        <path
           d="m 137.3111,91.8867 -0.0605,0.0605"
           id="path3334" />
        <path
           d="m 137.2506,91.9472 -0.1209,0.0604"
           id="path3336" />
        <path
           d="m 137.1297,92.0076 h -0.121"
           id="path3338" />
        <path
           d="m 137.0087,92.0076 -0.1209,-0.0604"
           id="path3340" />
        <path
           d="m 136.8878,91.9472 -0.0605,-0.0605"
           id="path3342" />
        <path
           d="m 136.8273,91.8867 -0.0605,-0.121"
           id="path3344" />
        <path
           d="m 136.7668,91.7657 -0.0604,-0.2419"
           id="path3346" />
        <path
           d="M 136.7064,91.5238 V 91.2214"
           id="path3348" />
        <path
           d="m 136.7064,91.2214 0.0604,-0.2419"
           id="path3350" />
        <path
           d="m 136.7668,90.9795 0.0605,-0.1209"
           id="path3352" />
        <path
           d="m 136.8273,90.8586 0.0605,-0.0605"
           id="path3354" />
        <path
           d="m 136.8878,90.7981 0.1209,-0.0605"
           id="path3356" />
        <path
           d="m 138.0368,92.0076 h 0.2419"
           id="path3358" />
        <path
           d="m 138.2787,92.0076 0.121,-0.0604"
           id="path3360" />
        <path
           d="m 138.3997,91.9472 0.0604,-0.0605"
           id="path3362" />
        <path
           d="m 138.4601,91.8867 0.121,-0.1815"
           id="path3364" />
        <path
           d="m 138.5811,91.7052 0.0605,-0.2419"
           id="path3366" />
        <path
           d="M 138.6416,91.4633 V 90.9795"
           id="path3368" />
        <path
           d="m 138.6416,90.9795 -0.0605,-0.1209"
           id="path3370" />
        <path
           d="m 138.5811,90.8586 -0.0605,-0.0605"
           id="path3372" />
        <path
           d="m 138.5206,90.7981 -0.1209,-0.0605"
           id="path3374" />
        <path
           d="m 138.3997,90.7376 h -0.2419"
           id="path3376" />
        <path
           d="m 138.1578,90.7376 -0.121,0.0605"
           id="path3378" />
        <path
           d="m 138.0368,90.7981 -0.0605,0.0605"
           id="path3380" />
        <path
           d="m 137.9763,90.8586 -0.0604,0.1209"
           id="path3382" />
        <path
           d="m 137.9159,90.9795 v 0.3024"
           id="path3384" />
        <path
           d="m 137.9159,91.2819 0.0604,0.121"
           id="path3386" />
        <path
           d="m 137.9763,91.4029 0.0605,0.0604"
           id="path3388" />
        <path
           d="m 138.0368,91.4633 0.121,0.0605"
           id="path3390" />
        <path
           d="m 138.1578,91.5238 h 0.2419"
           id="path3392" />
        <path
           d="m 138.3997,91.5238 0.1209,-0.0605"
           id="path3394" />
        <path
           d="m 138.5206,91.4633 0.0605,-0.0604"
           id="path3396" />
        <path
           d="m 138.5811,91.4029 0.0605,-0.121"
           id="path3398" />
      </g>
      <path
         d="m 124.46,81.28 h -2.54"
         id="path3402" />
      <path
         d="m 124.46,86.36 h -2.54"
         id="path3404" />
      <path
         d="m 124.46,88.9 h -2.54"
         id="path3406" />
      <path
         d="m 144.78,86.36 h 2.54"
         id="path3408" />
      <path
         d="m 144.78,88.9 h 2.54"
         id="path3410" />
      <path
         d="m 144.78,93.98 h 2.54"
         id="path3412" />
      <path
         d="m 144.78,96.52 h 2.54"
         id="path3414" />
    </g>
  </g>
  <g
     style="fill:#586e75;fill-opacity:0;stroke:#586e75;stroke-width:0.1588;stroke-linecap:round;stroke-linejoin:round;stroke-opacity:1"
     id="g3420"
     transform="translate(-113.82576,-78.549498)" />
  <g
     style="fill:#586e75;fill-opacity:0;stroke:#586e75;stroke-width:0.381;stroke-linecap:round;stroke-linejoin:round;stroke-opacity:1"
     id="g3422"
     transform="translate(-113.82576,-78.549498)" />
  <g
     style="fill:#2aa198;fill-opacity:0;stroke:#2aa198;stroke-width:0.381;stroke-linecap:round;stroke-linejoin:round;stroke-opacity:1"
     id="g3438"
     transform="translate(-113.82576,-78.549498)">
    <text
       x="149.86"
       y="88.550697"
       textLength="3.55"
       font-size="1.6933px"
       lengthAdjust="spacingAndGlyphs"
       text-anchor="start"
       opacity="0"
       id="text3424">A-</text>
    <g
       class="stroked-text"
       id="g3436">
      <desc
         id="desc3426">A-</desc>
      <path
         d="m 150.3525,88.0125 h 0.6047"
         id="path3428" />
      <path
         d="m 150.2315,88.3753 0.4233,-1.27"
         id="path3430" />
      <path
         d="m 150.6548,87.1053 0.4234,1.27"
         id="path3432" />
      <path
         d="m 151.5015,87.8915 h 0.9677"
         id="path3434" />
    </g>
  </g>
  <g
     style="fill:#2aa198;fill-opacity:0;stroke:#2aa198;stroke-width:0.1588;stroke-linecap:round;stroke-linejoin:round;stroke-opacity:1"
     id="g3440"
     transform="translate(-113.82576,-78.549498)" />
  <g
     style="fill:#2aa198;fill-opacity:0;stroke:#2aa198;stroke-width:0.381;stroke-linecap:round;stroke-linejoin:round;stroke-opacity:1"
     id="g3488"
     transform="translate(-113.82576,-78.549498)">
    <text
       x="149.86"
       y="93.630699"
       textLength="3.7314"
       font-size="1.6933px"
       lengthAdjust="spacingAndGlyphs"
       text-anchor="start"
       opacity="0"
       id="text3442">B+</text>
    <g
       class="stroked-text"
       id="g3486">
      <desc
         id="desc3444">B+</desc>
      <path
         d="m 150.8363,92.7901 0.1814,0.0605"
         id="path3446" />
      <path
         d="m 151.0177,92.8506 0.0605,0.0604"
         id="path3448" />
      <path
         d="m 151.0782,92.911 0.0604,0.121"
         id="path3450" />
      <path
         d="m 151.1386,93.032 v 0.1814"
         id="path3452" />
      <path
         d="m 151.1386,93.2134 -0.0604,0.121"
         id="path3454" />
      <path
         d="m 151.0782,93.3344 -0.0605,0.0605"
         id="path3456" />
      <path
         d="m 151.0177,93.3949 -0.121,0.0604"
         id="path3458" />
      <path
         d="m 150.8967,93.4553 h -0.4838"
         id="path3460" />
      <path
         d="m 150.4129,93.4553 v -1.27"
         id="path3462" />
      <path
         d="m 150.4129,92.1853 h 0.4234"
         id="path3464" />
      <path
         d="m 150.8363,92.1853 0.1209,0.0605"
         id="path3466" />
      <path
         d="m 150.9572,92.2458 0.0605,0.0605"
         id="path3468" />
      <path
         d="m 151.0177,92.3063 0.0605,0.1209"
         id="path3470" />
      <path
         d="m 151.0782,92.4272 v 0.121"
         id="path3472" />
      <path
         d="m 151.0782,92.5482 -0.0605,0.1209"
         id="path3474" />
      <path
         d="m 151.0177,92.6691 -0.0605,0.0605"
         id="path3476" />
      <path
         d="m 150.9572,92.7296 -0.1209,0.0605"
         id="path3478" />
      <path
         d="m 150.8363,92.7901 h -0.4234"
         id="path3480" />
      <path
         d="m 151.6829,92.9715 h 0.9677"
         id="path3482" />
      <path
         d="M 152.1667,93.4553 V 92.4877"
         id="path3484" />
    </g>
  </g>
  <g
     style="fill:#2aa198;fill-opacity:0;stroke:#2aa198;stroke-width:0.1588;stroke-linecap:round;stroke-linejoin:round;stroke-opacity:1"
     id="g3490"
     transform="translate(-113.82576,-78.549498)" />
  <g
     style="fill:#2aa198;fill-opacity:0;stroke:#2aa198;stroke-width:0.381;stroke-linecap:round;stroke-linejoin:round;stroke-opacity:1"
     id="g3538"
     transform="translate(-113.82576,-78.549498)">
    <g
       transform="rotate(-90,172.3707,99.06)"
       id="g3494">
      <text
         x="172.3707"
         y="99.059998"
         textLength="3.7314"
         font-size="1.6933px"
         lengthAdjust="spacingAndGlyphs"
         text-anchor="end"
         opacity="0"
         id="text3492">B-</text>
    </g>
    <g
       class="stroked-text"
       id="g3536">
      <desc
         id="desc3496">B-</desc>
      <path
         d="m 171.5301,101.4272 0.0605,-0.1814"
         id="path3498" />
      <path
         d="m 171.5906,101.2458 0.0604,-0.0605"
         id="path3500" />
      <path
         d="m 171.651,101.1853 0.121,-0.0604"
         id="path3502" />
      <path
         d="m 171.772,101.1249 h 0.1814"
         id="path3504" />
      <path
         d="m 171.9534,101.1249 0.121,0.0604"
         id="path3506" />
      <path
         d="m 172.0744,101.1853 0.0605,0.0605"
         id="path3508" />
      <path
         d="m 172.1349,101.2458 0.0604,0.121"
         id="path3510" />
      <path
         d="m 172.1953,101.3668 v 0.4838"
         id="path3512" />
      <path
         d="m 172.1953,101.8506 h -1.27"
         id="path3514" />
      <path
         d="m 170.9253,101.8506 v -0.4234"
         id="path3516" />
      <path
         d="m 170.9253,101.4272 0.0605,-0.1209"
         id="path3518" />
      <path
         d="m 170.9858,101.3063 0.0605,-0.0605"
         id="path3520" />
      <path
         d="m 171.0463,101.2458 0.1209,-0.0605"
         id="path3522" />
      <path
         d="m 171.1672,101.1853 h 0.121"
         id="path3524" />
      <path
         d="m 171.2882,101.1853 0.1209,0.0605"
         id="path3526" />
      <path
         d="m 171.4091,101.2458 0.0605,0.0605"
         id="path3528" />
      <path
         d="m 171.4696,101.3063 0.0605,0.1209"
         id="path3530" />
      <path
         d="m 171.5301,101.4272 v 0.4234"
         id="path3532" />
      <path
         d="M 171.7115,100.5806 V 99.613"
         id="path3534" />
    </g>
  </g>
  <g
     style="fill:#2aa198;fill-opacity:0;stroke:#2aa198;stroke-width:0.1588;stroke-linecap:round;stroke-linejoin:round;stroke-opacity:1"
     id="g3540"
     transform="translate(-113.82576,-78.549498)" />
  <g
     style="fill:#2aa198;fill-opacity:0;stroke:#2aa198;stroke-width:0.381;stroke-linecap:round;stroke-linejoin:round;stroke-opacity:1"
     id="g3590"
     transform="translate(-113.82576,-78.549498)">
    <g
       transform="rotate(-90,167.2907,99.06)"
       id="g3544">
      <text
         x="167.2907"
         y="99.059998"
         textLength="3.7314"
         font-size="1.6933px"
         lengthAdjust="spacingAndGlyphs"
         text-anchor="end"
         opacity="0"
         id="text3542">B+</text>
    </g>
    <g
       class="stroked-text"
       id="g3588">
      <desc
         id="desc3546">B+</desc>
      <path
         d="m 166.4501,101.4272 0.0605,-0.1814"
         id="path3548" />
      <path
         d="m 166.5106,101.2458 0.0604,-0.0605"
         id="path3550" />
      <path
         d="m 166.571,101.1853 0.121,-0.0604"
         id="path3552" />
      <path
         d="m 166.692,101.1249 h 0.1814"
         id="path3554" />
      <path
         d="m 166.8734,101.1249 0.121,0.0604"
         id="path3556" />
      <path
         d="m 166.9944,101.1853 0.0605,0.0605"
         id="path3558" />
      <path
         d="m 167.0549,101.2458 0.0604,0.121"
         id="path3560" />
      <path
         d="m 167.1153,101.3668 v 0.4838"
         id="path3562" />
      <path
         d="m 167.1153,101.8506 h -1.27"
         id="path3564" />
      <path
         d="m 165.8453,101.8506 v -0.4234"
         id="path3566" />
      <path
         d="m 165.8453,101.4272 0.0605,-0.1209"
         id="path3568" />
      <path
         d="m 165.9058,101.3063 0.0605,-0.0605"
         id="path3570" />
      <path
         d="m 165.9663,101.2458 0.1209,-0.0605"
         id="path3572" />
      <path
         d="m 166.0872,101.1853 h 0.121"
         id="path3574" />
      <path
         d="m 166.2082,101.1853 0.1209,0.0605"
         id="path3576" />
      <path
         d="m 166.3291,101.2458 0.0605,0.0605"
         id="path3578" />
      <path
         d="m 166.3896,101.3063 0.0605,0.1209"
         id="path3580" />
      <path
         d="m 166.4501,101.4272 v 0.4234"
         id="path3582" />
      <path
         d="M 166.6315,100.5806 V 99.613"
         id="path3584" />
      <path
         d="m 167.1153,100.0968 h -0.9676"
         id="path3586" />
    </g>
  </g>
  <g
     style="fill:#2aa198;fill-opacity:0;stroke:#2aa198;stroke-width:0.1588;stroke-linecap:round;stroke-linejoin:round;stroke-opacity:1"
     id="g3592"
     transform="translate(-113.82576,-78.549498)" />
  <g
     style="fill:#2aa198;fill-opacity:0;stroke:#2aa198;stroke-width:0.381;stroke-linecap:round;stroke-linejoin:round;stroke-opacity:1"
     id="g3638"
     transform="translate(-113.82576,-78.549498)">
    <text
       x="149.86"
       y="96.1707"
       textLength="3.7314"
       font-size="1.6933px"
       lengthAdjust="spacingAndGlyphs"
       text-anchor="start"
       opacity="0"
       id="text3594">B-</text>
    <g
       class="stroked-text"
       id="g3636">
      <desc
         id="desc3596">B-</desc>
      <path
         d="m 150.8363,95.3301 0.1814,0.0605"
         id="path3598" />
      <path
         d="m 151.0177,95.3906 0.0605,0.0604"
         id="path3600" />
      <path
         d="m 151.0782,95.451 0.0604,0.121"
         id="path3602" />
      <path
         d="m 151.1386,95.572 v 0.1814"
         id="path3604" />
      <path
         d="m 151.1386,95.7534 -0.0604,0.121"
         id="path3606" />
      <path
         d="m 151.0782,95.8744 -0.0605,0.0605"
         id="path3608" />
      <path
         d="m 151.0177,95.9349 -0.121,0.0604"
         id="path3610" />
      <path
         d="m 150.8967,95.9953 h -0.4838"
         id="path3612" />
      <path
         d="m 150.4129,95.9953 v -1.27"
         id="path3614" />
      <path
         d="m 150.4129,94.7253 h 0.4234"
         id="path3616" />
      <path
         d="m 150.8363,94.7253 0.1209,0.0605"
         id="path3618" />
      <path
         d="m 150.9572,94.7858 0.0605,0.0605"
         id="path3620" />
      <path
         d="m 151.0177,94.8463 0.0605,0.1209"
         id="path3622" />
      <path
         d="m 151.0782,94.9672 v 0.121"
         id="path3624" />
      <path
         d="m 151.0782,95.0882 -0.0605,0.1209"
         id="path3626" />
      <path
         d="m 151.0177,95.2091 -0.0605,0.0605"
         id="path3628" />
      <path
         d="m 150.9572,95.2696 -0.1209,0.0605"
         id="path3630" />
      <path
         d="m 150.8363,95.3301 h -0.4234"
         id="path3632" />
      <path
         d="m 151.6829,95.5115 h 0.9677"
         id="path3634" />
    </g>
  </g>
  <g
     style="fill:#2aa198;fill-opacity:0;stroke:#2aa198;stroke-width:0.1588;stroke-linecap:round;stroke-linejoin:round;stroke-opacity:1"
     id="g3640"
     transform="translate(-113.82576,-78.549498)" />
  <g
     style="fill:#2aa198;fill-opacity:0;stroke:#2aa198;stroke-width:0.381;stroke-linecap:round;stroke-linejoin:round;stroke-opacity:1"
     id="g3658"
     transform="translate(-113.82576,-78.549498)">
    <text
       x="149.86"
       y="86.010696"
       textLength="3.55"
       font-size="1.6933px"
       lengthAdjust="spacingAndGlyphs"
       text-anchor="start"
       opacity="0"
       id="text3642">A+</text>
    <g
       class="stroked-text"
       id="g3656">
      <desc
         id="desc3644">A+</desc>
      <path
         d="m 150.3525,85.4725 h 0.6047"
         id="path3646" />
      <path
         d="m 150.2315,85.8353 0.4233,-1.27"
         id="path3648" />
      <path
         d="m 150.6548,84.5653 0.4234,1.27"
         id="path3650" />
      <path
         d="m 151.5015,85.3515 h 0.9677"
         id="path3652" />
      <path
         d="M 151.9853,85.8353 V 84.8677"
         id="path3654" />
    </g>
  </g>
  <g
     style="fill:#2aa198;fill-opacity:0;stroke:#2aa198;stroke-width:0.1588;stroke-linecap:round;stroke-linejoin:round;stroke-opacity:1"
     id="g3660"
     transform="translate(-113.82576,-78.549498)" />
  <g
     style="fill:#2aa198;fill-opacity:0;stroke:#2aa198;stroke-width:0.381;stroke-linecap:round;stroke-linejoin:round;stroke-opacity:1"
     id="g3678"
     transform="translate(-113.82576,-78.549498)">
    <text
       x="158.75"
       y="84.7407"
       textLength="3.55"
       font-size="1.6933px"
       lengthAdjust="spacingAndGlyphs"
       text-anchor="end"
       opacity="0"
       id="text3662">A+</text>
    <g
       class="stroked-text"
       id="g3676">
      <desc
         id="desc3664">A+</desc>
      <path
         d="m 156.0803,84.2025 h 0.6047"
         id="path3666" />
      <path
         d="m 155.9593,84.5653 0.4233,-1.27"
         id="path3668" />
      <path
         d="m 156.3826,83.2953 0.4234,1.27"
         id="path3670" />
      <path
         d="m 157.2293,84.0815 h 0.9677"
         id="path3672" />
      <path
         d="M 157.7131,84.5653 V 83.5977"
         id="path3674" />
    </g>
  </g>
  <g
     style="fill:#2aa198;fill-opacity:0;stroke:#2aa198;stroke-width:0.1588;stroke-linecap:round;stroke-linejoin:round;stroke-opacity:1"
     id="g3680"
     transform="translate(-113.82576,-78.549498)" />
  <g
     style="fill:#2aa198;fill-opacity:0;stroke:#2aa198;stroke-width:0.381;stroke-linecap:round;stroke-linejoin:round;stroke-opacity:1"
     id="g3696"
     transform="translate(-113.82576,-78.549498)">
    <text
       x="158.75"
       y="89.820702"
       textLength="3.55"
       font-size="1.6933px"
       lengthAdjust="spacingAndGlyphs"
       text-anchor="end"
       opacity="0"
       id="text3682">A-</text>
    <g
       class="stroked-text"
       id="g3694">
      <desc
         id="desc3684">A-</desc>
      <path
         d="m 156.0803,89.2825 h 0.6047"
         id="path3686" />
      <path
         d="m 155.9593,89.6453 0.4233,-1.27"
         id="path3688" />
      <path
         d="m 156.3826,88.3753 0.4234,1.27"
         id="path3690" />
      <path
         d="m 157.2293,89.1615 h 0.9677"
         id="path3692" />
    </g>
  </g>
  <g
     style="fill:#2aa198;fill-opacity:0;stroke:#2aa198;stroke-width:0.1588;stroke-linecap:round;stroke-linejoin:round;stroke-opacity:1"
     id="g3698"
     transform="translate(-113.82576,-78.549498)" />
  <g
     style="fill:#2aa198;fill-opacity:0;stroke:#2aa198;stroke-width:0.381;stroke-linecap:round;stroke-linejoin:round;stroke-opacity:1"
     id="g3756"
     transform="translate(-113.82576,-78.549498)">
    <text
       x="119.38"
       y="80.930702"
       textLength="5.5457001"
       font-size="1.6933px"
       lengthAdjust="spacingAndGlyphs"
       text-anchor="end"
       opacity="0"
       id="text3700">UART</text>
    <g
       class="stroked-text"
       id="g3754">
      <desc
         id="desc3702">UART</desc>
      <path
         d="m 114.775,79.4853 v 1.0281"
         id="path3704" />
      <path
         d="m 114.775,80.5134 0.0605,0.121"
         id="path3706" />
      <path
         d="m 114.8355,80.6344 0.0605,0.0605"
         id="path3708" />
      <path
         d="m 114.896,80.6949 0.1209,0.0604"
         id="path3710" />
      <path
         d="m 115.0169,80.7553 h 0.2419"
         id="path3712" />
      <path
         d="m 115.2588,80.7553 0.121,-0.0604"
         id="path3714" />
      <path
         d="m 115.3798,80.6949 0.0605,-0.0605"
         id="path3716" />
      <path
         d="m 115.4403,80.6344 0.0604,-0.121"
         id="path3718" />
      <path
         d="M 115.5007,80.5134 V 79.4853"
         id="path3720" />
      <path
         d="m 116.0451,80.3925 h 0.6047"
         id="path3722" />
      <path
         d="m 115.9241,80.7553 0.4233,-1.27"
         id="path3724" />
      <path
         d="m 116.3474,79.4853 0.4234,1.27"
         id="path3726" />
      <path
         d="m 117.9198,80.7553 -0.4233,-0.6047"
         id="path3728" />
      <path
         d="m 117.1941,80.7553 v -1.27"
         id="path3730" />
      <path
         d="m 117.1941,79.4853 h 0.4838"
         id="path3732" />
      <path
         d="m 117.6779,79.4853 0.121,0.0605"
         id="path3734" />
      <path
         d="m 117.7989,79.5458 0.0605,0.0605"
         id="path3736" />
      <path
         d="m 117.8594,79.6063 0.0604,0.1209"
         id="path3738" />
      <path
         d="m 117.9198,79.7272 v 0.1815"
         id="path3740" />
      <path
         d="m 117.9198,79.9087 -0.0604,0.1209"
         id="path3742" />
      <path
         d="m 117.8594,80.0296 -0.0605,0.0605"
         id="path3744" />
      <path
         d="m 117.7989,80.0901 -0.121,0.0605"
         id="path3746" />
      <path
         d="m 117.6779,80.1506 h -0.4838"
         id="path3748" />
      <path
         d="m 118.2827,79.4853 h 0.7257"
         id="path3750" />
      <path
         d="m 118.6456,80.7553 v -1.27"
         id="path3752" />
    </g>
  </g>
  <g
     style="fill:#2aa198;fill-opacity:0;stroke:#2aa198;stroke-width:0.1588;stroke-linecap:round;stroke-linejoin:round;stroke-opacity:1"
     id="g3758"
     transform="translate(-113.82576,-78.549498)" />
  <g
     style="fill:#2aa198;fill-opacity:0;stroke:#2aa198;stroke-width:0.381;stroke-linecap:round;stroke-linejoin:round;stroke-opacity:1"
     id="g3814"
     transform="translate(-113.82576,-78.549498)">
    <text
       x="119.38"
       y="88.550697"
       textLength="4.0338001"
       font-size="1.6933px"
       lengthAdjust="spacingAndGlyphs"
       text-anchor="end"
       opacity="0"
       id="text3760">DIR</text>
    <g
       class="stroked-text"
       id="g3812">
      <desc
         id="desc3762">DIR</desc>
      <path
         d="m 116.2869,88.3753 v -1.27"
         id="path3764" />
      <path
         d="m 116.2869,87.1053 h 0.3024"
         id="path3766" />
      <path
         d="m 116.5893,87.1053 0.1814,0.0605"
         id="path3768" />
      <path
         d="m 116.7707,87.1658 0.121,0.121"
         id="path3770" />
      <path
         d="m 116.8917,87.2868 0.0605,0.1209"
         id="path3772" />
      <path
         d="m 116.9522,87.4077 0.0604,0.2419"
         id="path3774" />
      <path
         d="M 117.0126,87.6496 V 87.831"
         id="path3776" />
      <path
         d="m 117.0126,87.831 -0.0604,0.2419"
         id="path3778" />
      <path
         d="m 116.9522,88.0729 -0.0605,0.121"
         id="path3780" />
      <path
         d="m 116.8917,88.1939 -0.121,0.121"
         id="path3782" />
      <path
         d="m 116.7707,88.3149 -0.1814,0.0604"
         id="path3784" />
      <path
         d="m 116.5893,88.3753 h -0.3024"
         id="path3786" />
      <path
         d="m 117.5569,88.3753 v -1.27"
         id="path3788" />
      <path
         d="m 118.8874,88.3753 -0.4233,-0.6047"
         id="path3790" />
      <path
         d="m 118.1617,88.3753 v -1.27"
         id="path3792" />
      <path
         d="m 118.1617,87.1053 h 0.4838"
         id="path3794" />
      <path
         d="m 118.6455,87.1053 0.121,0.0605"
         id="path3796" />
      <path
         d="m 118.7665,87.1658 0.0605,0.0605"
         id="path3798" />
      <path
         d="m 118.827,87.2263 0.0604,0.1209"
         id="path3800" />
      <path
         d="m 118.8874,87.3472 v 0.1815"
         id="path3802" />
      <path
         d="m 118.8874,87.5287 -0.0604,0.1209"
         id="path3804" />
      <path
         d="m 118.827,87.6496 -0.0605,0.0605"
         id="path3806" />
      <path
         d="m 118.7665,87.7101 -0.121,0.0605"
         id="path3808" />
      <path
         d="m 118.6455,87.7706 h -0.4838"
         id="path3810" />
    </g>
  </g>
  <g
     style="fill:#2aa198;fill-opacity:0;stroke:#2aa198;stroke-width:0.1588;stroke-linecap:round;stroke-linejoin:round;stroke-opacity:1"
     id="g3816"
     transform="translate(-113.82576,-78.549498)" />
  <g
     style="fill:#2aa198;fill-opacity:0;stroke:#2aa198;stroke-width:0.381;stroke-linecap:round;stroke-linejoin:round;stroke-opacity:1"
     id="g3894"
     transform="translate(-113.82576,-78.549498)">
    <text
       x="119.38"
       y="86.010696"
       textLength="5.4850998"
       font-size="1.6933px"
       lengthAdjust="spacingAndGlyphs"
       text-anchor="end"
       opacity="0"
       id="text3818">STEP</text>
    <g
       class="stroked-text"
       id="g3892">
      <desc
         id="desc3820">STEP</desc>
      <path
         d="m 114.7752,85.7749 0.1814,0.0604"
         id="path3822" />
      <path
         d="m 114.9566,85.8353 h 0.3024"
         id="path3824" />
      <path
         d="m 115.259,85.8353 0.1209,-0.0604"
         id="path3826" />
      <path
         d="m 115.3799,85.7749 0.0605,-0.0605"
         id="path3828" />
      <path
         d="m 115.4404,85.7144 0.0605,-0.121"
         id="path3830" />
      <path
         d="M 115.5009,85.5934 V 85.4725"
         id="path3832" />
      <path
         d="m 115.5009,85.4725 -0.0605,-0.121"
         id="path3834" />
      <path
         d="M 115.4404,85.3515 115.3799,85.291"
         id="path3836" />
      <path
         d="M 115.3799,85.291 115.259,85.2306"
         id="path3838" />
      <path
         d="m 115.259,85.2306 -0.2419,-0.0605"
         id="path3840" />
      <path
         d="m 115.0171,85.1701 -0.121,-0.0605"
         id="path3842" />
      <path
         d="m 114.8961,85.1096 -0.0605,-0.0605"
         id="path3844" />
      <path
         d="m 114.8356,85.0491 -0.0604,-0.1209"
         id="path3846" />
      <path
         d="m 114.7752,84.9282 v -0.121"
         id="path3848" />
      <path
         d="m 114.7752,84.8072 0.0604,-0.1209"
         id="path3850" />
      <path
         d="m 114.8356,84.6863 0.0605,-0.0605"
         id="path3852" />
      <path
         d="m 114.8961,84.6258 0.121,-0.0605"
         id="path3854" />
      <path
         d="m 115.0171,84.5653 h 0.3023"
         id="path3856" />
      <path
         d="m 115.3194,84.5653 0.1815,0.0605"
         id="path3858" />
      <path
         d="m 115.8637,84.5653 h 0.7257"
         id="path3860" />
      <path
         d="m 116.2266,85.8353 v -1.27"
         id="path3862" />
      <path
         d="m 117.0127,85.1701 h 0.4234"
         id="path3864" />
      <path
         d="m 117.6175,85.8353 h -0.6048"
         id="path3866" />
      <path
         d="m 117.0127,85.8353 v -1.27"
         id="path3868" />
      <path
         d="m 117.0127,84.5653 h 0.6048"
         id="path3870" />
      <path
         d="m 118.1617,85.8353 v -1.27"
         id="path3872" />
      <path
         d="m 118.1617,84.5653 h 0.4838"
         id="path3874" />
      <path
         d="m 118.6455,84.5653 0.121,0.0605"
         id="path3876" />
      <path
         d="m 118.7665,84.6258 0.0605,0.0605"
         id="path3878" />
      <path
         d="m 118.827,84.6863 0.0604,0.1209"
         id="path3880" />
      <path
         d="m 118.8874,84.8072 v 0.1815"
         id="path3882" />
      <path
         d="m 118.8874,84.9887 -0.0604,0.1209"
         id="path3884" />
      <path
         d="m 118.827,85.1096 -0.0605,0.0605"
         id="path3886" />
      <path
         d="m 118.7665,85.1701 -0.121,0.0605"
         id="path3888" />
      <path
         d="m 118.6455,85.2306 h -0.4838"
         id="path3890" />
    </g>
  </g>
  <g
     style="fill:#2aa198;fill-opacity:0;stroke:#2aa198;stroke-width:0.1524;stroke-linecap:round;stroke-linejoin:round;stroke-opacity:1"
     id="g3896"
     transform="translate(-113.82576,-78.549498)" />
  <g
     style="fill:#859900;fill-opacity:0;stroke:#859900;stroke-width:0.1524;stroke-linecap:round;stroke-linejoin:round;stroke-opacity:1"
     id="g3898"
     transform="translate(-113.82576,-78.549498)" />
  <g
     style="fill:#859900;fill-opacity:0;stroke:#859900;stroke-width:0.381;stroke-linecap:round;stroke-linejoin:round;stroke-opacity:1"
     id="g3902"
     transform="translate(-113.82576,-78.549498)">
    <path
       d="m 158.75,90.17 h 2.54"
       id="path3900" />
  </g>
  <g
     style="fill:#859900;fill-opacity:0;stroke:#859900;stroke-width:0.1524;stroke-linecap:round;stroke-linejoin:round;stroke-opacity:1"
     id="g3904"
     transform="translate(-113.82576,-78.549498)" />
  <g
     style="fill:#859900;fill-opacity:0;stroke:#859900;stroke-width:0.381;stroke-linecap:round;stroke-linejoin:round;stroke-opacity:1"
     id="g3908"
     transform="translate(-113.82576,-78.549498)">
    <path
       d="m 149.86,96.52 h -2.54"
       id="path3906" />
  </g>
  <g
     style="fill:#859900;fill-opacity:0;stroke:#859900;stroke-width:0.1524;stroke-linecap:round;stroke-linejoin:round;stroke-opacity:1"
     id="g3910"
     transform="translate(-113.82576,-78.549498)" />
  <g
     style="fill:#859900;fill-opacity:0;stroke:#859900;stroke-width:0.381;stroke-linecap:round;stroke-linejoin:round;stroke-opacity:1"
     id="g3914"
     transform="translate(-113.82576,-78.549498)">
    <path
       d="m 158.75,85.09 h 2.54"
       id="path3912" />
  </g>
  <g
     style="fill:#859900;fill-opacity:0;stroke:#859900;stroke-width:0.1524;stroke-linecap:round;stroke-linejoin:round;stroke-opacity:1"
     id="g3916"
     transform="translate(-113.82576,-78.549498)" />
  <g
     style="fill:#859900;fill-opacity:0;stroke:#859900;stroke-width:0.381;stroke-linecap:round;stroke-linejoin:round;stroke-opacity:1"
     id="g3920"
     transform="translate(-113.82576,-78.549498)">
    <path
       d="m 149.86,93.98 h -2.54"
       id="path3918" />
  </g>
  <g
     style="fill:#859900;fill-opacity:0;stroke:#859900;stroke-width:0.1524;stroke-linecap:round;stroke-linejoin:round;stroke-opacity:1"
     id="g3922"
     transform="translate(-113.82576,-78.549498)" />
  <g
     style="fill:#859900;fill-opacity:0;stroke:#859900;stroke-width:0.381;stroke-linecap:round;stroke-linejoin:round;stroke-opacity:1"
     id="g3926"
     transform="translate(-113.82576,-78.549498)">
    <path
       d="M 172.72,99.06 V 96.52"
       id="path3924" />
  </g>
  <g
     style="fill:#859900;fill-opacity:0;stroke:#859900;stroke-width:0.1524;stroke-linecap:round;stroke-linejoin:round;stroke-opacity:1"
     id="g3928"
     transform="translate(-113.82576,-78.549498)" />
  <g
     style="fill:#859900;fill-opacity:0;stroke:#859900;stroke-width:0.381;stroke-linecap:round;stroke-linejoin:round;stroke-opacity:1"
     id="g3932"
     transform="translate(-113.82576,-78.549498)">
    <path
       d="M 167.64,99.06 V 96.52"
       id="path3930" />
  </g>
  <g
     style="fill:#859900;fill-opacity:0;stroke:#859900;stroke-width:0.1524;stroke-linecap:round;stroke-linejoin:round;stroke-opacity:1"
     id="g3934"
     transform="translate(-113.82576,-78.549498)" />
  <g
     style="fill:#859900;fill-opacity:0;stroke:#859900;stroke-width:0.381;stroke-linecap:round;stroke-linejoin:round;stroke-opacity:1"
     id="g3938"
     transform="translate(-113.82576,-78.549498)">
    <path
       d="m 149.86,88.9 h -2.54"
       id="path3936" />
  </g>
  <g
     style="fill:#859900;fill-opacity:0;stroke:#859900;stroke-width:0.1524;stroke-linecap:round;stroke-linejoin:round;stroke-opacity:1"
     id="g3940"
     transform="translate(-113.82576,-78.549498)" />
  <g
     style="fill:#859900;fill-opacity:0;stroke:#859900;stroke-width:0.381;stroke-linecap:round;stroke-linejoin:round;stroke-opacity:1"
     id="g3944"
     transform="translate(-113.82576,-78.549498)">
    <path
       d="m 149.86,86.36 h -2.54"
       id="path3942" />
  </g>
  <g
     style="fill:#859900;fill-opacity:0;stroke:#859900;stroke-width:0.1524;stroke-linecap:round;stroke-linejoin:round;stroke-opacity:1"
     id="g3946"
     transform="translate(-113.82576,-78.549498)" />
  <g
     style="fill:#859900;fill-opacity:0;stroke:#859900;stroke-width:0.381;stroke-linecap:round;stroke-linejoin:round;stroke-opacity:1"
     id="g3950"
     transform="translate(-113.82576,-78.549498)">
    <path
       d="m 119.38,88.9 h 2.54"
       id="path3948" />
  </g>
  <g
     style="fill:#859900;fill-opacity:0;stroke:#859900;stroke-width:0.1524;stroke-linecap:round;stroke-linejoin:round;stroke-opacity:1"
     id="g3952"
     transform="translate(-113.82576,-78.549498)" />
  <g
     style="fill:#859900;fill-opacity:0;stroke:#859900;stroke-width:0.381;stroke-linecap:round;stroke-linejoin:round;stroke-opacity:1"
     id="g3956"
     transform="translate(-113.82576,-78.549498)">
    <path
       d="m 119.38,86.36 h 2.54"
       id="path3954" />
  </g>
  <g
     style="fill:#859900;fill-opacity:0;stroke:#859900;stroke-width:0.1524;stroke-linecap:round;stroke-linejoin:round;stroke-opacity:1"
     id="g3958"
     transform="translate(-113.82576,-78.549498)" />
  <g
     style="fill:#859900;fill-opacity:0;stroke:#859900;stroke-width:0.381;stroke-linecap:round;stroke-linejoin:round;stroke-opacity:1"
     id="g3962"
     transform="translate(-113.82576,-78.549498)">
    <path
       d="m 119.38,81.28 h 2.54"
       id="path3960" />
  </g>
</svg>
