<?xml version="1.0" encoding="UTF-8" standalone="no"?>
<svg
   xmlns:dc="http://purl.org/dc/elements/1.1/"
   xmlns:cc="http://creativecommons.org/ns#"
   xmlns:rdf="http://www.w3.org/1999/02/22-rdf-syntax-ns#"
   xmlns:svg="http://www.w3.org/2000/svg"
   xmlns="http://www.w3.org/2000/svg"
   version="1.1"
   width="94.361mm"
   height="57.530998mm"
   viewBox="0 0 94.361001 57.530998"
   id="svg70796">
  <metadata
     id="metadata70802">
    <rdf:RDF>
      <cc:Work
         rdf:about="">
        <dc:format>image/svg+xml</dc:format>
        <dc:type
           rdf:resource="http://purl.org/dc/dcmitype/StillImage" />
      </cc:Work>
    </rdf:RDF>
  </metadata>
  <defs
     id="defs70800" />
  <title
     id="title69806">SVG Image created as trinamic_wiring-TMC2209-unidirectional-multiple.svg date 2023/08/01 16:42:02 </title>
  <desc
     id="desc69808">Image generated by Eeschema-SVG </desc>
  <g
     style="fill:#000000;fill-opacity:1;stroke:#000000;stroke-linecap:round;stroke-linejoin:round;stroke-opacity:1"
     id="g69810"
     transform="translate(-77.279501,-51.8795)" />
  <g
     style="fill:#000000;fill-opacity:0;stroke:#000000;stroke-width:0.1524;stroke-linecap:round;stroke-linejoin:round;stroke-opacity:1"
     id="g70108"
     transform="translate(-77.279501,-51.8795)">
    <g
       id="g69812" />
    <g
       style="fill:#840000;fill-opacity:0;stroke:#840000;stroke-width:0.1524;stroke-linecap:round;stroke-linejoin:round;stroke-opacity:1"
       id="g69814" />
    <g
       style="fill:#840000;fill-opacity:0;stroke:#840000;stroke-width:0.381;stroke-linecap:round;stroke-linejoin:round;stroke-opacity:1"
       id="g69820">
      <rect
         x="128.27"
         y="52.07"
         width="20.32"
         height="25.4"
         rx="0.000000"
         id="rect69816" />
      <path
         d="m 138.43,77.47 v 2.54"
         id="path69818" />
    </g>
    <g
       style="fill:#006464;fill-opacity:0;stroke:#006464;stroke-width:0.381;stroke-linecap:round;stroke-linejoin:round;stroke-opacity:1"
       id="g69822" />
    <g
       style="fill:#006464;fill-opacity:0;stroke:#006464;stroke-width:0.1524;stroke-linecap:round;stroke-linejoin:round;stroke-opacity:1"
       id="g69934">
      <g
         transform="rotate(-90,138.43,76.454)"
         id="g69826">
        <text
           x="138.42999"
           y="77.088997"
           textLength="9.698"
           font-size="1.6933px"
           lengthAdjust="spacingAndGlyphs"
           text-anchor="start"
           opacity="0"
           id="text69824">PDN_UART</text>
      </g>
      <g
         class="stroked-text"
         id="g69932">
        <desc
           id="desc69828">PDN_UART</desc>
        <path
           d="m 139.0095,76.0514 h -1.27"
           id="path69830" />
        <path
           d="M 137.7395,76.0514 V 75.5676"
           id="path69832" />
        <path
           d="M 137.7395,75.5676 137.8,75.4466"
           id="path69834" />
        <path
           d="m 137.8,75.4466 0.0605,-0.0605"
           id="path69836" />
        <path
           d="m 137.8605,75.3861 0.1209,-0.0604"
           id="path69838" />
        <path
           d="m 137.9814,75.3257 h 0.1815"
           id="path69840" />
        <path
           d="m 138.1629,75.3257 0.1209,0.0604"
           id="path69842" />
        <path
           d="m 138.2838,75.3861 0.0605,0.0605"
           id="path69844" />
        <path
           d="m 138.3443,75.4466 0.0605,0.121"
           id="path69846" />
        <path
           d="m 138.4048,75.5676 v 0.4838"
           id="path69848" />
        <path
           d="m 139.0095,74.7814 h -1.27"
           id="path69850" />
        <path
           d="M 137.7395,74.7814 V 74.479"
           id="path69852" />
        <path
           d="M 137.7395,74.479 137.8,74.2976"
           id="path69854" />
        <path
           d="m 137.8,74.2976 0.121,-0.121"
           id="path69856" />
        <path
           d="m 137.921,74.1766 0.1209,-0.0605"
           id="path69858" />
        <path
           d="m 138.0419,74.1161 0.2419,-0.0604"
           id="path69860" />
        <path
           d="m 138.2838,74.0557 h 0.1814"
           id="path69862" />
        <path
           d="m 138.4652,74.0557 0.2419,0.0604"
           id="path69864" />
        <path
           d="m 138.7071,74.1161 0.121,0.0605"
           id="path69866" />
        <path
           d="m 138.8281,74.1766 0.121,0.121"
           id="path69868" />
        <path
           d="m 138.9491,74.2976 0.0604,0.1814"
           id="path69870" />
        <path
           d="m 139.0095,74.479 v 0.3024"
           id="path69872" />
        <path
           d="m 139.0095,73.5114 h -1.27"
           id="path69874" />
        <path
           d="m 137.7395,73.5114 1.27,-0.7257"
           id="path69876" />
        <path
           d="m 139.0095,72.7857 h -1.27"
           id="path69878" />
        <path
           d="M 139.1305,72.4833 V 71.5156"
           id="path69880" />
        <path
           d="m 137.7395,71.2133 h 1.0281"
           id="path69882" />
        <path
           d="m 138.7676,71.2133 0.121,-0.0605"
           id="path69884" />
        <path
           d="m 138.8886,71.1528 0.0605,-0.0605"
           id="path69886" />
        <path
           d="m 138.9491,71.0923 0.0604,-0.1209"
           id="path69888" />
        <path
           d="M 139.0095,70.9714 V 70.7295"
           id="path69890" />
        <path
           d="m 139.0095,70.7295 -0.0604,-0.121"
           id="path69892" />
        <path
           d="M 138.9491,70.6085 138.8886,70.548"
           id="path69894" />
        <path
           d="m 138.8886,70.548 -0.121,-0.0604"
           id="path69896" />
        <path
           d="m 138.7676,70.4876 h -1.0281"
           id="path69898" />
        <path
           d="M 138.6467,69.9432 V 69.3385"
           id="path69900" />
        <path
           d="m 139.0095,70.0642 -1.27,-0.4233"
           id="path69902" />
        <path
           d="m 137.7395,69.6409 1.27,-0.4234"
           id="path69904" />
        <path
           d="m 139.0095,68.0685 -0.6047,0.4233"
           id="path69906" />
        <path
           d="m 139.0095,68.7942 h -1.27"
           id="path69908" />
        <path
           d="M 137.7395,68.7942 V 68.3104"
           id="path69910" />
        <path
           d="M 137.7395,68.3104 137.8,68.1894"
           id="path69912" />
        <path
           d="m 137.8,68.1894 0.0605,-0.0605"
           id="path69914" />
        <path
           d="m 137.8605,68.1289 0.1209,-0.0604"
           id="path69916" />
        <path
           d="m 137.9814,68.0685 h 0.1815"
           id="path69918" />
        <path
           d="m 138.1629,68.0685 0.1209,0.0604"
           id="path69920" />
        <path
           d="m 138.2838,68.1289 0.0605,0.0605"
           id="path69922" />
        <path
           d="m 138.3443,68.1894 0.0605,0.121"
           id="path69924" />
        <path
           d="m 138.4048,68.3104 v 0.4838"
           id="path69926" />
        <path
           d="M 137.7395,67.7056 V 66.9799"
           id="path69928" />
        <path
           d="m 139.0095,67.3427 h -1.27"
           id="path69930" />
      </g>
    </g>
    <g
       style="fill:#006464;fill-opacity:0;stroke:#006464;stroke-width:0.381;stroke-linecap:round;stroke-linejoin:round;stroke-opacity:1"
       id="g70106">
      <text
         x="138.42999"
         y="65.531998"
         textLength="11.0706"
         font-size="2.032px"
         lengthAdjust="spacingAndGlyphs"
         text-anchor="middle"
         opacity="0"
         id="text69936">TMC2209</text>
      <g
         class="stroked-text"
         id="g70104">
        <desc
           id="desc69938">TMC2209</desc>
        <path
           d="m 133.4589,63.9311 h 0.8709"
           id="path69940" />
        <path
           d="m 133.8943,65.4551 v -1.524"
           id="path69942" />
        <path
           d="m 134.8377,65.4551 v -1.524"
           id="path69944" />
        <path
           d="m 134.8377,63.9311 0.508,1.0886"
           id="path69946" />
        <path
           d="m 135.3457,65.0197 0.508,-1.0886"
           id="path69948" />
        <path
           d="m 135.8537,63.9311 v 1.524"
           id="path69950" />
        <path
           d="m 137.4503,65.31 -0.0726,0.0726"
           id="path69952" />
        <path
           d="M 137.3777,65.3826 137.16,65.4551"
           id="path69954" />
        <path
           d="m 137.16,65.4551 h -0.1452"
           id="path69956" />
        <path
           d="m 137.0148,65.4551 -0.2177,-0.0725"
           id="path69958" />
        <path
           d="M 136.7971,65.3826 136.652,65.2374"
           id="path69960" />
        <path
           d="m 136.652,65.2374 -0.0726,-0.1451"
           id="path69962" />
        <path
           d="M 136.5794,65.0923 136.5068,64.802"
           id="path69964" />
        <path
           d="M 136.5068,64.802 V 64.5843"
           id="path69966" />
        <path
           d="m 136.5068,64.5843 0.0726,-0.2903"
           id="path69968" />
        <path
           d="m 136.5794,64.294 0.0726,-0.1452"
           id="path69970" />
        <path
           d="m 136.652,64.1488 0.1451,-0.1451"
           id="path69972" />
        <path
           d="m 136.7971,64.0037 0.2177,-0.0726"
           id="path69974" />
        <path
           d="M 137.0148,63.9311 H 137.16"
           id="path69976" />
        <path
           d="m 137.16,63.9311 0.2177,0.0726"
           id="path69978" />
        <path
           d="m 137.3777,64.0037 0.0726,0.0726"
           id="path69980" />
        <path
           d="m 138.0308,64.0763 0.0726,-0.0726"
           id="path69982" />
        <path
           d="m 138.1034,64.0037 0.1452,-0.0726"
           id="path69984" />
        <path
           d="m 138.2486,63.9311 h 0.3628"
           id="path69986" />
        <path
           d="m 138.6114,63.9311 0.1452,0.0726"
           id="path69988" />
        <path
           d="m 138.7566,64.0037 0.0725,0.0726"
           id="path69990" />
        <path
           d="m 138.8291,64.0763 0.0726,0.1451"
           id="path69992" />
        <path
           d="m 138.9017,64.2214 v 0.1452"
           id="path69994" />
        <path
           d="m 138.9017,64.3666 -0.0726,0.2177"
           id="path69996" />
        <path
           d="m 138.8291,64.5843 -0.8708,0.8708"
           id="path69998" />
        <path
           d="m 137.9583,65.4551 h 0.9434"
           id="path70000" />
        <path
           d="m 139.4822,64.0763 0.0726,-0.0726"
           id="path70002" />
        <path
           d="M 139.5548,64.0037 139.7,63.9311"
           id="path70004" />
        <path
           d="m 139.7,63.9311 h 0.3628"
           id="path70006" />
        <path
           d="m 140.0628,63.9311 0.1452,0.0726"
           id="path70008" />
        <path
           d="m 140.208,64.0037 0.0725,0.0726"
           id="path70010" />
        <path
           d="m 140.2805,64.0763 0.0726,0.1451"
           id="path70012" />
        <path
           d="m 140.3531,64.2214 v 0.1452"
           id="path70014" />
        <path
           d="m 140.3531,64.3666 -0.0726,0.2177"
           id="path70016" />
        <path
           d="m 140.2805,64.5843 -0.8708,0.8708"
           id="path70018" />
        <path
           d="m 139.4097,65.4551 h 0.9434"
           id="path70020" />
        <path
           d="m 141.2965,63.9311 h 0.1451"
           id="path70022" />
        <path
           d="m 141.4416,63.9311 0.1452,0.0726"
           id="path70024" />
        <path
           d="m 141.5868,64.0037 0.0726,0.0726"
           id="path70026" />
        <path
           d="m 141.6594,64.0763 0.0725,0.1451"
           id="path70028" />
        <path
           d="m 141.7319,64.2214 0.0726,0.2903"
           id="path70030" />
        <path
           d="m 141.8045,64.5117 v 0.3629"
           id="path70032" />
        <path
           d="m 141.8045,64.8746 -0.0726,0.2902"
           id="path70034" />
        <path
           d="M 141.7319,65.1648 141.6594,65.31"
           id="path70036" />
        <path
           d="m 141.6594,65.31 -0.0726,0.0726"
           id="path70038" />
        <path
           d="m 141.5868,65.3826 -0.1452,0.0725"
           id="path70040" />
        <path
           d="m 141.4416,65.4551 h -0.1451"
           id="path70042" />
        <path
           d="m 141.2965,65.4551 -0.1451,-0.0725"
           id="path70044" />
        <path
           d="M 141.1514,65.3826 141.0788,65.31"
           id="path70046" />
        <path
           d="m 141.0788,65.31 -0.0726,-0.1452"
           id="path70048" />
        <path
           d="m 141.0062,65.1648 -0.0726,-0.2902"
           id="path70050" />
        <path
           d="M 140.9336,64.8746 V 64.5117"
           id="path70052" />
        <path
           d="m 140.9336,64.5117 0.0726,-0.2903"
           id="path70054" />
        <path
           d="m 141.0062,64.2214 0.0726,-0.1451"
           id="path70056" />
        <path
           d="m 141.0788,64.0763 0.0726,-0.0726"
           id="path70058" />
        <path
           d="m 141.1514,64.0037 0.1451,-0.0726"
           id="path70060" />
        <path
           d="m 142.5302,65.4551 h 0.2903"
           id="path70062" />
        <path
           d="m 142.8205,65.4551 0.1451,-0.0725"
           id="path70064" />
        <path
           d="M 142.9656,65.3826 143.0382,65.31"
           id="path70066" />
        <path
           d="m 143.0382,65.31 0.1451,-0.2177"
           id="path70068" />
        <path
           d="m 143.1833,65.0923 0.0726,-0.2903"
           id="path70070" />
        <path
           d="M 143.2559,64.802 V 64.2214"
           id="path70072" />
        <path
           d="m 143.2559,64.2214 -0.0726,-0.1451"
           id="path70074" />
        <path
           d="m 143.1833,64.0763 -0.0725,-0.0726"
           id="path70076" />
        <path
           d="m 143.1108,64.0037 -0.1452,-0.0726"
           id="path70078" />
        <path
           d="m 142.9656,63.9311 h -0.2903"
           id="path70080" />
        <path
           d="m 142.6753,63.9311 -0.1451,0.0726"
           id="path70082" />
        <path
           d="m 142.5302,64.0037 -0.0726,0.0726"
           id="path70084" />
        <path
           d="m 142.4576,64.0763 -0.0726,0.1451"
           id="path70086" />
        <path
           d="m 142.385,64.2214 v 0.3629"
           id="path70088" />
        <path
           d="m 142.385,64.5843 0.0726,0.1451"
           id="path70090" />
        <path
           d="m 142.4576,64.7294 0.0726,0.0726"
           id="path70092" />
        <path
           d="m 142.5302,64.802 0.1451,0.0726"
           id="path70094" />
        <path
           d="m 142.6753,64.8746 h 0.2903"
           id="path70096" />
        <path
           d="m 142.9656,64.8746 0.1452,-0.0726"
           id="path70098" />
        <path
           d="m 143.1108,64.802 0.0725,-0.0726"
           id="path70100" />
        <path
           d="m 143.1833,64.7294 0.0726,-0.1451"
           id="path70102" />
      </g>
    </g>
  </g>
  <g
     style="fill:#006464;fill-opacity:0;stroke:#006464;stroke-width:0.1524;stroke-linecap:round;stroke-linejoin:round;stroke-opacity:1"
     id="g70406"
     transform="translate(-77.279501,-51.8795)">
    <g
       id="g70110" />
    <g
       style="fill:#840000;fill-opacity:0;stroke:#840000;stroke-width:0.1524;stroke-linecap:round;stroke-linejoin:round;stroke-opacity:1"
       id="g70112" />
    <g
       style="fill:#840000;fill-opacity:0;stroke:#840000;stroke-width:0.381;stroke-linecap:round;stroke-linejoin:round;stroke-opacity:1"
       id="g70118">
      <rect
         x="151.13"
         y="52.07"
         width="20.32"
         height="25.4"
         rx="0.000000"
         id="rect70114" />
      <path
         d="m 161.29,77.47 v 2.54"
         id="path70116" />
    </g>
    <g
       style="fill:#006464;fill-opacity:0;stroke:#006464;stroke-width:0.381;stroke-linecap:round;stroke-linejoin:round;stroke-opacity:1"
       id="g70120" />
    <g
       style="fill:#006464;fill-opacity:0;stroke:#006464;stroke-width:0.1524;stroke-linecap:round;stroke-linejoin:round;stroke-opacity:1"
       id="g70232">
      <g
         transform="rotate(-90,161.29,76.454)"
         id="g70124">
        <text
           x="161.28999"
           y="77.088997"
           textLength="9.698"
           font-size="1.6933px"
           lengthAdjust="spacingAndGlyphs"
           text-anchor="start"
           opacity="0"
           id="text70122">PDN_UART</text>
      </g>
      <g
         class="stroked-text"
         id="g70230">
        <desc
           id="desc70126">PDN_UART</desc>
        <path
           d="m 161.8695,76.0514 h -1.27"
           id="path70128" />
        <path
           d="M 160.5995,76.0514 V 75.5676"
           id="path70130" />
        <path
           d="m 160.5995,75.5676 0.0605,-0.121"
           id="path70132" />
        <path
           d="m 160.66,75.4466 0.0605,-0.0605"
           id="path70134" />
        <path
           d="m 160.7205,75.3861 0.1209,-0.0604"
           id="path70136" />
        <path
           d="m 160.8414,75.3257 h 0.1815"
           id="path70138" />
        <path
           d="m 161.0229,75.3257 0.1209,0.0604"
           id="path70140" />
        <path
           d="m 161.1438,75.3861 0.0605,0.0605"
           id="path70142" />
        <path
           d="m 161.2043,75.4466 0.0605,0.121"
           id="path70144" />
        <path
           d="m 161.2648,75.5676 v 0.4838"
           id="path70146" />
        <path
           d="m 161.8695,74.7814 h -1.27"
           id="path70148" />
        <path
           d="M 160.5995,74.7814 V 74.479"
           id="path70150" />
        <path
           d="M 160.5995,74.479 160.66,74.2976"
           id="path70152" />
        <path
           d="m 160.66,74.2976 0.121,-0.121"
           id="path70154" />
        <path
           d="m 160.781,74.1766 0.1209,-0.0605"
           id="path70156" />
        <path
           d="m 160.9019,74.1161 0.2419,-0.0604"
           id="path70158" />
        <path
           d="m 161.1438,74.0557 h 0.1814"
           id="path70160" />
        <path
           d="m 161.3252,74.0557 0.2419,0.0604"
           id="path70162" />
        <path
           d="m 161.5671,74.1161 0.121,0.0605"
           id="path70164" />
        <path
           d="m 161.6881,74.1766 0.121,0.121"
           id="path70166" />
        <path
           d="m 161.8091,74.2976 0.0604,0.1814"
           id="path70168" />
        <path
           d="m 161.8695,74.479 v 0.3024"
           id="path70170" />
        <path
           d="m 161.8695,73.5114 h -1.27"
           id="path70172" />
        <path
           d="m 160.5995,73.5114 1.27,-0.7257"
           id="path70174" />
        <path
           d="m 161.8695,72.7857 h -1.27"
           id="path70176" />
        <path
           d="M 161.9905,72.4833 V 71.5156"
           id="path70178" />
        <path
           d="m 160.5995,71.2133 h 1.0281"
           id="path70180" />
        <path
           d="m 161.6276,71.2133 0.121,-0.0605"
           id="path70182" />
        <path
           d="m 161.7486,71.1528 0.0605,-0.0605"
           id="path70184" />
        <path
           d="m 161.8091,71.0923 0.0604,-0.1209"
           id="path70186" />
        <path
           d="M 161.8695,70.9714 V 70.7295"
           id="path70188" />
        <path
           d="m 161.8695,70.7295 -0.0604,-0.121"
           id="path70190" />
        <path
           d="M 161.8091,70.6085 161.7486,70.548"
           id="path70192" />
        <path
           d="m 161.7486,70.548 -0.121,-0.0604"
           id="path70194" />
        <path
           d="m 161.6276,70.4876 h -1.0281"
           id="path70196" />
        <path
           d="M 161.5067,69.9432 V 69.3385"
           id="path70198" />
        <path
           d="m 161.8695,70.0642 -1.27,-0.4233"
           id="path70200" />
        <path
           d="m 160.5995,69.6409 1.27,-0.4234"
           id="path70202" />
        <path
           d="m 161.8695,68.0685 -0.6047,0.4233"
           id="path70204" />
        <path
           d="m 161.8695,68.7942 h -1.27"
           id="path70206" />
        <path
           d="M 160.5995,68.7942 V 68.3104"
           id="path70208" />
        <path
           d="m 160.5995,68.3104 0.0605,-0.121"
           id="path70210" />
        <path
           d="m 160.66,68.1894 0.0605,-0.0605"
           id="path70212" />
        <path
           d="m 160.7205,68.1289 0.1209,-0.0604"
           id="path70214" />
        <path
           d="m 160.8414,68.0685 h 0.1815"
           id="path70216" />
        <path
           d="m 161.0229,68.0685 0.1209,0.0604"
           id="path70218" />
        <path
           d="m 161.1438,68.1289 0.0605,0.0605"
           id="path70220" />
        <path
           d="m 161.2043,68.1894 0.0605,0.121"
           id="path70222" />
        <path
           d="m 161.2648,68.3104 v 0.4838"
           id="path70224" />
        <path
           d="M 160.5995,67.7056 V 66.9799"
           id="path70226" />
        <path
           d="m 161.8695,67.3427 h -1.27"
           id="path70228" />
      </g>
    </g>
    <g
       style="fill:#006464;fill-opacity:0;stroke:#006464;stroke-width:0.381;stroke-linecap:round;stroke-linejoin:round;stroke-opacity:1"
       id="g70404">
      <text
         x="161.28999"
         y="65.531998"
         textLength="11.0706"
         font-size="2.032px"
         lengthAdjust="spacingAndGlyphs"
         text-anchor="middle"
         opacity="0"
         id="text70234">TMC2209</text>
      <g
         class="stroked-text"
         id="g70402">
        <desc
           id="desc70236">TMC2209</desc>
        <path
           d="m 156.3189,63.9311 h 0.8709"
           id="path70238" />
        <path
           d="m 156.7543,65.4551 v -1.524"
           id="path70240" />
        <path
           d="m 157.6977,65.4551 v -1.524"
           id="path70242" />
        <path
           d="m 157.6977,63.9311 0.508,1.0886"
           id="path70244" />
        <path
           d="m 158.2057,65.0197 0.508,-1.0886"
           id="path70246" />
        <path
           d="m 158.7137,63.9311 v 1.524"
           id="path70248" />
        <path
           d="m 160.3103,65.31 -0.0726,0.0726"
           id="path70250" />
        <path
           d="M 160.2377,65.3826 160.02,65.4551"
           id="path70252" />
        <path
           d="m 160.02,65.4551 h -0.1452"
           id="path70254" />
        <path
           d="m 159.8748,65.4551 -0.2177,-0.0725"
           id="path70256" />
        <path
           d="M 159.6571,65.3826 159.512,65.2374"
           id="path70258" />
        <path
           d="m 159.512,65.2374 -0.0726,-0.1451"
           id="path70260" />
        <path
           d="M 159.4394,65.0923 159.3668,64.802"
           id="path70262" />
        <path
           d="M 159.3668,64.802 V 64.5843"
           id="path70264" />
        <path
           d="m 159.3668,64.5843 0.0726,-0.2903"
           id="path70266" />
        <path
           d="m 159.4394,64.294 0.0726,-0.1452"
           id="path70268" />
        <path
           d="m 159.512,64.1488 0.1451,-0.1451"
           id="path70270" />
        <path
           d="m 159.6571,64.0037 0.2177,-0.0726"
           id="path70272" />
        <path
           d="M 159.8748,63.9311 H 160.02"
           id="path70274" />
        <path
           d="m 160.02,63.9311 0.2177,0.0726"
           id="path70276" />
        <path
           d="m 160.2377,64.0037 0.0726,0.0726"
           id="path70278" />
        <path
           d="m 160.8908,64.0763 0.0726,-0.0726"
           id="path70280" />
        <path
           d="m 160.9634,64.0037 0.1452,-0.0726"
           id="path70282" />
        <path
           d="m 161.1086,63.9311 h 0.3628"
           id="path70284" />
        <path
           d="m 161.4714,63.9311 0.1452,0.0726"
           id="path70286" />
        <path
           d="m 161.6166,64.0037 0.0725,0.0726"
           id="path70288" />
        <path
           d="m 161.6891,64.0763 0.0726,0.1451"
           id="path70290" />
        <path
           d="m 161.7617,64.2214 v 0.1452"
           id="path70292" />
        <path
           d="m 161.7617,64.3666 -0.0726,0.2177"
           id="path70294" />
        <path
           d="m 161.6891,64.5843 -0.8708,0.8708"
           id="path70296" />
        <path
           d="m 160.8183,65.4551 h 0.9434"
           id="path70298" />
        <path
           d="m 162.3422,64.0763 0.0726,-0.0726"
           id="path70300" />
        <path
           d="M 162.4148,64.0037 162.56,63.9311"
           id="path70302" />
        <path
           d="m 162.56,63.9311 h 0.3628"
           id="path70304" />
        <path
           d="m 162.9228,63.9311 0.1452,0.0726"
           id="path70306" />
        <path
           d="m 163.068,64.0037 0.0725,0.0726"
           id="path70308" />
        <path
           d="m 163.1405,64.0763 0.0726,0.1451"
           id="path70310" />
        <path
           d="m 163.2131,64.2214 v 0.1452"
           id="path70312" />
        <path
           d="m 163.2131,64.3666 -0.0726,0.2177"
           id="path70314" />
        <path
           d="m 163.1405,64.5843 -0.8708,0.8708"
           id="path70316" />
        <path
           d="m 162.2697,65.4551 h 0.9434"
           id="path70318" />
        <path
           d="m 164.1565,63.9311 h 0.1451"
           id="path70320" />
        <path
           d="m 164.3016,63.9311 0.1452,0.0726"
           id="path70322" />
        <path
           d="m 164.4468,64.0037 0.0726,0.0726"
           id="path70324" />
        <path
           d="m 164.5194,64.0763 0.0725,0.1451"
           id="path70326" />
        <path
           d="m 164.5919,64.2214 0.0726,0.2903"
           id="path70328" />
        <path
           d="m 164.6645,64.5117 v 0.3629"
           id="path70330" />
        <path
           d="m 164.6645,64.8746 -0.0726,0.2902"
           id="path70332" />
        <path
           d="M 164.5919,65.1648 164.5194,65.31"
           id="path70334" />
        <path
           d="m 164.5194,65.31 -0.0726,0.0726"
           id="path70336" />
        <path
           d="m 164.4468,65.3826 -0.1452,0.0725"
           id="path70338" />
        <path
           d="m 164.3016,65.4551 h -0.1451"
           id="path70340" />
        <path
           d="m 164.1565,65.4551 -0.1451,-0.0725"
           id="path70342" />
        <path
           d="M 164.0114,65.3826 163.9388,65.31"
           id="path70344" />
        <path
           d="m 163.9388,65.31 -0.0726,-0.1452"
           id="path70346" />
        <path
           d="m 163.8662,65.1648 -0.0726,-0.2902"
           id="path70348" />
        <path
           d="M 163.7936,64.8746 V 64.5117"
           id="path70350" />
        <path
           d="m 163.7936,64.5117 0.0726,-0.2903"
           id="path70352" />
        <path
           d="m 163.8662,64.2214 0.0726,-0.1451"
           id="path70354" />
        <path
           d="m 163.9388,64.0763 0.0726,-0.0726"
           id="path70356" />
        <path
           d="m 164.0114,64.0037 0.1451,-0.0726"
           id="path70358" />
        <path
           d="m 165.3902,65.4551 h 0.2903"
           id="path70360" />
        <path
           d="m 165.6805,65.4551 0.1451,-0.0725"
           id="path70362" />
        <path
           d="M 165.8256,65.3826 165.8982,65.31"
           id="path70364" />
        <path
           d="m 165.8982,65.31 0.1451,-0.2177"
           id="path70366" />
        <path
           d="m 166.0433,65.0923 0.0726,-0.2903"
           id="path70368" />
        <path
           d="M 166.1159,64.802 V 64.2214"
           id="path70370" />
        <path
           d="m 166.1159,64.2214 -0.0726,-0.1451"
           id="path70372" />
        <path
           d="m 166.0433,64.0763 -0.0725,-0.0726"
           id="path70374" />
        <path
           d="m 165.9708,64.0037 -0.1452,-0.0726"
           id="path70376" />
        <path
           d="m 165.8256,63.9311 h -0.2903"
           id="path70378" />
        <path
           d="m 165.5353,63.9311 -0.1451,0.0726"
           id="path70380" />
        <path
           d="m 165.3902,64.0037 -0.0726,0.0726"
           id="path70382" />
        <path
           d="m 165.3176,64.0763 -0.0726,0.1451"
           id="path70384" />
        <path
           d="m 165.245,64.2214 v 0.3629"
           id="path70386" />
        <path
           d="m 165.245,64.5843 0.0726,0.1451"
           id="path70388" />
        <path
           d="m 165.3176,64.7294 0.0726,0.0726"
           id="path70390" />
        <path
           d="m 165.3902,64.802 0.1451,0.0726"
           id="path70392" />
        <path
           d="m 165.5353,64.8746 h 0.2903"
           id="path70394" />
        <path
           d="m 165.8256,64.8746 0.1452,-0.0726"
           id="path70396" />
        <path
           d="m 165.9708,64.802 0.0725,-0.0726"
           id="path70398" />
        <path
           d="m 166.0433,64.7294 0.0726,-0.1451"
           id="path70400" />
      </g>
    </g>
  </g>
  <g
     style="fill:#006464;fill-opacity:0;stroke:#006464;stroke-width:0.1524;stroke-linecap:round;stroke-linejoin:round;stroke-opacity:1"
     id="g70754"
     transform="translate(-77.279501,-51.8795)">
    <g
       id="g70408" />
    <g
       style="fill:#840000;fill-opacity:0;stroke:#840000;stroke-width:0.1524;stroke-linecap:round;stroke-linejoin:round;stroke-opacity:1"
       id="g70410" />
    <g
       style="fill:#840000;fill-opacity:0;stroke:#840000;stroke-width:0.381;stroke-linecap:round;stroke-linejoin:round;stroke-opacity:1"
       id="g70416">
      <rect
         x="77.470001"
         y="83.82"
         width="20.32"
         height="25.4"
         rx="0.000000"
         id="rect70412" />
      <path
         d="m 97.79,106.68 h 2.54"
         id="path70414" />
    </g>
    <g
       style="fill:#006464;fill-opacity:0;stroke:#006464;stroke-width:0.381;stroke-linecap:round;stroke-linejoin:round;stroke-opacity:1"
       id="g70418" />
    <g
       style="fill:#006464;fill-opacity:0;stroke:#006464;stroke-width:0.1524;stroke-linecap:round;stroke-linejoin:round;stroke-opacity:1"
       id="g70452">
      <text
         x="96.774002"
         y="107.315"
         textLength="2.6826999"
         font-size="1.6933px"
         lengthAdjust="spacingAndGlyphs"
         text-anchor="end"
         opacity="0"
         id="text70420">RX</text>
      <g
         class="stroked-text"
         id="g70450">
        <desc
           id="desc70422">RX</desc>
        <path
           d="M 95.2223,107.2595 94.799,106.6548"
           id="path70424" />
        <path
           d="m 94.4966,107.2595 v -1.27"
           id="path70426" />
        <path
           d="m 94.4966,105.9895 h 0.4838"
           id="path70428" />
        <path
           d="m 94.9804,105.9895 0.121,0.0605"
           id="path70430" />
        <path
           d="m 95.1014,106.05 0.0605,0.0605"
           id="path70432" />
        <path
           d="m 95.1619,106.1105 0.0604,0.1209"
           id="path70434" />
        <path
           d="m 95.2223,106.2314 v 0.1815"
           id="path70436" />
        <path
           d="m 95.2223,106.4129 -0.0604,0.1209"
           id="path70438" />
        <path
           d="m 95.1619,106.5338 -0.0605,0.0605"
           id="path70440" />
        <path
           d="m 95.1014,106.5943 -0.121,0.0605"
           id="path70442" />
        <path
           d="M 94.9804,106.6548 H 94.4966"
           id="path70444" />
        <path
           d="m 95.6457,105.9895 0.8466,1.27"
           id="path70446" />
        <path
           d="m 96.4923,105.9895 -0.8466,1.27"
           id="path70448" />
      </g>
    </g>
    <g
       style="fill:#840000;fill-opacity:0;stroke:#840000;stroke-width:0.1524;stroke-linecap:round;stroke-linejoin:round;stroke-opacity:1"
       id="g70454" />
    <g
       style="fill:#840000;fill-opacity:0;stroke:#840000;stroke-width:0.381;stroke-linecap:round;stroke-linejoin:round;stroke-opacity:1"
       id="g70458">
      <path
         d="m 97.79,87.63 h 2.54"
         id="path70456" />
    </g>
    <g
       style="fill:#006464;fill-opacity:0;stroke:#006464;stroke-width:0.381;stroke-linecap:round;stroke-linejoin:round;stroke-opacity:1"
       id="g70460" />
    <g
       style="fill:#006464;fill-opacity:0;stroke:#006464;stroke-width:0.1524;stroke-linecap:round;stroke-linejoin:round;stroke-opacity:1"
       id="g70476">
      <text
         x="96.774002"
         y="88.264999"
         textLength="2.3803"
         font-size="1.6933px"
         lengthAdjust="spacingAndGlyphs"
         text-anchor="end"
         opacity="0"
         id="text70462">TX</text>
      <g
         class="stroked-text"
         id="g70474">
        <desc
           id="desc70464">TX</desc>
        <path
           d="m 94.6176,86.9395 h 0.7257"
           id="path70466" />
        <path
           d="m 94.9805,88.2095 v -1.27"
           id="path70468" />
        <path
           d="m 95.6457,86.9395 0.8466,1.27"
           id="path70470" />
        <path
           d="m 96.4923,86.9395 -0.8466,1.27"
           id="path70472" />
      </g>
    </g>
    <g
       style="fill:#006464;fill-opacity:0;stroke:#006464;stroke-width:0.381;stroke-linecap:round;stroke-linejoin:round;stroke-opacity:1"
       id="g70752">
      <text
         x="87.629997"
         y="97.281998"
         textLength="18.3281"
         font-size="2.032px"
         lengthAdjust="spacingAndGlyphs"
         text-anchor="middle"
         opacity="0"
         id="text70478">microcontroller</text>
      <g
         class="stroked-text"
         id="g70750">
        <desc
           id="desc70480">microcontroller</desc>
        <path
           d="m 79.2479,97.2051 v -1.016"
           id="path70482" />
        <path
           d="m 79.2479,96.3343 0.0726,-0.0726"
           id="path70484" />
        <path
           d="m 79.3205,96.2617 0.1451,-0.0726"
           id="path70486" />
        <path
           d="m 79.4656,96.1891 h 0.2177"
           id="path70488" />
        <path
           d="m 79.6833,96.1891 0.1452,0.0726"
           id="path70490" />
        <path
           d="m 79.8285,96.2617 0.0726,0.1451"
           id="path70492" />
        <path
           d="m 79.9011,96.4068 v 0.7983"
           id="path70494" />
        <path
           d="m 79.9011,96.4068 0.0725,-0.1451"
           id="path70496" />
        <path
           d="m 79.9736,96.2617 0.1452,-0.0726"
           id="path70498" />
        <path
           d="m 80.1188,96.1891 h 0.2177"
           id="path70500" />
        <path
           d="m 80.3365,96.1891 0.1451,0.0726"
           id="path70502" />
        <path
           d="m 80.4816,96.2617 0.0726,0.1451"
           id="path70504" />
        <path
           d="m 80.5542,96.4068 v 0.7983"
           id="path70506" />
        <path
           d="m 81.2799,97.2051 v -1.016"
           id="path70508" />
        <path
           d="m 81.2799,95.6811 -0.0726,0.0726"
           id="path70510" />
        <path
           d="m 81.2073,95.7537 0.0726,0.0726"
           id="path70512" />
        <path
           d="m 81.2799,95.8263 0.0726,-0.0726"
           id="path70514" />
        <path
           d="M 81.3525,95.7537 81.2799,95.6811"
           id="path70516" />
        <path
           d="m 81.2799,95.6811 v 0.1452"
           id="path70518" />
        <path
           d="m 82.6588,97.1326 -0.1452,0.0725"
           id="path70520" />
        <path
           d="M 82.5136,97.2051 H 82.2233"
           id="path70522" />
        <path
           d="M 82.2233,97.2051 82.0782,97.1326"
           id="path70524" />
        <path
           d="M 82.0782,97.1326 82.0056,97.06"
           id="path70526" />
        <path
           d="M 82.0056,97.06 81.933,96.9148"
           id="path70528" />
        <path
           d="M 81.933,96.9148 V 96.4794"
           id="path70530" />
        <path
           d="m 81.933,96.4794 0.0726,-0.1451"
           id="path70532" />
        <path
           d="m 82.0056,96.3343 0.0726,-0.0726"
           id="path70534" />
        <path
           d="m 82.0782,96.2617 0.1451,-0.0726"
           id="path70536" />
        <path
           d="m 82.2233,96.1891 h 0.2903"
           id="path70538" />
        <path
           d="m 82.5136,96.1891 0.1452,0.0726"
           id="path70540" />
        <path
           d="m 83.3119,97.2051 v -1.016"
           id="path70542" />
        <path
           d="m 83.3119,96.4794 0.0726,-0.1451"
           id="path70544" />
        <path
           d="m 83.3845,96.3343 0.0726,-0.0726"
           id="path70546" />
        <path
           d="m 83.4571,96.2617 0.1451,-0.0726"
           id="path70548" />
        <path
           d="m 83.6022,96.1891 h 0.1451"
           id="path70550" />
        <path
           d="M 84.473,97.2051 84.3279,97.1326"
           id="path70552" />
        <path
           d="M 84.3279,97.1326 84.2553,97.06"
           id="path70554" />
        <path
           d="M 84.2553,97.06 84.1827,96.9148"
           id="path70556" />
        <path
           d="M 84.1827,96.9148 V 96.4794"
           id="path70558" />
        <path
           d="m 84.1827,96.4794 0.0726,-0.1451"
           id="path70560" />
        <path
           d="m 84.2553,96.3343 0.0726,-0.0726"
           id="path70562" />
        <path
           d="M 84.3279,96.2617 84.473,96.1891"
           id="path70564" />
        <path
           d="m 84.473,96.1891 h 0.2177"
           id="path70566" />
        <path
           d="m 84.6907,96.1891 0.1452,0.0726"
           id="path70568" />
        <path
           d="m 84.8359,96.2617 0.0726,0.0726"
           id="path70570" />
        <path
           d="m 84.9085,96.3343 0.0725,0.1451"
           id="path70572" />
        <path
           d="m 84.981,96.4794 v 0.4354"
           id="path70574" />
        <path
           d="M 84.981,96.9148 84.9085,97.06"
           id="path70576" />
        <path
           d="m 84.9085,97.06 -0.0726,0.0726"
           id="path70578" />
        <path
           d="m 84.8359,97.1326 -0.1452,0.0725"
           id="path70580" />
        <path
           d="M 84.6907,97.2051 H 84.473"
           id="path70582" />
        <path
           d="m 86.2874,97.1326 -0.1452,0.0725"
           id="path70584" />
        <path
           d="M 86.1422,97.2051 H 85.8519"
           id="path70586" />
        <path
           d="M 85.8519,97.2051 85.7068,97.1326"
           id="path70588" />
        <path
           d="M 85.7068,97.1326 85.6342,97.06"
           id="path70590" />
        <path
           d="M 85.6342,97.06 85.5616,96.9148"
           id="path70592" />
        <path
           d="M 85.5616,96.9148 V 96.4794"
           id="path70594" />
        <path
           d="m 85.5616,96.4794 0.0726,-0.1451"
           id="path70596" />
        <path
           d="m 85.6342,96.3343 0.0726,-0.0726"
           id="path70598" />
        <path
           d="m 85.7068,96.2617 0.1451,-0.0726"
           id="path70600" />
        <path
           d="m 85.8519,96.1891 h 0.2903"
           id="path70602" />
        <path
           d="m 86.1422,96.1891 0.1452,0.0726"
           id="path70604" />
        <path
           d="M 87.1582,97.2051 87.0131,97.1326"
           id="path70606" />
        <path
           d="M 87.0131,97.1326 86.9405,97.06"
           id="path70608" />
        <path
           d="M 86.9405,97.06 86.8679,96.9148"
           id="path70610" />
        <path
           d="M 86.8679,96.9148 V 96.4794"
           id="path70612" />
        <path
           d="m 86.8679,96.4794 0.0726,-0.1451"
           id="path70614" />
        <path
           d="m 86.9405,96.3343 0.0726,-0.0726"
           id="path70616" />
        <path
           d="m 87.0131,96.2617 0.1451,-0.0726"
           id="path70618" />
        <path
           d="m 87.1582,96.1891 h 0.2177"
           id="path70620" />
        <path
           d="m 87.3759,96.1891 0.1452,0.0726"
           id="path70622" />
        <path
           d="m 87.5211,96.2617 0.0726,0.0726"
           id="path70624" />
        <path
           d="m 87.5937,96.3343 0.0725,0.1451"
           id="path70626" />
        <path
           d="m 87.6662,96.4794 v 0.4354"
           id="path70628" />
        <path
           d="M 87.6662,96.9148 87.5937,97.06"
           id="path70630" />
        <path
           d="m 87.5937,97.06 -0.0726,0.0726"
           id="path70632" />
        <path
           d="m 87.5211,97.1326 -0.1452,0.0725"
           id="path70634" />
        <path
           d="M 87.3759,97.2051 H 87.1582"
           id="path70636" />
        <path
           d="m 88.3194,96.1891 v 1.016"
           id="path70638" />
        <path
           d="M 88.3194,96.3343 88.392,96.2617"
           id="path70640" />
        <path
           d="m 88.392,96.2617 0.1451,-0.0726"
           id="path70642" />
        <path
           d="m 88.5371,96.1891 h 0.2177"
           id="path70644" />
        <path
           d="M 88.7548,96.1891 88.9,96.2617"
           id="path70646" />
        <path
           d="m 88.9,96.2617 0.0726,0.1451"
           id="path70648" />
        <path
           d="m 88.9726,96.4068 v 0.7983"
           id="path70650" />
        <path
           d="m 89.4806,96.1891 h 0.5806"
           id="path70652" />
        <path
           d="m 89.6983,95.6811 v 1.3063"
           id="path70654" />
        <path
           d="m 89.6983,96.9874 0.0726,0.1452"
           id="path70656" />
        <path
           d="m 89.7709,97.1326 0.1451,0.0725"
           id="path70658" />
        <path
           d="m 89.916,97.2051 h 0.1452"
           id="path70660" />
        <path
           d="m 90.5692,97.2051 v -1.016"
           id="path70662" />
        <path
           d="m 90.5692,96.4794 0.0726,-0.1451"
           id="path70664" />
        <path
           d="m 90.6418,96.3343 0.0726,-0.0726"
           id="path70666" />
        <path
           d="m 90.7144,96.2617 0.1451,-0.0726"
           id="path70668" />
        <path
           d="m 90.8595,96.1891 h 0.1451"
           id="path70670" />
        <path
           d="M 91.7303,97.2051 91.5852,97.1326"
           id="path70672" />
        <path
           d="M 91.5852,97.1326 91.5126,97.06"
           id="path70674" />
        <path
           d="M 91.5126,97.06 91.44,96.9148"
           id="path70676" />
        <path
           d="M 91.44,96.9148 V 96.4794"
           id="path70678" />
        <path
           d="m 91.44,96.4794 0.0726,-0.1451"
           id="path70680" />
        <path
           d="m 91.5126,96.3343 0.0726,-0.0726"
           id="path70682" />
        <path
           d="m 91.5852,96.2617 0.1451,-0.0726"
           id="path70684" />
        <path
           d="M 91.7303,96.1891 H 91.948"
           id="path70686" />
        <path
           d="m 91.948,96.1891 0.1452,0.0726"
           id="path70688" />
        <path
           d="m 92.0932,96.2617 0.0726,0.0726"
           id="path70690" />
        <path
           d="m 92.1658,96.3343 0.0725,0.1451"
           id="path70692" />
        <path
           d="m 92.2383,96.4794 v 0.4354"
           id="path70694" />
        <path
           d="M 92.2383,96.9148 92.1658,97.06"
           id="path70696" />
        <path
           d="m 92.1658,97.06 -0.0726,0.0726"
           id="path70698" />
        <path
           d="M 92.0932,97.1326 91.948,97.2051"
           id="path70700" />
        <path
           d="M 91.948,97.2051 H 91.7303"
           id="path70702" />
        <path
           d="M 93.1092,97.2051 92.9641,97.1326"
           id="path70704" />
        <path
           d="M 92.9641,97.1326 92.8915,96.9874"
           id="path70706" />
        <path
           d="M 92.8915,96.9874 V 95.6811"
           id="path70708" />
        <path
           d="M 93.9075,97.2051 93.7624,97.1326"
           id="path70710" />
        <path
           d="M 93.7624,97.1326 93.6898,96.9874"
           id="path70712" />
        <path
           d="M 93.6898,96.9874 V 95.6811"
           id="path70714" />
        <path
           d="m 95.0687,97.1326 -0.1452,0.0725"
           id="path70716" />
        <path
           d="M 94.9235,97.2051 H 94.6333"
           id="path70718" />
        <path
           d="M 94.6333,97.2051 94.4881,97.1326"
           id="path70720" />
        <path
           d="M 94.4881,97.1326 94.4155,96.9874"
           id="path70722" />
        <path
           d="M 94.4155,96.9874 V 96.4068"
           id="path70724" />
        <path
           d="m 94.4155,96.4068 0.0726,-0.1451"
           id="path70726" />
        <path
           d="m 94.4881,96.2617 0.1452,-0.0726"
           id="path70728" />
        <path
           d="m 94.6333,96.1891 h 0.2902"
           id="path70730" />
        <path
           d="m 94.9235,96.1891 0.1452,0.0726"
           id="path70732" />
        <path
           d="m 95.0687,96.2617 0.0726,0.1451"
           id="path70734" />
        <path
           d="M 95.1413,96.4068 V 96.552"
           id="path70736" />
        <path
           d="m 95.1413,96.552 -0.7258,0.1451"
           id="path70738" />
        <path
           d="m 95.7944,97.2051 v -1.016"
           id="path70740" />
        <path
           d="M 95.7944,96.4794 95.867,96.3343"
           id="path70742" />
        <path
           d="m 95.867,96.3343 0.0726,-0.0726"
           id="path70744" />
        <path
           d="m 95.9396,96.2617 0.1451,-0.0726"
           id="path70746" />
        <path
           d="m 96.0847,96.1891 h 0.1451"
           id="path70748" />
      </g>
    </g>
  </g>
  <g
     style="fill:#006464;fill-opacity:0;stroke:#006464;stroke-width:0.1524;stroke-linecap:round;stroke-linejoin:round;stroke-opacity:1"
     id="g70756"
     transform="translate(-77.279501,-51.8795)" />
  <g
     style="fill:#009600;fill-opacity:0;stroke:#009600;stroke-width:0.1524;stroke-linecap:round;stroke-linejoin:round;stroke-opacity:1"
     id="g70758"
     transform="translate(-77.279501,-51.8795)" />
  <g
     style="fill:#009600;fill-opacity:0;stroke:#009600;stroke-width:0.381;stroke-linecap:round;stroke-linejoin:round;stroke-opacity:1"
     id="g70762"
     transform="translate(-77.279501,-51.8795)">
    <path
       d="m 138.43,87.63 h 22.86"
       id="path70760" />
  </g>
  <g
     style="fill:#009600;fill-opacity:0;stroke:#009600;stroke-width:0.1524;stroke-linecap:round;stroke-linejoin:round;stroke-opacity:1"
     id="g70764"
     transform="translate(-77.279501,-51.8795)" />
  <g
     style="fill:#009600;fill-opacity:0;stroke:#009600;stroke-width:0.381;stroke-linecap:round;stroke-linejoin:round;stroke-opacity:1"
     id="g70768"
     transform="translate(-77.279501,-51.8795)">
    <path
       d="m 138.43,80.01 v 7.62"
       id="path70766" />
  </g>
  <g
     style="fill:#009600;fill-opacity:0;stroke:#009600;stroke-width:0.1524;stroke-linecap:round;stroke-linejoin:round;stroke-opacity:1"
     id="g70770"
     transform="translate(-77.279501,-51.8795)" />
  <g
     style="fill:#009600;fill-opacity:0;stroke:#009600;stroke-width:0.381;stroke-linecap:round;stroke-linejoin:round;stroke-opacity:1"
     id="g70774"
     transform="translate(-77.279501,-51.8795)">
    <path
       d="m 161.29,80.01 v 7.62"
       id="path70772" />
  </g>
  <g
     style="fill:#009600;fill-opacity:0;stroke:#009600;stroke-width:0.1524;stroke-linecap:round;stroke-linejoin:round;stroke-opacity:1"
     id="g70776"
     transform="translate(-77.279501,-51.8795)" />
  <g
     style="fill:#009600;fill-opacity:0;stroke:#009600;stroke-width:0.381;stroke-linecap:round;stroke-linejoin:round;stroke-opacity:1"
     id="g70780"
     transform="translate(-77.279501,-51.8795)">
    <path
       d="m 100.33,87.63 h 38.1"
       id="path70778" />
  </g>
  <g
     style="fill:#009600;fill-opacity:0;stroke:#009600;stroke-width:0.1524;stroke-linecap:round;stroke-linejoin:round;stroke-opacity:1"
     id="g70782"
     transform="translate(-77.279501,-51.8795)" />
  <g
     style="fill:#000084;fill-opacity:0;stroke:#000084;stroke-width:0.1524;stroke-linecap:round;stroke-linejoin:round;stroke-opacity:1"
     id="g70788"
     transform="translate(-77.279501,-51.8795)">
    <path
       d="m 99.7204,106.0704 1.2192,1.2192"
       id="path70784" />
    <path
       d="m 100.9396,106.0704 -1.2192,1.2192"
       id="path70786" />
  </g>
  <g
     style="fill:#009600;fill-opacity:0;stroke:#009600;stroke-width:0.1524;stroke-linecap:round;stroke-linejoin:round;stroke-opacity:1"
     id="g70790"
     transform="translate(-77.279501,-51.8795)" />
  <g
     style="fill:#009600;fill-opacity:1;stroke:#009600;stroke-width:0.1524;stroke-linecap:round;stroke-linejoin:round;stroke-opacity:1"
     id="g70794"
     transform="translate(-77.279501,-51.8795)">
    <circle
       cx="138.42999"
       cy="87.629997"
       r="0.45719999"
       id="circle70792" />
  </g>
</svg>
