<?xml version="1.0" encoding="UTF-8" standalone="no"?>
<svg
   xmlns:dc="http://purl.org/dc/elements/1.1/"
   xmlns:cc="http://creativecommons.org/ns#"
   xmlns:rdf="http://www.w3.org/1999/02/22-rdf-syntax-ns#"
   xmlns:svg="http://www.w3.org/2000/svg"
   xmlns="http://www.w3.org/2000/svg"
   version="1.1"
   width="71.501007mm"
   height="25.781mm"
   viewBox="0 0 71.501008 25.781"
   id="svg74212">
  <metadata
     id="metadata74218">
    <rdf:RDF>
      <cc:Work
         rdf:about="">
        <dc:format>image/svg+xml</dc:format>
        <dc:type
           rdf:resource="http://purl.org/dc/dcmitype/StillImage" />
      </cc:Work>
    </rdf:RDF>
  </metadata>
  <defs
     id="defs74216" />
  <title
     id="title73612">SVG Image created as trinamic_wiring-TMC2209-unidirectional.svg date 2023/08/02 14:11:37 </title>
  <desc
     id="desc73614">Image generated by Eeschema-SVG </desc>
  <g
     style="fill:#000000;fill-opacity:1;stroke:#000000;stroke-linecap:round;stroke-linejoin:round;stroke-opacity:1"
     id="g73616"
     transform="translate(-96.329497,-82.359503)" />
  <g
     style="fill:#000000;fill-opacity:0;stroke:#000000;stroke-width:0.1524;stroke-linecap:round;stroke-linejoin:round;stroke-opacity:1"
     id="g73952"
     transform="translate(-96.329497,-82.359503)">
    <g
       id="g73618" />
    <g
       style="fill:#586e75;fill-opacity:0;stroke:#586e75;stroke-width:0.1524;stroke-linecap:round;stroke-linejoin:round;stroke-opacity:1"
       id="g73620" />
    <g
       style="fill:#586e75;fill-opacity:0;stroke:#586e75;stroke-width:0.381;stroke-linecap:round;stroke-linejoin:round;stroke-opacity:1"
       id="g73890">
      <rect
         x="96.519997"
         y="82.550003"
         width="20.32"
         height="25.4"
         rx="0.000000"
         id="rect73622" />
      <text
         x="106.68"
         y="95.885002"
         textLength="18.790001"
         font-size="1.6933px"
         lengthAdjust="spacingAndGlyphs"
         text-anchor="middle"
         opacity="0"
         id="text73624">MICROCONTROLLER</text>
      <g
         class="stroked-text"
         id="g73886">
        <desc
           id="desc73626">MICROCONTROLLER</desc>
        <path
           d="m 98.0318,95.8176 v -1.27"
           id="path73628" />
        <path
           d="m 98.0318,94.5476 0.4234,0.9072"
           id="path73630" />
        <path
           d="m 98.4552,95.4548 0.4233,-0.9072"
           id="path73632" />
        <path
           d="m 98.8785,94.5476 v 1.27"
           id="path73634" />
        <path
           d="m 99.4832,95.8176 v -1.27"
           id="path73636" />
        <path
           d="m 100.8137,95.6967 -0.0604,0.0605"
           id="path73638" />
        <path
           d="m 100.7533,95.7572 -0.1815,0.0604"
           id="path73640" />
        <path
           d="m 100.5718,95.8176 h -0.1209"
           id="path73642" />
        <path
           d="m 100.4509,95.8176 -0.1814,-0.0604"
           id="path73644" />
        <path
           d="m 100.2695,95.7572 -0.121,-0.121"
           id="path73646" />
        <path
           d="m 100.1485,95.6362 -0.0605,-0.121"
           id="path73648" />
        <path
           d="m 100.088,95.5152 -0.0604,-0.2419"
           id="path73650" />
        <path
           d="M 100.0276,95.2733 V 95.0919"
           id="path73652" />
        <path
           d="M 100.0276,95.0919 100.088,94.85"
           id="path73654" />
        <path
           d="m 100.088,94.85 0.0605,-0.1209"
           id="path73656" />
        <path
           d="m 100.1485,94.7291 0.121,-0.121"
           id="path73658" />
        <path
           d="m 100.2695,94.6081 0.1814,-0.0605"
           id="path73660" />
        <path
           d="m 100.4509,94.5476 h 0.1209"
           id="path73662" />
        <path
           d="m 100.5718,94.5476 0.1815,0.0605"
           id="path73664" />
        <path
           d="m 100.7533,94.6081 0.0604,0.0605"
           id="path73666" />
        <path
           d="m 102.0837,95.8176 -0.4233,-0.6047"
           id="path73668" />
        <path
           d="m 101.358,95.8176 v -1.27"
           id="path73670" />
        <path
           d="m 101.358,94.5476 h 0.4838"
           id="path73672" />
        <path
           d="m 101.8418,94.5476 0.121,0.0605"
           id="path73674" />
        <path
           d="m 101.9628,94.6081 0.0605,0.0605"
           id="path73676" />
        <path
           d="m 102.0233,94.6686 0.0604,0.1209"
           id="path73678" />
        <path
           d="M 102.0837,94.7895 V 94.971"
           id="path73680" />
        <path
           d="m 102.0837,94.971 -0.0604,0.1209"
           id="path73682" />
        <path
           d="m 102.0233,95.0919 -0.0605,0.0605"
           id="path73684" />
        <path
           d="m 101.9628,95.1524 -0.121,0.0605"
           id="path73686" />
        <path
           d="M 101.8418,95.2129 H 101.358"
           id="path73688" />
        <path
           d="m 102.8699,94.5476 h 0.2419"
           id="path73690" />
        <path
           d="m 103.1118,94.5476 0.121,0.0605"
           id="path73692" />
        <path
           d="m 103.2328,94.6081 0.1209,0.121"
           id="path73694" />
        <path
           d="m 103.3537,94.7291 0.0605,0.2419"
           id="path73696" />
        <path
           d="m 103.4142,94.971 v 0.4233"
           id="path73698" />
        <path
           d="m 103.4142,95.3943 -0.0605,0.2419"
           id="path73700" />
        <path
           d="m 103.3537,95.6362 -0.1209,0.121"
           id="path73702" />
        <path
           d="m 103.2328,95.7572 -0.121,0.0604"
           id="path73704" />
        <path
           d="m 103.1118,95.8176 h -0.2419"
           id="path73706" />
        <path
           d="M 102.8699,95.8176 102.749,95.7572"
           id="path73708" />
        <path
           d="m 102.749,95.7572 -0.121,-0.121"
           id="path73710" />
        <path
           d="m 102.628,95.6362 -0.0604,-0.2419"
           id="path73712" />
        <path
           d="M 102.5676,95.3943 V 94.971"
           id="path73714" />
        <path
           d="m 102.5676,94.971 0.0604,-0.2419"
           id="path73716" />
        <path
           d="m 102.628,94.7291 0.121,-0.121"
           id="path73718" />
        <path
           d="m 102.749,94.6081 0.1209,-0.0605"
           id="path73720" />
        <path
           d="m 104.6842,95.6967 -0.0604,0.0605"
           id="path73722" />
        <path
           d="m 104.6238,95.7572 -0.1815,0.0604"
           id="path73724" />
        <path
           d="m 104.4423,95.8176 h -0.1209"
           id="path73726" />
        <path
           d="M 104.3214,95.8176 104.14,95.7572"
           id="path73728" />
        <path
           d="m 104.14,95.7572 -0.121,-0.121"
           id="path73730" />
        <path
           d="m 104.019,95.6362 -0.0605,-0.121"
           id="path73732" />
        <path
           d="m 103.9585,95.5152 -0.0604,-0.2419"
           id="path73734" />
        <path
           d="M 103.8981,95.2733 V 95.0919"
           id="path73736" />
        <path
           d="M 103.8981,95.0919 103.9585,94.85"
           id="path73738" />
        <path
           d="m 103.9585,94.85 0.0605,-0.1209"
           id="path73740" />
        <path
           d="m 104.019,94.7291 0.121,-0.121"
           id="path73742" />
        <path
           d="m 104.14,94.6081 0.1814,-0.0605"
           id="path73744" />
        <path
           d="m 104.3214,94.5476 h 0.1209"
           id="path73746" />
        <path
           d="m 104.4423,94.5476 0.1815,0.0605"
           id="path73748" />
        <path
           d="m 104.6238,94.6081 0.0604,0.0605"
           id="path73750" />
        <path
           d="m 105.4704,94.5476 h 0.2419"
           id="path73752" />
        <path
           d="m 105.7123,94.5476 0.121,0.0605"
           id="path73754" />
        <path
           d="m 105.8333,94.6081 0.1209,0.121"
           id="path73756" />
        <path
           d="m 105.9542,94.7291 0.0605,0.2419"
           id="path73758" />
        <path
           d="m 106.0147,94.971 v 0.4233"
           id="path73760" />
        <path
           d="m 106.0147,95.3943 -0.0605,0.2419"
           id="path73762" />
        <path
           d="m 105.9542,95.6362 -0.1209,0.121"
           id="path73764" />
        <path
           d="m 105.8333,95.7572 -0.121,0.0604"
           id="path73766" />
        <path
           d="m 105.7123,95.8176 h -0.2419"
           id="path73768" />
        <path
           d="m 105.4704,95.8176 -0.1209,-0.0604"
           id="path73770" />
        <path
           d="m 105.3495,95.7572 -0.121,-0.121"
           id="path73772" />
        <path
           d="m 105.2285,95.6362 -0.0604,-0.2419"
           id="path73774" />
        <path
           d="M 105.1681,95.3943 V 94.971"
           id="path73776" />
        <path
           d="m 105.1681,94.971 0.0604,-0.2419"
           id="path73778" />
        <path
           d="m 105.2285,94.7291 0.121,-0.121"
           id="path73780" />
        <path
           d="m 105.3495,94.6081 0.1209,-0.0605"
           id="path73782" />
        <path
           d="m 106.559,95.8176 v -1.27"
           id="path73784" />
        <path
           d="m 106.559,94.5476 0.7257,1.27"
           id="path73786" />
        <path
           d="m 107.2847,95.8176 v -1.27"
           id="path73788" />
        <path
           d="m 107.7081,94.5476 h 0.7257"
           id="path73790" />
        <path
           d="m 108.071,95.8176 v -1.27"
           id="path73792" />
        <path
           d="m 109.5828,95.8176 -0.4233,-0.6047"
           id="path73794" />
        <path
           d="m 108.8571,95.8176 v -1.27"
           id="path73796" />
        <path
           d="m 108.8571,94.5476 h 0.4838"
           id="path73798" />
        <path
           d="m 109.3409,94.5476 0.121,0.0605"
           id="path73800" />
        <path
           d="m 109.4619,94.6081 0.0605,0.0605"
           id="path73802" />
        <path
           d="m 109.5224,94.6686 0.0604,0.1209"
           id="path73804" />
        <path
           d="M 109.5828,94.7895 V 94.971"
           id="path73806" />
        <path
           d="m 109.5828,94.971 -0.0604,0.1209"
           id="path73808" />
        <path
           d="m 109.5224,95.0919 -0.0605,0.0605"
           id="path73810" />
        <path
           d="m 109.4619,95.1524 -0.121,0.0605"
           id="path73812" />
        <path
           d="m 109.3409,95.2129 h -0.4838"
           id="path73814" />
        <path
           d="m 110.369,94.5476 h 0.2419"
           id="path73816" />
        <path
           d="m 110.6109,94.5476 0.121,0.0605"
           id="path73818" />
        <path
           d="m 110.7319,94.6081 0.1209,0.121"
           id="path73820" />
        <path
           d="m 110.8528,94.7291 0.0605,0.2419"
           id="path73822" />
        <path
           d="m 110.9133,94.971 v 0.4233"
           id="path73824" />
        <path
           d="m 110.9133,95.3943 -0.0605,0.2419"
           id="path73826" />
        <path
           d="m 110.8528,95.6362 -0.1209,0.121"
           id="path73828" />
        <path
           d="m 110.7319,95.7572 -0.121,0.0604"
           id="path73830" />
        <path
           d="M 110.6109,95.8176 H 110.369"
           id="path73832" />
        <path
           d="m 110.369,95.8176 -0.1209,-0.0604"
           id="path73834" />
        <path
           d="m 110.2481,95.7572 -0.121,-0.121"
           id="path73836" />
        <path
           d="m 110.1271,95.6362 -0.0604,-0.2419"
           id="path73838" />
        <path
           d="M 110.0667,95.3943 V 94.971"
           id="path73840" />
        <path
           d="m 110.0667,94.971 0.0604,-0.2419"
           id="path73842" />
        <path
           d="m 110.1271,94.7291 0.121,-0.121"
           id="path73844" />
        <path
           d="m 110.2481,94.6081 0.1209,-0.0605"
           id="path73846" />
        <path
           d="m 112.0624,95.8176 h -0.6048"
           id="path73848" />
        <path
           d="m 111.4576,95.8176 v -1.27"
           id="path73850" />
        <path
           d="m 113.0905,95.8176 h -0.6048"
           id="path73852" />
        <path
           d="m 112.4857,95.8176 v -1.27"
           id="path73854" />
        <path
           d="m 113.5138,95.1524 h 0.4234"
           id="path73856" />
        <path
           d="m 114.1186,95.8176 h -0.6048"
           id="path73858" />
        <path
           d="m 113.5138,95.8176 v -1.27"
           id="path73860" />
        <path
           d="m 113.5138,94.5476 h 0.6048"
           id="path73862" />
        <path
           d="m 115.3885,95.8176 -0.4233,-0.6047"
           id="path73864" />
        <path
           d="m 114.6628,95.8176 v -1.27"
           id="path73866" />
        <path
           d="m 114.6628,94.5476 h 0.4838"
           id="path73868" />
        <path
           d="m 115.1466,94.5476 0.121,0.0605"
           id="path73870" />
        <path
           d="m 115.2676,94.6081 0.0605,0.0605"
           id="path73872" />
        <path
           d="m 115.3281,94.6686 0.0604,0.1209"
           id="path73874" />
        <path
           d="M 115.3885,94.7895 V 94.971"
           id="path73876" />
        <path
           d="m 115.3885,94.971 -0.0604,0.1209"
           id="path73878" />
        <path
           d="m 115.3281,95.0919 -0.0605,0.0605"
           id="path73880" />
        <path
           d="m 115.2676,95.1524 -0.121,0.0605"
           id="path73882" />
        <path
           d="m 115.1466,95.2129 h -0.4838"
           id="path73884" />
      </g>
      <path
         d="m 116.84,87.63 h 2.54"
         id="path73888" />
    </g>
    <g
       style="fill:#cb4b16;fill-opacity:0;stroke:#cb4b16;stroke-width:0.381;stroke-linecap:round;stroke-linejoin:round;stroke-opacity:1"
       id="g73892" />
    <g
       style="fill:#cb4b16;fill-opacity:0;stroke:#cb4b16;stroke-width:0.1524;stroke-linecap:round;stroke-linejoin:round;stroke-opacity:1"
       id="g73926">
      <text
         x="115.824"
         y="88.264999"
         textLength="2.6826999"
         font-size="1.6933px"
         lengthAdjust="spacingAndGlyphs"
         text-anchor="end"
         opacity="0"
         id="text73894">RX</text>
      <g
         class="stroked-text"
         id="g73924">
        <desc
           id="desc73896">RX</desc>
        <path
           d="M 114.2723,88.2095 113.849,87.6048"
           id="path73898" />
        <path
           d="m 113.5466,88.2095 v -1.27"
           id="path73900" />
        <path
           d="m 113.5466,86.9395 h 0.4838"
           id="path73902" />
        <path
           d="M 114.0304,86.9395 114.1514,87"
           id="path73904" />
        <path
           d="m 114.1514,87 0.0605,0.0605"
           id="path73906" />
        <path
           d="m 114.2119,87.0605 0.0604,0.1209"
           id="path73908" />
        <path
           d="m 114.2723,87.1814 v 0.1815"
           id="path73910" />
        <path
           d="m 114.2723,87.3629 -0.0604,0.1209"
           id="path73912" />
        <path
           d="m 114.2119,87.4838 -0.0605,0.0605"
           id="path73914" />
        <path
           d="m 114.1514,87.5443 -0.121,0.0605"
           id="path73916" />
        <path
           d="m 114.0304,87.6048 h -0.4838"
           id="path73918" />
        <path
           d="m 114.6957,86.9395 0.8466,1.27"
           id="path73920" />
        <path
           d="m 115.5423,86.9395 -0.8466,1.27"
           id="path73922" />
      </g>
    </g>
    <g
       style="fill:#586e75;fill-opacity:0;stroke:#586e75;stroke-width:0.1524;stroke-linecap:round;stroke-linejoin:round;stroke-opacity:1"
       id="g73928" />
    <g
       style="fill:#586e75;fill-opacity:0;stroke:#586e75;stroke-width:0.381;stroke-linecap:round;stroke-linejoin:round;stroke-opacity:1"
       id="g73932">
      <path
         d="m 116.84,85.09 h 2.54"
         id="path73930" />
    </g>
    <g
       style="fill:#cb4b16;fill-opacity:0;stroke:#cb4b16;stroke-width:0.381;stroke-linecap:round;stroke-linejoin:round;stroke-opacity:1"
       id="g73934" />
    <g
       style="fill:#cb4b16;fill-opacity:0;stroke:#cb4b16;stroke-width:0.1524;stroke-linecap:round;stroke-linejoin:round;stroke-opacity:1"
       id="g73950">
      <text
         x="115.824"
         y="85.724998"
         textLength="2.3803"
         font-size="1.6933px"
         lengthAdjust="spacingAndGlyphs"
         text-anchor="end"
         opacity="0"
         id="text73936">TX</text>
      <g
         class="stroked-text"
         id="g73948">
        <desc
           id="desc73938">TX</desc>
        <path
           d="m 113.6676,84.3995 h 0.7257"
           id="path73940" />
        <path
           d="m 114.0305,85.6695 v -1.27"
           id="path73942" />
        <path
           d="m 114.6957,84.3995 0.8466,1.27"
           id="path73944" />
        <path
           d="m 115.5423,84.3995 -0.8466,1.27"
           id="path73946" />
      </g>
    </g>
  </g>
  <g
     style="fill:#cb4b16;fill-opacity:0;stroke:#cb4b16;stroke-width:0.1524;stroke-linecap:round;stroke-linejoin:round;stroke-opacity:1"
     id="g74194"
     transform="translate(-96.329497,-82.359503)">
    <g
       id="g73954" />
    <g
       style="fill:#586e75;fill-opacity:0;stroke:#586e75;stroke-width:0.1524;stroke-linecap:round;stroke-linejoin:round;stroke-opacity:1"
       id="g73956" />
    <g
       style="fill:#586e75;fill-opacity:0;stroke:#586e75;stroke-width:0.381;stroke-linecap:round;stroke-linejoin:round;stroke-opacity:1"
       id="g74132">
      <rect
         x="147.32001"
         y="82.550003"
         width="20.32"
         height="25.4"
         rx="0.000000"
         id="rect73958" />
      <text
         x="157.48"
         y="95.885002"
         textLength="9.4160004"
         font-size="1.6933px"
         lengthAdjust="spacingAndGlyphs"
         text-anchor="middle"
         opacity="0"
         id="text73960">TMC2209</text>
      <g
         class="stroked-text"
         id="g74128">
        <desc
           id="desc73962">TMC2209</desc>
        <path
           d="m 153.3374,94.5476 h 0.7257"
           id="path73964" />
        <path
           d="m 153.7003,95.8176 v -1.27"
           id="path73966" />
        <path
           d="m 154.4864,95.8176 v -1.27"
           id="path73968" />
        <path
           d="m 154.4864,94.5476 0.4234,0.9072"
           id="path73970" />
        <path
           d="m 154.9098,95.4548 0.4233,-0.9072"
           id="path73972" />
        <path
           d="m 155.3331,94.5476 v 1.27"
           id="path73974" />
        <path
           d="m 156.6635,95.6967 -0.0604,0.0605"
           id="path73976" />
        <path
           d="m 156.6031,95.7572 -0.1815,0.0604"
           id="path73978" />
        <path
           d="m 156.4216,95.8176 h -0.1209"
           id="path73980" />
        <path
           d="m 156.3007,95.8176 -0.1814,-0.0604"
           id="path73982" />
        <path
           d="m 156.1193,95.7572 -0.121,-0.121"
           id="path73984" />
        <path
           d="m 155.9983,95.6362 -0.0605,-0.121"
           id="path73986" />
        <path
           d="m 155.9378,95.5152 -0.0604,-0.2419"
           id="path73988" />
        <path
           d="M 155.8774,95.2733 V 95.0919"
           id="path73990" />
        <path
           d="M 155.8774,95.0919 155.9378,94.85"
           id="path73992" />
        <path
           d="m 155.9378,94.85 0.0605,-0.1209"
           id="path73994" />
        <path
           d="m 155.9983,94.7291 0.121,-0.121"
           id="path73996" />
        <path
           d="m 156.1193,94.6081 0.1814,-0.0605"
           id="path73998" />
        <path
           d="m 156.3007,94.5476 h 0.1209"
           id="path74000" />
        <path
           d="m 156.4216,94.5476 0.1815,0.0605"
           id="path74002" />
        <path
           d="m 156.6031,94.6081 0.0604,0.0605"
           id="path74004" />
        <path
           d="m 157.1474,94.6686 0.0604,-0.0605"
           id="path74006" />
        <path
           d="m 157.2078,94.6081 0.121,-0.0605"
           id="path74008" />
        <path
           d="m 157.3288,94.5476 h 0.3024"
           id="path74010" />
        <path
           d="m 157.6312,94.5476 0.1209,0.0605"
           id="path74012" />
        <path
           d="m 157.7521,94.6081 0.0605,0.0605"
           id="path74014" />
        <path
           d="m 157.8126,94.6686 0.0605,0.1209"
           id="path74016" />
        <path
           d="m 157.8731,94.7895 v 0.121"
           id="path74018" />
        <path
           d="m 157.8731,94.9105 -0.0605,0.1814"
           id="path74020" />
        <path
           d="m 157.8126,95.0919 -0.7257,0.7257"
           id="path74022" />
        <path
           d="m 157.0869,95.8176 h 0.7862"
           id="path74024" />
        <path
           d="m 158.3569,94.6686 0.0604,-0.0605"
           id="path74026" />
        <path
           d="m 158.4173,94.6081 0.121,-0.0605"
           id="path74028" />
        <path
           d="m 158.5383,94.5476 h 0.3024"
           id="path74030" />
        <path
           d="m 158.8407,94.5476 0.1209,0.0605"
           id="path74032" />
        <path
           d="m 158.9616,94.6081 0.0605,0.0605"
           id="path74034" />
        <path
           d="m 159.0221,94.6686 0.0605,0.1209"
           id="path74036" />
        <path
           d="m 159.0826,94.7895 v 0.121"
           id="path74038" />
        <path
           d="m 159.0826,94.9105 -0.0605,0.1814"
           id="path74040" />
        <path
           d="m 159.0221,95.0919 -0.7257,0.7257"
           id="path74042" />
        <path
           d="m 158.2964,95.8176 h 0.7862"
           id="path74044" />
        <path
           d="m 159.8687,94.5476 h 0.121"
           id="path74046" />
        <path
           d="m 159.9897,94.5476 0.1209,0.0605"
           id="path74048" />
        <path
           d="m 160.1106,94.6081 0.0605,0.0605"
           id="path74050" />
        <path
           d="m 160.1711,94.6686 0.0605,0.1209"
           id="path74052" />
        <path
           d="m 160.2316,94.7895 0.0605,0.2419"
           id="path74054" />
        <path
           d="m 160.2921,95.0314 v 0.3024"
           id="path74056" />
        <path
           d="m 160.2921,95.3338 -0.0605,0.2419"
           id="path74058" />
        <path
           d="m 160.2316,95.5757 -0.0605,0.121"
           id="path74060" />
        <path
           d="m 160.1711,95.6967 -0.0605,0.0605"
           id="path74062" />
        <path
           d="m 160.1106,95.7572 -0.1209,0.0604"
           id="path74064" />
        <path
           d="m 159.9897,95.8176 h -0.121"
           id="path74066" />
        <path
           d="m 159.8687,95.8176 -0.1209,-0.0604"
           id="path74068" />
        <path
           d="m 159.7478,95.7572 -0.0605,-0.0605"
           id="path74070" />
        <path
           d="m 159.6873,95.6967 -0.0605,-0.121"
           id="path74072" />
        <path
           d="m 159.6268,95.5757 -0.0604,-0.2419"
           id="path74074" />
        <path
           d="M 159.5664,95.3338 V 95.0314"
           id="path74076" />
        <path
           d="m 159.5664,95.0314 0.0604,-0.2419"
           id="path74078" />
        <path
           d="m 159.6268,94.7895 0.0605,-0.1209"
           id="path74080" />
        <path
           d="m 159.6873,94.6686 0.0605,-0.0605"
           id="path74082" />
        <path
           d="m 159.7478,94.6081 0.1209,-0.0605"
           id="path74084" />
        <path
           d="m 160.8968,95.8176 h 0.2419"
           id="path74086" />
        <path
           d="m 161.1387,95.8176 0.121,-0.0604"
           id="path74088" />
        <path
           d="m 161.2597,95.7572 0.0604,-0.0605"
           id="path74090" />
        <path
           d="m 161.3201,95.6967 0.121,-0.1815"
           id="path74092" />
        <path
           d="m 161.4411,95.5152 0.0605,-0.2419"
           id="path74094" />
        <path
           d="M 161.5016,95.2733 V 94.7895"
           id="path74096" />
        <path
           d="m 161.5016,94.7895 -0.0605,-0.1209"
           id="path74098" />
        <path
           d="m 161.4411,94.6686 -0.0605,-0.0605"
           id="path74100" />
        <path
           d="m 161.3806,94.6081 -0.1209,-0.0605"
           id="path74102" />
        <path
           d="m 161.2597,94.5476 h -0.2419"
           id="path74104" />
        <path
           d="m 161.0178,94.5476 -0.121,0.0605"
           id="path74106" />
        <path
           d="m 160.8968,94.6081 -0.0605,0.0605"
           id="path74108" />
        <path
           d="m 160.8363,94.6686 -0.0604,0.1209"
           id="path74110" />
        <path
           d="m 160.7759,94.7895 v 0.3024"
           id="path74112" />
        <path
           d="m 160.7759,95.0919 0.0604,0.121"
           id="path74114" />
        <path
           d="m 160.8363,95.2129 0.0605,0.0604"
           id="path74116" />
        <path
           d="m 160.8968,95.2733 0.121,0.0605"
           id="path74118" />
        <path
           d="m 161.0178,95.3338 h 0.2419"
           id="path74120" />
        <path
           d="m 161.2597,95.3338 0.1209,-0.0605"
           id="path74122" />
        <path
           d="m 161.3806,95.2733 0.0605,-0.0604"
           id="path74124" />
        <path
           d="m 161.4411,95.2129 0.0605,-0.121"
           id="path74126" />
      </g>
      <path
         d="m 147.32,85.09 h -2.54"
         id="path74130" />
    </g>
    <g
       style="fill:#cb4b16;fill-opacity:0;stroke:#cb4b16;stroke-width:0.381;stroke-linecap:round;stroke-linejoin:round;stroke-opacity:1"
       id="g74134" />
    <g
       style="fill:#cb4b16;fill-opacity:0;stroke:#cb4b16;stroke-width:0.1524;stroke-linecap:round;stroke-linejoin:round;stroke-opacity:1"
       id="g74192">
      <text
         x="148.336"
         y="85.724998"
         textLength="4.8599"
         font-size="1.6933px"
         lengthAdjust="spacingAndGlyphs"
         text-anchor="start"
         opacity="0"
         id="text74136">UART</text>
      <g
         class="stroked-text"
         id="g74190">
        <desc
           id="desc74138">UART</desc>
        <path
           d="m 148.7385,84.3995 v 1.0281"
           id="path74140" />
        <path
           d="m 148.7385,85.4276 0.0605,0.121"
           id="path74142" />
        <path
           d="m 148.799,85.5486 0.0605,0.0605"
           id="path74144" />
        <path
           d="m 148.8595,85.6091 0.1209,0.0604"
           id="path74146" />
        <path
           d="m 148.9804,85.6695 h 0.2419"
           id="path74148" />
        <path
           d="m 149.2223,85.6695 0.121,-0.0604"
           id="path74150" />
        <path
           d="m 149.3433,85.6091 0.0605,-0.0605"
           id="path74152" />
        <path
           d="m 149.4038,85.5486 0.0604,-0.121"
           id="path74154" />
        <path
           d="M 149.4642,85.4276 V 84.3995"
           id="path74156" />
        <path
           d="m 150.0086,85.3067 h 0.6047"
           id="path74158" />
        <path
           d="m 149.8876,85.6695 0.4233,-1.27"
           id="path74160" />
        <path
           d="m 150.3109,84.3995 0.4234,1.27"
           id="path74162" />
        <path
           d="M 151.8833,85.6695 151.46,85.0648"
           id="path74164" />
        <path
           d="m 151.1576,85.6695 v -1.27"
           id="path74166" />
        <path
           d="m 151.1576,84.3995 h 0.4838"
           id="path74168" />
        <path
           d="m 151.6414,84.3995 0.121,0.0605"
           id="path74170" />
        <path
           d="m 151.7624,84.46 0.0605,0.0605"
           id="path74172" />
        <path
           d="m 151.8229,84.5205 0.0604,0.1209"
           id="path74174" />
        <path
           d="m 151.8833,84.6414 v 0.1815"
           id="path74176" />
        <path
           d="m 151.8833,84.8229 -0.0604,0.1209"
           id="path74178" />
        <path
           d="m 151.8229,84.9438 -0.0605,0.0605"
           id="path74180" />
        <path
           d="m 151.7624,85.0043 -0.121,0.0605"
           id="path74182" />
        <path
           d="m 151.6414,85.0648 h -0.4838"
           id="path74184" />
        <path
           d="m 152.2462,84.3995 h 0.7257"
           id="path74186" />
        <path
           d="m 152.6091,85.6695 v -1.27"
           id="path74188" />
      </g>
    </g>
  </g>
  <g
     style="fill:#cb4b16;fill-opacity:0;stroke:#cb4b16;stroke-width:0.1524;stroke-linecap:round;stroke-linejoin:round;stroke-opacity:1"
     id="g74196"
     transform="translate(-96.329497,-82.359503)" />
  <g
     style="fill:#859900;fill-opacity:0;stroke:#859900;stroke-width:0.1524;stroke-linecap:round;stroke-linejoin:round;stroke-opacity:1"
     id="g74198"
     transform="translate(-96.329497,-82.359503)" />
  <g
     style="fill:#859900;fill-opacity:0;stroke:#859900;stroke-width:0.381;stroke-linecap:round;stroke-linejoin:round;stroke-opacity:1"
     id="g74202"
     transform="translate(-96.329497,-82.359503)">
    <path
       d="m 119.38,85.09 h 25.4"
       id="path74200" />
  </g>
  <g
     style="fill:#859900;fill-opacity:0;stroke:#859900;stroke-width:0.1524;stroke-linecap:round;stroke-linejoin:round;stroke-opacity:1"
     id="g74204"
     transform="translate(-96.329497,-82.359503)" />
  <g
     style="fill:#6c71c4;fill-opacity:0;stroke:#6c71c4;stroke-width:0.1524;stroke-linecap:round;stroke-linejoin:round;stroke-opacity:1"
     id="g74210"
     transform="translate(-96.329497,-82.359503)">
    <path
       d="m 118.7704,87.0204 1.2192,1.2192"
       id="path74206" />
    <path
       d="m 119.9896,87.0204 -1.2192,1.2192"
       id="path74208" />
  </g>
</svg>
