<?xml version="1.0" encoding="UTF-8" standalone="no"?>
<svg
   xmlns:dc="http://purl.org/dc/elements/1.1/"
   xmlns:cc="http://creativecommons.org/ns#"
   xmlns:rdf="http://www.w3.org/1999/02/22-rdf-syntax-ns#"
   xmlns:svg="http://www.w3.org/2000/svg"
   xmlns="http://www.w3.org/2000/svg"
   version="1.1"
   width="71.500992mm"
   height="53.721001mm"
   viewBox="0 0 71.500992 53.721"
   id="svg73604">
  <metadata
     id="metadata73610">
    <rdf:RDF>
      <cc:Work
         rdf:about="">
        <dc:format>image/svg+xml</dc:format>
        <dc:type
           rdf:resource="http://purl.org/dc/dcmitype/StillImage" />
      </cc:Work>
    </rdf:RDF>
  </metadata>
  <defs
     id="defs73608" />
  <title
     id="title72738">SVG Image created as trinamic_wiring-TMC2209-unidirectional-multiple.svg date 2023/08/02 14:11:37 </title>
  <desc
     id="desc72740">Image generated by Eeschema-SVG </desc>
  <g
     style="fill:#000000;fill-opacity:1;stroke:#000000;stroke-linecap:round;stroke-linejoin:round;stroke-opacity:1"
     id="g72742"
     transform="translate(-102.6795,-74.7395)" />
  <g
     style="fill:#000000;fill-opacity:0;stroke:#000000;stroke-width:0.1524;stroke-linecap:round;stroke-linejoin:round;stroke-opacity:1"
     id="g72984"
     transform="translate(-102.6795,-74.7395)">
    <g
       id="g72744" />
    <g
       style="fill:#586e75;fill-opacity:0;stroke:#586e75;stroke-width:0.1524;stroke-linecap:round;stroke-linejoin:round;stroke-opacity:1"
       id="g72746" />
    <g
       style="fill:#586e75;fill-opacity:0;stroke:#586e75;stroke-width:0.381;stroke-linecap:round;stroke-linejoin:round;stroke-opacity:1"
       id="g72922">
      <rect
         x="153.67"
         y="74.93"
         width="20.32"
         height="25.4"
         rx="0.000000"
         id="rect72748" />
      <text
         x="163.83"
         y="88.264999"
         textLength="9.4160004"
         font-size="1.6933px"
         lengthAdjust="spacingAndGlyphs"
         text-anchor="middle"
         opacity="0"
         id="text72750">TMC2209</text>
      <g
         class="stroked-text"
         id="g72918">
        <desc
           id="desc72752">TMC2209</desc>
        <path
           d="m 159.6874,86.9276 h 0.7257"
           id="path72754" />
        <path
           d="m 160.0503,88.1976 v -1.27"
           id="path72756" />
        <path
           d="m 160.8364,88.1976 v -1.27"
           id="path72758" />
        <path
           d="m 160.8364,86.9276 0.4234,0.9072"
           id="path72760" />
        <path
           d="m 161.2598,87.8348 0.4233,-0.9072"
           id="path72762" />
        <path
           d="m 161.6831,86.9276 v 1.27"
           id="path72764" />
        <path
           d="m 163.0135,88.0767 -0.0604,0.0605"
           id="path72766" />
        <path
           d="m 162.9531,88.1372 -0.1815,0.0604"
           id="path72768" />
        <path
           d="m 162.7716,88.1976 h -0.1209"
           id="path72770" />
        <path
           d="m 162.6507,88.1976 -0.1814,-0.0604"
           id="path72772" />
        <path
           d="m 162.4693,88.1372 -0.121,-0.121"
           id="path72774" />
        <path
           d="m 162.3483,88.0162 -0.0605,-0.121"
           id="path72776" />
        <path
           d="m 162.2878,87.8952 -0.0604,-0.2419"
           id="path72778" />
        <path
           d="M 162.2274,87.6533 V 87.4719"
           id="path72780" />
        <path
           d="M 162.2274,87.4719 162.2878,87.23"
           id="path72782" />
        <path
           d="m 162.2878,87.23 0.0605,-0.1209"
           id="path72784" />
        <path
           d="m 162.3483,87.1091 0.121,-0.121"
           id="path72786" />
        <path
           d="m 162.4693,86.9881 0.1814,-0.0605"
           id="path72788" />
        <path
           d="m 162.6507,86.9276 h 0.1209"
           id="path72790" />
        <path
           d="m 162.7716,86.9276 0.1815,0.0605"
           id="path72792" />
        <path
           d="m 162.9531,86.9881 0.0604,0.0605"
           id="path72794" />
        <path
           d="m 163.4974,87.0486 0.0604,-0.0605"
           id="path72796" />
        <path
           d="m 163.5578,86.9881 0.121,-0.0605"
           id="path72798" />
        <path
           d="m 163.6788,86.9276 h 0.3024"
           id="path72800" />
        <path
           d="m 163.9812,86.9276 0.1209,0.0605"
           id="path72802" />
        <path
           d="m 164.1021,86.9881 0.0605,0.0605"
           id="path72804" />
        <path
           d="m 164.1626,87.0486 0.0605,0.1209"
           id="path72806" />
        <path
           d="m 164.2231,87.1695 v 0.121"
           id="path72808" />
        <path
           d="m 164.2231,87.2905 -0.0605,0.1814"
           id="path72810" />
        <path
           d="m 164.1626,87.4719 -0.7257,0.7257"
           id="path72812" />
        <path
           d="m 163.4369,88.1976 h 0.7862"
           id="path72814" />
        <path
           d="m 164.7069,87.0486 0.0604,-0.0605"
           id="path72816" />
        <path
           d="m 164.7673,86.9881 0.121,-0.0605"
           id="path72818" />
        <path
           d="m 164.8883,86.9276 h 0.3024"
           id="path72820" />
        <path
           d="m 165.1907,86.9276 0.1209,0.0605"
           id="path72822" />
        <path
           d="m 165.3116,86.9881 0.0605,0.0605"
           id="path72824" />
        <path
           d="m 165.3721,87.0486 0.0605,0.1209"
           id="path72826" />
        <path
           d="m 165.4326,87.1695 v 0.121"
           id="path72828" />
        <path
           d="m 165.4326,87.2905 -0.0605,0.1814"
           id="path72830" />
        <path
           d="m 165.3721,87.4719 -0.7257,0.7257"
           id="path72832" />
        <path
           d="m 164.6464,88.1976 h 0.7862"
           id="path72834" />
        <path
           d="m 166.2187,86.9276 h 0.121"
           id="path72836" />
        <path
           d="m 166.3397,86.9276 0.1209,0.0605"
           id="path72838" />
        <path
           d="m 166.4606,86.9881 0.0605,0.0605"
           id="path72840" />
        <path
           d="m 166.5211,87.0486 0.0605,0.1209"
           id="path72842" />
        <path
           d="m 166.5816,87.1695 0.0605,0.2419"
           id="path72844" />
        <path
           d="m 166.6421,87.4114 v 0.3024"
           id="path72846" />
        <path
           d="m 166.6421,87.7138 -0.0605,0.2419"
           id="path72848" />
        <path
           d="m 166.5816,87.9557 -0.0605,0.121"
           id="path72850" />
        <path
           d="m 166.5211,88.0767 -0.0605,0.0605"
           id="path72852" />
        <path
           d="m 166.4606,88.1372 -0.1209,0.0604"
           id="path72854" />
        <path
           d="m 166.3397,88.1976 h -0.121"
           id="path72856" />
        <path
           d="m 166.2187,88.1976 -0.1209,-0.0604"
           id="path72858" />
        <path
           d="m 166.0978,88.1372 -0.0605,-0.0605"
           id="path72860" />
        <path
           d="m 166.0373,88.0767 -0.0605,-0.121"
           id="path72862" />
        <path
           d="m 165.9768,87.9557 -0.0604,-0.2419"
           id="path72864" />
        <path
           d="M 165.9164,87.7138 V 87.4114"
           id="path72866" />
        <path
           d="m 165.9164,87.4114 0.0604,-0.2419"
           id="path72868" />
        <path
           d="m 165.9768,87.1695 0.0605,-0.1209"
           id="path72870" />
        <path
           d="m 166.0373,87.0486 0.0605,-0.0605"
           id="path72872" />
        <path
           d="m 166.0978,86.9881 0.1209,-0.0605"
           id="path72874" />
        <path
           d="m 167.2468,88.1976 h 0.2419"
           id="path72876" />
        <path
           d="m 167.4887,88.1976 0.121,-0.0604"
           id="path72878" />
        <path
           d="m 167.6097,88.1372 0.0604,-0.0605"
           id="path72880" />
        <path
           d="m 167.6701,88.0767 0.121,-0.1815"
           id="path72882" />
        <path
           d="m 167.7911,87.8952 0.0605,-0.2419"
           id="path72884" />
        <path
           d="M 167.8516,87.6533 V 87.1695"
           id="path72886" />
        <path
           d="m 167.8516,87.1695 -0.0605,-0.1209"
           id="path72888" />
        <path
           d="m 167.7911,87.0486 -0.0605,-0.0605"
           id="path72890" />
        <path
           d="m 167.7306,86.9881 -0.1209,-0.0605"
           id="path72892" />
        <path
           d="m 167.6097,86.9276 h -0.2419"
           id="path72894" />
        <path
           d="m 167.3678,86.9276 -0.121,0.0605"
           id="path72896" />
        <path
           d="m 167.2468,86.9881 -0.0605,0.0605"
           id="path72898" />
        <path
           d="m 167.1863,87.0486 -0.0604,0.1209"
           id="path72900" />
        <path
           d="m 167.1259,87.1695 v 0.3024"
           id="path72902" />
        <path
           d="m 167.1259,87.4719 0.0604,0.121"
           id="path72904" />
        <path
           d="m 167.1863,87.5929 0.0605,0.0604"
           id="path72906" />
        <path
           d="m 167.2468,87.6533 0.121,0.0605"
           id="path72908" />
        <path
           d="m 167.3678,87.7138 h 0.2419"
           id="path72910" />
        <path
           d="m 167.6097,87.7138 0.1209,-0.0605"
           id="path72912" />
        <path
           d="m 167.7306,87.6533 0.0605,-0.0604"
           id="path72914" />
        <path
           d="m 167.7911,87.5929 0.0605,-0.121"
           id="path72916" />
      </g>
      <path
         d="m 153.67,77.47 h -2.54"
         id="path72920" />
    </g>
    <g
       style="fill:#cb4b16;fill-opacity:0;stroke:#cb4b16;stroke-width:0.381;stroke-linecap:round;stroke-linejoin:round;stroke-opacity:1"
       id="g72924" />
    <g
       style="fill:#cb4b16;fill-opacity:0;stroke:#cb4b16;stroke-width:0.1524;stroke-linecap:round;stroke-linejoin:round;stroke-opacity:1"
       id="g72982">
      <text
         x="154.686"
         y="78.105003"
         textLength="4.8599"
         font-size="1.6933px"
         lengthAdjust="spacingAndGlyphs"
         text-anchor="start"
         opacity="0"
         id="text72926">UART</text>
      <g
         class="stroked-text"
         id="g72980">
        <desc
           id="desc72928">UART</desc>
        <path
           d="m 155.0885,76.7795 v 1.0281"
           id="path72930" />
        <path
           d="m 155.0885,77.8076 0.0605,0.121"
           id="path72932" />
        <path
           d="m 155.149,77.9286 0.0605,0.0605"
           id="path72934" />
        <path
           d="m 155.2095,77.9891 0.1209,0.0604"
           id="path72936" />
        <path
           d="m 155.3304,78.0495 h 0.2419"
           id="path72938" />
        <path
           d="m 155.5723,78.0495 0.121,-0.0604"
           id="path72940" />
        <path
           d="m 155.6933,77.9891 0.0605,-0.0605"
           id="path72942" />
        <path
           d="m 155.7538,77.9286 0.0604,-0.121"
           id="path72944" />
        <path
           d="M 155.8142,77.8076 V 76.7795"
           id="path72946" />
        <path
           d="m 156.3586,77.6867 h 0.6047"
           id="path72948" />
        <path
           d="m 156.2376,78.0495 0.4233,-1.27"
           id="path72950" />
        <path
           d="m 156.6609,76.7795 0.4234,1.27"
           id="path72952" />
        <path
           d="M 158.2333,78.0495 157.81,77.4448"
           id="path72954" />
        <path
           d="m 157.5076,78.0495 v -1.27"
           id="path72956" />
        <path
           d="m 157.5076,76.7795 h 0.4838"
           id="path72958" />
        <path
           d="m 157.9914,76.7795 0.121,0.0605"
           id="path72960" />
        <path
           d="m 158.1124,76.84 0.0605,0.0605"
           id="path72962" />
        <path
           d="m 158.1729,76.9005 0.0604,0.1209"
           id="path72964" />
        <path
           d="m 158.2333,77.0214 v 0.1815"
           id="path72966" />
        <path
           d="m 158.2333,77.2029 -0.0604,0.1209"
           id="path72968" />
        <path
           d="m 158.1729,77.3238 -0.0605,0.0605"
           id="path72970" />
        <path
           d="m 158.1124,77.3843 -0.121,0.0605"
           id="path72972" />
        <path
           d="m 157.9914,77.4448 h -0.4838"
           id="path72974" />
        <path
           d="m 158.5962,76.7795 h 0.7257"
           id="path72976" />
        <path
           d="m 158.9591,78.0495 v -1.27"
           id="path72978" />
      </g>
    </g>
  </g>
  <g
     style="fill:#cb4b16;fill-opacity:0;stroke:#cb4b16;stroke-width:0.1524;stroke-linecap:round;stroke-linejoin:round;stroke-opacity:1"
     id="g73226"
     transform="translate(-102.6795,-74.7395)">
    <g
       id="g72986" />
    <g
       style="fill:#586e75;fill-opacity:0;stroke:#586e75;stroke-width:0.1524;stroke-linecap:round;stroke-linejoin:round;stroke-opacity:1"
       id="g72988" />
    <g
       style="fill:#586e75;fill-opacity:0;stroke:#586e75;stroke-width:0.381;stroke-linecap:round;stroke-linejoin:round;stroke-opacity:1"
       id="g73164">
      <rect
         x="153.67"
         y="102.87"
         width="20.32"
         height="25.4"
         rx="0.000000"
         id="rect72990" />
      <text
         x="163.83"
         y="116.205"
         textLength="9.4160004"
         font-size="1.6933px"
         lengthAdjust="spacingAndGlyphs"
         text-anchor="middle"
         opacity="0"
         id="text72992">TMC2209</text>
      <g
         class="stroked-text"
         id="g73160">
        <desc
           id="desc72994">TMC2209</desc>
        <path
           d="m 159.6874,114.8676 h 0.7257"
           id="path72996" />
        <path
           d="m 160.0503,116.1376 v -1.27"
           id="path72998" />
        <path
           d="m 160.8364,116.1376 v -1.27"
           id="path73000" />
        <path
           d="m 160.8364,114.8676 0.4234,0.9072"
           id="path73002" />
        <path
           d="m 161.2598,115.7748 0.4233,-0.9072"
           id="path73004" />
        <path
           d="m 161.6831,114.8676 v 1.27"
           id="path73006" />
        <path
           d="m 163.0135,116.0167 -0.0604,0.0605"
           id="path73008" />
        <path
           d="m 162.9531,116.0772 -0.1815,0.0604"
           id="path73010" />
        <path
           d="m 162.7716,116.1376 h -0.1209"
           id="path73012" />
        <path
           d="m 162.6507,116.1376 -0.1814,-0.0604"
           id="path73014" />
        <path
           d="m 162.4693,116.0772 -0.121,-0.121"
           id="path73016" />
        <path
           d="m 162.3483,115.9562 -0.0605,-0.121"
           id="path73018" />
        <path
           d="m 162.2878,115.8352 -0.0604,-0.2419"
           id="path73020" />
        <path
           d="m 162.2274,115.5933 v -0.1814"
           id="path73022" />
        <path
           d="m 162.2274,115.4119 0.0604,-0.2419"
           id="path73024" />
        <path
           d="m 162.2878,115.17 0.0605,-0.1209"
           id="path73026" />
        <path
           d="m 162.3483,115.0491 0.121,-0.121"
           id="path73028" />
        <path
           d="m 162.4693,114.9281 0.1814,-0.0605"
           id="path73030" />
        <path
           d="m 162.6507,114.8676 h 0.1209"
           id="path73032" />
        <path
           d="m 162.7716,114.8676 0.1815,0.0605"
           id="path73034" />
        <path
           d="m 162.9531,114.9281 0.0604,0.0605"
           id="path73036" />
        <path
           d="m 163.4974,114.9886 0.0604,-0.0605"
           id="path73038" />
        <path
           d="m 163.5578,114.9281 0.121,-0.0605"
           id="path73040" />
        <path
           d="m 163.6788,114.8676 h 0.3024"
           id="path73042" />
        <path
           d="m 163.9812,114.8676 0.1209,0.0605"
           id="path73044" />
        <path
           d="m 164.1021,114.9281 0.0605,0.0605"
           id="path73046" />
        <path
           d="m 164.1626,114.9886 0.0605,0.1209"
           id="path73048" />
        <path
           d="m 164.2231,115.1095 v 0.121"
           id="path73050" />
        <path
           d="m 164.2231,115.2305 -0.0605,0.1814"
           id="path73052" />
        <path
           d="m 164.1626,115.4119 -0.7257,0.7257"
           id="path73054" />
        <path
           d="m 163.4369,116.1376 h 0.7862"
           id="path73056" />
        <path
           d="m 164.7069,114.9886 0.0604,-0.0605"
           id="path73058" />
        <path
           d="m 164.7673,114.9281 0.121,-0.0605"
           id="path73060" />
        <path
           d="m 164.8883,114.8676 h 0.3024"
           id="path73062" />
        <path
           d="m 165.1907,114.8676 0.1209,0.0605"
           id="path73064" />
        <path
           d="m 165.3116,114.9281 0.0605,0.0605"
           id="path73066" />
        <path
           d="m 165.3721,114.9886 0.0605,0.1209"
           id="path73068" />
        <path
           d="m 165.4326,115.1095 v 0.121"
           id="path73070" />
        <path
           d="m 165.4326,115.2305 -0.0605,0.1814"
           id="path73072" />
        <path
           d="m 165.3721,115.4119 -0.7257,0.7257"
           id="path73074" />
        <path
           d="m 164.6464,116.1376 h 0.7862"
           id="path73076" />
        <path
           d="m 166.2187,114.8676 h 0.121"
           id="path73078" />
        <path
           d="m 166.3397,114.8676 0.1209,0.0605"
           id="path73080" />
        <path
           d="m 166.4606,114.9281 0.0605,0.0605"
           id="path73082" />
        <path
           d="m 166.5211,114.9886 0.0605,0.1209"
           id="path73084" />
        <path
           d="m 166.5816,115.1095 0.0605,0.2419"
           id="path73086" />
        <path
           d="m 166.6421,115.3514 v 0.3024"
           id="path73088" />
        <path
           d="m 166.6421,115.6538 -0.0605,0.2419"
           id="path73090" />
        <path
           d="m 166.5816,115.8957 -0.0605,0.121"
           id="path73092" />
        <path
           d="m 166.5211,116.0167 -0.0605,0.0605"
           id="path73094" />
        <path
           d="m 166.4606,116.0772 -0.1209,0.0604"
           id="path73096" />
        <path
           d="m 166.3397,116.1376 h -0.121"
           id="path73098" />
        <path
           d="m 166.2187,116.1376 -0.1209,-0.0604"
           id="path73100" />
        <path
           d="m 166.0978,116.0772 -0.0605,-0.0605"
           id="path73102" />
        <path
           d="m 166.0373,116.0167 -0.0605,-0.121"
           id="path73104" />
        <path
           d="m 165.9768,115.8957 -0.0604,-0.2419"
           id="path73106" />
        <path
           d="m 165.9164,115.6538 v -0.3024"
           id="path73108" />
        <path
           d="m 165.9164,115.3514 0.0604,-0.2419"
           id="path73110" />
        <path
           d="m 165.9768,115.1095 0.0605,-0.1209"
           id="path73112" />
        <path
           d="m 166.0373,114.9886 0.0605,-0.0605"
           id="path73114" />
        <path
           d="m 166.0978,114.9281 0.1209,-0.0605"
           id="path73116" />
        <path
           d="m 167.2468,116.1376 h 0.2419"
           id="path73118" />
        <path
           d="m 167.4887,116.1376 0.121,-0.0604"
           id="path73120" />
        <path
           d="m 167.6097,116.0772 0.0604,-0.0605"
           id="path73122" />
        <path
           d="m 167.6701,116.0167 0.121,-0.1815"
           id="path73124" />
        <path
           d="m 167.7911,115.8352 0.0605,-0.2419"
           id="path73126" />
        <path
           d="m 167.8516,115.5933 v -0.4838"
           id="path73128" />
        <path
           d="m 167.8516,115.1095 -0.0605,-0.1209"
           id="path73130" />
        <path
           d="m 167.7911,114.9886 -0.0605,-0.0605"
           id="path73132" />
        <path
           d="m 167.7306,114.9281 -0.1209,-0.0605"
           id="path73134" />
        <path
           d="m 167.6097,114.8676 h -0.2419"
           id="path73136" />
        <path
           d="m 167.3678,114.8676 -0.121,0.0605"
           id="path73138" />
        <path
           d="m 167.2468,114.9281 -0.0605,0.0605"
           id="path73140" />
        <path
           d="m 167.1863,114.9886 -0.0604,0.1209"
           id="path73142" />
        <path
           d="m 167.1259,115.1095 v 0.3024"
           id="path73144" />
        <path
           d="m 167.1259,115.4119 0.0604,0.121"
           id="path73146" />
        <path
           d="m 167.1863,115.5329 0.0605,0.0604"
           id="path73148" />
        <path
           d="m 167.2468,115.5933 0.121,0.0605"
           id="path73150" />
        <path
           d="m 167.3678,115.6538 h 0.2419"
           id="path73152" />
        <path
           d="m 167.6097,115.6538 0.1209,-0.0605"
           id="path73154" />
        <path
           d="m 167.7306,115.5933 0.0605,-0.0604"
           id="path73156" />
        <path
           d="m 167.7911,115.5329 0.0605,-0.121"
           id="path73158" />
      </g>
      <path
         d="m 153.67,105.41 h -2.54"
         id="path73162" />
    </g>
    <g
       style="fill:#cb4b16;fill-opacity:0;stroke:#cb4b16;stroke-width:0.381;stroke-linecap:round;stroke-linejoin:round;stroke-opacity:1"
       id="g73166" />
    <g
       style="fill:#cb4b16;fill-opacity:0;stroke:#cb4b16;stroke-width:0.1524;stroke-linecap:round;stroke-linejoin:round;stroke-opacity:1"
       id="g73224">
      <text
         x="154.686"
         y="106.045"
         textLength="4.8599"
         font-size="1.6933px"
         lengthAdjust="spacingAndGlyphs"
         text-anchor="start"
         opacity="0"
         id="text73168">UART</text>
      <g
         class="stroked-text"
         id="g73222">
        <desc
           id="desc73170">UART</desc>
        <path
           d="m 155.0885,104.7195 v 1.0281"
           id="path73172" />
        <path
           d="m 155.0885,105.7476 0.0605,0.121"
           id="path73174" />
        <path
           d="m 155.149,105.8686 0.0605,0.0605"
           id="path73176" />
        <path
           d="m 155.2095,105.9291 0.1209,0.0604"
           id="path73178" />
        <path
           d="m 155.3304,105.9895 h 0.2419"
           id="path73180" />
        <path
           d="m 155.5723,105.9895 0.121,-0.0604"
           id="path73182" />
        <path
           d="m 155.6933,105.9291 0.0605,-0.0605"
           id="path73184" />
        <path
           d="m 155.7538,105.8686 0.0604,-0.121"
           id="path73186" />
        <path
           d="m 155.8142,105.7476 v -1.0281"
           id="path73188" />
        <path
           d="m 156.3586,105.6267 h 0.6047"
           id="path73190" />
        <path
           d="m 156.2376,105.9895 0.4233,-1.27"
           id="path73192" />
        <path
           d="m 156.6609,104.7195 0.4234,1.27"
           id="path73194" />
        <path
           d="M 158.2333,105.9895 157.81,105.3848"
           id="path73196" />
        <path
           d="m 157.5076,105.9895 v -1.27"
           id="path73198" />
        <path
           d="m 157.5076,104.7195 h 0.4838"
           id="path73200" />
        <path
           d="m 157.9914,104.7195 0.121,0.0605"
           id="path73202" />
        <path
           d="m 158.1124,104.78 0.0605,0.0605"
           id="path73204" />
        <path
           d="m 158.1729,104.8405 0.0604,0.1209"
           id="path73206" />
        <path
           d="m 158.2333,104.9614 v 0.1815"
           id="path73208" />
        <path
           d="m 158.2333,105.1429 -0.0604,0.1209"
           id="path73210" />
        <path
           d="m 158.1729,105.2638 -0.0605,0.0605"
           id="path73212" />
        <path
           d="m 158.1124,105.3243 -0.121,0.0605"
           id="path73214" />
        <path
           d="m 157.9914,105.3848 h -0.4838"
           id="path73216" />
        <path
           d="m 158.5962,104.7195 h 0.7257"
           id="path73218" />
        <path
           d="m 158.9591,105.9895 v -1.27"
           id="path73220" />
      </g>
    </g>
  </g>
  <g
     style="fill:#cb4b16;fill-opacity:0;stroke:#cb4b16;stroke-width:0.1524;stroke-linecap:round;stroke-linejoin:round;stroke-opacity:1"
     id="g73562"
     transform="translate(-102.6795,-74.7395)">
    <g
       id="g73228" />
    <g
       style="fill:#586e75;fill-opacity:0;stroke:#586e75;stroke-width:0.1524;stroke-linecap:round;stroke-linejoin:round;stroke-opacity:1"
       id="g73230" />
    <g
       style="fill:#586e75;fill-opacity:0;stroke:#586e75;stroke-width:0.381;stroke-linecap:round;stroke-linejoin:round;stroke-opacity:1"
       id="g73500">
      <rect
         x="102.87"
         y="74.93"
         width="20.32"
         height="25.4"
         rx="0.000000"
         id="rect73232" />
      <text
         x="113.03"
         y="88.264999"
         textLength="18.790001"
         font-size="1.6933px"
         lengthAdjust="spacingAndGlyphs"
         text-anchor="middle"
         opacity="0"
         id="text73234">MICROCONTROLLER</text>
      <g
         class="stroked-text"
         id="g73496">
        <desc
           id="desc73236">MICROCONTROLLER</desc>
        <path
           d="m 104.3818,88.1976 v -1.27"
           id="path73238" />
        <path
           d="m 104.3818,86.9276 0.4234,0.9072"
           id="path73240" />
        <path
           d="m 104.8052,87.8348 0.4233,-0.9072"
           id="path73242" />
        <path
           d="m 105.2285,86.9276 v 1.27"
           id="path73244" />
        <path
           d="m 105.8332,88.1976 v -1.27"
           id="path73246" />
        <path
           d="m 107.1637,88.0767 -0.0604,0.0605"
           id="path73248" />
        <path
           d="m 107.1033,88.1372 -0.1815,0.0604"
           id="path73250" />
        <path
           d="m 106.9218,88.1976 h -0.1209"
           id="path73252" />
        <path
           d="m 106.8009,88.1976 -0.1814,-0.0604"
           id="path73254" />
        <path
           d="m 106.6195,88.1372 -0.121,-0.121"
           id="path73256" />
        <path
           d="m 106.4985,88.0162 -0.0605,-0.121"
           id="path73258" />
        <path
           d="m 106.438,87.8952 -0.0604,-0.2419"
           id="path73260" />
        <path
           d="M 106.3776,87.6533 V 87.4719"
           id="path73262" />
        <path
           d="M 106.3776,87.4719 106.438,87.23"
           id="path73264" />
        <path
           d="m 106.438,87.23 0.0605,-0.1209"
           id="path73266" />
        <path
           d="m 106.4985,87.1091 0.121,-0.121"
           id="path73268" />
        <path
           d="m 106.6195,86.9881 0.1814,-0.0605"
           id="path73270" />
        <path
           d="m 106.8009,86.9276 h 0.1209"
           id="path73272" />
        <path
           d="m 106.9218,86.9276 0.1815,0.0605"
           id="path73274" />
        <path
           d="m 107.1033,86.9881 0.0604,0.0605"
           id="path73276" />
        <path
           d="m 108.4337,88.1976 -0.4233,-0.6047"
           id="path73278" />
        <path
           d="m 107.708,88.1976 v -1.27"
           id="path73280" />
        <path
           d="m 107.708,86.9276 h 0.4838"
           id="path73282" />
        <path
           d="m 108.1918,86.9276 0.121,0.0605"
           id="path73284" />
        <path
           d="m 108.3128,86.9881 0.0605,0.0605"
           id="path73286" />
        <path
           d="m 108.3733,87.0486 0.0604,0.1209"
           id="path73288" />
        <path
           d="M 108.4337,87.1695 V 87.351"
           id="path73290" />
        <path
           d="m 108.4337,87.351 -0.0604,0.1209"
           id="path73292" />
        <path
           d="m 108.3733,87.4719 -0.0605,0.0605"
           id="path73294" />
        <path
           d="m 108.3128,87.5324 -0.121,0.0605"
           id="path73296" />
        <path
           d="M 108.1918,87.5929 H 107.708"
           id="path73298" />
        <path
           d="m 109.2199,86.9276 h 0.2419"
           id="path73300" />
        <path
           d="m 109.4618,86.9276 0.121,0.0605"
           id="path73302" />
        <path
           d="m 109.5828,86.9881 0.1209,0.121"
           id="path73304" />
        <path
           d="m 109.7037,87.1091 0.0605,0.2419"
           id="path73306" />
        <path
           d="m 109.7642,87.351 v 0.4233"
           id="path73308" />
        <path
           d="m 109.7642,87.7743 -0.0605,0.2419"
           id="path73310" />
        <path
           d="m 109.7037,88.0162 -0.1209,0.121"
           id="path73312" />
        <path
           d="m 109.5828,88.1372 -0.121,0.0604"
           id="path73314" />
        <path
           d="m 109.4618,88.1976 h -0.2419"
           id="path73316" />
        <path
           d="M 109.2199,88.1976 109.099,88.1372"
           id="path73318" />
        <path
           d="m 109.099,88.1372 -0.121,-0.121"
           id="path73320" />
        <path
           d="m 108.978,88.0162 -0.0604,-0.2419"
           id="path73322" />
        <path
           d="M 108.9176,87.7743 V 87.351"
           id="path73324" />
        <path
           d="m 108.9176,87.351 0.0604,-0.2419"
           id="path73326" />
        <path
           d="m 108.978,87.1091 0.121,-0.121"
           id="path73328" />
        <path
           d="m 109.099,86.9881 0.1209,-0.0605"
           id="path73330" />
        <path
           d="m 111.0342,88.0767 -0.0604,0.0605"
           id="path73332" />
        <path
           d="m 110.9738,88.1372 -0.1815,0.0604"
           id="path73334" />
        <path
           d="m 110.7923,88.1976 h -0.1209"
           id="path73336" />
        <path
           d="M 110.6714,88.1976 110.49,88.1372"
           id="path73338" />
        <path
           d="m 110.49,88.1372 -0.121,-0.121"
           id="path73340" />
        <path
           d="m 110.369,88.0162 -0.0605,-0.121"
           id="path73342" />
        <path
           d="m 110.3085,87.8952 -0.0604,-0.2419"
           id="path73344" />
        <path
           d="M 110.2481,87.6533 V 87.4719"
           id="path73346" />
        <path
           d="M 110.2481,87.4719 110.3085,87.23"
           id="path73348" />
        <path
           d="m 110.3085,87.23 0.0605,-0.1209"
           id="path73350" />
        <path
           d="m 110.369,87.1091 0.121,-0.121"
           id="path73352" />
        <path
           d="m 110.49,86.9881 0.1814,-0.0605"
           id="path73354" />
        <path
           d="m 110.6714,86.9276 h 0.1209"
           id="path73356" />
        <path
           d="m 110.7923,86.9276 0.1815,0.0605"
           id="path73358" />
        <path
           d="m 110.9738,86.9881 0.0604,0.0605"
           id="path73360" />
        <path
           d="m 111.8204,86.9276 h 0.2419"
           id="path73362" />
        <path
           d="m 112.0623,86.9276 0.121,0.0605"
           id="path73364" />
        <path
           d="m 112.1833,86.9881 0.1209,0.121"
           id="path73366" />
        <path
           d="m 112.3042,87.1091 0.0605,0.2419"
           id="path73368" />
        <path
           d="m 112.3647,87.351 v 0.4233"
           id="path73370" />
        <path
           d="m 112.3647,87.7743 -0.0605,0.2419"
           id="path73372" />
        <path
           d="m 112.3042,88.0162 -0.1209,0.121"
           id="path73374" />
        <path
           d="m 112.1833,88.1372 -0.121,0.0604"
           id="path73376" />
        <path
           d="m 112.0623,88.1976 h -0.2419"
           id="path73378" />
        <path
           d="m 111.8204,88.1976 -0.1209,-0.0604"
           id="path73380" />
        <path
           d="m 111.6995,88.1372 -0.121,-0.121"
           id="path73382" />
        <path
           d="m 111.5785,88.0162 -0.0604,-0.2419"
           id="path73384" />
        <path
           d="M 111.5181,87.7743 V 87.351"
           id="path73386" />
        <path
           d="m 111.5181,87.351 0.0604,-0.2419"
           id="path73388" />
        <path
           d="m 111.5785,87.1091 0.121,-0.121"
           id="path73390" />
        <path
           d="m 111.6995,86.9881 0.1209,-0.0605"
           id="path73392" />
        <path
           d="m 112.909,88.1976 v -1.27"
           id="path73394" />
        <path
           d="m 112.909,86.9276 0.7257,1.27"
           id="path73396" />
        <path
           d="m 113.6347,88.1976 v -1.27"
           id="path73398" />
        <path
           d="m 114.0581,86.9276 h 0.7257"
           id="path73400" />
        <path
           d="m 114.421,88.1976 v -1.27"
           id="path73402" />
        <path
           d="m 115.9328,88.1976 -0.4233,-0.6047"
           id="path73404" />
        <path
           d="m 115.2071,88.1976 v -1.27"
           id="path73406" />
        <path
           d="m 115.2071,86.9276 h 0.4838"
           id="path73408" />
        <path
           d="m 115.6909,86.9276 0.121,0.0605"
           id="path73410" />
        <path
           d="m 115.8119,86.9881 0.0605,0.0605"
           id="path73412" />
        <path
           d="m 115.8724,87.0486 0.0604,0.1209"
           id="path73414" />
        <path
           d="M 115.9328,87.1695 V 87.351"
           id="path73416" />
        <path
           d="m 115.9328,87.351 -0.0604,0.1209"
           id="path73418" />
        <path
           d="m 115.8724,87.4719 -0.0605,0.0605"
           id="path73420" />
        <path
           d="m 115.8119,87.5324 -0.121,0.0605"
           id="path73422" />
        <path
           d="m 115.6909,87.5929 h -0.4838"
           id="path73424" />
        <path
           d="m 116.719,86.9276 h 0.2419"
           id="path73426" />
        <path
           d="m 116.9609,86.9276 0.121,0.0605"
           id="path73428" />
        <path
           d="m 117.0819,86.9881 0.1209,0.121"
           id="path73430" />
        <path
           d="m 117.2028,87.1091 0.0605,0.2419"
           id="path73432" />
        <path
           d="m 117.2633,87.351 v 0.4233"
           id="path73434" />
        <path
           d="m 117.2633,87.7743 -0.0605,0.2419"
           id="path73436" />
        <path
           d="m 117.2028,88.0162 -0.1209,0.121"
           id="path73438" />
        <path
           d="m 117.0819,88.1372 -0.121,0.0604"
           id="path73440" />
        <path
           d="M 116.9609,88.1976 H 116.719"
           id="path73442" />
        <path
           d="m 116.719,88.1976 -0.1209,-0.0604"
           id="path73444" />
        <path
           d="m 116.5981,88.1372 -0.121,-0.121"
           id="path73446" />
        <path
           d="m 116.4771,88.0162 -0.0604,-0.2419"
           id="path73448" />
        <path
           d="M 116.4167,87.7743 V 87.351"
           id="path73450" />
        <path
           d="m 116.4167,87.351 0.0604,-0.2419"
           id="path73452" />
        <path
           d="m 116.4771,87.1091 0.121,-0.121"
           id="path73454" />
        <path
           d="m 116.5981,86.9881 0.1209,-0.0605"
           id="path73456" />
        <path
           d="m 118.4124,88.1976 h -0.6048"
           id="path73458" />
        <path
           d="m 117.8076,88.1976 v -1.27"
           id="path73460" />
        <path
           d="m 119.4405,88.1976 h -0.6048"
           id="path73462" />
        <path
           d="m 118.8357,88.1976 v -1.27"
           id="path73464" />
        <path
           d="m 119.8638,87.5324 h 0.4234"
           id="path73466" />
        <path
           d="m 120.4686,88.1976 h -0.6048"
           id="path73468" />
        <path
           d="m 119.8638,88.1976 v -1.27"
           id="path73470" />
        <path
           d="m 119.8638,86.9276 h 0.6048"
           id="path73472" />
        <path
           d="m 121.7385,88.1976 -0.4233,-0.6047"
           id="path73474" />
        <path
           d="m 121.0128,88.1976 v -1.27"
           id="path73476" />
        <path
           d="m 121.0128,86.9276 h 0.4838"
           id="path73478" />
        <path
           d="m 121.4966,86.9276 0.121,0.0605"
           id="path73480" />
        <path
           d="m 121.6176,86.9881 0.0605,0.0605"
           id="path73482" />
        <path
           d="m 121.6781,87.0486 0.0604,0.1209"
           id="path73484" />
        <path
           d="M 121.7385,87.1695 V 87.351"
           id="path73486" />
        <path
           d="m 121.7385,87.351 -0.0604,0.1209"
           id="path73488" />
        <path
           d="m 121.6781,87.4719 -0.0605,0.0605"
           id="path73490" />
        <path
           d="m 121.6176,87.5324 -0.121,0.0605"
           id="path73492" />
        <path
           d="m 121.4966,87.5929 h -0.4838"
           id="path73494" />
      </g>
      <path
         d="m 123.19,80.01 h 2.54"
         id="path73498" />
    </g>
    <g
       style="fill:#cb4b16;fill-opacity:0;stroke:#cb4b16;stroke-width:0.381;stroke-linecap:round;stroke-linejoin:round;stroke-opacity:1"
       id="g73502" />
    <g
       style="fill:#cb4b16;fill-opacity:0;stroke:#cb4b16;stroke-width:0.1524;stroke-linecap:round;stroke-linejoin:round;stroke-opacity:1"
       id="g73536">
      <text
         x="122.174"
         y="80.644997"
         textLength="2.6826999"
         font-size="1.6933px"
         lengthAdjust="spacingAndGlyphs"
         text-anchor="end"
         opacity="0"
         id="text73504">RX</text>
      <g
         class="stroked-text"
         id="g73534">
        <desc
           id="desc73506">RX</desc>
        <path
           d="M 120.6223,80.5895 120.199,79.9848"
           id="path73508" />
        <path
           d="m 119.8966,80.5895 v -1.27"
           id="path73510" />
        <path
           d="m 119.8966,79.3195 h 0.4838"
           id="path73512" />
        <path
           d="m 120.3804,79.3195 0.121,0.0605"
           id="path73514" />
        <path
           d="m 120.5014,79.38 0.0605,0.0605"
           id="path73516" />
        <path
           d="m 120.5619,79.4405 0.0604,0.1209"
           id="path73518" />
        <path
           d="m 120.6223,79.5614 v 0.1815"
           id="path73520" />
        <path
           d="m 120.6223,79.7429 -0.0604,0.1209"
           id="path73522" />
        <path
           d="m 120.5619,79.8638 -0.0605,0.0605"
           id="path73524" />
        <path
           d="m 120.5014,79.9243 -0.121,0.0605"
           id="path73526" />
        <path
           d="m 120.3804,79.9848 h -0.4838"
           id="path73528" />
        <path
           d="m 121.0457,79.3195 0.8466,1.27"
           id="path73530" />
        <path
           d="m 121.8923,79.3195 -0.8466,1.27"
           id="path73532" />
      </g>
    </g>
    <g
       style="fill:#586e75;fill-opacity:0;stroke:#586e75;stroke-width:0.1524;stroke-linecap:round;stroke-linejoin:round;stroke-opacity:1"
       id="g73538" />
    <g
       style="fill:#586e75;fill-opacity:0;stroke:#586e75;stroke-width:0.381;stroke-linecap:round;stroke-linejoin:round;stroke-opacity:1"
       id="g73542">
      <path
         d="m 123.19,77.47 h 2.54"
         id="path73540" />
    </g>
    <g
       style="fill:#cb4b16;fill-opacity:0;stroke:#cb4b16;stroke-width:0.381;stroke-linecap:round;stroke-linejoin:round;stroke-opacity:1"
       id="g73544" />
    <g
       style="fill:#cb4b16;fill-opacity:0;stroke:#cb4b16;stroke-width:0.1524;stroke-linecap:round;stroke-linejoin:round;stroke-opacity:1"
       id="g73560">
      <text
         x="122.174"
         y="78.105003"
         textLength="2.3803"
         font-size="1.6933px"
         lengthAdjust="spacingAndGlyphs"
         text-anchor="end"
         opacity="0"
         id="text73546">TX</text>
      <g
         class="stroked-text"
         id="g73558">
        <desc
           id="desc73548">TX</desc>
        <path
           d="m 120.0176,76.7795 h 0.7257"
           id="path73550" />
        <path
           d="m 120.3805,78.0495 v -1.27"
           id="path73552" />
        <path
           d="m 121.0457,76.7795 0.8466,1.27"
           id="path73554" />
        <path
           d="m 121.8923,76.7795 -0.8466,1.27"
           id="path73556" />
      </g>
    </g>
  </g>
  <g
     style="fill:#cb4b16;fill-opacity:0;stroke:#cb4b16;stroke-width:0.1524;stroke-linecap:round;stroke-linejoin:round;stroke-opacity:1"
     id="g73564"
     transform="translate(-102.6795,-74.7395)" />
  <g
     style="fill:#859900;fill-opacity:0;stroke:#859900;stroke-width:0.1524;stroke-linecap:round;stroke-linejoin:round;stroke-opacity:1"
     id="g73566"
     transform="translate(-102.6795,-74.7395)" />
  <g
     style="fill:#859900;fill-opacity:0;stroke:#859900;stroke-width:0.381;stroke-linecap:round;stroke-linejoin:round;stroke-opacity:1"
     id="g73570"
     transform="translate(-102.6795,-74.7395)">
    <path
       d="m 148.59,77.47 h 2.54"
       id="path73568" />
  </g>
  <g
     style="fill:#859900;fill-opacity:0;stroke:#859900;stroke-width:0.1524;stroke-linecap:round;stroke-linejoin:round;stroke-opacity:1"
     id="g73572"
     transform="translate(-102.6795,-74.7395)" />
  <g
     style="fill:#859900;fill-opacity:0;stroke:#859900;stroke-width:0.381;stroke-linecap:round;stroke-linejoin:round;stroke-opacity:1"
     id="g73576"
     transform="translate(-102.6795,-74.7395)">
    <path
       d="m 148.59,77.47 v 27.94"
       id="path73574" />
  </g>
  <g
     style="fill:#859900;fill-opacity:0;stroke:#859900;stroke-width:0.1524;stroke-linecap:round;stroke-linejoin:round;stroke-opacity:1"
     id="g73578"
     transform="translate(-102.6795,-74.7395)" />
  <g
     style="fill:#859900;fill-opacity:0;stroke:#859900;stroke-width:0.381;stroke-linecap:round;stroke-linejoin:round;stroke-opacity:1"
     id="g73582"
     transform="translate(-102.6795,-74.7395)">
    <path
       d="m 148.59,105.41 h 2.54"
       id="path73580" />
  </g>
  <g
     style="fill:#859900;fill-opacity:0;stroke:#859900;stroke-width:0.1524;stroke-linecap:round;stroke-linejoin:round;stroke-opacity:1"
     id="g73584"
     transform="translate(-102.6795,-74.7395)" />
  <g
     style="fill:#859900;fill-opacity:0;stroke:#859900;stroke-width:0.381;stroke-linecap:round;stroke-linejoin:round;stroke-opacity:1"
     id="g73588"
     transform="translate(-102.6795,-74.7395)">
    <path
       d="m 125.73,77.47 h 22.86"
       id="path73586" />
  </g>
  <g
     style="fill:#859900;fill-opacity:0;stroke:#859900;stroke-width:0.1524;stroke-linecap:round;stroke-linejoin:round;stroke-opacity:1"
     id="g73590"
     transform="translate(-102.6795,-74.7395)" />
  <g
     style="fill:#6c71c4;fill-opacity:0;stroke:#6c71c4;stroke-width:0.1524;stroke-linecap:round;stroke-linejoin:round;stroke-opacity:1"
     id="g73596"
     transform="translate(-102.6795,-74.7395)">
    <path
       d="m 125.1204,79.4004 1.2192,1.2192"
       id="path73592" />
    <path
       d="m 126.3396,79.4004 -1.2192,1.2192"
       id="path73594" />
  </g>
  <g
     style="fill:#859900;fill-opacity:0;stroke:#859900;stroke-width:0.1524;stroke-linecap:round;stroke-linejoin:round;stroke-opacity:1"
     id="g73598"
     transform="translate(-102.6795,-74.7395)" />
  <g
     style="fill:#859900;fill-opacity:1;stroke:#859900;stroke-width:0.1524;stroke-linecap:round;stroke-linejoin:round;stroke-opacity:1"
     id="g73602"
     transform="translate(-102.6795,-74.7395)">
    <circle
       cx="148.59"
       cy="77.470001"
       r="0.45719999"
       id="circle73600" />
  </g>
</svg>
