<?xml version="1.0" encoding="UTF-8" standalone="no"?>
<svg
   xmlns:dc="http://purl.org/dc/elements/1.1/"
   xmlns:cc="http://creativecommons.org/ns#"
   xmlns:rdf="http://www.w3.org/1999/02/22-rdf-syntax-ns#"
   xmlns:svg="http://www.w3.org/2000/svg"
   xmlns="http://www.w3.org/2000/svg"
   version="1.1"
   width="71.500999mm"
   height="57.530998mm"
   viewBox="0 0 71.501 57.530998"
   id="svg73158">
  <metadata
     id="metadata73164">
    <rdf:RDF>
      <cc:Work
         rdf:about="">
        <dc:format>image/svg+xml</dc:format>
        <dc:type
           rdf:resource="http://purl.org/dc/dcmitype/StillImage" />
      </cc:Work>
    </rdf:RDF>
  </metadata>
  <defs
     id="defs73162" />
  <title
     id="title72484">SVG Image created as trinamic_wiring-TMC2209-unidirectional.svg date 2023/08/01 16:42:02 </title>
  <desc
     id="desc72486">Image generated by Eeschema-SVG </desc>
  <g
     style="fill:#000000;fill-opacity:1;stroke:#000000;stroke-linecap:round;stroke-linejoin:round;stroke-opacity:1"
     id="g72488"
     transform="translate(-77.279501,-51.8795)" />
  <g
     style="fill:#000000;fill-opacity:0;stroke:#000000;stroke-width:0.1524;stroke-linecap:round;stroke-linejoin:round;stroke-opacity:1"
     id="g72836"
     transform="translate(-77.279501,-51.8795)">
    <g
       id="g72490" />
    <g
       style="fill:#840000;fill-opacity:0;stroke:#840000;stroke-width:0.1524;stroke-linecap:round;stroke-linejoin:round;stroke-opacity:1"
       id="g72492" />
    <g
       style="fill:#840000;fill-opacity:0;stroke:#840000;stroke-width:0.381;stroke-linecap:round;stroke-linejoin:round;stroke-opacity:1"
       id="g72498">
      <rect
         x="77.470001"
         y="83.82"
         width="20.32"
         height="25.4"
         rx="0.000000"
         id="rect72494" />
      <path
         d="m 97.79,106.68 h 2.54"
         id="path72496" />
    </g>
    <g
       style="fill:#006464;fill-opacity:0;stroke:#006464;stroke-width:0.381;stroke-linecap:round;stroke-linejoin:round;stroke-opacity:1"
       id="g72500" />
    <g
       style="fill:#006464;fill-opacity:0;stroke:#006464;stroke-width:0.1524;stroke-linecap:round;stroke-linejoin:round;stroke-opacity:1"
       id="g72534">
      <text
         x="96.774002"
         y="107.315"
         textLength="2.6826999"
         font-size="1.6933px"
         lengthAdjust="spacingAndGlyphs"
         text-anchor="end"
         opacity="0"
         id="text72502">RX</text>
      <g
         class="stroked-text"
         id="g72532">
        <desc
           id="desc72504">RX</desc>
        <path
           d="M 95.2223,107.2595 94.799,106.6548"
           id="path72506" />
        <path
           d="m 94.4966,107.2595 v -1.27"
           id="path72508" />
        <path
           d="m 94.4966,105.9895 h 0.4838"
           id="path72510" />
        <path
           d="m 94.9804,105.9895 0.121,0.0605"
           id="path72512" />
        <path
           d="m 95.1014,106.05 0.0605,0.0605"
           id="path72514" />
        <path
           d="m 95.1619,106.1105 0.0604,0.1209"
           id="path72516" />
        <path
           d="m 95.2223,106.2314 v 0.1815"
           id="path72518" />
        <path
           d="m 95.2223,106.4129 -0.0604,0.1209"
           id="path72520" />
        <path
           d="m 95.1619,106.5338 -0.0605,0.0605"
           id="path72522" />
        <path
           d="m 95.1014,106.5943 -0.121,0.0605"
           id="path72524" />
        <path
           d="M 94.9804,106.6548 H 94.4966"
           id="path72526" />
        <path
           d="m 95.6457,105.9895 0.8466,1.27"
           id="path72528" />
        <path
           d="m 96.4923,105.9895 -0.8466,1.27"
           id="path72530" />
      </g>
    </g>
    <g
       style="fill:#840000;fill-opacity:0;stroke:#840000;stroke-width:0.1524;stroke-linecap:round;stroke-linejoin:round;stroke-opacity:1"
       id="g72536" />
    <g
       style="fill:#840000;fill-opacity:0;stroke:#840000;stroke-width:0.381;stroke-linecap:round;stroke-linejoin:round;stroke-opacity:1"
       id="g72540">
      <path
         d="m 97.79,87.63 h 2.54"
         id="path72538" />
    </g>
    <g
       style="fill:#006464;fill-opacity:0;stroke:#006464;stroke-width:0.381;stroke-linecap:round;stroke-linejoin:round;stroke-opacity:1"
       id="g72542" />
    <g
       style="fill:#006464;fill-opacity:0;stroke:#006464;stroke-width:0.1524;stroke-linecap:round;stroke-linejoin:round;stroke-opacity:1"
       id="g72558">
      <text
         x="96.774002"
         y="88.264999"
         textLength="2.3803"
         font-size="1.6933px"
         lengthAdjust="spacingAndGlyphs"
         text-anchor="end"
         opacity="0"
         id="text72544">TX</text>
      <g
         class="stroked-text"
         id="g72556">
        <desc
           id="desc72546">TX</desc>
        <path
           d="m 94.6176,86.9395 h 0.7257"
           id="path72548" />
        <path
           d="m 94.9805,88.2095 v -1.27"
           id="path72550" />
        <path
           d="m 95.6457,86.9395 0.8466,1.27"
           id="path72552" />
        <path
           d="m 96.4923,86.9395 -0.8466,1.27"
           id="path72554" />
      </g>
    </g>
    <g
       style="fill:#006464;fill-opacity:0;stroke:#006464;stroke-width:0.381;stroke-linecap:round;stroke-linejoin:round;stroke-opacity:1"
       id="g72834">
      <text
         x="87.629997"
         y="97.281998"
         textLength="18.3281"
         font-size="2.032px"
         lengthAdjust="spacingAndGlyphs"
         text-anchor="middle"
         opacity="0"
         id="text72560">microcontroller</text>
      <g
         class="stroked-text"
         id="g72832">
        <desc
           id="desc72562">microcontroller</desc>
        <path
           d="m 79.2479,97.2051 v -1.016"
           id="path72564" />
        <path
           d="m 79.2479,96.3343 0.0726,-0.0726"
           id="path72566" />
        <path
           d="m 79.3205,96.2617 0.1451,-0.0726"
           id="path72568" />
        <path
           d="m 79.4656,96.1891 h 0.2177"
           id="path72570" />
        <path
           d="m 79.6833,96.1891 0.1452,0.0726"
           id="path72572" />
        <path
           d="m 79.8285,96.2617 0.0726,0.1451"
           id="path72574" />
        <path
           d="m 79.9011,96.4068 v 0.7983"
           id="path72576" />
        <path
           d="m 79.9011,96.4068 0.0725,-0.1451"
           id="path72578" />
        <path
           d="m 79.9736,96.2617 0.1452,-0.0726"
           id="path72580" />
        <path
           d="m 80.1188,96.1891 h 0.2177"
           id="path72582" />
        <path
           d="m 80.3365,96.1891 0.1451,0.0726"
           id="path72584" />
        <path
           d="m 80.4816,96.2617 0.0726,0.1451"
           id="path72586" />
        <path
           d="m 80.5542,96.4068 v 0.7983"
           id="path72588" />
        <path
           d="m 81.2799,97.2051 v -1.016"
           id="path72590" />
        <path
           d="m 81.2799,95.6811 -0.0726,0.0726"
           id="path72592" />
        <path
           d="m 81.2073,95.7537 0.0726,0.0726"
           id="path72594" />
        <path
           d="m 81.2799,95.8263 0.0726,-0.0726"
           id="path72596" />
        <path
           d="M 81.3525,95.7537 81.2799,95.6811"
           id="path72598" />
        <path
           d="m 81.2799,95.6811 v 0.1452"
           id="path72600" />
        <path
           d="m 82.6588,97.1326 -0.1452,0.0725"
           id="path72602" />
        <path
           d="M 82.5136,97.2051 H 82.2233"
           id="path72604" />
        <path
           d="M 82.2233,97.2051 82.0782,97.1326"
           id="path72606" />
        <path
           d="M 82.0782,97.1326 82.0056,97.06"
           id="path72608" />
        <path
           d="M 82.0056,97.06 81.933,96.9148"
           id="path72610" />
        <path
           d="M 81.933,96.9148 V 96.4794"
           id="path72612" />
        <path
           d="m 81.933,96.4794 0.0726,-0.1451"
           id="path72614" />
        <path
           d="m 82.0056,96.3343 0.0726,-0.0726"
           id="path72616" />
        <path
           d="m 82.0782,96.2617 0.1451,-0.0726"
           id="path72618" />
        <path
           d="m 82.2233,96.1891 h 0.2903"
           id="path72620" />
        <path
           d="m 82.5136,96.1891 0.1452,0.0726"
           id="path72622" />
        <path
           d="m 83.3119,97.2051 v -1.016"
           id="path72624" />
        <path
           d="m 83.3119,96.4794 0.0726,-0.1451"
           id="path72626" />
        <path
           d="m 83.3845,96.3343 0.0726,-0.0726"
           id="path72628" />
        <path
           d="m 83.4571,96.2617 0.1451,-0.0726"
           id="path72630" />
        <path
           d="m 83.6022,96.1891 h 0.1451"
           id="path72632" />
        <path
           d="M 84.473,97.2051 84.3279,97.1326"
           id="path72634" />
        <path
           d="M 84.3279,97.1326 84.2553,97.06"
           id="path72636" />
        <path
           d="M 84.2553,97.06 84.1827,96.9148"
           id="path72638" />
        <path
           d="M 84.1827,96.9148 V 96.4794"
           id="path72640" />
        <path
           d="m 84.1827,96.4794 0.0726,-0.1451"
           id="path72642" />
        <path
           d="m 84.2553,96.3343 0.0726,-0.0726"
           id="path72644" />
        <path
           d="M 84.3279,96.2617 84.473,96.1891"
           id="path72646" />
        <path
           d="m 84.473,96.1891 h 0.2177"
           id="path72648" />
        <path
           d="m 84.6907,96.1891 0.1452,0.0726"
           id="path72650" />
        <path
           d="m 84.8359,96.2617 0.0726,0.0726"
           id="path72652" />
        <path
           d="m 84.9085,96.3343 0.0725,0.1451"
           id="path72654" />
        <path
           d="m 84.981,96.4794 v 0.4354"
           id="path72656" />
        <path
           d="M 84.981,96.9148 84.9085,97.06"
           id="path72658" />
        <path
           d="m 84.9085,97.06 -0.0726,0.0726"
           id="path72660" />
        <path
           d="m 84.8359,97.1326 -0.1452,0.0725"
           id="path72662" />
        <path
           d="M 84.6907,97.2051 H 84.473"
           id="path72664" />
        <path
           d="m 86.2874,97.1326 -0.1452,0.0725"
           id="path72666" />
        <path
           d="M 86.1422,97.2051 H 85.8519"
           id="path72668" />
        <path
           d="M 85.8519,97.2051 85.7068,97.1326"
           id="path72670" />
        <path
           d="M 85.7068,97.1326 85.6342,97.06"
           id="path72672" />
        <path
           d="M 85.6342,97.06 85.5616,96.9148"
           id="path72674" />
        <path
           d="M 85.5616,96.9148 V 96.4794"
           id="path72676" />
        <path
           d="m 85.5616,96.4794 0.0726,-0.1451"
           id="path72678" />
        <path
           d="m 85.6342,96.3343 0.0726,-0.0726"
           id="path72680" />
        <path
           d="m 85.7068,96.2617 0.1451,-0.0726"
           id="path72682" />
        <path
           d="m 85.8519,96.1891 h 0.2903"
           id="path72684" />
        <path
           d="m 86.1422,96.1891 0.1452,0.0726"
           id="path72686" />
        <path
           d="M 87.1582,97.2051 87.0131,97.1326"
           id="path72688" />
        <path
           d="M 87.0131,97.1326 86.9405,97.06"
           id="path72690" />
        <path
           d="M 86.9405,97.06 86.8679,96.9148"
           id="path72692" />
        <path
           d="M 86.8679,96.9148 V 96.4794"
           id="path72694" />
        <path
           d="m 86.8679,96.4794 0.0726,-0.1451"
           id="path72696" />
        <path
           d="m 86.9405,96.3343 0.0726,-0.0726"
           id="path72698" />
        <path
           d="m 87.0131,96.2617 0.1451,-0.0726"
           id="path72700" />
        <path
           d="m 87.1582,96.1891 h 0.2177"
           id="path72702" />
        <path
           d="m 87.3759,96.1891 0.1452,0.0726"
           id="path72704" />
        <path
           d="m 87.5211,96.2617 0.0726,0.0726"
           id="path72706" />
        <path
           d="m 87.5937,96.3343 0.0725,0.1451"
           id="path72708" />
        <path
           d="m 87.6662,96.4794 v 0.4354"
           id="path72710" />
        <path
           d="M 87.6662,96.9148 87.5937,97.06"
           id="path72712" />
        <path
           d="m 87.5937,97.06 -0.0726,0.0726"
           id="path72714" />
        <path
           d="m 87.5211,97.1326 -0.1452,0.0725"
           id="path72716" />
        <path
           d="M 87.3759,97.2051 H 87.1582"
           id="path72718" />
        <path
           d="m 88.3194,96.1891 v 1.016"
           id="path72720" />
        <path
           d="M 88.3194,96.3343 88.392,96.2617"
           id="path72722" />
        <path
           d="m 88.392,96.2617 0.1451,-0.0726"
           id="path72724" />
        <path
           d="m 88.5371,96.1891 h 0.2177"
           id="path72726" />
        <path
           d="M 88.7548,96.1891 88.9,96.2617"
           id="path72728" />
        <path
           d="m 88.9,96.2617 0.0726,0.1451"
           id="path72730" />
        <path
           d="m 88.9726,96.4068 v 0.7983"
           id="path72732" />
        <path
           d="m 89.4806,96.1891 h 0.5806"
           id="path72734" />
        <path
           d="m 89.6983,95.6811 v 1.3063"
           id="path72736" />
        <path
           d="m 89.6983,96.9874 0.0726,0.1452"
           id="path72738" />
        <path
           d="m 89.7709,97.1326 0.1451,0.0725"
           id="path72740" />
        <path
           d="m 89.916,97.2051 h 0.1452"
           id="path72742" />
        <path
           d="m 90.5692,97.2051 v -1.016"
           id="path72744" />
        <path
           d="m 90.5692,96.4794 0.0726,-0.1451"
           id="path72746" />
        <path
           d="m 90.6418,96.3343 0.0726,-0.0726"
           id="path72748" />
        <path
           d="m 90.7144,96.2617 0.1451,-0.0726"
           id="path72750" />
        <path
           d="m 90.8595,96.1891 h 0.1451"
           id="path72752" />
        <path
           d="M 91.7303,97.2051 91.5852,97.1326"
           id="path72754" />
        <path
           d="M 91.5852,97.1326 91.5126,97.06"
           id="path72756" />
        <path
           d="M 91.5126,97.06 91.44,96.9148"
           id="path72758" />
        <path
           d="M 91.44,96.9148 V 96.4794"
           id="path72760" />
        <path
           d="m 91.44,96.4794 0.0726,-0.1451"
           id="path72762" />
        <path
           d="m 91.5126,96.3343 0.0726,-0.0726"
           id="path72764" />
        <path
           d="m 91.5852,96.2617 0.1451,-0.0726"
           id="path72766" />
        <path
           d="M 91.7303,96.1891 H 91.948"
           id="path72768" />
        <path
           d="m 91.948,96.1891 0.1452,0.0726"
           id="path72770" />
        <path
           d="m 92.0932,96.2617 0.0726,0.0726"
           id="path72772" />
        <path
           d="m 92.1658,96.3343 0.0725,0.1451"
           id="path72774" />
        <path
           d="m 92.2383,96.4794 v 0.4354"
           id="path72776" />
        <path
           d="M 92.2383,96.9148 92.1658,97.06"
           id="path72778" />
        <path
           d="m 92.1658,97.06 -0.0726,0.0726"
           id="path72780" />
        <path
           d="M 92.0932,97.1326 91.948,97.2051"
           id="path72782" />
        <path
           d="M 91.948,97.2051 H 91.7303"
           id="path72784" />
        <path
           d="M 93.1092,97.2051 92.9641,97.1326"
           id="path72786" />
        <path
           d="M 92.9641,97.1326 92.8915,96.9874"
           id="path72788" />
        <path
           d="M 92.8915,96.9874 V 95.6811"
           id="path72790" />
        <path
           d="M 93.9075,97.2051 93.7624,97.1326"
           id="path72792" />
        <path
           d="M 93.7624,97.1326 93.6898,96.9874"
           id="path72794" />
        <path
           d="M 93.6898,96.9874 V 95.6811"
           id="path72796" />
        <path
           d="m 95.0687,97.1326 -0.1452,0.0725"
           id="path72798" />
        <path
           d="M 94.9235,97.2051 H 94.6333"
           id="path72800" />
        <path
           d="M 94.6333,97.2051 94.4881,97.1326"
           id="path72802" />
        <path
           d="M 94.4881,97.1326 94.4155,96.9874"
           id="path72804" />
        <path
           d="M 94.4155,96.9874 V 96.4068"
           id="path72806" />
        <path
           d="m 94.4155,96.4068 0.0726,-0.1451"
           id="path72808" />
        <path
           d="m 94.4881,96.2617 0.1452,-0.0726"
           id="path72810" />
        <path
           d="m 94.6333,96.1891 h 0.2902"
           id="path72812" />
        <path
           d="m 94.9235,96.1891 0.1452,0.0726"
           id="path72814" />
        <path
           d="m 95.0687,96.2617 0.0726,0.1451"
           id="path72816" />
        <path
           d="M 95.1413,96.4068 V 96.552"
           id="path72818" />
        <path
           d="m 95.1413,96.552 -0.7258,0.1451"
           id="path72820" />
        <path
           d="m 95.7944,97.2051 v -1.016"
           id="path72822" />
        <path
           d="M 95.7944,96.4794 95.867,96.3343"
           id="path72824" />
        <path
           d="m 95.867,96.3343 0.0726,-0.0726"
           id="path72826" />
        <path
           d="m 95.9396,96.2617 0.1451,-0.0726"
           id="path72828" />
        <path
           d="m 96.0847,96.1891 h 0.1451"
           id="path72830" />
      </g>
    </g>
  </g>
  <g
     style="fill:#006464;fill-opacity:0;stroke:#006464;stroke-width:0.1524;stroke-linecap:round;stroke-linejoin:round;stroke-opacity:1"
     id="g73134"
     transform="translate(-77.279501,-51.8795)">
    <g
       id="g72838" />
    <g
       style="fill:#840000;fill-opacity:0;stroke:#840000;stroke-width:0.1524;stroke-linecap:round;stroke-linejoin:round;stroke-opacity:1"
       id="g72840" />
    <g
       style="fill:#840000;fill-opacity:0;stroke:#840000;stroke-width:0.381;stroke-linecap:round;stroke-linejoin:round;stroke-opacity:1"
       id="g72846">
      <rect
         x="128.27"
         y="52.07"
         width="20.32"
         height="25.4"
         rx="0.000000"
         id="rect72842" />
      <path
         d="m 138.43,77.47 v 2.54"
         id="path72844" />
    </g>
    <g
       style="fill:#006464;fill-opacity:0;stroke:#006464;stroke-width:0.381;stroke-linecap:round;stroke-linejoin:round;stroke-opacity:1"
       id="g72848" />
    <g
       style="fill:#006464;fill-opacity:0;stroke:#006464;stroke-width:0.1524;stroke-linecap:round;stroke-linejoin:round;stroke-opacity:1"
       id="g72960">
      <g
         transform="rotate(-90,138.43,76.454)"
         id="g72852">
        <text
           x="138.42999"
           y="77.088997"
           textLength="9.698"
           font-size="1.6933px"
           lengthAdjust="spacingAndGlyphs"
           text-anchor="start"
           opacity="0"
           id="text72850">PDN_UART</text>
      </g>
      <g
         class="stroked-text"
         id="g72958">
        <desc
           id="desc72854">PDN_UART</desc>
        <path
           d="m 139.0095,76.0514 h -1.27"
           id="path72856" />
        <path
           d="M 137.7395,76.0514 V 75.5676"
           id="path72858" />
        <path
           d="M 137.7395,75.5676 137.8,75.4466"
           id="path72860" />
        <path
           d="m 137.8,75.4466 0.0605,-0.0605"
           id="path72862" />
        <path
           d="m 137.8605,75.3861 0.1209,-0.0604"
           id="path72864" />
        <path
           d="m 137.9814,75.3257 h 0.1815"
           id="path72866" />
        <path
           d="m 138.1629,75.3257 0.1209,0.0604"
           id="path72868" />
        <path
           d="m 138.2838,75.3861 0.0605,0.0605"
           id="path72870" />
        <path
           d="m 138.3443,75.4466 0.0605,0.121"
           id="path72872" />
        <path
           d="m 138.4048,75.5676 v 0.4838"
           id="path72874" />
        <path
           d="m 139.0095,74.7814 h -1.27"
           id="path72876" />
        <path
           d="M 137.7395,74.7814 V 74.479"
           id="path72878" />
        <path
           d="M 137.7395,74.479 137.8,74.2976"
           id="path72880" />
        <path
           d="m 137.8,74.2976 0.121,-0.121"
           id="path72882" />
        <path
           d="m 137.921,74.1766 0.1209,-0.0605"
           id="path72884" />
        <path
           d="m 138.0419,74.1161 0.2419,-0.0604"
           id="path72886" />
        <path
           d="m 138.2838,74.0557 h 0.1814"
           id="path72888" />
        <path
           d="m 138.4652,74.0557 0.2419,0.0604"
           id="path72890" />
        <path
           d="m 138.7071,74.1161 0.121,0.0605"
           id="path72892" />
        <path
           d="m 138.8281,74.1766 0.121,0.121"
           id="path72894" />
        <path
           d="m 138.9491,74.2976 0.0604,0.1814"
           id="path72896" />
        <path
           d="m 139.0095,74.479 v 0.3024"
           id="path72898" />
        <path
           d="m 139.0095,73.5114 h -1.27"
           id="path72900" />
        <path
           d="m 137.7395,73.5114 1.27,-0.7257"
           id="path72902" />
        <path
           d="m 139.0095,72.7857 h -1.27"
           id="path72904" />
        <path
           d="M 139.1305,72.4833 V 71.5156"
           id="path72906" />
        <path
           d="m 137.7395,71.2133 h 1.0281"
           id="path72908" />
        <path
           d="m 138.7676,71.2133 0.121,-0.0605"
           id="path72910" />
        <path
           d="m 138.8886,71.1528 0.0605,-0.0605"
           id="path72912" />
        <path
           d="m 138.9491,71.0923 0.0604,-0.1209"
           id="path72914" />
        <path
           d="M 139.0095,70.9714 V 70.7295"
           id="path72916" />
        <path
           d="m 139.0095,70.7295 -0.0604,-0.121"
           id="path72918" />
        <path
           d="M 138.9491,70.6085 138.8886,70.548"
           id="path72920" />
        <path
           d="m 138.8886,70.548 -0.121,-0.0604"
           id="path72922" />
        <path
           d="m 138.7676,70.4876 h -1.0281"
           id="path72924" />
        <path
           d="M 138.6467,69.9432 V 69.3385"
           id="path72926" />
        <path
           d="m 139.0095,70.0642 -1.27,-0.4233"
           id="path72928" />
        <path
           d="m 137.7395,69.6409 1.27,-0.4234"
           id="path72930" />
        <path
           d="m 139.0095,68.0685 -0.6047,0.4233"
           id="path72932" />
        <path
           d="m 139.0095,68.7942 h -1.27"
           id="path72934" />
        <path
           d="M 137.7395,68.7942 V 68.3104"
           id="path72936" />
        <path
           d="M 137.7395,68.3104 137.8,68.1894"
           id="path72938" />
        <path
           d="m 137.8,68.1894 0.0605,-0.0605"
           id="path72940" />
        <path
           d="m 137.8605,68.1289 0.1209,-0.0604"
           id="path72942" />
        <path
           d="m 137.9814,68.0685 h 0.1815"
           id="path72944" />
        <path
           d="m 138.1629,68.0685 0.1209,0.0604"
           id="path72946" />
        <path
           d="m 138.2838,68.1289 0.0605,0.0605"
           id="path72948" />
        <path
           d="m 138.3443,68.1894 0.0605,0.121"
           id="path72950" />
        <path
           d="m 138.4048,68.3104 v 0.4838"
           id="path72952" />
        <path
           d="M 137.7395,67.7056 V 66.9799"
           id="path72954" />
        <path
           d="m 139.0095,67.3427 h -1.27"
           id="path72956" />
      </g>
    </g>
    <g
       style="fill:#006464;fill-opacity:0;stroke:#006464;stroke-width:0.381;stroke-linecap:round;stroke-linejoin:round;stroke-opacity:1"
       id="g73132">
      <text
         x="138.42999"
         y="65.531998"
         textLength="11.0706"
         font-size="2.032px"
         lengthAdjust="spacingAndGlyphs"
         text-anchor="middle"
         opacity="0"
         id="text72962">TMC2209</text>
      <g
         class="stroked-text"
         id="g73130">
        <desc
           id="desc72964">TMC2209</desc>
        <path
           d="m 133.4589,63.9311 h 0.8709"
           id="path72966" />
        <path
           d="m 133.8943,65.4551 v -1.524"
           id="path72968" />
        <path
           d="m 134.8377,65.4551 v -1.524"
           id="path72970" />
        <path
           d="m 134.8377,63.9311 0.508,1.0886"
           id="path72972" />
        <path
           d="m 135.3457,65.0197 0.508,-1.0886"
           id="path72974" />
        <path
           d="m 135.8537,63.9311 v 1.524"
           id="path72976" />
        <path
           d="m 137.4503,65.31 -0.0726,0.0726"
           id="path72978" />
        <path
           d="M 137.3777,65.3826 137.16,65.4551"
           id="path72980" />
        <path
           d="m 137.16,65.4551 h -0.1452"
           id="path72982" />
        <path
           d="m 137.0148,65.4551 -0.2177,-0.0725"
           id="path72984" />
        <path
           d="M 136.7971,65.3826 136.652,65.2374"
           id="path72986" />
        <path
           d="m 136.652,65.2374 -0.0726,-0.1451"
           id="path72988" />
        <path
           d="M 136.5794,65.0923 136.5068,64.802"
           id="path72990" />
        <path
           d="M 136.5068,64.802 V 64.5843"
           id="path72992" />
        <path
           d="m 136.5068,64.5843 0.0726,-0.2903"
           id="path72994" />
        <path
           d="m 136.5794,64.294 0.0726,-0.1452"
           id="path72996" />
        <path
           d="m 136.652,64.1488 0.1451,-0.1451"
           id="path72998" />
        <path
           d="m 136.7971,64.0037 0.2177,-0.0726"
           id="path73000" />
        <path
           d="M 137.0148,63.9311 H 137.16"
           id="path73002" />
        <path
           d="m 137.16,63.9311 0.2177,0.0726"
           id="path73004" />
        <path
           d="m 137.3777,64.0037 0.0726,0.0726"
           id="path73006" />
        <path
           d="m 138.0308,64.0763 0.0726,-0.0726"
           id="path73008" />
        <path
           d="m 138.1034,64.0037 0.1452,-0.0726"
           id="path73010" />
        <path
           d="m 138.2486,63.9311 h 0.3628"
           id="path73012" />
        <path
           d="m 138.6114,63.9311 0.1452,0.0726"
           id="path73014" />
        <path
           d="m 138.7566,64.0037 0.0725,0.0726"
           id="path73016" />
        <path
           d="m 138.8291,64.0763 0.0726,0.1451"
           id="path73018" />
        <path
           d="m 138.9017,64.2214 v 0.1452"
           id="path73020" />
        <path
           d="m 138.9017,64.3666 -0.0726,0.2177"
           id="path73022" />
        <path
           d="m 138.8291,64.5843 -0.8708,0.8708"
           id="path73024" />
        <path
           d="m 137.9583,65.4551 h 0.9434"
           id="path73026" />
        <path
           d="m 139.4822,64.0763 0.0726,-0.0726"
           id="path73028" />
        <path
           d="M 139.5548,64.0037 139.7,63.9311"
           id="path73030" />
        <path
           d="m 139.7,63.9311 h 0.3628"
           id="path73032" />
        <path
           d="m 140.0628,63.9311 0.1452,0.0726"
           id="path73034" />
        <path
           d="m 140.208,64.0037 0.0725,0.0726"
           id="path73036" />
        <path
           d="m 140.2805,64.0763 0.0726,0.1451"
           id="path73038" />
        <path
           d="m 140.3531,64.2214 v 0.1452"
           id="path73040" />
        <path
           d="m 140.3531,64.3666 -0.0726,0.2177"
           id="path73042" />
        <path
           d="m 140.2805,64.5843 -0.8708,0.8708"
           id="path73044" />
        <path
           d="m 139.4097,65.4551 h 0.9434"
           id="path73046" />
        <path
           d="m 141.2965,63.9311 h 0.1451"
           id="path73048" />
        <path
           d="m 141.4416,63.9311 0.1452,0.0726"
           id="path73050" />
        <path
           d="m 141.5868,64.0037 0.0726,0.0726"
           id="path73052" />
        <path
           d="m 141.6594,64.0763 0.0725,0.1451"
           id="path73054" />
        <path
           d="m 141.7319,64.2214 0.0726,0.2903"
           id="path73056" />
        <path
           d="m 141.8045,64.5117 v 0.3629"
           id="path73058" />
        <path
           d="m 141.8045,64.8746 -0.0726,0.2902"
           id="path73060" />
        <path
           d="M 141.7319,65.1648 141.6594,65.31"
           id="path73062" />
        <path
           d="m 141.6594,65.31 -0.0726,0.0726"
           id="path73064" />
        <path
           d="m 141.5868,65.3826 -0.1452,0.0725"
           id="path73066" />
        <path
           d="m 141.4416,65.4551 h -0.1451"
           id="path73068" />
        <path
           d="m 141.2965,65.4551 -0.1451,-0.0725"
           id="path73070" />
        <path
           d="M 141.1514,65.3826 141.0788,65.31"
           id="path73072" />
        <path
           d="m 141.0788,65.31 -0.0726,-0.1452"
           id="path73074" />
        <path
           d="m 141.0062,65.1648 -0.0726,-0.2902"
           id="path73076" />
        <path
           d="M 140.9336,64.8746 V 64.5117"
           id="path73078" />
        <path
           d="m 140.9336,64.5117 0.0726,-0.2903"
           id="path73080" />
        <path
           d="m 141.0062,64.2214 0.0726,-0.1451"
           id="path73082" />
        <path
           d="m 141.0788,64.0763 0.0726,-0.0726"
           id="path73084" />
        <path
           d="m 141.1514,64.0037 0.1451,-0.0726"
           id="path73086" />
        <path
           d="m 142.5302,65.4551 h 0.2903"
           id="path73088" />
        <path
           d="m 142.8205,65.4551 0.1451,-0.0725"
           id="path73090" />
        <path
           d="M 142.9656,65.3826 143.0382,65.31"
           id="path73092" />
        <path
           d="m 143.0382,65.31 0.1451,-0.2177"
           id="path73094" />
        <path
           d="m 143.1833,65.0923 0.0726,-0.2903"
           id="path73096" />
        <path
           d="M 143.2559,64.802 V 64.2214"
           id="path73098" />
        <path
           d="m 143.2559,64.2214 -0.0726,-0.1451"
           id="path73100" />
        <path
           d="m 143.1833,64.0763 -0.0725,-0.0726"
           id="path73102" />
        <path
           d="m 143.1108,64.0037 -0.1452,-0.0726"
           id="path73104" />
        <path
           d="m 142.9656,63.9311 h -0.2903"
           id="path73106" />
        <path
           d="m 142.6753,63.9311 -0.1451,0.0726"
           id="path73108" />
        <path
           d="m 142.5302,64.0037 -0.0726,0.0726"
           id="path73110" />
        <path
           d="m 142.4576,64.0763 -0.0726,0.1451"
           id="path73112" />
        <path
           d="m 142.385,64.2214 v 0.3629"
           id="path73114" />
        <path
           d="m 142.385,64.5843 0.0726,0.1451"
           id="path73116" />
        <path
           d="m 142.4576,64.7294 0.0726,0.0726"
           id="path73118" />
        <path
           d="m 142.5302,64.802 0.1451,0.0726"
           id="path73120" />
        <path
           d="m 142.6753,64.8746 h 0.2903"
           id="path73122" />
        <path
           d="m 142.9656,64.8746 0.1452,-0.0726"
           id="path73124" />
        <path
           d="m 143.1108,64.802 0.0725,-0.0726"
           id="path73126" />
        <path
           d="m 143.1833,64.7294 0.0726,-0.1451"
           id="path73128" />
      </g>
    </g>
  </g>
  <g
     style="fill:#006464;fill-opacity:0;stroke:#006464;stroke-width:0.1524;stroke-linecap:round;stroke-linejoin:round;stroke-opacity:1"
     id="g73136"
     transform="translate(-77.279501,-51.8795)" />
  <g
     style="fill:#009600;fill-opacity:0;stroke:#009600;stroke-width:0.1524;stroke-linecap:round;stroke-linejoin:round;stroke-opacity:1"
     id="g73138"
     transform="translate(-77.279501,-51.8795)" />
  <g
     style="fill:#009600;fill-opacity:0;stroke:#009600;stroke-width:0.381;stroke-linecap:round;stroke-linejoin:round;stroke-opacity:1"
     id="g73142"
     transform="translate(-77.279501,-51.8795)">
    <path
       d="m 138.43,80.01 v 7.62"
       id="path73140" />
  </g>
  <g
     style="fill:#009600;fill-opacity:0;stroke:#009600;stroke-width:0.1524;stroke-linecap:round;stroke-linejoin:round;stroke-opacity:1"
     id="g73144"
     transform="translate(-77.279501,-51.8795)" />
  <g
     style="fill:#009600;fill-opacity:0;stroke:#009600;stroke-width:0.381;stroke-linecap:round;stroke-linejoin:round;stroke-opacity:1"
     id="g73148"
     transform="translate(-77.279501,-51.8795)">
    <path
       d="m 100.33,87.63 h 38.1"
       id="path73146" />
  </g>
  <g
     style="fill:#009600;fill-opacity:0;stroke:#009600;stroke-width:0.1524;stroke-linecap:round;stroke-linejoin:round;stroke-opacity:1"
     id="g73150"
     transform="translate(-77.279501,-51.8795)" />
  <g
     style="fill:#000084;fill-opacity:0;stroke:#000084;stroke-width:0.1524;stroke-linecap:round;stroke-linejoin:round;stroke-opacity:1"
     id="g73156"
     transform="translate(-77.279501,-51.8795)">
    <path
       d="m 99.7204,106.0704 1.2192,1.2192"
       id="path73152" />
    <path
       d="m 100.9396,106.0704 -1.2192,1.2192"
       id="path73154" />
  </g>
</svg>
