<?xml version="1.0" encoding="UTF-8" standalone="no"?>
<svg
   xmlns:dc="http://purl.org/dc/elements/1.1/"
   xmlns:cc="http://creativecommons.org/ns#"
   xmlns:rdf="http://www.w3.org/1999/02/22-rdf-syntax-ns#"
   xmlns:svg="http://www.w3.org/2000/svg"
   xmlns="http://www.w3.org/2000/svg"
   version="1.1"
   width="71.500999mm"
   height="57.530998mm"
   viewBox="0 0 71.501 57.530998"
   id="svg2486">
  <metadata
     id="metadata2492">
    <rdf:RDF>
      <cc:Work
         rdf:about="">
        <dc:format>image/svg+xml</dc:format>
        <dc:type
           rdf:resource="http://purl.org/dc/dcmitype/StillImage" />
      </cc:Work>
    </rdf:RDF>
  </metadata>
  <defs
     id="defs2490" />
  <title
     id="title1748">SVG Image created as trinamic_wiring-TMC2209-bidirectional-coupled.svg date 2023/08/01 15:05:33 </title>
  <desc
     id="desc1750">Image generated by Eeschema-SVG </desc>
  <g
     style="fill:#000000;fill-opacity:1;stroke:#000000;stroke-linecap:round;stroke-linejoin:round;stroke-opacity:1"
     id="g1752"
     transform="translate(-77.279501,-51.8795)" />
  <g
     style="fill:#000000;fill-opacity:0;stroke:#000000;stroke-width:0.1524;stroke-linecap:round;stroke-linejoin:round;stroke-opacity:1"
     id="g2100"
     transform="translate(-77.279501,-51.8795)">
    <g
       id="g1754" />
    <g
       style="fill:#840000;fill-opacity:0;stroke:#840000;stroke-width:0.1524;stroke-linecap:round;stroke-linejoin:round;stroke-opacity:1"
       id="g1756" />
    <g
       style="fill:#840000;fill-opacity:0;stroke:#840000;stroke-width:0.381;stroke-linecap:round;stroke-linejoin:round;stroke-opacity:1"
       id="g1762">
      <rect
         x="77.470001"
         y="83.82"
         width="20.32"
         height="25.4"
         rx="0.000000"
         id="rect1758" />
      <path
         d="m 97.79,106.68 h 2.54"
         id="path1760" />
    </g>
    <g
       style="fill:#006464;fill-opacity:0;stroke:#006464;stroke-width:0.381;stroke-linecap:round;stroke-linejoin:round;stroke-opacity:1"
       id="g1764" />
    <g
       style="fill:#006464;fill-opacity:0;stroke:#006464;stroke-width:0.1524;stroke-linecap:round;stroke-linejoin:round;stroke-opacity:1"
       id="g1798">
      <text
         x="96.774002"
         y="107.315"
         textLength="2.6826999"
         font-size="1.6933px"
         lengthAdjust="spacingAndGlyphs"
         text-anchor="end"
         opacity="0"
         id="text1766">RX</text>
      <g
         class="stroked-text"
         id="g1796">
        <desc
           id="desc1768">RX</desc>
        <path
           d="M 95.2223,107.2595 94.799,106.6548"
           id="path1770" />
        <path
           d="m 94.4966,107.2595 v -1.27"
           id="path1772" />
        <path
           d="m 94.4966,105.9895 h 0.4838"
           id="path1774" />
        <path
           d="m 94.9804,105.9895 0.121,0.0605"
           id="path1776" />
        <path
           d="m 95.1014,106.05 0.0605,0.0605"
           id="path1778" />
        <path
           d="m 95.1619,106.1105 0.0604,0.1209"
           id="path1780" />
        <path
           d="m 95.2223,106.2314 v 0.1815"
           id="path1782" />
        <path
           d="m 95.2223,106.4129 -0.0604,0.1209"
           id="path1784" />
        <path
           d="m 95.1619,106.5338 -0.0605,0.0605"
           id="path1786" />
        <path
           d="m 95.1014,106.5943 -0.121,0.0605"
           id="path1788" />
        <path
           d="M 94.9804,106.6548 H 94.4966"
           id="path1790" />
        <path
           d="m 95.6457,105.9895 0.8466,1.27"
           id="path1792" />
        <path
           d="m 96.4923,105.9895 -0.8466,1.27"
           id="path1794" />
      </g>
    </g>
    <g
       style="fill:#840000;fill-opacity:0;stroke:#840000;stroke-width:0.1524;stroke-linecap:round;stroke-linejoin:round;stroke-opacity:1"
       id="g1800" />
    <g
       style="fill:#840000;fill-opacity:0;stroke:#840000;stroke-width:0.381;stroke-linecap:round;stroke-linejoin:round;stroke-opacity:1"
       id="g1804">
      <path
         d="m 97.79,87.63 h 2.54"
         id="path1802" />
    </g>
    <g
       style="fill:#006464;fill-opacity:0;stroke:#006464;stroke-width:0.381;stroke-linecap:round;stroke-linejoin:round;stroke-opacity:1"
       id="g1806" />
    <g
       style="fill:#006464;fill-opacity:0;stroke:#006464;stroke-width:0.1524;stroke-linecap:round;stroke-linejoin:round;stroke-opacity:1"
       id="g1822">
      <text
         x="96.774002"
         y="88.264999"
         textLength="2.3803"
         font-size="1.6933px"
         lengthAdjust="spacingAndGlyphs"
         text-anchor="end"
         opacity="0"
         id="text1808">TX</text>
      <g
         class="stroked-text"
         id="g1820">
        <desc
           id="desc1810">TX</desc>
        <path
           d="m 94.6176,86.9395 h 0.7257"
           id="path1812" />
        <path
           d="m 94.9805,88.2095 v -1.27"
           id="path1814" />
        <path
           d="m 95.6457,86.9395 0.8466,1.27"
           id="path1816" />
        <path
           d="m 96.4923,86.9395 -0.8466,1.27"
           id="path1818" />
      </g>
    </g>
    <g
       style="fill:#006464;fill-opacity:0;stroke:#006464;stroke-width:0.381;stroke-linecap:round;stroke-linejoin:round;stroke-opacity:1"
       id="g2098">
      <text
         x="87.629997"
         y="97.281998"
         textLength="18.3281"
         font-size="2.032px"
         lengthAdjust="spacingAndGlyphs"
         text-anchor="middle"
         opacity="0"
         id="text1824">microcontroller</text>
      <g
         class="stroked-text"
         id="g2096">
        <desc
           id="desc1826">microcontroller</desc>
        <path
           d="m 79.2479,97.2051 v -1.016"
           id="path1828" />
        <path
           d="m 79.2479,96.3343 0.0726,-0.0726"
           id="path1830" />
        <path
           d="m 79.3205,96.2617 0.1451,-0.0726"
           id="path1832" />
        <path
           d="m 79.4656,96.1891 h 0.2177"
           id="path1834" />
        <path
           d="m 79.6833,96.1891 0.1452,0.0726"
           id="path1836" />
        <path
           d="m 79.8285,96.2617 0.0726,0.1451"
           id="path1838" />
        <path
           d="m 79.9011,96.4068 v 0.7983"
           id="path1840" />
        <path
           d="m 79.9011,96.4068 0.0725,-0.1451"
           id="path1842" />
        <path
           d="m 79.9736,96.2617 0.1452,-0.0726"
           id="path1844" />
        <path
           d="m 80.1188,96.1891 h 0.2177"
           id="path1846" />
        <path
           d="m 80.3365,96.1891 0.1451,0.0726"
           id="path1848" />
        <path
           d="m 80.4816,96.2617 0.0726,0.1451"
           id="path1850" />
        <path
           d="m 80.5542,96.4068 v 0.7983"
           id="path1852" />
        <path
           d="m 81.2799,97.2051 v -1.016"
           id="path1854" />
        <path
           d="m 81.2799,95.6811 -0.0726,0.0726"
           id="path1856" />
        <path
           d="m 81.2073,95.7537 0.0726,0.0726"
           id="path1858" />
        <path
           d="m 81.2799,95.8263 0.0726,-0.0726"
           id="path1860" />
        <path
           d="M 81.3525,95.7537 81.2799,95.6811"
           id="path1862" />
        <path
           d="m 81.2799,95.6811 v 0.1452"
           id="path1864" />
        <path
           d="m 82.6588,97.1326 -0.1452,0.0725"
           id="path1866" />
        <path
           d="M 82.5136,97.2051 H 82.2233"
           id="path1868" />
        <path
           d="M 82.2233,97.2051 82.0782,97.1326"
           id="path1870" />
        <path
           d="M 82.0782,97.1326 82.0056,97.06"
           id="path1872" />
        <path
           d="M 82.0056,97.06 81.933,96.9148"
           id="path1874" />
        <path
           d="M 81.933,96.9148 V 96.4794"
           id="path1876" />
        <path
           d="m 81.933,96.4794 0.0726,-0.1451"
           id="path1878" />
        <path
           d="m 82.0056,96.3343 0.0726,-0.0726"
           id="path1880" />
        <path
           d="m 82.0782,96.2617 0.1451,-0.0726"
           id="path1882" />
        <path
           d="m 82.2233,96.1891 h 0.2903"
           id="path1884" />
        <path
           d="m 82.5136,96.1891 0.1452,0.0726"
           id="path1886" />
        <path
           d="m 83.3119,97.2051 v -1.016"
           id="path1888" />
        <path
           d="m 83.3119,96.4794 0.0726,-0.1451"
           id="path1890" />
        <path
           d="m 83.3845,96.3343 0.0726,-0.0726"
           id="path1892" />
        <path
           d="m 83.4571,96.2617 0.1451,-0.0726"
           id="path1894" />
        <path
           d="m 83.6022,96.1891 h 0.1451"
           id="path1896" />
        <path
           d="M 84.473,97.2051 84.3279,97.1326"
           id="path1898" />
        <path
           d="M 84.3279,97.1326 84.2553,97.06"
           id="path1900" />
        <path
           d="M 84.2553,97.06 84.1827,96.9148"
           id="path1902" />
        <path
           d="M 84.1827,96.9148 V 96.4794"
           id="path1904" />
        <path
           d="m 84.1827,96.4794 0.0726,-0.1451"
           id="path1906" />
        <path
           d="m 84.2553,96.3343 0.0726,-0.0726"
           id="path1908" />
        <path
           d="M 84.3279,96.2617 84.473,96.1891"
           id="path1910" />
        <path
           d="m 84.473,96.1891 h 0.2177"
           id="path1912" />
        <path
           d="m 84.6907,96.1891 0.1452,0.0726"
           id="path1914" />
        <path
           d="m 84.8359,96.2617 0.0726,0.0726"
           id="path1916" />
        <path
           d="m 84.9085,96.3343 0.0725,0.1451"
           id="path1918" />
        <path
           d="m 84.981,96.4794 v 0.4354"
           id="path1920" />
        <path
           d="M 84.981,96.9148 84.9085,97.06"
           id="path1922" />
        <path
           d="m 84.9085,97.06 -0.0726,0.0726"
           id="path1924" />
        <path
           d="m 84.8359,97.1326 -0.1452,0.0725"
           id="path1926" />
        <path
           d="M 84.6907,97.2051 H 84.473"
           id="path1928" />
        <path
           d="m 86.2874,97.1326 -0.1452,0.0725"
           id="path1930" />
        <path
           d="M 86.1422,97.2051 H 85.8519"
           id="path1932" />
        <path
           d="M 85.8519,97.2051 85.7068,97.1326"
           id="path1934" />
        <path
           d="M 85.7068,97.1326 85.6342,97.06"
           id="path1936" />
        <path
           d="M 85.6342,97.06 85.5616,96.9148"
           id="path1938" />
        <path
           d="M 85.5616,96.9148 V 96.4794"
           id="path1940" />
        <path
           d="m 85.5616,96.4794 0.0726,-0.1451"
           id="path1942" />
        <path
           d="m 85.6342,96.3343 0.0726,-0.0726"
           id="path1944" />
        <path
           d="m 85.7068,96.2617 0.1451,-0.0726"
           id="path1946" />
        <path
           d="m 85.8519,96.1891 h 0.2903"
           id="path1948" />
        <path
           d="m 86.1422,96.1891 0.1452,0.0726"
           id="path1950" />
        <path
           d="M 87.1582,97.2051 87.0131,97.1326"
           id="path1952" />
        <path
           d="M 87.0131,97.1326 86.9405,97.06"
           id="path1954" />
        <path
           d="M 86.9405,97.06 86.8679,96.9148"
           id="path1956" />
        <path
           d="M 86.8679,96.9148 V 96.4794"
           id="path1958" />
        <path
           d="m 86.8679,96.4794 0.0726,-0.1451"
           id="path1960" />
        <path
           d="m 86.9405,96.3343 0.0726,-0.0726"
           id="path1962" />
        <path
           d="m 87.0131,96.2617 0.1451,-0.0726"
           id="path1964" />
        <path
           d="m 87.1582,96.1891 h 0.2177"
           id="path1966" />
        <path
           d="m 87.3759,96.1891 0.1452,0.0726"
           id="path1968" />
        <path
           d="m 87.5211,96.2617 0.0726,0.0726"
           id="path1970" />
        <path
           d="m 87.5937,96.3343 0.0725,0.1451"
           id="path1972" />
        <path
           d="m 87.6662,96.4794 v 0.4354"
           id="path1974" />
        <path
           d="M 87.6662,96.9148 87.5937,97.06"
           id="path1976" />
        <path
           d="m 87.5937,97.06 -0.0726,0.0726"
           id="path1978" />
        <path
           d="m 87.5211,97.1326 -0.1452,0.0725"
           id="path1980" />
        <path
           d="M 87.3759,97.2051 H 87.1582"
           id="path1982" />
        <path
           d="m 88.3194,96.1891 v 1.016"
           id="path1984" />
        <path
           d="M 88.3194,96.3343 88.392,96.2617"
           id="path1986" />
        <path
           d="m 88.392,96.2617 0.1451,-0.0726"
           id="path1988" />
        <path
           d="m 88.5371,96.1891 h 0.2177"
           id="path1990" />
        <path
           d="M 88.7548,96.1891 88.9,96.2617"
           id="path1992" />
        <path
           d="m 88.9,96.2617 0.0726,0.1451"
           id="path1994" />
        <path
           d="m 88.9726,96.4068 v 0.7983"
           id="path1996" />
        <path
           d="m 89.4806,96.1891 h 0.5806"
           id="path1998" />
        <path
           d="m 89.6983,95.6811 v 1.3063"
           id="path2000" />
        <path
           d="m 89.6983,96.9874 0.0726,0.1452"
           id="path2002" />
        <path
           d="m 89.7709,97.1326 0.1451,0.0725"
           id="path2004" />
        <path
           d="m 89.916,97.2051 h 0.1452"
           id="path2006" />
        <path
           d="m 90.5692,97.2051 v -1.016"
           id="path2008" />
        <path
           d="m 90.5692,96.4794 0.0726,-0.1451"
           id="path2010" />
        <path
           d="m 90.6418,96.3343 0.0726,-0.0726"
           id="path2012" />
        <path
           d="m 90.7144,96.2617 0.1451,-0.0726"
           id="path2014" />
        <path
           d="m 90.8595,96.1891 h 0.1451"
           id="path2016" />
        <path
           d="M 91.7303,97.2051 91.5852,97.1326"
           id="path2018" />
        <path
           d="M 91.5852,97.1326 91.5126,97.06"
           id="path2020" />
        <path
           d="M 91.5126,97.06 91.44,96.9148"
           id="path2022" />
        <path
           d="M 91.44,96.9148 V 96.4794"
           id="path2024" />
        <path
           d="m 91.44,96.4794 0.0726,-0.1451"
           id="path2026" />
        <path
           d="m 91.5126,96.3343 0.0726,-0.0726"
           id="path2028" />
        <path
           d="m 91.5852,96.2617 0.1451,-0.0726"
           id="path2030" />
        <path
           d="M 91.7303,96.1891 H 91.948"
           id="path2032" />
        <path
           d="m 91.948,96.1891 0.1452,0.0726"
           id="path2034" />
        <path
           d="m 92.0932,96.2617 0.0726,0.0726"
           id="path2036" />
        <path
           d="m 92.1658,96.3343 0.0725,0.1451"
           id="path2038" />
        <path
           d="m 92.2383,96.4794 v 0.4354"
           id="path2040" />
        <path
           d="M 92.2383,96.9148 92.1658,97.06"
           id="path2042" />
        <path
           d="m 92.1658,97.06 -0.0726,0.0726"
           id="path2044" />
        <path
           d="M 92.0932,97.1326 91.948,97.2051"
           id="path2046" />
        <path
           d="M 91.948,97.2051 H 91.7303"
           id="path2048" />
        <path
           d="M 93.1092,97.2051 92.9641,97.1326"
           id="path2050" />
        <path
           d="M 92.9641,97.1326 92.8915,96.9874"
           id="path2052" />
        <path
           d="M 92.8915,96.9874 V 95.6811"
           id="path2054" />
        <path
           d="M 93.9075,97.2051 93.7624,97.1326"
           id="path2056" />
        <path
           d="M 93.7624,97.1326 93.6898,96.9874"
           id="path2058" />
        <path
           d="M 93.6898,96.9874 V 95.6811"
           id="path2060" />
        <path
           d="m 95.0687,97.1326 -0.1452,0.0725"
           id="path2062" />
        <path
           d="M 94.9235,97.2051 H 94.6333"
           id="path2064" />
        <path
           d="M 94.6333,97.2051 94.4881,97.1326"
           id="path2066" />
        <path
           d="M 94.4881,97.1326 94.4155,96.9874"
           id="path2068" />
        <path
           d="M 94.4155,96.9874 V 96.4068"
           id="path2070" />
        <path
           d="m 94.4155,96.4068 0.0726,-0.1451"
           id="path2072" />
        <path
           d="m 94.4881,96.2617 0.1452,-0.0726"
           id="path2074" />
        <path
           d="m 94.6333,96.1891 h 0.2902"
           id="path2076" />
        <path
           d="m 94.9235,96.1891 0.1452,0.0726"
           id="path2078" />
        <path
           d="m 95.0687,96.2617 0.0726,0.1451"
           id="path2080" />
        <path
           d="M 95.1413,96.4068 V 96.552"
           id="path2082" />
        <path
           d="m 95.1413,96.552 -0.7258,0.1451"
           id="path2084" />
        <path
           d="m 95.7944,97.2051 v -1.016"
           id="path2086" />
        <path
           d="M 95.7944,96.4794 95.867,96.3343"
           id="path2088" />
        <path
           d="m 95.867,96.3343 0.0726,-0.0726"
           id="path2090" />
        <path
           d="m 95.9396,96.2617 0.1451,-0.0726"
           id="path2092" />
        <path
           d="m 96.0847,96.1891 h 0.1451"
           id="path2094" />
      </g>
    </g>
  </g>
  <g
     style="fill:#006464;fill-opacity:0;stroke:#006464;stroke-width:0.1524;stroke-linecap:round;stroke-linejoin:round;stroke-opacity:1"
     id="g2142"
     transform="translate(-77.279501,-51.8795)">
    <g
       id="g2102" />
    <g
       style="fill:#840000;fill-opacity:0;stroke:#840000;stroke-width:0.1524;stroke-linecap:round;stroke-linejoin:round;stroke-opacity:1"
       id="g2104" />
    <g
       style="fill:#840000;fill-opacity:0;stroke:#840000;stroke-width:0.381;stroke-linecap:round;stroke-linejoin:round;stroke-opacity:1"
       id="g2112">
      <rect
         x="101.854"
         y="92.709999"
         width="2.0320001"
         height="7.6199999"
         rx="0.000000"
         id="rect2106" />
      <path
         d="M 102.87,92.71 V 90.17"
         id="path2108" />
      <path
         d="m 102.87,100.33 v 2.54"
         id="path2110" />
    </g>
    <g
       style="fill:#006464;fill-opacity:0;stroke:#006464;stroke-width:0.381;stroke-linecap:round;stroke-linejoin:round;stroke-opacity:1"
       id="g2114" />
    <g
       style="fill:#006464;fill-opacity:0;stroke:#006464;stroke-width:0.1905;stroke-linecap:round;stroke-linejoin:round;stroke-opacity:1"
       id="g2140">
      <g
         transform="rotate(-90,102.87,96.52)"
         id="g2118">
        <text
           x="102.87"
           y="96.901001"
           textLength="1.7618001"
           font-size="1.016px"
           lengthAdjust="spacingAndGlyphs"
           text-anchor="middle"
           opacity="0"
           id="text2116">1k</text>
      </g>
      <g
         class="stroked-text"
         id="g2138">
        <desc
           id="desc2120">1k</desc>
        <path
           d="m 103.2125,96.6107 v 0.4354"
           id="path2122" />
        <path
           d="m 103.2125,96.8284 h -0.762"
           id="path2124" />
        <path
           d="m 102.4505,96.8284 0.1089,0.0726"
           id="path2126" />
        <path
           d="m 102.5594,96.901 0.0726,0.0725"
           id="path2128" />
        <path
           d="m 102.632,96.9735 0.0363,0.0726"
           id="path2130" />
        <path
           d="m 103.2125,96.2841 h -0.762"
           id="path2132" />
        <path
           d="m 102.9223,96.2116 0.2902,-0.2178"
           id="path2134" />
        <path
           d="m 102.7045,95.9938 0.2903,0.2903"
           id="path2136" />
      </g>
    </g>
  </g>
  <g
     style="fill:#006464;fill-opacity:0;stroke:#006464;stroke-width:0.1524;stroke-linecap:round;stroke-linejoin:round;stroke-opacity:1"
     id="g2440"
     transform="translate(-77.279501,-51.8795)">
    <g
       id="g2144" />
    <g
       style="fill:#840000;fill-opacity:0;stroke:#840000;stroke-width:0.1524;stroke-linecap:round;stroke-linejoin:round;stroke-opacity:1"
       id="g2146" />
    <g
       style="fill:#840000;fill-opacity:0;stroke:#840000;stroke-width:0.381;stroke-linecap:round;stroke-linejoin:round;stroke-opacity:1"
       id="g2152">
      <rect
         x="128.27"
         y="52.07"
         width="20.32"
         height="25.4"
         rx="0.000000"
         id="rect2148" />
      <path
         d="m 138.43,77.47 v 2.54"
         id="path2150" />
    </g>
    <g
       style="fill:#006464;fill-opacity:0;stroke:#006464;stroke-width:0.381;stroke-linecap:round;stroke-linejoin:round;stroke-opacity:1"
       id="g2154" />
    <g
       style="fill:#006464;fill-opacity:0;stroke:#006464;stroke-width:0.1524;stroke-linecap:round;stroke-linejoin:round;stroke-opacity:1"
       id="g2266">
      <g
         transform="rotate(-90,138.43,76.454)"
         id="g2158">
        <text
           x="138.42999"
           y="77.088997"
           textLength="9.698"
           font-size="1.6933px"
           lengthAdjust="spacingAndGlyphs"
           text-anchor="start"
           opacity="0"
           id="text2156">PDN_UART</text>
      </g>
      <g
         class="stroked-text"
         id="g2264">
        <desc
           id="desc2160">PDN_UART</desc>
        <path
           d="m 139.0095,76.0514 h -1.27"
           id="path2162" />
        <path
           d="M 137.7395,76.0514 V 75.5676"
           id="path2164" />
        <path
           d="M 137.7395,75.5676 137.8,75.4466"
           id="path2166" />
        <path
           d="m 137.8,75.4466 0.0605,-0.0605"
           id="path2168" />
        <path
           d="m 137.8605,75.3861 0.1209,-0.0604"
           id="path2170" />
        <path
           d="m 137.9814,75.3257 h 0.1815"
           id="path2172" />
        <path
           d="m 138.1629,75.3257 0.1209,0.0604"
           id="path2174" />
        <path
           d="m 138.2838,75.3861 0.0605,0.0605"
           id="path2176" />
        <path
           d="m 138.3443,75.4466 0.0605,0.121"
           id="path2178" />
        <path
           d="m 138.4048,75.5676 v 0.4838"
           id="path2180" />
        <path
           d="m 139.0095,74.7814 h -1.27"
           id="path2182" />
        <path
           d="M 137.7395,74.7814 V 74.479"
           id="path2184" />
        <path
           d="M 137.7395,74.479 137.8,74.2976"
           id="path2186" />
        <path
           d="m 137.8,74.2976 0.121,-0.121"
           id="path2188" />
        <path
           d="m 137.921,74.1766 0.1209,-0.0605"
           id="path2190" />
        <path
           d="m 138.0419,74.1161 0.2419,-0.0604"
           id="path2192" />
        <path
           d="m 138.2838,74.0557 h 0.1814"
           id="path2194" />
        <path
           d="m 138.4652,74.0557 0.2419,0.0604"
           id="path2196" />
        <path
           d="m 138.7071,74.1161 0.121,0.0605"
           id="path2198" />
        <path
           d="m 138.8281,74.1766 0.121,0.121"
           id="path2200" />
        <path
           d="m 138.9491,74.2976 0.0604,0.1814"
           id="path2202" />
        <path
           d="m 139.0095,74.479 v 0.3024"
           id="path2204" />
        <path
           d="m 139.0095,73.5114 h -1.27"
           id="path2206" />
        <path
           d="m 137.7395,73.5114 1.27,-0.7257"
           id="path2208" />
        <path
           d="m 139.0095,72.7857 h -1.27"
           id="path2210" />
        <path
           d="M 139.1305,72.4833 V 71.5156"
           id="path2212" />
        <path
           d="m 137.7395,71.2133 h 1.0281"
           id="path2214" />
        <path
           d="m 138.7676,71.2133 0.121,-0.0605"
           id="path2216" />
        <path
           d="m 138.8886,71.1528 0.0605,-0.0605"
           id="path2218" />
        <path
           d="m 138.9491,71.0923 0.0604,-0.1209"
           id="path2220" />
        <path
           d="M 139.0095,70.9714 V 70.7295"
           id="path2222" />
        <path
           d="m 139.0095,70.7295 -0.0604,-0.121"
           id="path2224" />
        <path
           d="M 138.9491,70.6085 138.8886,70.548"
           id="path2226" />
        <path
           d="m 138.8886,70.548 -0.121,-0.0604"
           id="path2228" />
        <path
           d="m 138.7676,70.4876 h -1.0281"
           id="path2230" />
        <path
           d="M 138.6467,69.9432 V 69.3385"
           id="path2232" />
        <path
           d="m 139.0095,70.0642 -1.27,-0.4233"
           id="path2234" />
        <path
           d="m 137.7395,69.6409 1.27,-0.4234"
           id="path2236" />
        <path
           d="m 139.0095,68.0685 -0.6047,0.4233"
           id="path2238" />
        <path
           d="m 139.0095,68.7942 h -1.27"
           id="path2240" />
        <path
           d="M 137.7395,68.7942 V 68.3104"
           id="path2242" />
        <path
           d="M 137.7395,68.3104 137.8,68.1894"
           id="path2244" />
        <path
           d="m 137.8,68.1894 0.0605,-0.0605"
           id="path2246" />
        <path
           d="m 137.8605,68.1289 0.1209,-0.0604"
           id="path2248" />
        <path
           d="m 137.9814,68.0685 h 0.1815"
           id="path2250" />
        <path
           d="m 138.1629,68.0685 0.1209,0.0604"
           id="path2252" />
        <path
           d="m 138.2838,68.1289 0.0605,0.0605"
           id="path2254" />
        <path
           d="m 138.3443,68.1894 0.0605,0.121"
           id="path2256" />
        <path
           d="m 138.4048,68.3104 v 0.4838"
           id="path2258" />
        <path
           d="M 137.7395,67.7056 V 66.9799"
           id="path2260" />
        <path
           d="m 139.0095,67.3427 h -1.27"
           id="path2262" />
      </g>
    </g>
    <g
       style="fill:#006464;fill-opacity:0;stroke:#006464;stroke-width:0.381;stroke-linecap:round;stroke-linejoin:round;stroke-opacity:1"
       id="g2438">
      <text
         x="138.42999"
         y="65.531998"
         textLength="11.0706"
         font-size="2.032px"
         lengthAdjust="spacingAndGlyphs"
         text-anchor="middle"
         opacity="0"
         id="text2268">TMC2209</text>
      <g
         class="stroked-text"
         id="g2436">
        <desc
           id="desc2270">TMC2209</desc>
        <path
           d="m 133.4589,63.9311 h 0.8709"
           id="path2272" />
        <path
           d="m 133.8943,65.4551 v -1.524"
           id="path2274" />
        <path
           d="m 134.8377,65.4551 v -1.524"
           id="path2276" />
        <path
           d="m 134.8377,63.9311 0.508,1.0886"
           id="path2278" />
        <path
           d="m 135.3457,65.0197 0.508,-1.0886"
           id="path2280" />
        <path
           d="m 135.8537,63.9311 v 1.524"
           id="path2282" />
        <path
           d="m 137.4503,65.31 -0.0726,0.0726"
           id="path2284" />
        <path
           d="M 137.3777,65.3826 137.16,65.4551"
           id="path2286" />
        <path
           d="m 137.16,65.4551 h -0.1452"
           id="path2288" />
        <path
           d="m 137.0148,65.4551 -0.2177,-0.0725"
           id="path2290" />
        <path
           d="M 136.7971,65.3826 136.652,65.2374"
           id="path2292" />
        <path
           d="m 136.652,65.2374 -0.0726,-0.1451"
           id="path2294" />
        <path
           d="M 136.5794,65.0923 136.5068,64.802"
           id="path2296" />
        <path
           d="M 136.5068,64.802 V 64.5843"
           id="path2298" />
        <path
           d="m 136.5068,64.5843 0.0726,-0.2903"
           id="path2300" />
        <path
           d="m 136.5794,64.294 0.0726,-0.1452"
           id="path2302" />
        <path
           d="m 136.652,64.1488 0.1451,-0.1451"
           id="path2304" />
        <path
           d="m 136.7971,64.0037 0.2177,-0.0726"
           id="path2306" />
        <path
           d="M 137.0148,63.9311 H 137.16"
           id="path2308" />
        <path
           d="m 137.16,63.9311 0.2177,0.0726"
           id="path2310" />
        <path
           d="m 137.3777,64.0037 0.0726,0.0726"
           id="path2312" />
        <path
           d="m 138.0308,64.0763 0.0726,-0.0726"
           id="path2314" />
        <path
           d="m 138.1034,64.0037 0.1452,-0.0726"
           id="path2316" />
        <path
           d="m 138.2486,63.9311 h 0.3628"
           id="path2318" />
        <path
           d="m 138.6114,63.9311 0.1452,0.0726"
           id="path2320" />
        <path
           d="m 138.7566,64.0037 0.0725,0.0726"
           id="path2322" />
        <path
           d="m 138.8291,64.0763 0.0726,0.1451"
           id="path2324" />
        <path
           d="m 138.9017,64.2214 v 0.1452"
           id="path2326" />
        <path
           d="m 138.9017,64.3666 -0.0726,0.2177"
           id="path2328" />
        <path
           d="m 138.8291,64.5843 -0.8708,0.8708"
           id="path2330" />
        <path
           d="m 137.9583,65.4551 h 0.9434"
           id="path2332" />
        <path
           d="m 139.4822,64.0763 0.0726,-0.0726"
           id="path2334" />
        <path
           d="M 139.5548,64.0037 139.7,63.9311"
           id="path2336" />
        <path
           d="m 139.7,63.9311 h 0.3628"
           id="path2338" />
        <path
           d="m 140.0628,63.9311 0.1452,0.0726"
           id="path2340" />
        <path
           d="m 140.208,64.0037 0.0725,0.0726"
           id="path2342" />
        <path
           d="m 140.2805,64.0763 0.0726,0.1451"
           id="path2344" />
        <path
           d="m 140.3531,64.2214 v 0.1452"
           id="path2346" />
        <path
           d="m 140.3531,64.3666 -0.0726,0.2177"
           id="path2348" />
        <path
           d="m 140.2805,64.5843 -0.8708,0.8708"
           id="path2350" />
        <path
           d="m 139.4097,65.4551 h 0.9434"
           id="path2352" />
        <path
           d="m 141.2965,63.9311 h 0.1451"
           id="path2354" />
        <path
           d="m 141.4416,63.9311 0.1452,0.0726"
           id="path2356" />
        <path
           d="m 141.5868,64.0037 0.0726,0.0726"
           id="path2358" />
        <path
           d="m 141.6594,64.0763 0.0725,0.1451"
           id="path2360" />
        <path
           d="m 141.7319,64.2214 0.0726,0.2903"
           id="path2362" />
        <path
           d="m 141.8045,64.5117 v 0.3629"
           id="path2364" />
        <path
           d="m 141.8045,64.8746 -0.0726,0.2902"
           id="path2366" />
        <path
           d="M 141.7319,65.1648 141.6594,65.31"
           id="path2368" />
        <path
           d="m 141.6594,65.31 -0.0726,0.0726"
           id="path2370" />
        <path
           d="m 141.5868,65.3826 -0.1452,0.0725"
           id="path2372" />
        <path
           d="m 141.4416,65.4551 h -0.1451"
           id="path2374" />
        <path
           d="m 141.2965,65.4551 -0.1451,-0.0725"
           id="path2376" />
        <path
           d="M 141.1514,65.3826 141.0788,65.31"
           id="path2378" />
        <path
           d="m 141.0788,65.31 -0.0726,-0.1452"
           id="path2380" />
        <path
           d="m 141.0062,65.1648 -0.0726,-0.2902"
           id="path2382" />
        <path
           d="M 140.9336,64.8746 V 64.5117"
           id="path2384" />
        <path
           d="m 140.9336,64.5117 0.0726,-0.2903"
           id="path2386" />
        <path
           d="m 141.0062,64.2214 0.0726,-0.1451"
           id="path2388" />
        <path
           d="m 141.0788,64.0763 0.0726,-0.0726"
           id="path2390" />
        <path
           d="m 141.1514,64.0037 0.1451,-0.0726"
           id="path2392" />
        <path
           d="m 142.5302,65.4551 h 0.2903"
           id="path2394" />
        <path
           d="m 142.8205,65.4551 0.1451,-0.0725"
           id="path2396" />
        <path
           d="M 142.9656,65.3826 143.0382,65.31"
           id="path2398" />
        <path
           d="m 143.0382,65.31 0.1451,-0.2177"
           id="path2400" />
        <path
           d="m 143.1833,65.0923 0.0726,-0.2903"
           id="path2402" />
        <path
           d="M 143.2559,64.802 V 64.2214"
           id="path2404" />
        <path
           d="m 143.2559,64.2214 -0.0726,-0.1451"
           id="path2406" />
        <path
           d="m 143.1833,64.0763 -0.0725,-0.0726"
           id="path2408" />
        <path
           d="m 143.1108,64.0037 -0.1452,-0.0726"
           id="path2410" />
        <path
           d="m 142.9656,63.9311 h -0.2903"
           id="path2412" />
        <path
           d="m 142.6753,63.9311 -0.1451,0.0726"
           id="path2414" />
        <path
           d="m 142.5302,64.0037 -0.0726,0.0726"
           id="path2416" />
        <path
           d="m 142.4576,64.0763 -0.0726,0.1451"
           id="path2418" />
        <path
           d="m 142.385,64.2214 v 0.3629"
           id="path2420" />
        <path
           d="m 142.385,64.5843 0.0726,0.1451"
           id="path2422" />
        <path
           d="m 142.4576,64.7294 0.0726,0.0726"
           id="path2424" />
        <path
           d="m 142.5302,64.802 0.1451,0.0726"
           id="path2426" />
        <path
           d="m 142.6753,64.8746 h 0.2903"
           id="path2428" />
        <path
           d="m 142.9656,64.8746 0.1452,-0.0726"
           id="path2430" />
        <path
           d="m 143.1108,64.802 0.0725,-0.0726"
           id="path2432" />
        <path
           d="m 143.1833,64.7294 0.0726,-0.1451"
           id="path2434" />
      </g>
    </g>
  </g>
  <g
     style="fill:#006464;fill-opacity:0;stroke:#006464;stroke-width:0.1524;stroke-linecap:round;stroke-linejoin:round;stroke-opacity:1"
     id="g2442"
     transform="translate(-77.279501,-51.8795)" />
  <g
     style="fill:#009600;fill-opacity:0;stroke:#009600;stroke-width:0.1524;stroke-linecap:round;stroke-linejoin:round;stroke-opacity:1"
     id="g2444"
     transform="translate(-77.279501,-51.8795)" />
  <g
     style="fill:#009600;fill-opacity:0;stroke:#009600;stroke-width:0.381;stroke-linecap:round;stroke-linejoin:round;stroke-opacity:1"
     id="g2448"
     transform="translate(-77.279501,-51.8795)">
    <path
       d="m 100.33,106.68 h 2.54"
       id="path2446" />
  </g>
  <g
     style="fill:#009600;fill-opacity:0;stroke:#009600;stroke-width:0.1524;stroke-linecap:round;stroke-linejoin:round;stroke-opacity:1"
     id="g2450"
     transform="translate(-77.279501,-51.8795)" />
  <g
     style="fill:#009600;fill-opacity:0;stroke:#009600;stroke-width:0.381;stroke-linecap:round;stroke-linejoin:round;stroke-opacity:1"
     id="g2454"
     transform="translate(-77.279501,-51.8795)">
    <path
       d="m 100.33,87.63 h 2.54"
       id="path2452" />
  </g>
  <g
     style="fill:#009600;fill-opacity:0;stroke:#009600;stroke-width:0.1524;stroke-linecap:round;stroke-linejoin:round;stroke-opacity:1"
     id="g2456"
     transform="translate(-77.279501,-51.8795)" />
  <g
     style="fill:#009600;fill-opacity:0;stroke:#009600;stroke-width:0.381;stroke-linecap:round;stroke-linejoin:round;stroke-opacity:1"
     id="g2460"
     transform="translate(-77.279501,-51.8795)">
    <path
       d="m 102.87,102.87 v 3.81"
       id="path2458" />
  </g>
  <g
     style="fill:#009600;fill-opacity:0;stroke:#009600;stroke-width:0.1524;stroke-linecap:round;stroke-linejoin:round;stroke-opacity:1"
     id="g2462"
     transform="translate(-77.279501,-51.8795)" />
  <g
     style="fill:#009600;fill-opacity:0;stroke:#009600;stroke-width:0.381;stroke-linecap:round;stroke-linejoin:round;stroke-opacity:1"
     id="g2466"
     transform="translate(-77.279501,-51.8795)">
    <path
       d="m 102.87,106.68 h 35.56"
       id="path2464" />
  </g>
  <g
     style="fill:#009600;fill-opacity:0;stroke:#009600;stroke-width:0.1524;stroke-linecap:round;stroke-linejoin:round;stroke-opacity:1"
     id="g2468"
     transform="translate(-77.279501,-51.8795)" />
  <g
     style="fill:#009600;fill-opacity:0;stroke:#009600;stroke-width:0.381;stroke-linecap:round;stroke-linejoin:round;stroke-opacity:1"
     id="g2472"
     transform="translate(-77.279501,-51.8795)">
    <path
       d="m 102.87,87.63 v 2.54"
       id="path2470" />
  </g>
  <g
     style="fill:#009600;fill-opacity:0;stroke:#009600;stroke-width:0.1524;stroke-linecap:round;stroke-linejoin:round;stroke-opacity:1"
     id="g2474"
     transform="translate(-77.279501,-51.8795)" />
  <g
     style="fill:#009600;fill-opacity:0;stroke:#009600;stroke-width:0.381;stroke-linecap:round;stroke-linejoin:round;stroke-opacity:1"
     id="g2478"
     transform="translate(-77.279501,-51.8795)">
    <path
       d="m 138.43,80.01 v 26.67"
       id="path2476" />
  </g>
  <g
     style="fill:#009600;fill-opacity:0;stroke:#009600;stroke-width:0.1524;stroke-linecap:round;stroke-linejoin:round;stroke-opacity:1"
     id="g2480"
     transform="translate(-77.279501,-51.8795)" />
  <g
     style="fill:#009600;fill-opacity:1;stroke:#009600;stroke-width:0.1524;stroke-linecap:round;stroke-linejoin:round;stroke-opacity:1"
     id="g2484"
     transform="translate(-77.279501,-51.8795)">
    <circle
       cx="102.87"
       cy="106.68"
       r="0.45719999"
       id="circle2482" />
  </g>
</svg>
