<?xml version="1.0" encoding="UTF-8" standalone="no"?>
<svg
   xmlns:dc="http://purl.org/dc/elements/1.1/"
   xmlns:cc="http://creativecommons.org/ns#"
   xmlns:rdf="http://www.w3.org/1999/02/22-rdf-syntax-ns#"
   xmlns:svg="http://www.w3.org/2000/svg"
   xmlns="http://www.w3.org/2000/svg"
   version="1.1"
   width="71.500999mm"
   height="25.781mm"
   viewBox="0 0 71.501 25.781"
   id="svg3124">
  <metadata
     id="metadata3130">
    <rdf:RDF>
      <cc:Work
         rdf:about="">
        <dc:format>image/svg+xml</dc:format>
        <dc:type
           rdf:resource="http://purl.org/dc/dcmitype/StillImage" />
      </cc:Work>
    </rdf:RDF>
  </metadata>
  <defs
     id="defs3128" />
  <title
     id="title2462">SVG Image created as trinamic_wiring-TMC2209-bidirectional-coupled.svg date 2023/08/02 16:28:28 </title>
  <desc
     id="desc2464">Image generated by Eeschema-SVG </desc>
  <g
     style="fill:#000000;fill-opacity:1;stroke:#000000;stroke-linecap:round;stroke-linejoin:round;stroke-opacity:1"
     id="g2466"
     transform="translate(-103.9495,-86.169501)" />
  <g
     style="fill:#000000;fill-opacity:0;stroke:#000000;stroke-width:0.1524;stroke-linecap:round;stroke-linejoin:round;stroke-opacity:1"
     id="g2708"
     transform="translate(-103.9495,-86.169501)">
    <g
       id="g2468" />
    <g
       style="fill:#586e75;fill-opacity:0;stroke:#586e75;stroke-width:0.1524;stroke-linecap:round;stroke-linejoin:round;stroke-opacity:1"
       id="g2470" />
    <g
       style="fill:#586e75;fill-opacity:0;stroke:#586e75;stroke-width:0.381;stroke-linecap:round;stroke-linejoin:round;stroke-opacity:1"
       id="g2646">
      <rect
         x="154.94"
         y="86.360001"
         width="20.32"
         height="25.4"
         rx="0.000000"
         id="rect2472" />
      <text
         x="165.10001"
         y="99.695"
         textLength="9.4160004"
         font-size="1.6933px"
         lengthAdjust="spacingAndGlyphs"
         text-anchor="middle"
         opacity="0"
         id="text2474">TMC2209</text>
      <g
         class="stroked-text"
         id="g2642">
        <desc
           id="desc2476">TMC2209</desc>
        <path
           d="m 160.9574,98.3576 h 0.7257"
           id="path2478" />
        <path
           d="m 161.3203,99.6276 v -1.27"
           id="path2480" />
        <path
           d="m 162.1064,99.6276 v -1.27"
           id="path2482" />
        <path
           d="m 162.1064,98.3576 0.4234,0.9072"
           id="path2484" />
        <path
           d="m 162.5298,99.2648 0.4233,-0.9072"
           id="path2486" />
        <path
           d="m 162.9531,98.3576 v 1.27"
           id="path2488" />
        <path
           d="m 164.2835,99.5067 -0.0604,0.0605"
           id="path2490" />
        <path
           d="m 164.2231,99.5672 -0.1815,0.0604"
           id="path2492" />
        <path
           d="m 164.0416,99.6276 h -0.1209"
           id="path2494" />
        <path
           d="m 163.9207,99.6276 -0.1814,-0.0604"
           id="path2496" />
        <path
           d="m 163.7393,99.5672 -0.121,-0.121"
           id="path2498" />
        <path
           d="m 163.6183,99.4462 -0.0605,-0.121"
           id="path2500" />
        <path
           d="m 163.5578,99.3252 -0.0604,-0.2419"
           id="path2502" />
        <path
           d="M 163.4974,99.0833 V 98.9019"
           id="path2504" />
        <path
           d="M 163.4974,98.9019 163.5578,98.66"
           id="path2506" />
        <path
           d="m 163.5578,98.66 0.0605,-0.1209"
           id="path2508" />
        <path
           d="m 163.6183,98.5391 0.121,-0.121"
           id="path2510" />
        <path
           d="m 163.7393,98.4181 0.1814,-0.0605"
           id="path2512" />
        <path
           d="m 163.9207,98.3576 h 0.1209"
           id="path2514" />
        <path
           d="m 164.0416,98.3576 0.1815,0.0605"
           id="path2516" />
        <path
           d="m 164.2231,98.4181 0.0604,0.0605"
           id="path2518" />
        <path
           d="m 164.7674,98.4786 0.0604,-0.0605"
           id="path2520" />
        <path
           d="m 164.8278,98.4181 0.121,-0.0605"
           id="path2522" />
        <path
           d="m 164.9488,98.3576 h 0.3024"
           id="path2524" />
        <path
           d="m 165.2512,98.3576 0.1209,0.0605"
           id="path2526" />
        <path
           d="m 165.3721,98.4181 0.0605,0.0605"
           id="path2528" />
        <path
           d="m 165.4326,98.4786 0.0605,0.1209"
           id="path2530" />
        <path
           d="m 165.4931,98.5995 v 0.121"
           id="path2532" />
        <path
           d="m 165.4931,98.7205 -0.0605,0.1814"
           id="path2534" />
        <path
           d="m 165.4326,98.9019 -0.7257,0.7257"
           id="path2536" />
        <path
           d="m 164.7069,99.6276 h 0.7862"
           id="path2538" />
        <path
           d="m 165.9769,98.4786 0.0604,-0.0605"
           id="path2540" />
        <path
           d="m 166.0373,98.4181 0.121,-0.0605"
           id="path2542" />
        <path
           d="m 166.1583,98.3576 h 0.3024"
           id="path2544" />
        <path
           d="m 166.4607,98.3576 0.1209,0.0605"
           id="path2546" />
        <path
           d="m 166.5816,98.4181 0.0605,0.0605"
           id="path2548" />
        <path
           d="m 166.6421,98.4786 0.0605,0.1209"
           id="path2550" />
        <path
           d="m 166.7026,98.5995 v 0.121"
           id="path2552" />
        <path
           d="m 166.7026,98.7205 -0.0605,0.1814"
           id="path2554" />
        <path
           d="m 166.6421,98.9019 -0.7257,0.7257"
           id="path2556" />
        <path
           d="m 165.9164,99.6276 h 0.7862"
           id="path2558" />
        <path
           d="m 167.4887,98.3576 h 0.121"
           id="path2560" />
        <path
           d="m 167.6097,98.3576 0.1209,0.0605"
           id="path2562" />
        <path
           d="m 167.7306,98.4181 0.0605,0.0605"
           id="path2564" />
        <path
           d="m 167.7911,98.4786 0.0605,0.1209"
           id="path2566" />
        <path
           d="m 167.8516,98.5995 0.0605,0.2419"
           id="path2568" />
        <path
           d="m 167.9121,98.8414 v 0.3024"
           id="path2570" />
        <path
           d="m 167.9121,99.1438 -0.0605,0.2419"
           id="path2572" />
        <path
           d="m 167.8516,99.3857 -0.0605,0.121"
           id="path2574" />
        <path
           d="m 167.7911,99.5067 -0.0605,0.0605"
           id="path2576" />
        <path
           d="m 167.7306,99.5672 -0.1209,0.0604"
           id="path2578" />
        <path
           d="m 167.6097,99.6276 h -0.121"
           id="path2580" />
        <path
           d="m 167.4887,99.6276 -0.1209,-0.0604"
           id="path2582" />
        <path
           d="m 167.3678,99.5672 -0.0605,-0.0605"
           id="path2584" />
        <path
           d="m 167.3073,99.5067 -0.0605,-0.121"
           id="path2586" />
        <path
           d="m 167.2468,99.3857 -0.0604,-0.2419"
           id="path2588" />
        <path
           d="M 167.1864,99.1438 V 98.8414"
           id="path2590" />
        <path
           d="m 167.1864,98.8414 0.0604,-0.2419"
           id="path2592" />
        <path
           d="m 167.2468,98.5995 0.0605,-0.1209"
           id="path2594" />
        <path
           d="m 167.3073,98.4786 0.0605,-0.0605"
           id="path2596" />
        <path
           d="m 167.3678,98.4181 0.1209,-0.0605"
           id="path2598" />
        <path
           d="m 168.5168,99.6276 h 0.2419"
           id="path2600" />
        <path
           d="m 168.7587,99.6276 0.121,-0.0604"
           id="path2602" />
        <path
           d="m 168.8797,99.5672 0.0604,-0.0605"
           id="path2604" />
        <path
           d="m 168.9401,99.5067 0.121,-0.1815"
           id="path2606" />
        <path
           d="m 169.0611,99.3252 0.0605,-0.2419"
           id="path2608" />
        <path
           d="M 169.1216,99.0833 V 98.5995"
           id="path2610" />
        <path
           d="m 169.1216,98.5995 -0.0605,-0.1209"
           id="path2612" />
        <path
           d="m 169.0611,98.4786 -0.0605,-0.0605"
           id="path2614" />
        <path
           d="m 169.0006,98.4181 -0.1209,-0.0605"
           id="path2616" />
        <path
           d="m 168.8797,98.3576 h -0.2419"
           id="path2618" />
        <path
           d="m 168.6378,98.3576 -0.121,0.0605"
           id="path2620" />
        <path
           d="m 168.5168,98.4181 -0.0605,0.0605"
           id="path2622" />
        <path
           d="m 168.4563,98.4786 -0.0604,0.1209"
           id="path2624" />
        <path
           d="m 168.3959,98.5995 v 0.3024"
           id="path2626" />
        <path
           d="m 168.3959,98.9019 0.0604,0.121"
           id="path2628" />
        <path
           d="m 168.4563,99.0229 0.0605,0.0604"
           id="path2630" />
        <path
           d="m 168.5168,99.0833 0.121,0.0605"
           id="path2632" />
        <path
           d="m 168.6378,99.1438 h 0.2419"
           id="path2634" />
        <path
           d="m 168.8797,99.1438 0.1209,-0.0605"
           id="path2636" />
        <path
           d="m 169.0006,99.0833 0.0605,-0.0604"
           id="path2638" />
        <path
           d="m 169.0611,99.0229 0.0605,-0.121"
           id="path2640" />
      </g>
      <path
         d="M 154.94,88.9 H 152.4"
         id="path2644" />
    </g>
    <g
       style="fill:#cb4b16;fill-opacity:0;stroke:#cb4b16;stroke-width:0.381;stroke-linecap:round;stroke-linejoin:round;stroke-opacity:1"
       id="g2648" />
    <g
       style="fill:#cb4b16;fill-opacity:0;stroke:#cb4b16;stroke-width:0.1524;stroke-linecap:round;stroke-linejoin:round;stroke-opacity:1"
       id="g2706">
      <text
         x="155.95599"
         y="89.535004"
         textLength="4.8599"
         font-size="1.6933px"
         lengthAdjust="spacingAndGlyphs"
         text-anchor="start"
         opacity="0"
         id="text2650">UART</text>
      <g
         class="stroked-text"
         id="g2704">
        <desc
           id="desc2652">UART</desc>
        <path
           d="m 156.3585,88.2095 v 1.0281"
           id="path2654" />
        <path
           d="m 156.3585,89.2376 0.0605,0.121"
           id="path2656" />
        <path
           d="m 156.419,89.3586 0.0605,0.0605"
           id="path2658" />
        <path
           d="m 156.4795,89.4191 0.1209,0.0604"
           id="path2660" />
        <path
           d="m 156.6004,89.4795 h 0.2419"
           id="path2662" />
        <path
           d="m 156.8423,89.4795 0.121,-0.0604"
           id="path2664" />
        <path
           d="m 156.9633,89.4191 0.0605,-0.0605"
           id="path2666" />
        <path
           d="m 157.0238,89.3586 0.0604,-0.121"
           id="path2668" />
        <path
           d="M 157.0842,89.2376 V 88.2095"
           id="path2670" />
        <path
           d="m 157.6286,89.1167 h 0.6047"
           id="path2672" />
        <path
           d="m 157.5076,89.4795 0.4233,-1.27"
           id="path2674" />
        <path
           d="m 157.9309,88.2095 0.4234,1.27"
           id="path2676" />
        <path
           d="M 159.5033,89.4795 159.08,88.8748"
           id="path2678" />
        <path
           d="m 158.7776,89.4795 v -1.27"
           id="path2680" />
        <path
           d="m 158.7776,88.2095 h 0.4838"
           id="path2682" />
        <path
           d="m 159.2614,88.2095 0.121,0.0605"
           id="path2684" />
        <path
           d="m 159.3824,88.27 0.0605,0.0605"
           id="path2686" />
        <path
           d="m 159.4429,88.3305 0.0604,0.1209"
           id="path2688" />
        <path
           d="m 159.5033,88.4514 v 0.1815"
           id="path2690" />
        <path
           d="m 159.5033,88.6329 -0.0604,0.1209"
           id="path2692" />
        <path
           d="m 159.4429,88.7538 -0.0605,0.0605"
           id="path2694" />
        <path
           d="m 159.3824,88.8143 -0.121,0.0605"
           id="path2696" />
        <path
           d="m 159.2614,88.8748 h -0.4838"
           id="path2698" />
        <path
           d="m 159.8662,88.2095 h 0.7257"
           id="path2700" />
        <path
           d="m 160.2291,89.4795 v -1.27"
           id="path2702" />
      </g>
    </g>
  </g>
  <g
     style="fill:#cb4b16;fill-opacity:0;stroke:#cb4b16;stroke-width:0.1524;stroke-linecap:round;stroke-linejoin:round;stroke-opacity:1"
     id="g3044"
     transform="translate(-103.9495,-86.169501)">
    <g
       id="g2710" />
    <g
       style="fill:#586e75;fill-opacity:0;stroke:#586e75;stroke-width:0.1524;stroke-linecap:round;stroke-linejoin:round;stroke-opacity:1"
       id="g2712" />
    <g
       style="fill:#586e75;fill-opacity:0;stroke:#586e75;stroke-width:0.381;stroke-linecap:round;stroke-linejoin:round;stroke-opacity:1"
       id="g2982">
      <rect
         x="104.14"
         y="86.360001"
         width="20.32"
         height="25.4"
         rx="0.000000"
         id="rect2714" />
      <text
         x="114.3"
         y="99.695"
         textLength="18.790001"
         font-size="1.6933px"
         lengthAdjust="spacingAndGlyphs"
         text-anchor="middle"
         opacity="0"
         id="text2716">MICROCONTROLLER</text>
      <g
         class="stroked-text"
         id="g2978">
        <desc
           id="desc2718">MICROCONTROLLER</desc>
        <path
           d="m 105.6518,99.6276 v -1.27"
           id="path2720" />
        <path
           d="m 105.6518,98.3576 0.4234,0.9072"
           id="path2722" />
        <path
           d="m 106.0752,99.2648 0.4233,-0.9072"
           id="path2724" />
        <path
           d="m 106.4985,98.3576 v 1.27"
           id="path2726" />
        <path
           d="m 107.1032,99.6276 v -1.27"
           id="path2728" />
        <path
           d="m 108.4337,99.5067 -0.0604,0.0605"
           id="path2730" />
        <path
           d="m 108.3733,99.5672 -0.1815,0.0604"
           id="path2732" />
        <path
           d="m 108.1918,99.6276 h -0.1209"
           id="path2734" />
        <path
           d="m 108.0709,99.6276 -0.1814,-0.0604"
           id="path2736" />
        <path
           d="m 107.8895,99.5672 -0.121,-0.121"
           id="path2738" />
        <path
           d="m 107.7685,99.4462 -0.0605,-0.121"
           id="path2740" />
        <path
           d="m 107.708,99.3252 -0.0604,-0.2419"
           id="path2742" />
        <path
           d="M 107.6476,99.0833 V 98.9019"
           id="path2744" />
        <path
           d="M 107.6476,98.9019 107.708,98.66"
           id="path2746" />
        <path
           d="m 107.708,98.66 0.0605,-0.1209"
           id="path2748" />
        <path
           d="m 107.7685,98.5391 0.121,-0.121"
           id="path2750" />
        <path
           d="m 107.8895,98.4181 0.1814,-0.0605"
           id="path2752" />
        <path
           d="m 108.0709,98.3576 h 0.1209"
           id="path2754" />
        <path
           d="m 108.1918,98.3576 0.1815,0.0605"
           id="path2756" />
        <path
           d="m 108.3733,98.4181 0.0604,0.0605"
           id="path2758" />
        <path
           d="m 109.7037,99.6276 -0.4233,-0.6047"
           id="path2760" />
        <path
           d="m 108.978,99.6276 v -1.27"
           id="path2762" />
        <path
           d="m 108.978,98.3576 h 0.4838"
           id="path2764" />
        <path
           d="m 109.4618,98.3576 0.121,0.0605"
           id="path2766" />
        <path
           d="m 109.5828,98.4181 0.0605,0.0605"
           id="path2768" />
        <path
           d="m 109.6433,98.4786 0.0604,0.1209"
           id="path2770" />
        <path
           d="M 109.7037,98.5995 V 98.781"
           id="path2772" />
        <path
           d="m 109.7037,98.781 -0.0604,0.1209"
           id="path2774" />
        <path
           d="m 109.6433,98.9019 -0.0605,0.0605"
           id="path2776" />
        <path
           d="m 109.5828,98.9624 -0.121,0.0605"
           id="path2778" />
        <path
           d="M 109.4618,99.0229 H 108.978"
           id="path2780" />
        <path
           d="m 110.4899,98.3576 h 0.2419"
           id="path2782" />
        <path
           d="m 110.7318,98.3576 0.121,0.0605"
           id="path2784" />
        <path
           d="m 110.8528,98.4181 0.1209,0.121"
           id="path2786" />
        <path
           d="m 110.9737,98.5391 0.0605,0.2419"
           id="path2788" />
        <path
           d="m 111.0342,98.781 v 0.4233"
           id="path2790" />
        <path
           d="m 111.0342,99.2043 -0.0605,0.2419"
           id="path2792" />
        <path
           d="m 110.9737,99.4462 -0.1209,0.121"
           id="path2794" />
        <path
           d="m 110.8528,99.5672 -0.121,0.0604"
           id="path2796" />
        <path
           d="m 110.7318,99.6276 h -0.2419"
           id="path2798" />
        <path
           d="M 110.4899,99.6276 110.369,99.5672"
           id="path2800" />
        <path
           d="m 110.369,99.5672 -0.121,-0.121"
           id="path2802" />
        <path
           d="m 110.248,99.4462 -0.0604,-0.2419"
           id="path2804" />
        <path
           d="M 110.1876,99.2043 V 98.781"
           id="path2806" />
        <path
           d="m 110.1876,98.781 0.0604,-0.2419"
           id="path2808" />
        <path
           d="m 110.248,98.5391 0.121,-0.121"
           id="path2810" />
        <path
           d="m 110.369,98.4181 0.1209,-0.0605"
           id="path2812" />
        <path
           d="m 112.3042,99.5067 -0.0604,0.0605"
           id="path2814" />
        <path
           d="m 112.2438,99.5672 -0.1815,0.0604"
           id="path2816" />
        <path
           d="m 112.0623,99.6276 h -0.1209"
           id="path2818" />
        <path
           d="M 111.9414,99.6276 111.76,99.5672"
           id="path2820" />
        <path
           d="m 111.76,99.5672 -0.121,-0.121"
           id="path2822" />
        <path
           d="m 111.639,99.4462 -0.0605,-0.121"
           id="path2824" />
        <path
           d="m 111.5785,99.3252 -0.0604,-0.2419"
           id="path2826" />
        <path
           d="M 111.5181,99.0833 V 98.9019"
           id="path2828" />
        <path
           d="M 111.5181,98.9019 111.5785,98.66"
           id="path2830" />
        <path
           d="m 111.5785,98.66 0.0605,-0.1209"
           id="path2832" />
        <path
           d="m 111.639,98.5391 0.121,-0.121"
           id="path2834" />
        <path
           d="m 111.76,98.4181 0.1814,-0.0605"
           id="path2836" />
        <path
           d="m 111.9414,98.3576 h 0.1209"
           id="path2838" />
        <path
           d="m 112.0623,98.3576 0.1815,0.0605"
           id="path2840" />
        <path
           d="m 112.2438,98.4181 0.0604,0.0605"
           id="path2842" />
        <path
           d="m 113.0904,98.3576 h 0.2419"
           id="path2844" />
        <path
           d="m 113.3323,98.3576 0.121,0.0605"
           id="path2846" />
        <path
           d="m 113.4533,98.4181 0.1209,0.121"
           id="path2848" />
        <path
           d="m 113.5742,98.5391 0.0605,0.2419"
           id="path2850" />
        <path
           d="m 113.6347,98.781 v 0.4233"
           id="path2852" />
        <path
           d="m 113.6347,99.2043 -0.0605,0.2419"
           id="path2854" />
        <path
           d="m 113.5742,99.4462 -0.1209,0.121"
           id="path2856" />
        <path
           d="m 113.4533,99.5672 -0.121,0.0604"
           id="path2858" />
        <path
           d="m 113.3323,99.6276 h -0.2419"
           id="path2860" />
        <path
           d="m 113.0904,99.6276 -0.1209,-0.0604"
           id="path2862" />
        <path
           d="m 112.9695,99.5672 -0.121,-0.121"
           id="path2864" />
        <path
           d="m 112.8485,99.4462 -0.0604,-0.2419"
           id="path2866" />
        <path
           d="M 112.7881,99.2043 V 98.781"
           id="path2868" />
        <path
           d="m 112.7881,98.781 0.0604,-0.2419"
           id="path2870" />
        <path
           d="m 112.8485,98.5391 0.121,-0.121"
           id="path2872" />
        <path
           d="m 112.9695,98.4181 0.1209,-0.0605"
           id="path2874" />
        <path
           d="m 114.179,99.6276 v -1.27"
           id="path2876" />
        <path
           d="m 114.179,98.3576 0.7257,1.27"
           id="path2878" />
        <path
           d="m 114.9047,99.6276 v -1.27"
           id="path2880" />
        <path
           d="m 115.3281,98.3576 h 0.7257"
           id="path2882" />
        <path
           d="m 115.691,99.6276 v -1.27"
           id="path2884" />
        <path
           d="m 117.2028,99.6276 -0.4233,-0.6047"
           id="path2886" />
        <path
           d="m 116.4771,99.6276 v -1.27"
           id="path2888" />
        <path
           d="m 116.4771,98.3576 h 0.4838"
           id="path2890" />
        <path
           d="m 116.9609,98.3576 0.121,0.0605"
           id="path2892" />
        <path
           d="m 117.0819,98.4181 0.0605,0.0605"
           id="path2894" />
        <path
           d="m 117.1424,98.4786 0.0604,0.1209"
           id="path2896" />
        <path
           d="M 117.2028,98.5995 V 98.781"
           id="path2898" />
        <path
           d="m 117.2028,98.781 -0.0604,0.1209"
           id="path2900" />
        <path
           d="m 117.1424,98.9019 -0.0605,0.0605"
           id="path2902" />
        <path
           d="m 117.0819,98.9624 -0.121,0.0605"
           id="path2904" />
        <path
           d="m 116.9609,99.0229 h -0.4838"
           id="path2906" />
        <path
           d="m 117.989,98.3576 h 0.2419"
           id="path2908" />
        <path
           d="m 118.2309,98.3576 0.121,0.0605"
           id="path2910" />
        <path
           d="m 118.3519,98.4181 0.1209,0.121"
           id="path2912" />
        <path
           d="m 118.4728,98.5391 0.0605,0.2419"
           id="path2914" />
        <path
           d="m 118.5333,98.781 v 0.4233"
           id="path2916" />
        <path
           d="m 118.5333,99.2043 -0.0605,0.2419"
           id="path2918" />
        <path
           d="m 118.4728,99.4462 -0.1209,0.121"
           id="path2920" />
        <path
           d="m 118.3519,99.5672 -0.121,0.0604"
           id="path2922" />
        <path
           d="M 118.2309,99.6276 H 117.989"
           id="path2924" />
        <path
           d="m 117.989,99.6276 -0.1209,-0.0604"
           id="path2926" />
        <path
           d="m 117.8681,99.5672 -0.121,-0.121"
           id="path2928" />
        <path
           d="m 117.7471,99.4462 -0.0604,-0.2419"
           id="path2930" />
        <path
           d="M 117.6867,99.2043 V 98.781"
           id="path2932" />
        <path
           d="m 117.6867,98.781 0.0604,-0.2419"
           id="path2934" />
        <path
           d="m 117.7471,98.5391 0.121,-0.121"
           id="path2936" />
        <path
           d="m 117.8681,98.4181 0.1209,-0.0605"
           id="path2938" />
        <path
           d="m 119.6824,99.6276 h -0.6048"
           id="path2940" />
        <path
           d="m 119.0776,99.6276 v -1.27"
           id="path2942" />
        <path
           d="m 120.7105,99.6276 h -0.6048"
           id="path2944" />
        <path
           d="m 120.1057,99.6276 v -1.27"
           id="path2946" />
        <path
           d="m 121.1338,98.9624 h 0.4234"
           id="path2948" />
        <path
           d="m 121.7386,99.6276 h -0.6048"
           id="path2950" />
        <path
           d="m 121.1338,99.6276 v -1.27"
           id="path2952" />
        <path
           d="m 121.1338,98.3576 h 0.6048"
           id="path2954" />
        <path
           d="m 123.0085,99.6276 -0.4233,-0.6047"
           id="path2956" />
        <path
           d="m 122.2828,99.6276 v -1.27"
           id="path2958" />
        <path
           d="m 122.2828,98.3576 h 0.4838"
           id="path2960" />
        <path
           d="m 122.7666,98.3576 0.121,0.0605"
           id="path2962" />
        <path
           d="m 122.8876,98.4181 0.0605,0.0605"
           id="path2964" />
        <path
           d="m 122.9481,98.4786 0.0604,0.1209"
           id="path2966" />
        <path
           d="M 123.0085,98.5995 V 98.781"
           id="path2968" />
        <path
           d="m 123.0085,98.781 -0.0604,0.1209"
           id="path2970" />
        <path
           d="m 122.9481,98.9019 -0.0605,0.0605"
           id="path2972" />
        <path
           d="m 122.8876,98.9624 -0.121,0.0605"
           id="path2974" />
        <path
           d="m 122.7666,99.0229 h -0.4838"
           id="path2976" />
      </g>
      <path
         d="M 124.46,91.44 H 127"
         id="path2980" />
    </g>
    <g
       style="fill:#cb4b16;fill-opacity:0;stroke:#cb4b16;stroke-width:0.381;stroke-linecap:round;stroke-linejoin:round;stroke-opacity:1"
       id="g2984" />
    <g
       style="fill:#cb4b16;fill-opacity:0;stroke:#cb4b16;stroke-width:0.1524;stroke-linecap:round;stroke-linejoin:round;stroke-opacity:1"
       id="g3018">
      <text
         x="123.444"
         y="92.074997"
         textLength="2.6826999"
         font-size="1.6933px"
         lengthAdjust="spacingAndGlyphs"
         text-anchor="end"
         opacity="0"
         id="text2986">RX</text>
      <g
         class="stroked-text"
         id="g3016">
        <desc
           id="desc2988">RX</desc>
        <path
           d="M 121.8923,92.0195 121.469,91.4148"
           id="path2990" />
        <path
           d="m 121.1666,92.0195 v -1.27"
           id="path2992" />
        <path
           d="m 121.1666,90.7495 h 0.4838"
           id="path2994" />
        <path
           d="m 121.6504,90.7495 0.121,0.0605"
           id="path2996" />
        <path
           d="m 121.7714,90.81 0.0605,0.0605"
           id="path2998" />
        <path
           d="m 121.8319,90.8705 0.0604,0.1209"
           id="path3000" />
        <path
           d="m 121.8923,90.9914 v 0.1815"
           id="path3002" />
        <path
           d="m 121.8923,91.1729 -0.0604,0.1209"
           id="path3004" />
        <path
           d="m 121.8319,91.2938 -0.0605,0.0605"
           id="path3006" />
        <path
           d="m 121.7714,91.3543 -0.121,0.0605"
           id="path3008" />
        <path
           d="m 121.6504,91.4148 h -0.4838"
           id="path3010" />
        <path
           d="m 122.3157,90.7495 0.8466,1.27"
           id="path3012" />
        <path
           d="m 123.1623,90.7495 -0.8466,1.27"
           id="path3014" />
      </g>
    </g>
    <g
       style="fill:#586e75;fill-opacity:0;stroke:#586e75;stroke-width:0.1524;stroke-linecap:round;stroke-linejoin:round;stroke-opacity:1"
       id="g3020" />
    <g
       style="fill:#586e75;fill-opacity:0;stroke:#586e75;stroke-width:0.381;stroke-linecap:round;stroke-linejoin:round;stroke-opacity:1"
       id="g3024">
      <path
         d="M 124.46,88.9 H 127"
         id="path3022" />
    </g>
    <g
       style="fill:#cb4b16;fill-opacity:0;stroke:#cb4b16;stroke-width:0.381;stroke-linecap:round;stroke-linejoin:round;stroke-opacity:1"
       id="g3026" />
    <g
       style="fill:#cb4b16;fill-opacity:0;stroke:#cb4b16;stroke-width:0.1524;stroke-linecap:round;stroke-linejoin:round;stroke-opacity:1"
       id="g3042">
      <text
         x="123.444"
         y="89.535004"
         textLength="2.3803"
         font-size="1.6933px"
         lengthAdjust="spacingAndGlyphs"
         text-anchor="end"
         opacity="0"
         id="text3028">TX</text>
      <g
         class="stroked-text"
         id="g3040">
        <desc
           id="desc3030">TX</desc>
        <path
           d="m 121.2876,88.2095 h 0.7257"
           id="path3032" />
        <path
           d="m 121.6505,89.4795 v -1.27"
           id="path3034" />
        <path
           d="m 122.3157,88.2095 0.8466,1.27"
           id="path3036" />
        <path
           d="m 123.1623,88.2095 -0.8466,1.27"
           id="path3038" />
      </g>
    </g>
  </g>
  <g
     style="fill:#cb4b16;fill-opacity:0;stroke:#cb4b16;stroke-width:0.1524;stroke-linecap:round;stroke-linejoin:round;stroke-opacity:1"
     id="g3084"
     transform="translate(-103.9495,-86.169501)">
    <g
       id="g3046" />
    <g
       style="fill:#586e75;fill-opacity:0;stroke:#586e75;stroke-width:0.1524;stroke-linecap:round;stroke-linejoin:round;stroke-opacity:1"
       id="g3048" />
    <g
       style="fill:#586e75;fill-opacity:0;stroke:#586e75;stroke-width:0.381;stroke-linecap:round;stroke-linejoin:round;stroke-opacity:1"
       id="g3056">
      <rect
         x="132.08"
         y="87.884003"
         width="7.6199999"
         height="2.0320001"
         rx="0.000000"
         id="rect3050" />
      <path
         d="m 132.08,88.9 h -2.54"
         id="path3052" />
      <path
         d="m 139.7,88.9 h 2.54"
         id="path3054" />
    </g>
    <g
       style="fill:#6c71c4;fill-opacity:0;stroke:#6c71c4;stroke-width:0.381;stroke-linecap:round;stroke-linejoin:round;stroke-opacity:1"
       id="g3058" />
    <g
       style="fill:#6c71c4;fill-opacity:0;stroke:#6c71c4;stroke-width:0.1905;stroke-linecap:round;stroke-linejoin:round;stroke-opacity:1"
       id="g3082">
      <text
         x="135.89"
         y="89.280899"
         textLength="1.7618001"
         font-size="1.016px"
         lengthAdjust="spacingAndGlyphs"
         text-anchor="middle"
         opacity="0"
         id="text3060">1k</text>
      <g
         class="stroked-text"
         id="g3080">
        <desc
           id="desc3062">1k</desc>
        <path
           d="m 135.7992,89.2424 h -0.4354"
           id="path3064" />
        <path
           d="m 135.5815,89.2424 v -0.762"
           id="path3066" />
        <path
           d="m 135.5815,88.4804 -0.0726,0.1089"
           id="path3068" />
        <path
           d="m 135.5089,88.5893 -0.0725,0.0726"
           id="path3070" />
        <path
           d="m 135.4364,88.6619 -0.0726,0.0363"
           id="path3072" />
        <path
           d="m 136.1258,89.2424 v -0.762"
           id="path3074" />
        <path
           d="m 136.1984,88.9522 0.2177,0.2902"
           id="path3076" />
        <path
           d="m 136.4161,88.7344 -0.2903,0.2903"
           id="path3078" />
      </g>
    </g>
  </g>
  <g
     style="fill:#6c71c4;fill-opacity:0;stroke:#6c71c4;stroke-width:0.1524;stroke-linecap:round;stroke-linejoin:round;stroke-opacity:1"
     id="g3086"
     transform="translate(-103.9495,-86.169501)" />
  <g
     style="fill:#859900;fill-opacity:0;stroke:#859900;stroke-width:0.1524;stroke-linecap:round;stroke-linejoin:round;stroke-opacity:1"
     id="g3088"
     transform="translate(-103.9495,-86.169501)" />
  <g
     style="fill:#859900;fill-opacity:0;stroke:#859900;stroke-width:0.381;stroke-linecap:round;stroke-linejoin:round;stroke-opacity:1"
     id="g3092"
     transform="translate(-103.9495,-86.169501)">
    <path
       d="m 142.24,88.9 h 2.54"
       id="path3090" />
  </g>
  <g
     style="fill:#859900;fill-opacity:0;stroke:#859900;stroke-width:0.1524;stroke-linecap:round;stroke-linejoin:round;stroke-opacity:1"
     id="g3094"
     transform="translate(-103.9495,-86.169501)" />
  <g
     style="fill:#859900;fill-opacity:0;stroke:#859900;stroke-width:0.381;stroke-linecap:round;stroke-linejoin:round;stroke-opacity:1"
     id="g3098"
     transform="translate(-103.9495,-86.169501)">
    <path
       d="m 144.78,88.9 v 2.54"
       id="path3096" />
  </g>
  <g
     style="fill:#859900;fill-opacity:0;stroke:#859900;stroke-width:0.1524;stroke-linecap:round;stroke-linejoin:round;stroke-opacity:1"
     id="g3100"
     transform="translate(-103.9495,-86.169501)" />
  <g
     style="fill:#859900;fill-opacity:0;stroke:#859900;stroke-width:0.381;stroke-linecap:round;stroke-linejoin:round;stroke-opacity:1"
     id="g3104"
     transform="translate(-103.9495,-86.169501)">
    <path
       d="m 144.78,88.9 h 7.62"
       id="path3102" />
  </g>
  <g
     style="fill:#859900;fill-opacity:0;stroke:#859900;stroke-width:0.1524;stroke-linecap:round;stroke-linejoin:round;stroke-opacity:1"
     id="g3106"
     transform="translate(-103.9495,-86.169501)" />
  <g
     style="fill:#859900;fill-opacity:0;stroke:#859900;stroke-width:0.381;stroke-linecap:round;stroke-linejoin:round;stroke-opacity:1"
     id="g3110"
     transform="translate(-103.9495,-86.169501)">
    <path
       d="m 127,91.44 h 17.78"
       id="path3108" />
  </g>
  <g
     style="fill:#859900;fill-opacity:0;stroke:#859900;stroke-width:0.1524;stroke-linecap:round;stroke-linejoin:round;stroke-opacity:1"
     id="g3112"
     transform="translate(-103.9495,-86.169501)" />
  <g
     style="fill:#859900;fill-opacity:0;stroke:#859900;stroke-width:0.381;stroke-linecap:round;stroke-linejoin:round;stroke-opacity:1"
     id="g3116"
     transform="translate(-103.9495,-86.169501)">
    <path
       d="m 127,88.9 h 2.54"
       id="path3114" />
  </g>
  <g
     style="fill:#859900;fill-opacity:0;stroke:#859900;stroke-width:0.1524;stroke-linecap:round;stroke-linejoin:round;stroke-opacity:1"
     id="g3118"
     transform="translate(-103.9495,-86.169501)" />
  <g
     style="fill:#859900;fill-opacity:1;stroke:#859900;stroke-width:0.1524;stroke-linecap:round;stroke-linejoin:round;stroke-opacity:1"
     id="g3122"
     transform="translate(-103.9495,-86.169501)">
    <circle
       cx="144.78"
       cy="88.900002"
       r="0.45719999"
       id="circle3120" />
  </g>
</svg>
