<?xml version="1.0" encoding="UTF-8" standalone="no"?>
<svg
   xmlns:dc="http://purl.org/dc/elements/1.1/"
   xmlns:cc="http://creativecommons.org/ns#"
   xmlns:rdf="http://www.w3.org/1999/02/22-rdf-syntax-ns#"
   xmlns:svg="http://www.w3.org/2000/svg"
   xmlns="http://www.w3.org/2000/svg"
   version="1.1"
   width="71.501007mm"
   height="25.781mm"
   viewBox="0 0 71.501008 25.781"
   id="svg80806">
  <metadata
     id="metadata80812">
    <rdf:RDF>
      <cc:Work
         rdf:about="">
        <dc:format>image/svg+xml</dc:format>
        <dc:type
           rdf:resource="http://purl.org/dc/dcmitype/StillImage" />
      </cc:Work>
    </rdf:RDF>
  </metadata>
  <defs
     id="defs80810" />
  <title
     id="title80206">SVG Image created as trinamic_wiring-TMC2209-unidirectional.svg date 2023/08/02 16:28:28 </title>
  <desc
     id="desc80208">Image generated by Eeschema-SVG </desc>
  <g
     style="fill:#000000;fill-opacity:1;stroke:#000000;stroke-linecap:round;stroke-linejoin:round;stroke-opacity:1"
     id="g80210"
     transform="translate(-96.329497,-82.359503)" />
  <g
     style="fill:#000000;fill-opacity:0;stroke:#000000;stroke-width:0.1524;stroke-linecap:round;stroke-linejoin:round;stroke-opacity:1"
     id="g80546"
     transform="translate(-96.329497,-82.359503)">
    <g
       id="g80212" />
    <g
       style="fill:#586e75;fill-opacity:0;stroke:#586e75;stroke-width:0.1524;stroke-linecap:round;stroke-linejoin:round;stroke-opacity:1"
       id="g80214" />
    <g
       style="fill:#586e75;fill-opacity:0;stroke:#586e75;stroke-width:0.381;stroke-linecap:round;stroke-linejoin:round;stroke-opacity:1"
       id="g80484">
      <rect
         x="96.519997"
         y="82.550003"
         width="20.32"
         height="25.4"
         rx="0.000000"
         id="rect80216" />
      <text
         x="106.68"
         y="95.885002"
         textLength="18.790001"
         font-size="1.6933px"
         lengthAdjust="spacingAndGlyphs"
         text-anchor="middle"
         opacity="0"
         id="text80218">MICROCONTROLLER</text>
      <g
         class="stroked-text"
         id="g80480">
        <desc
           id="desc80220">MICROCONTROLLER</desc>
        <path
           d="m 98.0318,95.8176 v -1.27"
           id="path80222" />
        <path
           d="m 98.0318,94.5476 0.4234,0.9072"
           id="path80224" />
        <path
           d="m 98.4552,95.4548 0.4233,-0.9072"
           id="path80226" />
        <path
           d="m 98.8785,94.5476 v 1.27"
           id="path80228" />
        <path
           d="m 99.4832,95.8176 v -1.27"
           id="path80230" />
        <path
           d="m 100.8137,95.6967 -0.0604,0.0605"
           id="path80232" />
        <path
           d="m 100.7533,95.7572 -0.1815,0.0604"
           id="path80234" />
        <path
           d="m 100.5718,95.8176 h -0.1209"
           id="path80236" />
        <path
           d="m 100.4509,95.8176 -0.1814,-0.0604"
           id="path80238" />
        <path
           d="m 100.2695,95.7572 -0.121,-0.121"
           id="path80240" />
        <path
           d="m 100.1485,95.6362 -0.0605,-0.121"
           id="path80242" />
        <path
           d="m 100.088,95.5152 -0.0604,-0.2419"
           id="path80244" />
        <path
           d="M 100.0276,95.2733 V 95.0919"
           id="path80246" />
        <path
           d="M 100.0276,95.0919 100.088,94.85"
           id="path80248" />
        <path
           d="m 100.088,94.85 0.0605,-0.1209"
           id="path80250" />
        <path
           d="m 100.1485,94.7291 0.121,-0.121"
           id="path80252" />
        <path
           d="m 100.2695,94.6081 0.1814,-0.0605"
           id="path80254" />
        <path
           d="m 100.4509,94.5476 h 0.1209"
           id="path80256" />
        <path
           d="m 100.5718,94.5476 0.1815,0.0605"
           id="path80258" />
        <path
           d="m 100.7533,94.6081 0.0604,0.0605"
           id="path80260" />
        <path
           d="m 102.0837,95.8176 -0.4233,-0.6047"
           id="path80262" />
        <path
           d="m 101.358,95.8176 v -1.27"
           id="path80264" />
        <path
           d="m 101.358,94.5476 h 0.4838"
           id="path80266" />
        <path
           d="m 101.8418,94.5476 0.121,0.0605"
           id="path80268" />
        <path
           d="m 101.9628,94.6081 0.0605,0.0605"
           id="path80270" />
        <path
           d="m 102.0233,94.6686 0.0604,0.1209"
           id="path80272" />
        <path
           d="M 102.0837,94.7895 V 94.971"
           id="path80274" />
        <path
           d="m 102.0837,94.971 -0.0604,0.1209"
           id="path80276" />
        <path
           d="m 102.0233,95.0919 -0.0605,0.0605"
           id="path80278" />
        <path
           d="m 101.9628,95.1524 -0.121,0.0605"
           id="path80280" />
        <path
           d="M 101.8418,95.2129 H 101.358"
           id="path80282" />
        <path
           d="m 102.8699,94.5476 h 0.2419"
           id="path80284" />
        <path
           d="m 103.1118,94.5476 0.121,0.0605"
           id="path80286" />
        <path
           d="m 103.2328,94.6081 0.1209,0.121"
           id="path80288" />
        <path
           d="m 103.3537,94.7291 0.0605,0.2419"
           id="path80290" />
        <path
           d="m 103.4142,94.971 v 0.4233"
           id="path80292" />
        <path
           d="m 103.4142,95.3943 -0.0605,0.2419"
           id="path80294" />
        <path
           d="m 103.3537,95.6362 -0.1209,0.121"
           id="path80296" />
        <path
           d="m 103.2328,95.7572 -0.121,0.0604"
           id="path80298" />
        <path
           d="m 103.1118,95.8176 h -0.2419"
           id="path80300" />
        <path
           d="M 102.8699,95.8176 102.749,95.7572"
           id="path80302" />
        <path
           d="m 102.749,95.7572 -0.121,-0.121"
           id="path80304" />
        <path
           d="m 102.628,95.6362 -0.0604,-0.2419"
           id="path80306" />
        <path
           d="M 102.5676,95.3943 V 94.971"
           id="path80308" />
        <path
           d="m 102.5676,94.971 0.0604,-0.2419"
           id="path80310" />
        <path
           d="m 102.628,94.7291 0.121,-0.121"
           id="path80312" />
        <path
           d="m 102.749,94.6081 0.1209,-0.0605"
           id="path80314" />
        <path
           d="m 104.6842,95.6967 -0.0604,0.0605"
           id="path80316" />
        <path
           d="m 104.6238,95.7572 -0.1815,0.0604"
           id="path80318" />
        <path
           d="m 104.4423,95.8176 h -0.1209"
           id="path80320" />
        <path
           d="M 104.3214,95.8176 104.14,95.7572"
           id="path80322" />
        <path
           d="m 104.14,95.7572 -0.121,-0.121"
           id="path80324" />
        <path
           d="m 104.019,95.6362 -0.0605,-0.121"
           id="path80326" />
        <path
           d="m 103.9585,95.5152 -0.0604,-0.2419"
           id="path80328" />
        <path
           d="M 103.8981,95.2733 V 95.0919"
           id="path80330" />
        <path
           d="M 103.8981,95.0919 103.9585,94.85"
           id="path80332" />
        <path
           d="m 103.9585,94.85 0.0605,-0.1209"
           id="path80334" />
        <path
           d="m 104.019,94.7291 0.121,-0.121"
           id="path80336" />
        <path
           d="m 104.14,94.6081 0.1814,-0.0605"
           id="path80338" />
        <path
           d="m 104.3214,94.5476 h 0.1209"
           id="path80340" />
        <path
           d="m 104.4423,94.5476 0.1815,0.0605"
           id="path80342" />
        <path
           d="m 104.6238,94.6081 0.0604,0.0605"
           id="path80344" />
        <path
           d="m 105.4704,94.5476 h 0.2419"
           id="path80346" />
        <path
           d="m 105.7123,94.5476 0.121,0.0605"
           id="path80348" />
        <path
           d="m 105.8333,94.6081 0.1209,0.121"
           id="path80350" />
        <path
           d="m 105.9542,94.7291 0.0605,0.2419"
           id="path80352" />
        <path
           d="m 106.0147,94.971 v 0.4233"
           id="path80354" />
        <path
           d="m 106.0147,95.3943 -0.0605,0.2419"
           id="path80356" />
        <path
           d="m 105.9542,95.6362 -0.1209,0.121"
           id="path80358" />
        <path
           d="m 105.8333,95.7572 -0.121,0.0604"
           id="path80360" />
        <path
           d="m 105.7123,95.8176 h -0.2419"
           id="path80362" />
        <path
           d="m 105.4704,95.8176 -0.1209,-0.0604"
           id="path80364" />
        <path
           d="m 105.3495,95.7572 -0.121,-0.121"
           id="path80366" />
        <path
           d="m 105.2285,95.6362 -0.0604,-0.2419"
           id="path80368" />
        <path
           d="M 105.1681,95.3943 V 94.971"
           id="path80370" />
        <path
           d="m 105.1681,94.971 0.0604,-0.2419"
           id="path80372" />
        <path
           d="m 105.2285,94.7291 0.121,-0.121"
           id="path80374" />
        <path
           d="m 105.3495,94.6081 0.1209,-0.0605"
           id="path80376" />
        <path
           d="m 106.559,95.8176 v -1.27"
           id="path80378" />
        <path
           d="m 106.559,94.5476 0.7257,1.27"
           id="path80380" />
        <path
           d="m 107.2847,95.8176 v -1.27"
           id="path80382" />
        <path
           d="m 107.7081,94.5476 h 0.7257"
           id="path80384" />
        <path
           d="m 108.071,95.8176 v -1.27"
           id="path80386" />
        <path
           d="m 109.5828,95.8176 -0.4233,-0.6047"
           id="path80388" />
        <path
           d="m 108.8571,95.8176 v -1.27"
           id="path80390" />
        <path
           d="m 108.8571,94.5476 h 0.4838"
           id="path80392" />
        <path
           d="m 109.3409,94.5476 0.121,0.0605"
           id="path80394" />
        <path
           d="m 109.4619,94.6081 0.0605,0.0605"
           id="path80396" />
        <path
           d="m 109.5224,94.6686 0.0604,0.1209"
           id="path80398" />
        <path
           d="M 109.5828,94.7895 V 94.971"
           id="path80400" />
        <path
           d="m 109.5828,94.971 -0.0604,0.1209"
           id="path80402" />
        <path
           d="m 109.5224,95.0919 -0.0605,0.0605"
           id="path80404" />
        <path
           d="m 109.4619,95.1524 -0.121,0.0605"
           id="path80406" />
        <path
           d="m 109.3409,95.2129 h -0.4838"
           id="path80408" />
        <path
           d="m 110.369,94.5476 h 0.2419"
           id="path80410" />
        <path
           d="m 110.6109,94.5476 0.121,0.0605"
           id="path80412" />
        <path
           d="m 110.7319,94.6081 0.1209,0.121"
           id="path80414" />
        <path
           d="m 110.8528,94.7291 0.0605,0.2419"
           id="path80416" />
        <path
           d="m 110.9133,94.971 v 0.4233"
           id="path80418" />
        <path
           d="m 110.9133,95.3943 -0.0605,0.2419"
           id="path80420" />
        <path
           d="m 110.8528,95.6362 -0.1209,0.121"
           id="path80422" />
        <path
           d="m 110.7319,95.7572 -0.121,0.0604"
           id="path80424" />
        <path
           d="M 110.6109,95.8176 H 110.369"
           id="path80426" />
        <path
           d="m 110.369,95.8176 -0.1209,-0.0604"
           id="path80428" />
        <path
           d="m 110.2481,95.7572 -0.121,-0.121"
           id="path80430" />
        <path
           d="m 110.1271,95.6362 -0.0604,-0.2419"
           id="path80432" />
        <path
           d="M 110.0667,95.3943 V 94.971"
           id="path80434" />
        <path
           d="m 110.0667,94.971 0.0604,-0.2419"
           id="path80436" />
        <path
           d="m 110.1271,94.7291 0.121,-0.121"
           id="path80438" />
        <path
           d="m 110.2481,94.6081 0.1209,-0.0605"
           id="path80440" />
        <path
           d="m 112.0624,95.8176 h -0.6048"
           id="path80442" />
        <path
           d="m 111.4576,95.8176 v -1.27"
           id="path80444" />
        <path
           d="m 113.0905,95.8176 h -0.6048"
           id="path80446" />
        <path
           d="m 112.4857,95.8176 v -1.27"
           id="path80448" />
        <path
           d="m 113.5138,95.1524 h 0.4234"
           id="path80450" />
        <path
           d="m 114.1186,95.8176 h -0.6048"
           id="path80452" />
        <path
           d="m 113.5138,95.8176 v -1.27"
           id="path80454" />
        <path
           d="m 113.5138,94.5476 h 0.6048"
           id="path80456" />
        <path
           d="m 115.3885,95.8176 -0.4233,-0.6047"
           id="path80458" />
        <path
           d="m 114.6628,95.8176 v -1.27"
           id="path80460" />
        <path
           d="m 114.6628,94.5476 h 0.4838"
           id="path80462" />
        <path
           d="m 115.1466,94.5476 0.121,0.0605"
           id="path80464" />
        <path
           d="m 115.2676,94.6081 0.0605,0.0605"
           id="path80466" />
        <path
           d="m 115.3281,94.6686 0.0604,0.1209"
           id="path80468" />
        <path
           d="M 115.3885,94.7895 V 94.971"
           id="path80470" />
        <path
           d="m 115.3885,94.971 -0.0604,0.1209"
           id="path80472" />
        <path
           d="m 115.3281,95.0919 -0.0605,0.0605"
           id="path80474" />
        <path
           d="m 115.2676,95.1524 -0.121,0.0605"
           id="path80476" />
        <path
           d="m 115.1466,95.2129 h -0.4838"
           id="path80478" />
      </g>
      <path
         d="m 116.84,87.63 h 2.54"
         id="path80482" />
    </g>
    <g
       style="fill:#cb4b16;fill-opacity:0;stroke:#cb4b16;stroke-width:0.381;stroke-linecap:round;stroke-linejoin:round;stroke-opacity:1"
       id="g80486" />
    <g
       style="fill:#cb4b16;fill-opacity:0;stroke:#cb4b16;stroke-width:0.1524;stroke-linecap:round;stroke-linejoin:round;stroke-opacity:1"
       id="g80520">
      <text
         x="115.824"
         y="88.264999"
         textLength="2.6826999"
         font-size="1.6933px"
         lengthAdjust="spacingAndGlyphs"
         text-anchor="end"
         opacity="0"
         id="text80488">RX</text>
      <g
         class="stroked-text"
         id="g80518">
        <desc
           id="desc80490">RX</desc>
        <path
           d="M 114.2723,88.2095 113.849,87.6048"
           id="path80492" />
        <path
           d="m 113.5466,88.2095 v -1.27"
           id="path80494" />
        <path
           d="m 113.5466,86.9395 h 0.4838"
           id="path80496" />
        <path
           d="M 114.0304,86.9395 114.1514,87"
           id="path80498" />
        <path
           d="m 114.1514,87 0.0605,0.0605"
           id="path80500" />
        <path
           d="m 114.2119,87.0605 0.0604,0.1209"
           id="path80502" />
        <path
           d="m 114.2723,87.1814 v 0.1815"
           id="path80504" />
        <path
           d="m 114.2723,87.3629 -0.0604,0.1209"
           id="path80506" />
        <path
           d="m 114.2119,87.4838 -0.0605,0.0605"
           id="path80508" />
        <path
           d="m 114.1514,87.5443 -0.121,0.0605"
           id="path80510" />
        <path
           d="m 114.0304,87.6048 h -0.4838"
           id="path80512" />
        <path
           d="m 114.6957,86.9395 0.8466,1.27"
           id="path80514" />
        <path
           d="m 115.5423,86.9395 -0.8466,1.27"
           id="path80516" />
      </g>
    </g>
    <g
       style="fill:#586e75;fill-opacity:0;stroke:#586e75;stroke-width:0.1524;stroke-linecap:round;stroke-linejoin:round;stroke-opacity:1"
       id="g80522" />
    <g
       style="fill:#586e75;fill-opacity:0;stroke:#586e75;stroke-width:0.381;stroke-linecap:round;stroke-linejoin:round;stroke-opacity:1"
       id="g80526">
      <path
         d="m 116.84,85.09 h 2.54"
         id="path80524" />
    </g>
    <g
       style="fill:#cb4b16;fill-opacity:0;stroke:#cb4b16;stroke-width:0.381;stroke-linecap:round;stroke-linejoin:round;stroke-opacity:1"
       id="g80528" />
    <g
       style="fill:#cb4b16;fill-opacity:0;stroke:#cb4b16;stroke-width:0.1524;stroke-linecap:round;stroke-linejoin:round;stroke-opacity:1"
       id="g80544">
      <text
         x="115.824"
         y="85.724998"
         textLength="2.3803"
         font-size="1.6933px"
         lengthAdjust="spacingAndGlyphs"
         text-anchor="end"
         opacity="0"
         id="text80530">TX</text>
      <g
         class="stroked-text"
         id="g80542">
        <desc
           id="desc80532">TX</desc>
        <path
           d="m 113.6676,84.3995 h 0.7257"
           id="path80534" />
        <path
           d="m 114.0305,85.6695 v -1.27"
           id="path80536" />
        <path
           d="m 114.6957,84.3995 0.8466,1.27"
           id="path80538" />
        <path
           d="m 115.5423,84.3995 -0.8466,1.27"
           id="path80540" />
      </g>
    </g>
  </g>
  <g
     style="fill:#cb4b16;fill-opacity:0;stroke:#cb4b16;stroke-width:0.1524;stroke-linecap:round;stroke-linejoin:round;stroke-opacity:1"
     id="g80788"
     transform="translate(-96.329497,-82.359503)">
    <g
       id="g80548" />
    <g
       style="fill:#586e75;fill-opacity:0;stroke:#586e75;stroke-width:0.1524;stroke-linecap:round;stroke-linejoin:round;stroke-opacity:1"
       id="g80550" />
    <g
       style="fill:#586e75;fill-opacity:0;stroke:#586e75;stroke-width:0.381;stroke-linecap:round;stroke-linejoin:round;stroke-opacity:1"
       id="g80726">
      <rect
         x="147.32001"
         y="82.550003"
         width="20.32"
         height="25.4"
         rx="0.000000"
         id="rect80552" />
      <text
         x="157.48"
         y="95.885002"
         textLength="9.4160004"
         font-size="1.6933px"
         lengthAdjust="spacingAndGlyphs"
         text-anchor="middle"
         opacity="0"
         id="text80554">TMC2209</text>
      <g
         class="stroked-text"
         id="g80722">
        <desc
           id="desc80556">TMC2209</desc>
        <path
           d="m 153.3374,94.5476 h 0.7257"
           id="path80558" />
        <path
           d="m 153.7003,95.8176 v -1.27"
           id="path80560" />
        <path
           d="m 154.4864,95.8176 v -1.27"
           id="path80562" />
        <path
           d="m 154.4864,94.5476 0.4234,0.9072"
           id="path80564" />
        <path
           d="m 154.9098,95.4548 0.4233,-0.9072"
           id="path80566" />
        <path
           d="m 155.3331,94.5476 v 1.27"
           id="path80568" />
        <path
           d="m 156.6635,95.6967 -0.0604,0.0605"
           id="path80570" />
        <path
           d="m 156.6031,95.7572 -0.1815,0.0604"
           id="path80572" />
        <path
           d="m 156.4216,95.8176 h -0.1209"
           id="path80574" />
        <path
           d="m 156.3007,95.8176 -0.1814,-0.0604"
           id="path80576" />
        <path
           d="m 156.1193,95.7572 -0.121,-0.121"
           id="path80578" />
        <path
           d="m 155.9983,95.6362 -0.0605,-0.121"
           id="path80580" />
        <path
           d="m 155.9378,95.5152 -0.0604,-0.2419"
           id="path80582" />
        <path
           d="M 155.8774,95.2733 V 95.0919"
           id="path80584" />
        <path
           d="M 155.8774,95.0919 155.9378,94.85"
           id="path80586" />
        <path
           d="m 155.9378,94.85 0.0605,-0.1209"
           id="path80588" />
        <path
           d="m 155.9983,94.7291 0.121,-0.121"
           id="path80590" />
        <path
           d="m 156.1193,94.6081 0.1814,-0.0605"
           id="path80592" />
        <path
           d="m 156.3007,94.5476 h 0.1209"
           id="path80594" />
        <path
           d="m 156.4216,94.5476 0.1815,0.0605"
           id="path80596" />
        <path
           d="m 156.6031,94.6081 0.0604,0.0605"
           id="path80598" />
        <path
           d="m 157.1474,94.6686 0.0604,-0.0605"
           id="path80600" />
        <path
           d="m 157.2078,94.6081 0.121,-0.0605"
           id="path80602" />
        <path
           d="m 157.3288,94.5476 h 0.3024"
           id="path80604" />
        <path
           d="m 157.6312,94.5476 0.1209,0.0605"
           id="path80606" />
        <path
           d="m 157.7521,94.6081 0.0605,0.0605"
           id="path80608" />
        <path
           d="m 157.8126,94.6686 0.0605,0.1209"
           id="path80610" />
        <path
           d="m 157.8731,94.7895 v 0.121"
           id="path80612" />
        <path
           d="m 157.8731,94.9105 -0.0605,0.1814"
           id="path80614" />
        <path
           d="m 157.8126,95.0919 -0.7257,0.7257"
           id="path80616" />
        <path
           d="m 157.0869,95.8176 h 0.7862"
           id="path80618" />
        <path
           d="m 158.3569,94.6686 0.0604,-0.0605"
           id="path80620" />
        <path
           d="m 158.4173,94.6081 0.121,-0.0605"
           id="path80622" />
        <path
           d="m 158.5383,94.5476 h 0.3024"
           id="path80624" />
        <path
           d="m 158.8407,94.5476 0.1209,0.0605"
           id="path80626" />
        <path
           d="m 158.9616,94.6081 0.0605,0.0605"
           id="path80628" />
        <path
           d="m 159.0221,94.6686 0.0605,0.1209"
           id="path80630" />
        <path
           d="m 159.0826,94.7895 v 0.121"
           id="path80632" />
        <path
           d="m 159.0826,94.9105 -0.0605,0.1814"
           id="path80634" />
        <path
           d="m 159.0221,95.0919 -0.7257,0.7257"
           id="path80636" />
        <path
           d="m 158.2964,95.8176 h 0.7862"
           id="path80638" />
        <path
           d="m 159.8687,94.5476 h 0.121"
           id="path80640" />
        <path
           d="m 159.9897,94.5476 0.1209,0.0605"
           id="path80642" />
        <path
           d="m 160.1106,94.6081 0.0605,0.0605"
           id="path80644" />
        <path
           d="m 160.1711,94.6686 0.0605,0.1209"
           id="path80646" />
        <path
           d="m 160.2316,94.7895 0.0605,0.2419"
           id="path80648" />
        <path
           d="m 160.2921,95.0314 v 0.3024"
           id="path80650" />
        <path
           d="m 160.2921,95.3338 -0.0605,0.2419"
           id="path80652" />
        <path
           d="m 160.2316,95.5757 -0.0605,0.121"
           id="path80654" />
        <path
           d="m 160.1711,95.6967 -0.0605,0.0605"
           id="path80656" />
        <path
           d="m 160.1106,95.7572 -0.1209,0.0604"
           id="path80658" />
        <path
           d="m 159.9897,95.8176 h -0.121"
           id="path80660" />
        <path
           d="m 159.8687,95.8176 -0.1209,-0.0604"
           id="path80662" />
        <path
           d="m 159.7478,95.7572 -0.0605,-0.0605"
           id="path80664" />
        <path
           d="m 159.6873,95.6967 -0.0605,-0.121"
           id="path80666" />
        <path
           d="m 159.6268,95.5757 -0.0604,-0.2419"
           id="path80668" />
        <path
           d="M 159.5664,95.3338 V 95.0314"
           id="path80670" />
        <path
           d="m 159.5664,95.0314 0.0604,-0.2419"
           id="path80672" />
        <path
           d="m 159.6268,94.7895 0.0605,-0.1209"
           id="path80674" />
        <path
           d="m 159.6873,94.6686 0.0605,-0.0605"
           id="path80676" />
        <path
           d="m 159.7478,94.6081 0.1209,-0.0605"
           id="path80678" />
        <path
           d="m 160.8968,95.8176 h 0.2419"
           id="path80680" />
        <path
           d="m 161.1387,95.8176 0.121,-0.0604"
           id="path80682" />
        <path
           d="m 161.2597,95.7572 0.0604,-0.0605"
           id="path80684" />
        <path
           d="m 161.3201,95.6967 0.121,-0.1815"
           id="path80686" />
        <path
           d="m 161.4411,95.5152 0.0605,-0.2419"
           id="path80688" />
        <path
           d="M 161.5016,95.2733 V 94.7895"
           id="path80690" />
        <path
           d="m 161.5016,94.7895 -0.0605,-0.1209"
           id="path80692" />
        <path
           d="m 161.4411,94.6686 -0.0605,-0.0605"
           id="path80694" />
        <path
           d="m 161.3806,94.6081 -0.1209,-0.0605"
           id="path80696" />
        <path
           d="m 161.2597,94.5476 h -0.2419"
           id="path80698" />
        <path
           d="m 161.0178,94.5476 -0.121,0.0605"
           id="path80700" />
        <path
           d="m 160.8968,94.6081 -0.0605,0.0605"
           id="path80702" />
        <path
           d="m 160.8363,94.6686 -0.0604,0.1209"
           id="path80704" />
        <path
           d="m 160.7759,94.7895 v 0.3024"
           id="path80706" />
        <path
           d="m 160.7759,95.0919 0.0604,0.121"
           id="path80708" />
        <path
           d="m 160.8363,95.2129 0.0605,0.0604"
           id="path80710" />
        <path
           d="m 160.8968,95.2733 0.121,0.0605"
           id="path80712" />
        <path
           d="m 161.0178,95.3338 h 0.2419"
           id="path80714" />
        <path
           d="m 161.2597,95.3338 0.1209,-0.0605"
           id="path80716" />
        <path
           d="m 161.3806,95.2733 0.0605,-0.0604"
           id="path80718" />
        <path
           d="m 161.4411,95.2129 0.0605,-0.121"
           id="path80720" />
      </g>
      <path
         d="m 147.32,85.09 h -2.54"
         id="path80724" />
    </g>
    <g
       style="fill:#cb4b16;fill-opacity:0;stroke:#cb4b16;stroke-width:0.381;stroke-linecap:round;stroke-linejoin:round;stroke-opacity:1"
       id="g80728" />
    <g
       style="fill:#cb4b16;fill-opacity:0;stroke:#cb4b16;stroke-width:0.1524;stroke-linecap:round;stroke-linejoin:round;stroke-opacity:1"
       id="g80786">
      <text
         x="148.336"
         y="85.724998"
         textLength="4.8599"
         font-size="1.6933px"
         lengthAdjust="spacingAndGlyphs"
         text-anchor="start"
         opacity="0"
         id="text80730">UART</text>
      <g
         class="stroked-text"
         id="g80784">
        <desc
           id="desc80732">UART</desc>
        <path
           d="m 148.7385,84.3995 v 1.0281"
           id="path80734" />
        <path
           d="m 148.7385,85.4276 0.0605,0.121"
           id="path80736" />
        <path
           d="m 148.799,85.5486 0.0605,0.0605"
           id="path80738" />
        <path
           d="m 148.8595,85.6091 0.1209,0.0604"
           id="path80740" />
        <path
           d="m 148.9804,85.6695 h 0.2419"
           id="path80742" />
        <path
           d="m 149.2223,85.6695 0.121,-0.0604"
           id="path80744" />
        <path
           d="m 149.3433,85.6091 0.0605,-0.0605"
           id="path80746" />
        <path
           d="m 149.4038,85.5486 0.0604,-0.121"
           id="path80748" />
        <path
           d="M 149.4642,85.4276 V 84.3995"
           id="path80750" />
        <path
           d="m 150.0086,85.3067 h 0.6047"
           id="path80752" />
        <path
           d="m 149.8876,85.6695 0.4233,-1.27"
           id="path80754" />
        <path
           d="m 150.3109,84.3995 0.4234,1.27"
           id="path80756" />
        <path
           d="M 151.8833,85.6695 151.46,85.0648"
           id="path80758" />
        <path
           d="m 151.1576,85.6695 v -1.27"
           id="path80760" />
        <path
           d="m 151.1576,84.3995 h 0.4838"
           id="path80762" />
        <path
           d="m 151.6414,84.3995 0.121,0.0605"
           id="path80764" />
        <path
           d="m 151.7624,84.46 0.0605,0.0605"
           id="path80766" />
        <path
           d="m 151.8229,84.5205 0.0604,0.1209"
           id="path80768" />
        <path
           d="m 151.8833,84.6414 v 0.1815"
           id="path80770" />
        <path
           d="m 151.8833,84.8229 -0.0604,0.1209"
           id="path80772" />
        <path
           d="m 151.8229,84.9438 -0.0605,0.0605"
           id="path80774" />
        <path
           d="m 151.7624,85.0043 -0.121,0.0605"
           id="path80776" />
        <path
           d="m 151.6414,85.0648 h -0.4838"
           id="path80778" />
        <path
           d="m 152.2462,84.3995 h 0.7257"
           id="path80780" />
        <path
           d="m 152.6091,85.6695 v -1.27"
           id="path80782" />
      </g>
    </g>
  </g>
  <g
     style="fill:#cb4b16;fill-opacity:0;stroke:#cb4b16;stroke-width:0.1524;stroke-linecap:round;stroke-linejoin:round;stroke-opacity:1"
     id="g80790"
     transform="translate(-96.329497,-82.359503)" />
  <g
     style="fill:#859900;fill-opacity:0;stroke:#859900;stroke-width:0.1524;stroke-linecap:round;stroke-linejoin:round;stroke-opacity:1"
     id="g80792"
     transform="translate(-96.329497,-82.359503)" />
  <g
     style="fill:#859900;fill-opacity:0;stroke:#859900;stroke-width:0.381;stroke-linecap:round;stroke-linejoin:round;stroke-opacity:1"
     id="g80796"
     transform="translate(-96.329497,-82.359503)">
    <path
       d="m 119.38,85.09 h 25.4"
       id="path80794" />
  </g>
  <g
     style="fill:#859900;fill-opacity:0;stroke:#859900;stroke-width:0.1524;stroke-linecap:round;stroke-linejoin:round;stroke-opacity:1"
     id="g80798"
     transform="translate(-96.329497,-82.359503)" />
  <g
     style="fill:#6c71c4;fill-opacity:0;stroke:#6c71c4;stroke-width:0.1524;stroke-linecap:round;stroke-linejoin:round;stroke-opacity:1"
     id="g80804"
     transform="translate(-96.329497,-82.359503)">
    <path
       d="m 118.7704,87.0204 1.2192,1.2192"
       id="path80800" />
    <path
       d="m 119.9896,87.0204 -1.2192,1.2192"
       id="path80802" />
  </g>
</svg>
