<?xml version="1.0" encoding="UTF-8" standalone="no"?>
<svg
   xmlns:dc="http://purl.org/dc/elements/1.1/"
   xmlns:cc="http://creativecommons.org/ns#"
   xmlns:rdf="http://www.w3.org/1999/02/22-rdf-syntax-ns#"
   xmlns:svg="http://www.w3.org/2000/svg"
   xmlns="http://www.w3.org/2000/svg"
   version="1.1"
   width="71.500992mm"
   height="53.721001mm"
   viewBox="0 0 71.500992 53.721"
   id="svg79364">
  <metadata
     id="metadata79370">
    <rdf:RDF>
      <cc:Work
         rdf:about="">
        <dc:format>image/svg+xml</dc:format>
        <dc:type
           rdf:resource="http://purl.org/dc/dcmitype/StillImage" />
      </cc:Work>
    </rdf:RDF>
  </metadata>
  <defs
     id="defs79368" />
  <title
     id="title78374">SVG Image created as trinamic_wiring-TMC2209-unidirectional-multiple-uart.svg date 2023/08/02 16:37:47 </title>
  <desc
     id="desc78376">Image generated by Eeschema-SVG </desc>
  <g
     style="fill:#000000;fill-opacity:1;stroke:#000000;stroke-linecap:round;stroke-linejoin:round;stroke-opacity:1"
     id="g78378"
     transform="translate(-102.6795,-74.7395)" />
  <g
     style="fill:#000000;fill-opacity:0;stroke:#000000;stroke-width:0.1524;stroke-linecap:round;stroke-linejoin:round;stroke-opacity:1"
     id="g78840"
     transform="translate(-102.6795,-74.7395)">
    <g
       id="g78380" />
    <g
       style="fill:#586e75;fill-opacity:0;stroke:#586e75;stroke-width:0.1524;stroke-linecap:round;stroke-linejoin:round;stroke-opacity:1"
       id="g78382" />
    <g
       style="fill:#586e75;fill-opacity:0;stroke:#586e75;stroke-width:0.381;stroke-linecap:round;stroke-linejoin:round;stroke-opacity:1"
       id="g78652">
      <rect
         x="102.87"
         y="74.93"
         width="20.32"
         height="25.4"
         rx="0.000000"
         id="rect78384" />
      <text
         x="113.03"
         y="88.264999"
         textLength="18.790001"
         font-size="1.6933px"
         lengthAdjust="spacingAndGlyphs"
         text-anchor="middle"
         opacity="0"
         id="text78386">MICROCONTROLLER</text>
      <g
         class="stroked-text"
         id="g78648">
        <desc
           id="desc78388">MICROCONTROLLER</desc>
        <path
           d="m 104.3818,88.1976 v -1.27"
           id="path78390" />
        <path
           d="m 104.3818,86.9276 0.4234,0.9072"
           id="path78392" />
        <path
           d="m 104.8052,87.8348 0.4233,-0.9072"
           id="path78394" />
        <path
           d="m 105.2285,86.9276 v 1.27"
           id="path78396" />
        <path
           d="m 105.8332,88.1976 v -1.27"
           id="path78398" />
        <path
           d="m 107.1637,88.0767 -0.0604,0.0605"
           id="path78400" />
        <path
           d="m 107.1033,88.1372 -0.1815,0.0604"
           id="path78402" />
        <path
           d="m 106.9218,88.1976 h -0.1209"
           id="path78404" />
        <path
           d="m 106.8009,88.1976 -0.1814,-0.0604"
           id="path78406" />
        <path
           d="m 106.6195,88.1372 -0.121,-0.121"
           id="path78408" />
        <path
           d="m 106.4985,88.0162 -0.0605,-0.121"
           id="path78410" />
        <path
           d="m 106.438,87.8952 -0.0604,-0.2419"
           id="path78412" />
        <path
           d="M 106.3776,87.6533 V 87.4719"
           id="path78414" />
        <path
           d="M 106.3776,87.4719 106.438,87.23"
           id="path78416" />
        <path
           d="m 106.438,87.23 0.0605,-0.1209"
           id="path78418" />
        <path
           d="m 106.4985,87.1091 0.121,-0.121"
           id="path78420" />
        <path
           d="m 106.6195,86.9881 0.1814,-0.0605"
           id="path78422" />
        <path
           d="m 106.8009,86.9276 h 0.1209"
           id="path78424" />
        <path
           d="m 106.9218,86.9276 0.1815,0.0605"
           id="path78426" />
        <path
           d="m 107.1033,86.9881 0.0604,0.0605"
           id="path78428" />
        <path
           d="m 108.4337,88.1976 -0.4233,-0.6047"
           id="path78430" />
        <path
           d="m 107.708,88.1976 v -1.27"
           id="path78432" />
        <path
           d="m 107.708,86.9276 h 0.4838"
           id="path78434" />
        <path
           d="m 108.1918,86.9276 0.121,0.0605"
           id="path78436" />
        <path
           d="m 108.3128,86.9881 0.0605,0.0605"
           id="path78438" />
        <path
           d="m 108.3733,87.0486 0.0604,0.1209"
           id="path78440" />
        <path
           d="M 108.4337,87.1695 V 87.351"
           id="path78442" />
        <path
           d="m 108.4337,87.351 -0.0604,0.1209"
           id="path78444" />
        <path
           d="m 108.3733,87.4719 -0.0605,0.0605"
           id="path78446" />
        <path
           d="m 108.3128,87.5324 -0.121,0.0605"
           id="path78448" />
        <path
           d="M 108.1918,87.5929 H 107.708"
           id="path78450" />
        <path
           d="m 109.2199,86.9276 h 0.2419"
           id="path78452" />
        <path
           d="m 109.4618,86.9276 0.121,0.0605"
           id="path78454" />
        <path
           d="m 109.5828,86.9881 0.1209,0.121"
           id="path78456" />
        <path
           d="m 109.7037,87.1091 0.0605,0.2419"
           id="path78458" />
        <path
           d="m 109.7642,87.351 v 0.4233"
           id="path78460" />
        <path
           d="m 109.7642,87.7743 -0.0605,0.2419"
           id="path78462" />
        <path
           d="m 109.7037,88.0162 -0.1209,0.121"
           id="path78464" />
        <path
           d="m 109.5828,88.1372 -0.121,0.0604"
           id="path78466" />
        <path
           d="m 109.4618,88.1976 h -0.2419"
           id="path78468" />
        <path
           d="M 109.2199,88.1976 109.099,88.1372"
           id="path78470" />
        <path
           d="m 109.099,88.1372 -0.121,-0.121"
           id="path78472" />
        <path
           d="m 108.978,88.0162 -0.0604,-0.2419"
           id="path78474" />
        <path
           d="M 108.9176,87.7743 V 87.351"
           id="path78476" />
        <path
           d="m 108.9176,87.351 0.0604,-0.2419"
           id="path78478" />
        <path
           d="m 108.978,87.1091 0.121,-0.121"
           id="path78480" />
        <path
           d="m 109.099,86.9881 0.1209,-0.0605"
           id="path78482" />
        <path
           d="m 111.0342,88.0767 -0.0604,0.0605"
           id="path78484" />
        <path
           d="m 110.9738,88.1372 -0.1815,0.0604"
           id="path78486" />
        <path
           d="m 110.7923,88.1976 h -0.1209"
           id="path78488" />
        <path
           d="M 110.6714,88.1976 110.49,88.1372"
           id="path78490" />
        <path
           d="m 110.49,88.1372 -0.121,-0.121"
           id="path78492" />
        <path
           d="m 110.369,88.0162 -0.0605,-0.121"
           id="path78494" />
        <path
           d="m 110.3085,87.8952 -0.0604,-0.2419"
           id="path78496" />
        <path
           d="M 110.2481,87.6533 V 87.4719"
           id="path78498" />
        <path
           d="M 110.2481,87.4719 110.3085,87.23"
           id="path78500" />
        <path
           d="m 110.3085,87.23 0.0605,-0.1209"
           id="path78502" />
        <path
           d="m 110.369,87.1091 0.121,-0.121"
           id="path78504" />
        <path
           d="m 110.49,86.9881 0.1814,-0.0605"
           id="path78506" />
        <path
           d="m 110.6714,86.9276 h 0.1209"
           id="path78508" />
        <path
           d="m 110.7923,86.9276 0.1815,0.0605"
           id="path78510" />
        <path
           d="m 110.9738,86.9881 0.0604,0.0605"
           id="path78512" />
        <path
           d="m 111.8204,86.9276 h 0.2419"
           id="path78514" />
        <path
           d="m 112.0623,86.9276 0.121,0.0605"
           id="path78516" />
        <path
           d="m 112.1833,86.9881 0.1209,0.121"
           id="path78518" />
        <path
           d="m 112.3042,87.1091 0.0605,0.2419"
           id="path78520" />
        <path
           d="m 112.3647,87.351 v 0.4233"
           id="path78522" />
        <path
           d="m 112.3647,87.7743 -0.0605,0.2419"
           id="path78524" />
        <path
           d="m 112.3042,88.0162 -0.1209,0.121"
           id="path78526" />
        <path
           d="m 112.1833,88.1372 -0.121,0.0604"
           id="path78528" />
        <path
           d="m 112.0623,88.1976 h -0.2419"
           id="path78530" />
        <path
           d="m 111.8204,88.1976 -0.1209,-0.0604"
           id="path78532" />
        <path
           d="m 111.6995,88.1372 -0.121,-0.121"
           id="path78534" />
        <path
           d="m 111.5785,88.0162 -0.0604,-0.2419"
           id="path78536" />
        <path
           d="M 111.5181,87.7743 V 87.351"
           id="path78538" />
        <path
           d="m 111.5181,87.351 0.0604,-0.2419"
           id="path78540" />
        <path
           d="m 111.5785,87.1091 0.121,-0.121"
           id="path78542" />
        <path
           d="m 111.6995,86.9881 0.1209,-0.0605"
           id="path78544" />
        <path
           d="m 112.909,88.1976 v -1.27"
           id="path78546" />
        <path
           d="m 112.909,86.9276 0.7257,1.27"
           id="path78548" />
        <path
           d="m 113.6347,88.1976 v -1.27"
           id="path78550" />
        <path
           d="m 114.0581,86.9276 h 0.7257"
           id="path78552" />
        <path
           d="m 114.421,88.1976 v -1.27"
           id="path78554" />
        <path
           d="m 115.9328,88.1976 -0.4233,-0.6047"
           id="path78556" />
        <path
           d="m 115.2071,88.1976 v -1.27"
           id="path78558" />
        <path
           d="m 115.2071,86.9276 h 0.4838"
           id="path78560" />
        <path
           d="m 115.6909,86.9276 0.121,0.0605"
           id="path78562" />
        <path
           d="m 115.8119,86.9881 0.0605,0.0605"
           id="path78564" />
        <path
           d="m 115.8724,87.0486 0.0604,0.1209"
           id="path78566" />
        <path
           d="M 115.9328,87.1695 V 87.351"
           id="path78568" />
        <path
           d="m 115.9328,87.351 -0.0604,0.1209"
           id="path78570" />
        <path
           d="m 115.8724,87.4719 -0.0605,0.0605"
           id="path78572" />
        <path
           d="m 115.8119,87.5324 -0.121,0.0605"
           id="path78574" />
        <path
           d="m 115.6909,87.5929 h -0.4838"
           id="path78576" />
        <path
           d="m 116.719,86.9276 h 0.2419"
           id="path78578" />
        <path
           d="m 116.9609,86.9276 0.121,0.0605"
           id="path78580" />
        <path
           d="m 117.0819,86.9881 0.1209,0.121"
           id="path78582" />
        <path
           d="m 117.2028,87.1091 0.0605,0.2419"
           id="path78584" />
        <path
           d="m 117.2633,87.351 v 0.4233"
           id="path78586" />
        <path
           d="m 117.2633,87.7743 -0.0605,0.2419"
           id="path78588" />
        <path
           d="m 117.2028,88.0162 -0.1209,0.121"
           id="path78590" />
        <path
           d="m 117.0819,88.1372 -0.121,0.0604"
           id="path78592" />
        <path
           d="M 116.9609,88.1976 H 116.719"
           id="path78594" />
        <path
           d="m 116.719,88.1976 -0.1209,-0.0604"
           id="path78596" />
        <path
           d="m 116.5981,88.1372 -0.121,-0.121"
           id="path78598" />
        <path
           d="m 116.4771,88.0162 -0.0604,-0.2419"
           id="path78600" />
        <path
           d="M 116.4167,87.7743 V 87.351"
           id="path78602" />
        <path
           d="m 116.4167,87.351 0.0604,-0.2419"
           id="path78604" />
        <path
           d="m 116.4771,87.1091 0.121,-0.121"
           id="path78606" />
        <path
           d="m 116.5981,86.9881 0.1209,-0.0605"
           id="path78608" />
        <path
           d="m 118.4124,88.1976 h -0.6048"
           id="path78610" />
        <path
           d="m 117.8076,88.1976 v -1.27"
           id="path78612" />
        <path
           d="m 119.4405,88.1976 h -0.6048"
           id="path78614" />
        <path
           d="m 118.8357,88.1976 v -1.27"
           id="path78616" />
        <path
           d="m 119.8638,87.5324 h 0.4234"
           id="path78618" />
        <path
           d="m 120.4686,88.1976 h -0.6048"
           id="path78620" />
        <path
           d="m 119.8638,88.1976 v -1.27"
           id="path78622" />
        <path
           d="m 119.8638,86.9276 h 0.6048"
           id="path78624" />
        <path
           d="m 121.7385,88.1976 -0.4233,-0.6047"
           id="path78626" />
        <path
           d="m 121.0128,88.1976 v -1.27"
           id="path78628" />
        <path
           d="m 121.0128,86.9276 h 0.4838"
           id="path78630" />
        <path
           d="m 121.4966,86.9276 0.121,0.0605"
           id="path78632" />
        <path
           d="m 121.6176,86.9881 0.0605,0.0605"
           id="path78634" />
        <path
           d="m 121.6781,87.0486 0.0604,0.1209"
           id="path78636" />
        <path
           d="M 121.7385,87.1695 V 87.351"
           id="path78638" />
        <path
           d="m 121.7385,87.351 -0.0604,0.1209"
           id="path78640" />
        <path
           d="m 121.6781,87.4719 -0.0605,0.0605"
           id="path78642" />
        <path
           d="m 121.6176,87.5324 -0.121,0.0605"
           id="path78644" />
        <path
           d="m 121.4966,87.5929 h -0.4838"
           id="path78646" />
      </g>
      <path
         d="m 123.19,80.01 h 2.54"
         id="path78650" />
    </g>
    <g
       style="fill:#cb4b16;fill-opacity:0;stroke:#cb4b16;stroke-width:0.381;stroke-linecap:round;stroke-linejoin:round;stroke-opacity:1"
       id="g78654" />
    <g
       style="fill:#cb4b16;fill-opacity:0;stroke:#cb4b16;stroke-width:0.1524;stroke-linecap:round;stroke-linejoin:round;stroke-opacity:1"
       id="g78698">
      <text
         x="122.174"
         y="80.644997"
         textLength="3.8922"
         font-size="1.6933px"
         lengthAdjust="spacingAndGlyphs"
         text-anchor="end"
         opacity="0"
         id="text78656">RX1</text>
      <g
         class="stroked-text"
         id="g78696">
        <desc
           id="desc78658">RX1</desc>
        <path
           d="m 119.4128,80.5895 -0.4233,-0.6047"
           id="path78660" />
        <path
           d="m 118.6871,80.5895 v -1.27"
           id="path78662" />
        <path
           d="m 118.6871,79.3195 h 0.4838"
           id="path78664" />
        <path
           d="m 119.1709,79.3195 0.121,0.0605"
           id="path78666" />
        <path
           d="m 119.2919,79.38 0.0605,0.0605"
           id="path78668" />
        <path
           d="m 119.3524,79.4405 0.0604,0.1209"
           id="path78670" />
        <path
           d="m 119.4128,79.5614 v 0.1815"
           id="path78672" />
        <path
           d="m 119.4128,79.7429 -0.0604,0.1209"
           id="path78674" />
        <path
           d="m 119.3524,79.8638 -0.0605,0.0605"
           id="path78676" />
        <path
           d="m 119.2919,79.9243 -0.121,0.0605"
           id="path78678" />
        <path
           d="m 119.1709,79.9848 h -0.4838"
           id="path78680" />
        <path
           d="m 119.8362,79.3195 0.8466,1.27"
           id="path78682" />
        <path
           d="m 120.6828,79.3195 -0.8466,1.27"
           id="path78684" />
        <path
           d="m 121.8319,80.5895 h -0.7257"
           id="path78686" />
        <path
           d="m 121.469,80.5895 v -1.27"
           id="path78688" />
        <path
           d="m 121.469,79.3195 -0.1209,0.1815"
           id="path78690" />
        <path
           d="m 121.3481,79.501 -0.121,0.1209"
           id="path78692" />
        <path
           d="m 121.2271,79.6219 -0.1209,0.0605"
           id="path78694" />
      </g>
    </g>
    <g
       style="fill:#586e75;fill-opacity:0;stroke:#586e75;stroke-width:0.1524;stroke-linecap:round;stroke-linejoin:round;stroke-opacity:1"
       id="g78700" />
    <g
       style="fill:#586e75;fill-opacity:0;stroke:#586e75;stroke-width:0.381;stroke-linecap:round;stroke-linejoin:round;stroke-opacity:1"
       id="g78704">
      <path
         d="m 123.19,77.47 h 2.54"
         id="path78702" />
    </g>
    <g
       style="fill:#cb4b16;fill-opacity:0;stroke:#cb4b16;stroke-width:0.381;stroke-linecap:round;stroke-linejoin:round;stroke-opacity:1"
       id="g78706" />
    <g
       style="fill:#cb4b16;fill-opacity:0;stroke:#cb4b16;stroke-width:0.1524;stroke-linecap:round;stroke-linejoin:round;stroke-opacity:1"
       id="g78732">
      <text
         x="122.174"
         y="78.105003"
         textLength="3.5897999"
         font-size="1.6933px"
         lengthAdjust="spacingAndGlyphs"
         text-anchor="end"
         opacity="0"
         id="text78708">TX1</text>
      <g
         class="stroked-text"
         id="g78730">
        <desc
           id="desc78710">TX1</desc>
        <path
           d="m 118.8081,76.7795 h 0.7257"
           id="path78712" />
        <path
           d="m 119.171,78.0495 v -1.27"
           id="path78714" />
        <path
           d="m 119.8362,76.7795 0.8466,1.27"
           id="path78716" />
        <path
           d="m 120.6828,76.7795 -0.8466,1.27"
           id="path78718" />
        <path
           d="m 121.8319,78.0495 h -0.7257"
           id="path78720" />
        <path
           d="m 121.469,78.0495 v -1.27"
           id="path78722" />
        <path
           d="m 121.469,76.7795 -0.1209,0.1815"
           id="path78724" />
        <path
           d="m 121.3481,76.961 -0.121,0.1209"
           id="path78726" />
        <path
           d="m 121.2271,77.0819 -0.1209,0.0605"
           id="path78728" />
      </g>
    </g>
    <g
       style="fill:#586e75;fill-opacity:0;stroke:#586e75;stroke-width:0.1524;stroke-linecap:round;stroke-linejoin:round;stroke-opacity:1"
       id="g78734" />
    <g
       style="fill:#586e75;fill-opacity:0;stroke:#586e75;stroke-width:0.381;stroke-linecap:round;stroke-linejoin:round;stroke-opacity:1"
       id="g78738">
      <path
         d="m 123.19,92.71 h 2.54"
         id="path78736" />
    </g>
    <g
       style="fill:#cb4b16;fill-opacity:0;stroke:#cb4b16;stroke-width:0.381;stroke-linecap:round;stroke-linejoin:round;stroke-opacity:1"
       id="g78740" />
    <g
       style="fill:#cb4b16;fill-opacity:0;stroke:#cb4b16;stroke-width:0.1524;stroke-linecap:round;stroke-linejoin:round;stroke-opacity:1"
       id="g78794">
      <text
         x="122.174"
         y="93.345001"
         textLength="3.8922"
         font-size="1.6933px"
         lengthAdjust="spacingAndGlyphs"
         text-anchor="end"
         opacity="0"
         id="text78742">RX2</text>
      <g
         class="stroked-text"
         id="g78792">
        <desc
           id="desc78744">RX2</desc>
        <path
           d="m 119.4128,93.2895 -0.4233,-0.6047"
           id="path78746" />
        <path
           d="m 118.6871,93.2895 v -1.27"
           id="path78748" />
        <path
           d="m 118.6871,92.0195 h 0.4838"
           id="path78750" />
        <path
           d="m 119.1709,92.0195 0.121,0.0605"
           id="path78752" />
        <path
           d="m 119.2919,92.08 0.0605,0.0605"
           id="path78754" />
        <path
           d="m 119.3524,92.1405 0.0604,0.1209"
           id="path78756" />
        <path
           d="m 119.4128,92.2614 v 0.1815"
           id="path78758" />
        <path
           d="m 119.4128,92.4429 -0.0604,0.1209"
           id="path78760" />
        <path
           d="m 119.3524,92.5638 -0.0605,0.0605"
           id="path78762" />
        <path
           d="m 119.2919,92.6243 -0.121,0.0605"
           id="path78764" />
        <path
           d="m 119.1709,92.6848 h -0.4838"
           id="path78766" />
        <path
           d="m 119.8362,92.0195 0.8466,1.27"
           id="path78768" />
        <path
           d="m 120.6828,92.0195 -0.8466,1.27"
           id="path78770" />
        <path
           d="M 121.1062,92.1405 121.1666,92.08"
           id="path78772" />
        <path
           d="m 121.1666,92.08 0.121,-0.0605"
           id="path78774" />
        <path
           d="M 121.2876,92.0195 H 121.59"
           id="path78776" />
        <path
           d="m 121.59,92.0195 0.1209,0.0605"
           id="path78778" />
        <path
           d="m 121.7109,92.08 0.0605,0.0605"
           id="path78780" />
        <path
           d="m 121.7714,92.1405 0.0605,0.1209"
           id="path78782" />
        <path
           d="m 121.8319,92.2614 v 0.121"
           id="path78784" />
        <path
           d="m 121.8319,92.3824 -0.0605,0.1814"
           id="path78786" />
        <path
           d="m 121.7714,92.5638 -0.7257,0.7257"
           id="path78788" />
        <path
           d="m 121.0457,93.2895 h 0.7862"
           id="path78790" />
      </g>
    </g>
    <g
       style="fill:#586e75;fill-opacity:0;stroke:#586e75;stroke-width:0.1524;stroke-linecap:round;stroke-linejoin:round;stroke-opacity:1"
       id="g78796" />
    <g
       style="fill:#586e75;fill-opacity:0;stroke:#586e75;stroke-width:0.381;stroke-linecap:round;stroke-linejoin:round;stroke-opacity:1"
       id="g78800">
      <path
         d="m 123.19,90.17 h 2.54"
         id="path78798" />
    </g>
    <g
       style="fill:#cb4b16;fill-opacity:0;stroke:#cb4b16;stroke-width:0.381;stroke-linecap:round;stroke-linejoin:round;stroke-opacity:1"
       id="g78802" />
    <g
       style="fill:#cb4b16;fill-opacity:0;stroke:#cb4b16;stroke-width:0.1524;stroke-linecap:round;stroke-linejoin:round;stroke-opacity:1"
       id="g78838">
      <text
         x="122.174"
         y="90.805"
         textLength="3.5897999"
         font-size="1.6933px"
         lengthAdjust="spacingAndGlyphs"
         text-anchor="end"
         opacity="0"
         id="text78804">TX2</text>
      <g
         class="stroked-text"
         id="g78836">
        <desc
           id="desc78806">TX2</desc>
        <path
           d="m 118.8081,89.4795 h 0.7257"
           id="path78808" />
        <path
           d="m 119.171,90.7495 v -1.27"
           id="path78810" />
        <path
           d="m 119.8362,89.4795 0.8466,1.27"
           id="path78812" />
        <path
           d="m 120.6828,89.4795 -0.8466,1.27"
           id="path78814" />
        <path
           d="M 121.1062,89.6005 121.1666,89.54"
           id="path78816" />
        <path
           d="m 121.1666,89.54 0.121,-0.0605"
           id="path78818" />
        <path
           d="M 121.2876,89.4795 H 121.59"
           id="path78820" />
        <path
           d="m 121.59,89.4795 0.1209,0.0605"
           id="path78822" />
        <path
           d="m 121.7109,89.54 0.0605,0.0605"
           id="path78824" />
        <path
           d="m 121.7714,89.6005 0.0605,0.1209"
           id="path78826" />
        <path
           d="m 121.8319,89.7214 v 0.121"
           id="path78828" />
        <path
           d="m 121.8319,89.8424 -0.0605,0.1814"
           id="path78830" />
        <path
           d="m 121.7714,90.0238 -0.7257,0.7257"
           id="path78832" />
        <path
           d="m 121.0457,90.7495 h 0.7862"
           id="path78834" />
      </g>
    </g>
  </g>
  <g
     style="fill:#cb4b16;fill-opacity:0;stroke:#cb4b16;stroke-width:0.1524;stroke-linecap:round;stroke-linejoin:round;stroke-opacity:1"
     id="g79082"
     transform="translate(-102.6795,-74.7395)">
    <g
       id="g78842" />
    <g
       style="fill:#586e75;fill-opacity:0;stroke:#586e75;stroke-width:0.1524;stroke-linecap:round;stroke-linejoin:round;stroke-opacity:1"
       id="g78844" />
    <g
       style="fill:#586e75;fill-opacity:0;stroke:#586e75;stroke-width:0.381;stroke-linecap:round;stroke-linejoin:round;stroke-opacity:1"
       id="g79020">
      <rect
         x="153.67"
         y="74.93"
         width="20.32"
         height="25.4"
         rx="0.000000"
         id="rect78846" />
      <text
         x="163.83"
         y="88.264999"
         textLength="9.4160004"
         font-size="1.6933px"
         lengthAdjust="spacingAndGlyphs"
         text-anchor="middle"
         opacity="0"
         id="text78848">TMC2209</text>
      <g
         class="stroked-text"
         id="g79016">
        <desc
           id="desc78850">TMC2209</desc>
        <path
           d="m 159.6874,86.9276 h 0.7257"
           id="path78852" />
        <path
           d="m 160.0503,88.1976 v -1.27"
           id="path78854" />
        <path
           d="m 160.8364,88.1976 v -1.27"
           id="path78856" />
        <path
           d="m 160.8364,86.9276 0.4234,0.9072"
           id="path78858" />
        <path
           d="m 161.2598,87.8348 0.4233,-0.9072"
           id="path78860" />
        <path
           d="m 161.6831,86.9276 v 1.27"
           id="path78862" />
        <path
           d="m 163.0135,88.0767 -0.0604,0.0605"
           id="path78864" />
        <path
           d="m 162.9531,88.1372 -0.1815,0.0604"
           id="path78866" />
        <path
           d="m 162.7716,88.1976 h -0.1209"
           id="path78868" />
        <path
           d="m 162.6507,88.1976 -0.1814,-0.0604"
           id="path78870" />
        <path
           d="m 162.4693,88.1372 -0.121,-0.121"
           id="path78872" />
        <path
           d="m 162.3483,88.0162 -0.0605,-0.121"
           id="path78874" />
        <path
           d="m 162.2878,87.8952 -0.0604,-0.2419"
           id="path78876" />
        <path
           d="M 162.2274,87.6533 V 87.4719"
           id="path78878" />
        <path
           d="M 162.2274,87.4719 162.2878,87.23"
           id="path78880" />
        <path
           d="m 162.2878,87.23 0.0605,-0.1209"
           id="path78882" />
        <path
           d="m 162.3483,87.1091 0.121,-0.121"
           id="path78884" />
        <path
           d="m 162.4693,86.9881 0.1814,-0.0605"
           id="path78886" />
        <path
           d="m 162.6507,86.9276 h 0.1209"
           id="path78888" />
        <path
           d="m 162.7716,86.9276 0.1815,0.0605"
           id="path78890" />
        <path
           d="m 162.9531,86.9881 0.0604,0.0605"
           id="path78892" />
        <path
           d="m 163.4974,87.0486 0.0604,-0.0605"
           id="path78894" />
        <path
           d="m 163.5578,86.9881 0.121,-0.0605"
           id="path78896" />
        <path
           d="m 163.6788,86.9276 h 0.3024"
           id="path78898" />
        <path
           d="m 163.9812,86.9276 0.1209,0.0605"
           id="path78900" />
        <path
           d="m 164.1021,86.9881 0.0605,0.0605"
           id="path78902" />
        <path
           d="m 164.1626,87.0486 0.0605,0.1209"
           id="path78904" />
        <path
           d="m 164.2231,87.1695 v 0.121"
           id="path78906" />
        <path
           d="m 164.2231,87.2905 -0.0605,0.1814"
           id="path78908" />
        <path
           d="m 164.1626,87.4719 -0.7257,0.7257"
           id="path78910" />
        <path
           d="m 163.4369,88.1976 h 0.7862"
           id="path78912" />
        <path
           d="m 164.7069,87.0486 0.0604,-0.0605"
           id="path78914" />
        <path
           d="m 164.7673,86.9881 0.121,-0.0605"
           id="path78916" />
        <path
           d="m 164.8883,86.9276 h 0.3024"
           id="path78918" />
        <path
           d="m 165.1907,86.9276 0.1209,0.0605"
           id="path78920" />
        <path
           d="m 165.3116,86.9881 0.0605,0.0605"
           id="path78922" />
        <path
           d="m 165.3721,87.0486 0.0605,0.1209"
           id="path78924" />
        <path
           d="m 165.4326,87.1695 v 0.121"
           id="path78926" />
        <path
           d="m 165.4326,87.2905 -0.0605,0.1814"
           id="path78928" />
        <path
           d="m 165.3721,87.4719 -0.7257,0.7257"
           id="path78930" />
        <path
           d="m 164.6464,88.1976 h 0.7862"
           id="path78932" />
        <path
           d="m 166.2187,86.9276 h 0.121"
           id="path78934" />
        <path
           d="m 166.3397,86.9276 0.1209,0.0605"
           id="path78936" />
        <path
           d="m 166.4606,86.9881 0.0605,0.0605"
           id="path78938" />
        <path
           d="m 166.5211,87.0486 0.0605,0.1209"
           id="path78940" />
        <path
           d="m 166.5816,87.1695 0.0605,0.2419"
           id="path78942" />
        <path
           d="m 166.6421,87.4114 v 0.3024"
           id="path78944" />
        <path
           d="m 166.6421,87.7138 -0.0605,0.2419"
           id="path78946" />
        <path
           d="m 166.5816,87.9557 -0.0605,0.121"
           id="path78948" />
        <path
           d="m 166.5211,88.0767 -0.0605,0.0605"
           id="path78950" />
        <path
           d="m 166.4606,88.1372 -0.1209,0.0604"
           id="path78952" />
        <path
           d="m 166.3397,88.1976 h -0.121"
           id="path78954" />
        <path
           d="m 166.2187,88.1976 -0.1209,-0.0604"
           id="path78956" />
        <path
           d="m 166.0978,88.1372 -0.0605,-0.0605"
           id="path78958" />
        <path
           d="m 166.0373,88.0767 -0.0605,-0.121"
           id="path78960" />
        <path
           d="m 165.9768,87.9557 -0.0604,-0.2419"
           id="path78962" />
        <path
           d="M 165.9164,87.7138 V 87.4114"
           id="path78964" />
        <path
           d="m 165.9164,87.4114 0.0604,-0.2419"
           id="path78966" />
        <path
           d="m 165.9768,87.1695 0.0605,-0.1209"
           id="path78968" />
        <path
           d="m 166.0373,87.0486 0.0605,-0.0605"
           id="path78970" />
        <path
           d="m 166.0978,86.9881 0.1209,-0.0605"
           id="path78972" />
        <path
           d="m 167.2468,88.1976 h 0.2419"
           id="path78974" />
        <path
           d="m 167.4887,88.1976 0.121,-0.0604"
           id="path78976" />
        <path
           d="m 167.6097,88.1372 0.0604,-0.0605"
           id="path78978" />
        <path
           d="m 167.6701,88.0767 0.121,-0.1815"
           id="path78980" />
        <path
           d="m 167.7911,87.8952 0.0605,-0.2419"
           id="path78982" />
        <path
           d="M 167.8516,87.6533 V 87.1695"
           id="path78984" />
        <path
           d="m 167.8516,87.1695 -0.0605,-0.1209"
           id="path78986" />
        <path
           d="m 167.7911,87.0486 -0.0605,-0.0605"
           id="path78988" />
        <path
           d="m 167.7306,86.9881 -0.1209,-0.0605"
           id="path78990" />
        <path
           d="m 167.6097,86.9276 h -0.2419"
           id="path78992" />
        <path
           d="m 167.3678,86.9276 -0.121,0.0605"
           id="path78994" />
        <path
           d="m 167.2468,86.9881 -0.0605,0.0605"
           id="path78996" />
        <path
           d="m 167.1863,87.0486 -0.0604,0.1209"
           id="path78998" />
        <path
           d="m 167.1259,87.1695 v 0.3024"
           id="path79000" />
        <path
           d="m 167.1259,87.4719 0.0604,0.121"
           id="path79002" />
        <path
           d="m 167.1863,87.5929 0.0605,0.0604"
           id="path79004" />
        <path
           d="m 167.2468,87.6533 0.121,0.0605"
           id="path79006" />
        <path
           d="m 167.3678,87.7138 h 0.2419"
           id="path79008" />
        <path
           d="m 167.6097,87.7138 0.1209,-0.0605"
           id="path79010" />
        <path
           d="m 167.7306,87.6533 0.0605,-0.0604"
           id="path79012" />
        <path
           d="m 167.7911,87.5929 0.0605,-0.121"
           id="path79014" />
      </g>
      <path
         d="m 153.67,77.47 h -2.54"
         id="path79018" />
    </g>
    <g
       style="fill:#cb4b16;fill-opacity:0;stroke:#cb4b16;stroke-width:0.381;stroke-linecap:round;stroke-linejoin:round;stroke-opacity:1"
       id="g79022" />
    <g
       style="fill:#cb4b16;fill-opacity:0;stroke:#cb4b16;stroke-width:0.1524;stroke-linecap:round;stroke-linejoin:round;stroke-opacity:1"
       id="g79080">
      <text
         x="154.686"
         y="78.105003"
         textLength="4.8599"
         font-size="1.6933px"
         lengthAdjust="spacingAndGlyphs"
         text-anchor="start"
         opacity="0"
         id="text79024">UART</text>
      <g
         class="stroked-text"
         id="g79078">
        <desc
           id="desc79026">UART</desc>
        <path
           d="m 155.0885,76.7795 v 1.0281"
           id="path79028" />
        <path
           d="m 155.0885,77.8076 0.0605,0.121"
           id="path79030" />
        <path
           d="m 155.149,77.9286 0.0605,0.0605"
           id="path79032" />
        <path
           d="m 155.2095,77.9891 0.1209,0.0604"
           id="path79034" />
        <path
           d="m 155.3304,78.0495 h 0.2419"
           id="path79036" />
        <path
           d="m 155.5723,78.0495 0.121,-0.0604"
           id="path79038" />
        <path
           d="m 155.6933,77.9891 0.0605,-0.0605"
           id="path79040" />
        <path
           d="m 155.7538,77.9286 0.0604,-0.121"
           id="path79042" />
        <path
           d="M 155.8142,77.8076 V 76.7795"
           id="path79044" />
        <path
           d="m 156.3586,77.6867 h 0.6047"
           id="path79046" />
        <path
           d="m 156.2376,78.0495 0.4233,-1.27"
           id="path79048" />
        <path
           d="m 156.6609,76.7795 0.4234,1.27"
           id="path79050" />
        <path
           d="M 158.2333,78.0495 157.81,77.4448"
           id="path79052" />
        <path
           d="m 157.5076,78.0495 v -1.27"
           id="path79054" />
        <path
           d="m 157.5076,76.7795 h 0.4838"
           id="path79056" />
        <path
           d="m 157.9914,76.7795 0.121,0.0605"
           id="path79058" />
        <path
           d="m 158.1124,76.84 0.0605,0.0605"
           id="path79060" />
        <path
           d="m 158.1729,76.9005 0.0604,0.1209"
           id="path79062" />
        <path
           d="m 158.2333,77.0214 v 0.1815"
           id="path79064" />
        <path
           d="m 158.2333,77.2029 -0.0604,0.1209"
           id="path79066" />
        <path
           d="m 158.1729,77.3238 -0.0605,0.0605"
           id="path79068" />
        <path
           d="m 158.1124,77.3843 -0.121,0.0605"
           id="path79070" />
        <path
           d="m 157.9914,77.4448 h -0.4838"
           id="path79072" />
        <path
           d="m 158.5962,76.7795 h 0.7257"
           id="path79074" />
        <path
           d="m 158.9591,78.0495 v -1.27"
           id="path79076" />
      </g>
    </g>
  </g>
  <g
     style="fill:#cb4b16;fill-opacity:0;stroke:#cb4b16;stroke-width:0.1524;stroke-linecap:round;stroke-linejoin:round;stroke-opacity:1"
     id="g79324"
     transform="translate(-102.6795,-74.7395)">
    <g
       id="g79084" />
    <g
       style="fill:#586e75;fill-opacity:0;stroke:#586e75;stroke-width:0.1524;stroke-linecap:round;stroke-linejoin:round;stroke-opacity:1"
       id="g79086" />
    <g
       style="fill:#586e75;fill-opacity:0;stroke:#586e75;stroke-width:0.381;stroke-linecap:round;stroke-linejoin:round;stroke-opacity:1"
       id="g79262">
      <rect
         x="153.67"
         y="102.87"
         width="20.32"
         height="25.4"
         rx="0.000000"
         id="rect79088" />
      <text
         x="163.83"
         y="116.205"
         textLength="9.4160004"
         font-size="1.6933px"
         lengthAdjust="spacingAndGlyphs"
         text-anchor="middle"
         opacity="0"
         id="text79090">TMC2209</text>
      <g
         class="stroked-text"
         id="g79258">
        <desc
           id="desc79092">TMC2209</desc>
        <path
           d="m 159.6874,114.8676 h 0.7257"
           id="path79094" />
        <path
           d="m 160.0503,116.1376 v -1.27"
           id="path79096" />
        <path
           d="m 160.8364,116.1376 v -1.27"
           id="path79098" />
        <path
           d="m 160.8364,114.8676 0.4234,0.9072"
           id="path79100" />
        <path
           d="m 161.2598,115.7748 0.4233,-0.9072"
           id="path79102" />
        <path
           d="m 161.6831,114.8676 v 1.27"
           id="path79104" />
        <path
           d="m 163.0135,116.0167 -0.0604,0.0605"
           id="path79106" />
        <path
           d="m 162.9531,116.0772 -0.1815,0.0604"
           id="path79108" />
        <path
           d="m 162.7716,116.1376 h -0.1209"
           id="path79110" />
        <path
           d="m 162.6507,116.1376 -0.1814,-0.0604"
           id="path79112" />
        <path
           d="m 162.4693,116.0772 -0.121,-0.121"
           id="path79114" />
        <path
           d="m 162.3483,115.9562 -0.0605,-0.121"
           id="path79116" />
        <path
           d="m 162.2878,115.8352 -0.0604,-0.2419"
           id="path79118" />
        <path
           d="m 162.2274,115.5933 v -0.1814"
           id="path79120" />
        <path
           d="m 162.2274,115.4119 0.0604,-0.2419"
           id="path79122" />
        <path
           d="m 162.2878,115.17 0.0605,-0.1209"
           id="path79124" />
        <path
           d="m 162.3483,115.0491 0.121,-0.121"
           id="path79126" />
        <path
           d="m 162.4693,114.9281 0.1814,-0.0605"
           id="path79128" />
        <path
           d="m 162.6507,114.8676 h 0.1209"
           id="path79130" />
        <path
           d="m 162.7716,114.8676 0.1815,0.0605"
           id="path79132" />
        <path
           d="m 162.9531,114.9281 0.0604,0.0605"
           id="path79134" />
        <path
           d="m 163.4974,114.9886 0.0604,-0.0605"
           id="path79136" />
        <path
           d="m 163.5578,114.9281 0.121,-0.0605"
           id="path79138" />
        <path
           d="m 163.6788,114.8676 h 0.3024"
           id="path79140" />
        <path
           d="m 163.9812,114.8676 0.1209,0.0605"
           id="path79142" />
        <path
           d="m 164.1021,114.9281 0.0605,0.0605"
           id="path79144" />
        <path
           d="m 164.1626,114.9886 0.0605,0.1209"
           id="path79146" />
        <path
           d="m 164.2231,115.1095 v 0.121"
           id="path79148" />
        <path
           d="m 164.2231,115.2305 -0.0605,0.1814"
           id="path79150" />
        <path
           d="m 164.1626,115.4119 -0.7257,0.7257"
           id="path79152" />
        <path
           d="m 163.4369,116.1376 h 0.7862"
           id="path79154" />
        <path
           d="m 164.7069,114.9886 0.0604,-0.0605"
           id="path79156" />
        <path
           d="m 164.7673,114.9281 0.121,-0.0605"
           id="path79158" />
        <path
           d="m 164.8883,114.8676 h 0.3024"
           id="path79160" />
        <path
           d="m 165.1907,114.8676 0.1209,0.0605"
           id="path79162" />
        <path
           d="m 165.3116,114.9281 0.0605,0.0605"
           id="path79164" />
        <path
           d="m 165.3721,114.9886 0.0605,0.1209"
           id="path79166" />
        <path
           d="m 165.4326,115.1095 v 0.121"
           id="path79168" />
        <path
           d="m 165.4326,115.2305 -0.0605,0.1814"
           id="path79170" />
        <path
           d="m 165.3721,115.4119 -0.7257,0.7257"
           id="path79172" />
        <path
           d="m 164.6464,116.1376 h 0.7862"
           id="path79174" />
        <path
           d="m 166.2187,114.8676 h 0.121"
           id="path79176" />
        <path
           d="m 166.3397,114.8676 0.1209,0.0605"
           id="path79178" />
        <path
           d="m 166.4606,114.9281 0.0605,0.0605"
           id="path79180" />
        <path
           d="m 166.5211,114.9886 0.0605,0.1209"
           id="path79182" />
        <path
           d="m 166.5816,115.1095 0.0605,0.2419"
           id="path79184" />
        <path
           d="m 166.6421,115.3514 v 0.3024"
           id="path79186" />
        <path
           d="m 166.6421,115.6538 -0.0605,0.2419"
           id="path79188" />
        <path
           d="m 166.5816,115.8957 -0.0605,0.121"
           id="path79190" />
        <path
           d="m 166.5211,116.0167 -0.0605,0.0605"
           id="path79192" />
        <path
           d="m 166.4606,116.0772 -0.1209,0.0604"
           id="path79194" />
        <path
           d="m 166.3397,116.1376 h -0.121"
           id="path79196" />
        <path
           d="m 166.2187,116.1376 -0.1209,-0.0604"
           id="path79198" />
        <path
           d="m 166.0978,116.0772 -0.0605,-0.0605"
           id="path79200" />
        <path
           d="m 166.0373,116.0167 -0.0605,-0.121"
           id="path79202" />
        <path
           d="m 165.9768,115.8957 -0.0604,-0.2419"
           id="path79204" />
        <path
           d="m 165.9164,115.6538 v -0.3024"
           id="path79206" />
        <path
           d="m 165.9164,115.3514 0.0604,-0.2419"
           id="path79208" />
        <path
           d="m 165.9768,115.1095 0.0605,-0.1209"
           id="path79210" />
        <path
           d="m 166.0373,114.9886 0.0605,-0.0605"
           id="path79212" />
        <path
           d="m 166.0978,114.9281 0.1209,-0.0605"
           id="path79214" />
        <path
           d="m 167.2468,116.1376 h 0.2419"
           id="path79216" />
        <path
           d="m 167.4887,116.1376 0.121,-0.0604"
           id="path79218" />
        <path
           d="m 167.6097,116.0772 0.0604,-0.0605"
           id="path79220" />
        <path
           d="m 167.6701,116.0167 0.121,-0.1815"
           id="path79222" />
        <path
           d="m 167.7911,115.8352 0.0605,-0.2419"
           id="path79224" />
        <path
           d="m 167.8516,115.5933 v -0.4838"
           id="path79226" />
        <path
           d="m 167.8516,115.1095 -0.0605,-0.1209"
           id="path79228" />
        <path
           d="m 167.7911,114.9886 -0.0605,-0.0605"
           id="path79230" />
        <path
           d="m 167.7306,114.9281 -0.1209,-0.0605"
           id="path79232" />
        <path
           d="m 167.6097,114.8676 h -0.2419"
           id="path79234" />
        <path
           d="m 167.3678,114.8676 -0.121,0.0605"
           id="path79236" />
        <path
           d="m 167.2468,114.9281 -0.0605,0.0605"
           id="path79238" />
        <path
           d="m 167.1863,114.9886 -0.0604,0.1209"
           id="path79240" />
        <path
           d="m 167.1259,115.1095 v 0.3024"
           id="path79242" />
        <path
           d="m 167.1259,115.4119 0.0604,0.121"
           id="path79244" />
        <path
           d="m 167.1863,115.5329 0.0605,0.0604"
           id="path79246" />
        <path
           d="m 167.2468,115.5933 0.121,0.0605"
           id="path79248" />
        <path
           d="m 167.3678,115.6538 h 0.2419"
           id="path79250" />
        <path
           d="m 167.6097,115.6538 0.1209,-0.0605"
           id="path79252" />
        <path
           d="m 167.7306,115.5933 0.0605,-0.0604"
           id="path79254" />
        <path
           d="m 167.7911,115.5329 0.0605,-0.121"
           id="path79256" />
      </g>
      <path
         d="m 153.67,105.41 h -2.54"
         id="path79260" />
    </g>
    <g
       style="fill:#cb4b16;fill-opacity:0;stroke:#cb4b16;stroke-width:0.381;stroke-linecap:round;stroke-linejoin:round;stroke-opacity:1"
       id="g79264" />
    <g
       style="fill:#cb4b16;fill-opacity:0;stroke:#cb4b16;stroke-width:0.1524;stroke-linecap:round;stroke-linejoin:round;stroke-opacity:1"
       id="g79322">
      <text
         x="154.686"
         y="106.045"
         textLength="4.8599"
         font-size="1.6933px"
         lengthAdjust="spacingAndGlyphs"
         text-anchor="start"
         opacity="0"
         id="text79266">UART</text>
      <g
         class="stroked-text"
         id="g79320">
        <desc
           id="desc79268">UART</desc>
        <path
           d="m 155.0885,104.7195 v 1.0281"
           id="path79270" />
        <path
           d="m 155.0885,105.7476 0.0605,0.121"
           id="path79272" />
        <path
           d="m 155.149,105.8686 0.0605,0.0605"
           id="path79274" />
        <path
           d="m 155.2095,105.9291 0.1209,0.0604"
           id="path79276" />
        <path
           d="m 155.3304,105.9895 h 0.2419"
           id="path79278" />
        <path
           d="m 155.5723,105.9895 0.121,-0.0604"
           id="path79280" />
        <path
           d="m 155.6933,105.9291 0.0605,-0.0605"
           id="path79282" />
        <path
           d="m 155.7538,105.8686 0.0604,-0.121"
           id="path79284" />
        <path
           d="m 155.8142,105.7476 v -1.0281"
           id="path79286" />
        <path
           d="m 156.3586,105.6267 h 0.6047"
           id="path79288" />
        <path
           d="m 156.2376,105.9895 0.4233,-1.27"
           id="path79290" />
        <path
           d="m 156.6609,104.7195 0.4234,1.27"
           id="path79292" />
        <path
           d="M 158.2333,105.9895 157.81,105.3848"
           id="path79294" />
        <path
           d="m 157.5076,105.9895 v -1.27"
           id="path79296" />
        <path
           d="m 157.5076,104.7195 h 0.4838"
           id="path79298" />
        <path
           d="m 157.9914,104.7195 0.121,0.0605"
           id="path79300" />
        <path
           d="m 158.1124,104.78 0.0605,0.0605"
           id="path79302" />
        <path
           d="m 158.1729,104.8405 0.0604,0.1209"
           id="path79304" />
        <path
           d="m 158.2333,104.9614 v 0.1815"
           id="path79306" />
        <path
           d="m 158.2333,105.1429 -0.0604,0.1209"
           id="path79308" />
        <path
           d="m 158.1729,105.2638 -0.0605,0.0605"
           id="path79310" />
        <path
           d="m 158.1124,105.3243 -0.121,0.0605"
           id="path79312" />
        <path
           d="m 157.9914,105.3848 h -0.4838"
           id="path79314" />
        <path
           d="m 158.5962,104.7195 h 0.7257"
           id="path79316" />
        <path
           d="m 158.9591,105.9895 v -1.27"
           id="path79318" />
      </g>
    </g>
  </g>
  <g
     style="fill:#cb4b16;fill-opacity:0;stroke:#cb4b16;stroke-width:0.1524;stroke-linecap:round;stroke-linejoin:round;stroke-opacity:1"
     id="g79326"
     transform="translate(-102.6795,-74.7395)" />
  <g
     style="fill:#859900;fill-opacity:0;stroke:#859900;stroke-width:0.1524;stroke-linecap:round;stroke-linejoin:round;stroke-opacity:1"
     id="g79328"
     transform="translate(-102.6795,-74.7395)" />
  <g
     style="fill:#859900;fill-opacity:0;stroke:#859900;stroke-width:0.381;stroke-linecap:round;stroke-linejoin:round;stroke-opacity:1"
     id="g79332"
     transform="translate(-102.6795,-74.7395)">
    <path
       d="m 125.73,77.47 h 25.4"
       id="path79330" />
  </g>
  <g
     style="fill:#859900;fill-opacity:0;stroke:#859900;stroke-width:0.1524;stroke-linecap:round;stroke-linejoin:round;stroke-opacity:1"
     id="g79334"
     transform="translate(-102.6795,-74.7395)" />
  <g
     style="fill:#859900;fill-opacity:0;stroke:#859900;stroke-width:0.381;stroke-linecap:round;stroke-linejoin:round;stroke-opacity:1"
     id="g79338"
     transform="translate(-102.6795,-74.7395)">
    <path
       d="m 125.73,90.17 h 22.86"
       id="path79336" />
  </g>
  <g
     style="fill:#859900;fill-opacity:0;stroke:#859900;stroke-width:0.1524;stroke-linecap:round;stroke-linejoin:round;stroke-opacity:1"
     id="g79340"
     transform="translate(-102.6795,-74.7395)" />
  <g
     style="fill:#859900;fill-opacity:0;stroke:#859900;stroke-width:0.381;stroke-linecap:round;stroke-linejoin:round;stroke-opacity:1"
     id="g79344"
     transform="translate(-102.6795,-74.7395)">
    <path
       d="m 148.59,90.17 v 15.24"
       id="path79342" />
  </g>
  <g
     style="fill:#859900;fill-opacity:0;stroke:#859900;stroke-width:0.1524;stroke-linecap:round;stroke-linejoin:round;stroke-opacity:1"
     id="g79346"
     transform="translate(-102.6795,-74.7395)" />
  <g
     style="fill:#859900;fill-opacity:0;stroke:#859900;stroke-width:0.381;stroke-linecap:round;stroke-linejoin:round;stroke-opacity:1"
     id="g79350"
     transform="translate(-102.6795,-74.7395)">
    <path
       d="m 148.59,105.41 h 2.54"
       id="path79348" />
  </g>
  <g
     style="fill:#859900;fill-opacity:0;stroke:#859900;stroke-width:0.1524;stroke-linecap:round;stroke-linejoin:round;stroke-opacity:1"
     id="g79352"
     transform="translate(-102.6795,-74.7395)" />
  <g
     style="fill:#6c71c4;fill-opacity:0;stroke:#6c71c4;stroke-width:0.1524;stroke-linecap:round;stroke-linejoin:round;stroke-opacity:1"
     id="g79362"
     transform="translate(-102.6795,-74.7395)">
    <path
       d="m 125.1204,79.4004 1.2192,1.2192"
       id="path79354" />
    <path
       d="m 126.3396,79.4004 -1.2192,1.2192"
       id="path79356" />
    <path
       d="m 125.1204,92.1004 1.2192,1.2192"
       id="path79358" />
    <path
       d="m 126.3396,92.1004 -1.2192,1.2192"
       id="path79360" />
  </g>
</svg>
